<svg width="16" height="16" viewBox="0 0 16 16" fill="none" xmlns="http://www.w3.org/2000/svg">
<path d="M8.00033 9.55C12.0483 9.55 15.3337 11.0851 15.3337 12.9722V15.4167H0.666992V12.9722C0.666992 11.0851 3.95233 9.55 8.00033 9.55ZM14.3559 12.9722C14.3559 11.6229 11.5105 10.5278 8.00033 10.5278C4.4901 10.5278 1.64477 11.6229 1.64477 12.9722V14.4389H14.3559V12.9722ZM8.00033 0.75C8.90796 0.75 9.77841 1.11055 10.4202 1.75235C11.062 2.39414 11.4225 3.26459 11.4225 4.17222C11.4225 5.07985 11.062 5.95031 10.4202 6.5921C9.77841 7.23389 8.90796 7.59444 8.00033 7.59444C7.0927 7.59444 6.22224 7.23389 5.58045 6.5921C4.93866 5.95031 4.5781 5.07985 4.5781 4.17222C4.5781 3.26459 4.93866 2.39414 5.58045 1.75235C6.22224 1.11055 7.0927 0.75 8.00033 0.75ZM8.00033 1.72778C7.35202 1.72778 6.73026 1.98532 6.27184 2.44374C5.81342 2.90216 5.55588 3.52392 5.55588 4.17222C5.55588 4.82053 5.81342 5.44228 6.27184 5.90071C6.73026 6.35913 7.35202 6.61667 8.00033 6.61667C8.64863 6.61667 9.27039 6.35913 9.72881 5.90071C10.1872 5.44228 10.4448 4.82053 10.4448 4.17222C10.4448 3.52392 10.1872 2.90216 9.72881 2.44374C9.27039 1.98532 8.64863 1.72778 8.00033 1.72778Z" fill="#111810"/>
</svg>
