<svg width="24" height="24" viewBox="0 0 24 24" fill="none" xmlns="http://www.w3.org/2000/svg">
<g clip-path="url(#clip0_3444_1102)">
<mask id="mask0_3444_1102" style="mask-type:luminance" maskUnits="userSpaceOnUse" x="0" y="0" width="24" height="24">
<path d="M12 24C5.37216 24 0 18.6278 0 12C0 5.37216 5.37216 0 12 0C18.6278 0 24 5.37216 24 12C24 18.6278 18.6278 24 12 24Z" fill="white"/>
</mask>
<g mask="url(#mask0_3444_1102)">
<path fill-rule="evenodd" clip-rule="evenodd" d="M11.9999 12L-4.9729 11.8954L-4.95754 11.2714L11.9999 12Z" fill="#FEFEFF"/>
<path fill-rule="evenodd" clip-rule="evenodd" d="M11.9999 12L-4.96045 11.3751L-4.93453 10.8547L11.9999 12Z" fill="#FDFEFF"/>
<path fill-rule="evenodd" clip-rule="evenodd" d="M12 12L-4.94019 10.9594L-4.90179 10.44L12 12Z" fill="#FCFDFF"/>
<path fill-rule="evenodd" clip-rule="evenodd" d="M12 12L-4.90942 10.5437L-4.85854 10.0253L12 12Z" fill="#FBFCFF"/>
<path fill-rule="evenodd" clip-rule="evenodd" d="M12 12L-4.86816 10.129L-4.8048 9.61249L12 12Z" fill="#FAFCFF"/>
<path fill-rule="evenodd" clip-rule="evenodd" d="M11.9999 12L-4.81738 9.7162L-4.74154 9.20068L11.9999 12Z" fill="#F9FBFF"/>
<path fill-rule="evenodd" clip-rule="evenodd" d="M12 12.0001L-4.75586 9.30341L-4.66754 8.79077L12 12.0001Z" fill="#F8FAFF"/>
<path fill-rule="evenodd" clip-rule="evenodd" d="M12 12L-4.68481 8.89347L-4.58401 8.38275L12 12Z" fill="#F7FAFF"/>
<path fill-rule="evenodd" clip-rule="evenodd" d="M11.9999 12L-4.60425 8.48548L-4.49001 7.97668L11.9999 12Z" fill="#F6F9FF"/>
<path fill-rule="evenodd" clip-rule="evenodd" d="M12 12L-4.51294 8.07845L-4.38622 7.57349L12 12Z" fill="#F5F8FF"/>
<path fill-rule="evenodd" clip-rule="evenodd" d="M11.9998 12L-4.41138 7.67426L-4.27314 7.17218L11.9998 12Z" fill="#F4F8FF"/>
<path fill-rule="evenodd" clip-rule="evenodd" d="M12 12L-4.30078 7.27296L-4.1491 6.77472L12 12Z" fill="#F3F7FF"/>
<path fill-rule="evenodd" clip-rule="evenodd" d="M11.9999 12L-4.17993 6.87459L-4.01577 6.38019L11.9999 12Z" fill="#F2F6FF"/>
<path fill-rule="evenodd" clip-rule="evenodd" d="M12 12L-4.04932 6.47909L-3.87364 5.98853L12 12Z" fill="#F1F6FF"/>
<path fill-rule="evenodd" clip-rule="evenodd" d="M12 12L-3.9082 6.08641L-3.721 5.60065L12 12Z" fill="#F0F5FF"/>
<path fill-rule="evenodd" clip-rule="evenodd" d="M11.9999 12L-3.75854 5.69763L-3.55982 5.21667L11.9999 12Z" fill="#EFF4FF"/>
<path fill-rule="evenodd" clip-rule="evenodd" d="M11.9999 12L-3.59912 5.31266L-3.38792 4.83746L11.9999 12Z" fill="#EEF3FF"/>
<path fill-rule="evenodd" clip-rule="evenodd" d="M11.9999 12L-3.43018 4.9325L-3.20746 4.4621L11.9999 12Z" fill="#EDF3FF"/>
<path fill-rule="evenodd" clip-rule="evenodd" d="M11.9998 12L-3.25269 4.55618L-3.01845 4.09058L11.9998 12Z" fill="#ECF2FF"/>
<path fill-rule="evenodd" clip-rule="evenodd" d="M11.9999 12L-3.06543 4.18367L-2.81967 3.72479L11.9999 12Z" fill="#EBF1FF"/>
<path fill-rule="evenodd" clip-rule="evenodd" d="M11.9998 12L-2.86865 3.817L-2.61233 3.36292L11.9998 12Z" fill="#EAF1FF"/>
<path fill-rule="evenodd" clip-rule="evenodd" d="M12 12L-2.66309 3.45409L-2.39525 3.00769L12 12Z" fill="#E9F0FF"/>
<path fill-rule="evenodd" clip-rule="evenodd" d="M12 12.0001L-2.44897 3.09701L-2.17057 2.65637L12 12.0001Z" fill="#E8EFFF"/>
<path fill-rule="evenodd" clip-rule="evenodd" d="M11.9999 12L-2.22632 2.74467L-1.9364 2.31171L11.9999 12Z" fill="#E7EFFF"/>
<path fill-rule="evenodd" clip-rule="evenodd" d="M12 12L-1.99487 2.39812L-1.69535 1.97284L12 12Z" fill="#E6EEFF"/>
<path fill-rule="evenodd" clip-rule="evenodd" d="M12 12L-1.75488 2.05827L-1.4448 1.63971L12 12Z" fill="#E5EDFF"/>
<path fill-rule="evenodd" clip-rule="evenodd" d="M11.9999 12L-1.50732 1.7232L-1.18668 1.31232L11.9999 12Z" fill="#E4EDFF"/>
<path fill-rule="evenodd" clip-rule="evenodd" d="M11.9999 12L-1.25098 1.39492L-0.920737 0.992676L11.9999 12Z" fill="#E3ECFF"/>
<path fill-rule="evenodd" clip-rule="evenodd" d="M11.9998 12L-0.986084 1.07327L-0.646244 0.678711L11.9998 12Z" fill="#E2EBFF"/>
<path fill-rule="evenodd" clip-rule="evenodd" d="M11.9999 12L-0.714355 0.757441L-0.364915 0.371521L11.9999 12Z" fill="#E1EBFF"/>
<path fill-rule="evenodd" clip-rule="evenodd" d="M11.9998 12L-0.435059 0.449301L-0.0760186 0.0720215L11.9998 12Z" fill="#E0EAFF"/>
<path fill-rule="evenodd" clip-rule="evenodd" d="M11.9999 12L-0.147949 0.147876L0.220691 -0.220764L11.9999 12Z" fill="#DFE9FF"/>
<path fill-rule="evenodd" clip-rule="evenodd" d="M11.9999 12L0.147705 -0.14784L0.524025 -0.50592L11.9999 12Z" fill="#DEE9FF"/>
<path fill-rule="evenodd" clip-rule="evenodd" d="M11.9999 12L0.449219 -0.434862L0.835139 -0.784302L11.9999 12Z" fill="#DDE8FF"/>
<path fill-rule="evenodd" clip-rule="evenodd" d="M11.9999 12L0.757324 -0.714237L1.15188 -1.05408L11.9999 12Z" fill="#DCE7FF"/>
<path fill-rule="evenodd" clip-rule="evenodd" d="M12 12L1.07324 -0.985922L1.47548 -1.31616L12 12Z" fill="#DBE7FF"/>
<path fill-rule="evenodd" clip-rule="evenodd" d="M11.9999 12L1.39478 -1.25088L1.80566 -1.57056L11.9999 12Z" fill="#DAE6FF"/>
<path fill-rule="evenodd" clip-rule="evenodd" d="M11.9999 12L1.72314 -1.50718L2.1417 -1.81726L11.9999 12Z" fill="#D9E5FF"/>
<path fill-rule="evenodd" clip-rule="evenodd" d="M11.9999 12L2.05811 -1.75486L2.48339 -2.05438L11.9999 12Z" fill="#D8E5FF"/>
<path fill-rule="evenodd" clip-rule="evenodd" d="M11.9999 12L2.39795 -1.99485L2.83091 -2.28381L11.9999 12Z" fill="#D7E4FF"/>
<path fill-rule="evenodd" clip-rule="evenodd" d="M12 12L2.74463 -2.22624L3.18527 -2.50464L12 12Z" fill="#D6E3FF"/>
<path fill-rule="evenodd" clip-rule="evenodd" d="M12 12L3.09692 -2.44896L3.54332 -2.7168L12 12Z" fill="#D5E3FF"/>
<path fill-rule="evenodd" clip-rule="evenodd" d="M12 12L3.4541 -2.66299L3.90722 -2.91931L12 12Z" fill="#D4E2FF"/>
<path fill-rule="evenodd" clip-rule="evenodd" d="M11.9999 12L3.81689 -2.86844L4.27577 -3.1142L11.9999 12Z" fill="#D3E1FF"/>
<path fill-rule="evenodd" clip-rule="evenodd" d="M11.9999 12L4.18359 -3.06524L4.64919 -3.29852L11.9999 12Z" fill="#D2E0FF"/>
<path fill-rule="evenodd" clip-rule="evenodd" d="M12 12L4.55615 -3.25248L5.02655 -3.47424L12 12Z" fill="#D1E0FF"/>
<path fill-rule="evenodd" clip-rule="evenodd" d="M11.9999 12L4.93237 -3.43004L5.40853 -3.64124L11.9999 12Z" fill="#D0DFFF"/>
<path fill-rule="evenodd" clip-rule="evenodd" d="M11.9999 12L5.3125 -3.59903L5.79442 -3.79871L11.9999 12Z" fill="#CFDEFF"/>
<path fill-rule="evenodd" clip-rule="evenodd" d="M11.9999 12L5.69751 -3.75836L6.18423 -3.94556L11.9999 12Z" fill="#CEDEFF"/>
<path fill-rule="evenodd" clip-rule="evenodd" d="M11.9998 12L6.08618 -3.90812L6.57674 -4.0838L11.9998 12Z" fill="#CDDDFF"/>
<path fill-rule="evenodd" clip-rule="evenodd" d="M12 12L6.479 -4.04925L6.9734 -4.21149L12 12Z" fill="#CCDCFF"/>
<path fill-rule="evenodd" clip-rule="evenodd" d="M12 12L6.87451 -4.17985L7.37275 -4.33057L12 12Z" fill="#CBDCFF"/>
<path fill-rule="evenodd" clip-rule="evenodd" d="M12 12L7.27295 -4.30079L7.77503 -4.43903L12 12Z" fill="#CADBFF"/>
<path fill-rule="evenodd" clip-rule="evenodd" d="M11.9998 12L7.67407 -4.41118L8.17903 -4.5379L11.9998 12Z" fill="#C9DAFF"/>
<path fill-rule="evenodd" clip-rule="evenodd" d="M12 12L8.07837 -4.51294L8.58621 -4.62622L12 12Z" fill="#C8DAFF"/>
<path fill-rule="evenodd" clip-rule="evenodd" d="M11.9999 12L8.48535 -4.60416L8.99511 -4.70496L11.9999 12Z" fill="#C7D9FF"/>
<path fill-rule="evenodd" clip-rule="evenodd" d="M11.9999 12L8.89331 -4.68477L9.40595 -4.77405L11.9999 12Z" fill="#C6D8FF"/>
<path fill-rule="evenodd" clip-rule="evenodd" d="M11.9999 12L9.30322 -4.75584L9.81874 -4.83264L11.9999 12Z" fill="#C5D8FF"/>
<path fill-rule="evenodd" clip-rule="evenodd" d="M11.9999 12L9.71606 -4.81726L10.2325 -4.88062L11.9999 12Z" fill="#C4D7FF"/>
<path fill-rule="evenodd" clip-rule="evenodd" d="M11.9999 12L10.1289 -4.86813L10.6473 -4.91901L11.9999 12Z" fill="#C3D6FF"/>
<path fill-rule="evenodd" clip-rule="evenodd" d="M12 12L10.5437 -4.90941L11.0631 -4.94781L12 12Z" fill="#C2D6FF"/>
<path fill-rule="evenodd" clip-rule="evenodd" d="M11.9999 12L10.9592 -4.94013L11.4795 -4.96509L11.9999 12Z" fill="#C1D5FF"/>
<path fill-rule="evenodd" clip-rule="evenodd" d="M12 12L11.375 -4.9603L11.8953 -4.97278L12 12Z" fill="#C0D4FF"/>
<path fill-rule="evenodd" clip-rule="evenodd" d="M11.9998 12L11.7915 -4.97089H12.3118L11.9998 12Z" fill="#BFD4FF"/>
<path fill-rule="evenodd" clip-rule="evenodd" d="M12 12L12.2083 -4.97089L12.7286 -4.95745L12 12Z" fill="#BED3FF"/>
<path fill-rule="evenodd" clip-rule="evenodd" d="M12 12L12.625 -4.96033L13.1443 -4.93441L12 12Z" fill="#BDD2FF"/>
<path fill-rule="evenodd" clip-rule="evenodd" d="M12 12L13.0406 -4.94012L13.56 -4.90172L12 12Z" fill="#BCD2FF"/>
<path fill-rule="evenodd" clip-rule="evenodd" d="M12 12L13.4563 -4.90942L13.9747 -4.85854L12 12Z" fill="#BBD1FF"/>
<path fill-rule="evenodd" clip-rule="evenodd" d="M12 12L13.8701 -4.86816L14.3875 -4.8048L12 12Z" fill="#BAD0FF"/>
<path fill-rule="evenodd" clip-rule="evenodd" d="M12 12L14.2838 -4.81726L14.7994 -4.74142L12 12Z" fill="#B9D0FF"/>
<path fill-rule="evenodd" clip-rule="evenodd" d="M12 12L14.6957 -4.7558L15.2093 -4.66748L12 12Z" fill="#B8CFFF"/>
<path fill-rule="evenodd" clip-rule="evenodd" d="M12 12L15.1066 -4.68475L15.6173 -4.58395L12 12Z" fill="#B7CEFF"/>
<path fill-rule="evenodd" clip-rule="evenodd" d="M12 12L15.5146 -4.60413L16.0234 -4.48989L12 12Z" fill="#B6CDFF"/>
<path fill-rule="evenodd" clip-rule="evenodd" d="M12 12L15.9216 -4.51294L16.4266 -4.38622L12 12Z" fill="#B5CDFF"/>
<path fill-rule="evenodd" clip-rule="evenodd" d="M12 12L16.3258 -4.41119L16.8269 -4.27295L12 12Z" fill="#B4CCFF"/>
<path fill-rule="evenodd" clip-rule="evenodd" d="M12 12L16.727 -4.30078L17.2253 -4.1491L12 12Z" fill="#B3CBFF"/>
<path fill-rule="evenodd" clip-rule="evenodd" d="M12 12L17.1254 -4.17981L17.6198 -4.01565L12 12Z" fill="#B2CBFF"/>
<path fill-rule="evenodd" clip-rule="evenodd" d="M12 12L17.521 -4.04926L18.0115 -3.87358L12 12Z" fill="#B1CAFF"/>
<path fill-rule="evenodd" clip-rule="evenodd" d="M12 12L17.9136 -3.90814L18.3994 -3.72094L12 12Z" fill="#B0C9FF"/>
<path fill-rule="evenodd" clip-rule="evenodd" d="M12 12L18.3014 -3.75836L18.7834 -3.55964L12 12Z" fill="#AFC9FF"/>
<path fill-rule="evenodd" clip-rule="evenodd" d="M12 12L18.6864 -3.599L19.1626 -3.3878L12 12Z" fill="#AEC8FF"/>
<path fill-rule="evenodd" clip-rule="evenodd" d="M12 12L19.0675 -3.43005L19.5379 -3.20733L12 12Z" fill="#ADC7FF"/>
<path fill-rule="evenodd" clip-rule="evenodd" d="M12 12L19.4438 -3.25244L19.9094 -3.0182L12 12Z" fill="#ACC7FF"/>
<path fill-rule="evenodd" clip-rule="evenodd" d="M12 12L19.8163 -3.06525L20.2752 -2.81949L12 12Z" fill="#ABC6FF"/>
<path fill-rule="evenodd" clip-rule="evenodd" d="M12 12L20.183 -2.86847L20.6371 -2.61215L12 12Z" fill="#AAC5FF"/>
<path fill-rule="evenodd" clip-rule="evenodd" d="M12 12L20.5459 -2.66302L20.9923 -2.39518L12 12Z" fill="#A9C5FF"/>
<path fill-rule="evenodd" clip-rule="evenodd" d="M12 12L20.903 -2.44891L21.3427 -2.17051L12 12Z" fill="#A8C4FF"/>
<path fill-rule="evenodd" clip-rule="evenodd" d="M12 12L21.2554 -2.2262L21.6883 -1.93628L12 12Z" fill="#A7C3FF"/>
<path fill-rule="evenodd" clip-rule="evenodd" d="M12 12L21.6019 -1.99487L22.0272 -1.69535L12 12Z" fill="#A6C3FF"/>
<path fill-rule="evenodd" clip-rule="evenodd" d="M12 12L21.9418 -1.75488L22.3603 -1.4448L12 12Z" fill="#A5C2FF"/>
<path fill-rule="evenodd" clip-rule="evenodd" d="M12 12L22.2768 -1.5072L22.6867 -1.18656L12 12Z" fill="#A4C1FF"/>
<path fill-rule="evenodd" clip-rule="evenodd" d="M12 12L22.6051 -1.25085L23.0074 -0.920614L12 12Z" fill="#A3C1FF"/>
<path fill-rule="evenodd" clip-rule="evenodd" d="M12 12L22.9267 -0.985901L23.3213 -0.646061L12 12Z" fill="#A2C0FF"/>
<path fill-rule="evenodd" clip-rule="evenodd" d="M12 12L23.2426 -0.714233L23.6285 -0.364793L12 12Z" fill="#A1BFFF"/>
<path fill-rule="evenodd" clip-rule="evenodd" d="M12 12L23.5507 -0.434875L23.928 -0.0758355L12 12Z" fill="#A0BFFF"/>
<path fill-rule="evenodd" clip-rule="evenodd" d="M12 12L23.8522 -0.147827L24.2208 0.220813L12 12Z" fill="#9FBEFF"/>
<path fill-rule="evenodd" clip-rule="evenodd" d="M12 12L24.1469 0.147888L24.5059 0.524208L12 12Z" fill="#9EBDFF"/>
<path fill-rule="evenodd" clip-rule="evenodd" d="M12 12L24.4349 0.44928L24.7843 0.8352L12 12Z" fill="#9DBDFF"/>
<path fill-rule="evenodd" clip-rule="evenodd" d="M12 12L24.7142 0.757446L25.0541 1.15201L12 12Z" fill="#9CBCFF"/>
<path fill-rule="evenodd" clip-rule="evenodd" d="M12 12L24.9859 1.0733L25.3162 1.47554L12 12Z" fill="#9BBBFF"/>
<path fill-rule="evenodd" clip-rule="evenodd" d="M12 12L25.2509 1.3949L25.5706 1.80578L12 12Z" fill="#9ABAFF"/>
<path fill-rule="evenodd" clip-rule="evenodd" d="M12 12L25.5072 1.72321L25.8173 2.14177L12 12Z" fill="#99BAFF"/>
<path fill-rule="evenodd" clip-rule="evenodd" d="M12 12L25.7549 2.05829L26.0544 2.48357L12 12Z" fill="#98B9FF"/>
<path fill-rule="evenodd" clip-rule="evenodd" d="M12 12L25.9949 2.39807L26.2838 2.83103L12 12Z" fill="#97B8FF"/>
<path fill-rule="evenodd" clip-rule="evenodd" d="M12 12L26.2262 2.74469L26.5046 3.18533L12 12Z" fill="#96B8FF"/>
<path fill-rule="evenodd" clip-rule="evenodd" d="M12 12L26.449 3.09698L26.7168 3.54338L12 12Z" fill="#95B7FF"/>
<path fill-rule="evenodd" clip-rule="evenodd" d="M12 12L26.663 3.4541L26.9194 3.90722L12 12Z" fill="#94B6FF"/>
<path fill-rule="evenodd" clip-rule="evenodd" d="M12 12L26.8685 3.81696L27.1133 4.27584L12 12Z" fill="#93B6FF"/>
<path fill-rule="evenodd" clip-rule="evenodd" d="M12 12L27.0643 4.18372L27.2986 4.64932L12 12Z" fill="#92B5FF"/>
<path fill-rule="evenodd" clip-rule="evenodd" d="M12 12L27.2525 4.55615L27.4742 5.02655L12 12Z" fill="#91B4FF"/>
<path fill-rule="evenodd" clip-rule="evenodd" d="M12 12L27.4301 4.9325L27.6413 5.40866L12 12Z" fill="#90B4FF"/>
<path fill-rule="evenodd" clip-rule="evenodd" d="M12 12L27.599 5.31268L27.7978 5.7946L12 12Z" fill="#8FB3FF"/>
<path fill-rule="evenodd" clip-rule="evenodd" d="M12 12L27.7584 5.69763L27.9456 6.18435L12 12Z" fill="#8EB2FF"/>
<path fill-rule="evenodd" clip-rule="evenodd" d="M12 12L27.9082 6.08643L28.0838 6.57699L12 12Z" fill="#8DB2FF"/>
<path fill-rule="evenodd" clip-rule="evenodd" d="M12 12L28.0483 6.47906L28.2115 6.97346L12 12Z" fill="#8CB1FF"/>
<path fill-rule="evenodd" clip-rule="evenodd" d="M12 12L28.1789 6.87457L28.3306 7.37281L12 12Z" fill="#8BB0FF"/>
<path fill-rule="evenodd" clip-rule="evenodd" d="M12 12.0001L28.2998 7.27301L28.439 7.77509L12 12.0001Z" fill="#8AB0FF"/>
<path fill-rule="evenodd" clip-rule="evenodd" d="M12 12L28.4112 7.67426L28.5379 8.17922L12 12Z" fill="#89AFFF"/>
<path fill-rule="evenodd" clip-rule="evenodd" d="M12 12L28.513 8.07843L28.6262 8.58627L12 12Z" fill="#88AEFF"/>
<path fill-rule="evenodd" clip-rule="evenodd" d="M12 12L28.6032 8.48547L28.705 8.99523L12 12Z" fill="#87AEFF"/>
<path fill-rule="evenodd" clip-rule="evenodd" d="M12 12L28.6848 8.89343L28.7741 9.40607L12 12Z" fill="#86ADFF"/>
<path fill-rule="evenodd" clip-rule="evenodd" d="M12 12L28.7558 9.30341L28.8326 9.81893L12 12Z" fill="#85ACFF"/>
<path fill-rule="evenodd" clip-rule="evenodd" d="M12 12L28.8173 9.71619L28.8806 10.2327L12 12Z" fill="#84ACFF"/>
<path fill-rule="evenodd" clip-rule="evenodd" d="M12 12L28.8682 10.129L28.919 10.6474L12 12Z" fill="#83ABFF"/>
<path fill-rule="evenodd" clip-rule="evenodd" d="M12 12L28.9094 10.5437L28.9478 11.0631L12 12Z" fill="#82AAFF"/>
<path fill-rule="evenodd" clip-rule="evenodd" d="M12 12L28.9402 10.9594L28.9651 11.4797L12 12Z" fill="#81AAFF"/>
<path fill-rule="evenodd" clip-rule="evenodd" d="M12 12L28.9603 11.3751L28.9728 11.8954L12 12Z" fill="#80A9FF"/>
<path fill-rule="evenodd" clip-rule="evenodd" d="M12 12L28.9699 11.7917V12.312L12 12Z" fill="#7FA8FF"/>
<path fill-rule="evenodd" clip-rule="evenodd" d="M12 12L28.9699 12.2083L28.9574 12.7286L12 12Z" fill="#7EA7FF"/>
<path fill-rule="evenodd" clip-rule="evenodd" d="M12 12L28.9603 12.625L28.9344 13.1443L12 12Z" fill="#7DA7FF"/>
<path fill-rule="evenodd" clip-rule="evenodd" d="M12 12L28.9402 13.0406L28.9018 13.56L12 12Z" fill="#7CA6FF"/>
<path fill-rule="evenodd" clip-rule="evenodd" d="M12 12L28.9094 13.4563L28.8586 13.9747L12 12Z" fill="#7BA5FF"/>
<path fill-rule="evenodd" clip-rule="evenodd" d="M12 12L28.8682 13.8701L28.8048 14.3875L12 12Z" fill="#7AA5FF"/>
<path fill-rule="evenodd" clip-rule="evenodd" d="M12 12L28.8173 14.2838L28.7405 14.7994L12 12Z" fill="#79A4FF"/>
<path fill-rule="evenodd" clip-rule="evenodd" d="M12 12L28.7558 14.6957L28.6675 15.2093L12 12Z" fill="#78A3FF"/>
<path fill-rule="evenodd" clip-rule="evenodd" d="M12 12L28.6848 15.1066L28.583 15.6173L12 12Z" fill="#77A3FF"/>
<path fill-rule="evenodd" clip-rule="evenodd" d="M12 12L28.6032 15.5146L28.4899 16.0234L12 12Z" fill="#76A2FF"/>
<path fill-rule="evenodd" clip-rule="evenodd" d="M12 12L28.513 15.9216L28.3862 16.4266L12 12Z" fill="#75A1FF"/>
<path fill-rule="evenodd" clip-rule="evenodd" d="M12 12L28.4112 16.3258L28.273 16.8269L12 12Z" fill="#74A1FF"/>
<path fill-rule="evenodd" clip-rule="evenodd" d="M12 12L28.2998 16.727L28.1491 17.2253L12 12Z" fill="#73A0FF"/>
<path fill-rule="evenodd" clip-rule="evenodd" d="M12 12L28.1789 17.1254L28.0157 17.6198L12 12Z" fill="#729FFF"/>
<path fill-rule="evenodd" clip-rule="evenodd" d="M12 12L28.0483 17.521L27.8736 18.0115L12 12Z" fill="#719FFF"/>
<path fill-rule="evenodd" clip-rule="evenodd" d="M12 12L27.9082 17.9136L27.721 18.3994L12 12Z" fill="#709EFF"/>
<path fill-rule="evenodd" clip-rule="evenodd" d="M12 12L27.7584 18.3014L27.5587 18.7834L12 12Z" fill="#6F9DFF"/>
<path fill-rule="evenodd" clip-rule="evenodd" d="M12 12L27.599 18.6864L27.3878 19.1626L12 12Z" fill="#6E9DFF"/>
<path fill-rule="evenodd" clip-rule="evenodd" d="M12 12L27.4301 19.0675L27.2074 19.5379L12 12Z" fill="#6D9CFF"/>
<path fill-rule="evenodd" clip-rule="evenodd" d="M12 12L27.2525 19.4438L27.0182 19.9094L12 12Z" fill="#6C9BFF"/>
<path fill-rule="evenodd" clip-rule="evenodd" d="M12 12L27.0643 19.8163L26.8195 20.2752L12 12Z" fill="#6B9BFF"/>
<path fill-rule="evenodd" clip-rule="evenodd" d="M12 12L26.8685 20.183L26.6122 20.6371L12 12Z" fill="#6A9AFF"/>
<path fill-rule="evenodd" clip-rule="evenodd" d="M12 12L26.663 20.5459L26.3952 20.9923L12 12Z" fill="#6999FF"/>
<path fill-rule="evenodd" clip-rule="evenodd" d="M12 12L26.449 20.903L26.1706 21.3427L12 12Z" fill="#6899FF"/>
<path fill-rule="evenodd" clip-rule="evenodd" d="M12 12L26.2262 21.2554L25.9363 21.6883L12 12Z" fill="#6798FF"/>
<path fill-rule="evenodd" clip-rule="evenodd" d="M12 12L25.9949 21.6019L25.6954 22.0272L12 12Z" fill="#6697FF"/>
<path fill-rule="evenodd" clip-rule="evenodd" d="M12 12L25.7549 21.9418L25.4448 22.3603L12 12Z" fill="#6597FF"/>
<path fill-rule="evenodd" clip-rule="evenodd" d="M12 12L25.5072 22.2768L25.1866 22.6867L12 12Z" fill="#6496FF"/>
<path fill-rule="evenodd" clip-rule="evenodd" d="M12 12L25.2509 22.6051L24.9206 23.0074L12 12Z" fill="#6395FF"/>
<path fill-rule="evenodd" clip-rule="evenodd" d="M12 12L24.9859 22.9267L24.6461 23.3213L12 12Z" fill="#6294FF"/>
<path fill-rule="evenodd" clip-rule="evenodd" d="M12 12L24.7142 23.2426L24.3648 23.6285L12 12Z" fill="#6194FF"/>
<path fill-rule="evenodd" clip-rule="evenodd" d="M12 12L24.4349 23.5507L24.0758 23.928L12 12Z" fill="#6093FF"/>
<path fill-rule="evenodd" clip-rule="evenodd" d="M12 12L24.1469 23.8522L23.7792 24.2208L12 12Z" fill="#5F92FF"/>
<path fill-rule="evenodd" clip-rule="evenodd" d="M12 12L23.8522 24.1469L23.4758 24.5059L12 12Z" fill="#5E92FF"/>
<path fill-rule="evenodd" clip-rule="evenodd" d="M12 12L23.5507 24.4349L23.1648 24.7843L12 12Z" fill="#5D91FF"/>
<path fill-rule="evenodd" clip-rule="evenodd" d="M12 12L23.2426 24.7142L22.848 25.0541L12 12Z" fill="#5C90FF"/>
<path fill-rule="evenodd" clip-rule="evenodd" d="M12 12L22.9267 24.9859L22.5245 25.3162L12 12Z" fill="#5B90FF"/>
<path fill-rule="evenodd" clip-rule="evenodd" d="M12 12L22.6051 25.2509L22.1942 25.5706L12 12Z" fill="#5A8FFF"/>
<path fill-rule="evenodd" clip-rule="evenodd" d="M12 12L22.2768 25.5072L21.8582 25.8173L12 12Z" fill="#598EFF"/>
<path fill-rule="evenodd" clip-rule="evenodd" d="M12 12L21.9418 25.7549L21.5165 26.0544L12 12Z" fill="#588EFF"/>
<path fill-rule="evenodd" clip-rule="evenodd" d="M12 12L21.6019 25.9949L21.168 26.2838L12 12Z" fill="#578DFF"/>
<path fill-rule="evenodd" clip-rule="evenodd" d="M12 12L21.2554 26.2262L20.8147 26.5046L12 12Z" fill="#568CFF"/>
<path fill-rule="evenodd" clip-rule="evenodd" d="M12 12L20.903 26.449L20.4566 26.7168L12 12Z" fill="#558CFF"/>
<path fill-rule="evenodd" clip-rule="evenodd" d="M12 12L20.5459 26.663L20.0928 26.9194L12 12Z" fill="#548BFF"/>
<path fill-rule="evenodd" clip-rule="evenodd" d="M12 12L20.183 26.8685L19.7242 27.1133L12 12Z" fill="#538AFF"/>
<path fill-rule="evenodd" clip-rule="evenodd" d="M12 12L19.8163 27.0643L19.3507 27.2986L12 12Z" fill="#528AFF"/>
<path fill-rule="evenodd" clip-rule="evenodd" d="M12 12L19.4438 27.2525L18.9734 27.4742L12 12Z" fill="#5189FF"/>
<path fill-rule="evenodd" clip-rule="evenodd" d="M12 12L19.0675 27.4301L18.5914 27.6413L12 12Z" fill="#5088FF"/>
<path fill-rule="evenodd" clip-rule="evenodd" d="M12 12L18.6864 27.599L18.2054 27.7978L12 12Z" fill="#4F88FF"/>
<path fill-rule="evenodd" clip-rule="evenodd" d="M12 12L18.3014 27.7584L17.8157 27.9456L12 12Z" fill="#4E87FF"/>
<path fill-rule="evenodd" clip-rule="evenodd" d="M12 12L17.9136 27.9082L17.423 28.0838L12 12Z" fill="#4D86FF"/>
<path fill-rule="evenodd" clip-rule="evenodd" d="M12 12L17.521 28.0483L17.0266 28.2115L12 12Z" fill="#4C86FF"/>
<path fill-rule="evenodd" clip-rule="evenodd" d="M12 12L17.1254 28.1789L16.6272 28.3306L12 12Z" fill="#4B85FF"/>
<path fill-rule="evenodd" clip-rule="evenodd" d="M12 12L16.727 28.2998L16.225 28.439L12 12Z" fill="#4A84FF"/>
<path fill-rule="evenodd" clip-rule="evenodd" d="M12 12L16.3258 28.4112L15.8198 28.5379L12 12Z" fill="#4984FF"/>
<path fill-rule="evenodd" clip-rule="evenodd" d="M12 12L15.9216 28.513L15.4138 28.6262L12 12Z" fill="#4883FF"/>
<path fill-rule="evenodd" clip-rule="evenodd" d="M12 12L15.5146 28.6032L15.0038 28.705L12 12Z" fill="#4782FF"/>
<path fill-rule="evenodd" clip-rule="evenodd" d="M12 12L15.1066 28.6848L14.5939 28.7741L12 12Z" fill="#4681FF"/>
<path fill-rule="evenodd" clip-rule="evenodd" d="M12 12L14.6957 28.7558L14.1811 28.8326L12 12Z" fill="#4581FF"/>
<path fill-rule="evenodd" clip-rule="evenodd" d="M12 12L14.2838 28.8173L13.7674 28.8806L12 12Z" fill="#4480FF"/>
<path fill-rule="evenodd" clip-rule="evenodd" d="M12 12L13.8701 28.8682L13.3526 28.919L12 12Z" fill="#437FFF"/>
<path fill-rule="evenodd" clip-rule="evenodd" d="M12 12L13.4563 28.9094L12.937 28.9478L12 12Z" fill="#427FFF"/>
<path fill-rule="evenodd" clip-rule="evenodd" d="M12 12L13.0406 28.9402L12.5203 28.9651L12 12Z" fill="#417EFF"/>
<path fill-rule="evenodd" clip-rule="evenodd" d="M12 12L12.625 28.9603L12.1037 28.9728L12 12Z" fill="#407DFF"/>
<path fill-rule="evenodd" clip-rule="evenodd" d="M12 12L12.2083 28.9699H11.687L12 12Z" fill="#3F7DFF"/>
<path fill-rule="evenodd" clip-rule="evenodd" d="M11.9999 12L11.7916 28.9699L11.2712 28.9574L11.9999 12Z" fill="#3E7CFF"/>
<path fill-rule="evenodd" clip-rule="evenodd" d="M12 12L11.3751 28.9603L10.8547 28.9344L12 12Z" fill="#3D7BFF"/>
<path fill-rule="evenodd" clip-rule="evenodd" d="M11.9999 12L10.9593 28.9402L10.4399 28.9018L11.9999 12Z" fill="#3C7BFF"/>
<path fill-rule="evenodd" clip-rule="evenodd" d="M11.9999 12L10.5435 28.9094L10.0251 28.8586L11.9999 12Z" fill="#3B7AFF"/>
<path fill-rule="evenodd" clip-rule="evenodd" d="M11.9998 12L10.1288 28.8682L9.6123 28.8048L11.9998 12Z" fill="#3A79FF"/>
<path fill-rule="evenodd" clip-rule="evenodd" d="M11.9998 12L9.71596 28.8173L9.20044 28.7405L11.9998 12Z" fill="#3979FF"/>
<path fill-rule="evenodd" clip-rule="evenodd" d="M11.9998 12L9.30317 28.7558L8.79053 28.6675L11.9998 12Z" fill="#3878FF"/>
<path fill-rule="evenodd" clip-rule="evenodd" d="M11.9998 12L8.89329 28.6848L8.38257 28.583L11.9998 12Z" fill="#3777FF"/>
<path fill-rule="evenodd" clip-rule="evenodd" d="M11.9999 12L8.48536 28.6032L7.97656 28.4899L11.9999 12Z" fill="#3677FF"/>
<path fill-rule="evenodd" clip-rule="evenodd" d="M11.9998 12L8.0782 28.513L7.57324 28.3862L11.9998 12Z" fill="#3576FF"/>
<path fill-rule="evenodd" clip-rule="evenodd" d="M12 12L7.6742 28.4112L7.17212 28.273L12 12Z" fill="#3475FF"/>
<path fill-rule="evenodd" clip-rule="evenodd" d="M11.9999 12L7.2729 28.2998L6.77466 28.1491L11.9999 12Z" fill="#3375FF"/>
<path fill-rule="evenodd" clip-rule="evenodd" d="M12 12L6.87453 28.1789L6.38013 28.0157L12 12Z" fill="#3274FF"/>
<path fill-rule="evenodd" clip-rule="evenodd" d="M11.9998 12L6.47884 28.0483L5.98828 27.8736L11.9998 12Z" fill="#3173FF"/>
<path fill-rule="evenodd" clip-rule="evenodd" d="M11.9999 12L6.08635 27.9082L5.60059 27.721L11.9999 12Z" fill="#3073FF"/>
<path fill-rule="evenodd" clip-rule="evenodd" d="M11.9999 12L5.69751 27.7584L5.21655 27.5587L11.9999 12Z" fill="#2F72FF"/>
<path fill-rule="evenodd" clip-rule="evenodd" d="M12 12L5.3126 27.599L4.8374 27.3878L12 12Z" fill="#2E71FF"/>
<path fill-rule="evenodd" clip-rule="evenodd" d="M11.9998 12L4.93231 27.4301L4.46191 27.2074L11.9998 12Z" fill="#2D71FF"/>
<path fill-rule="evenodd" clip-rule="evenodd" d="M12 12L4.55618 27.2525L4.09058 27.0182L12 12Z" fill="#2C70FF"/>
<path fill-rule="evenodd" clip-rule="evenodd" d="M11.9998 12L4.18349 27.0643L3.72461 26.8195L11.9998 12Z" fill="#2B6FFF"/>
<path fill-rule="evenodd" clip-rule="evenodd" d="M11.9999 12L3.81687 26.8685L3.36279 26.6122L11.9999 12Z" fill="#2A6EFF"/>
<path fill-rule="evenodd" clip-rule="evenodd" d="M11.9999 12L3.45397 26.663L3.00757 26.3952L11.9999 12Z" fill="#296EFF"/>
<path fill-rule="evenodd" clip-rule="evenodd" d="M11.9999 12L3.09689 26.449L2.65625 26.1706L11.9999 12Z" fill="#286DFF"/>
<path fill-rule="evenodd" clip-rule="evenodd" d="M11.9998 12L2.74448 26.2262L2.31152 25.9363L11.9998 12Z" fill="#276CFF"/>
<path fill-rule="evenodd" clip-rule="evenodd" d="M11.9999 12L2.39794 25.9949L1.97266 25.6954L11.9999 12Z" fill="#266CFF"/>
<path fill-rule="evenodd" clip-rule="evenodd" d="M12 12L2.05821 25.7549L1.63965 25.4448L12 12Z" fill="#256BFF"/>
<path fill-rule="evenodd" clip-rule="evenodd" d="M11.9999 12L1.72314 25.5072L1.31226 25.1866L11.9999 12Z" fill="#246AFF"/>
<path fill-rule="evenodd" clip-rule="evenodd" d="M11.9998 12L1.39467 25.2509L0.992432 24.9206L11.9998 12Z" fill="#236AFF"/>
<path fill-rule="evenodd" clip-rule="evenodd" d="M12 12L1.07327 24.9859L0.678711 24.6461L12 12Z" fill="#2269FF"/>
<path fill-rule="evenodd" clip-rule="evenodd" d="M11.9998 12L0.757258 24.7142L0.371338 24.3648L11.9998 12Z" fill="#2168FF"/>
<path fill-rule="evenodd" clip-rule="evenodd" d="M11.9998 12L0.449057 24.4349L0.0717773 24.0758L11.9998 12Z" fill="#2068FF"/>
<path fill-rule="evenodd" clip-rule="evenodd" d="M11.9999 12L0.147693 24.1469L-0.220947 23.7792L11.9999 12Z" fill="#1F67FF"/>
<path fill-rule="evenodd" clip-rule="evenodd" d="M11.9998 12L-0.148024 23.8522L-0.506104 23.4758L11.9998 12Z" fill="#1E66FF"/>
<path fill-rule="evenodd" clip-rule="evenodd" d="M11.9999 12L-0.434984 23.5507L-0.784424 23.1648L11.9999 12Z" fill="#1D66FF"/>
<path fill-rule="evenodd" clip-rule="evenodd" d="M11.9999 12L-0.714359 23.2426L-1.0542 22.848L11.9999 12Z" fill="#1C65FF"/>
<path fill-rule="evenodd" clip-rule="evenodd" d="M12 12L-0.985922 22.9267L-1.31616 22.5245L12 12Z" fill="#1B64FF"/>
<path fill-rule="evenodd" clip-rule="evenodd" d="M12 12L-1.25088 22.6051L-1.57056 22.1942L12 12Z" fill="#1A64FF"/>
<path fill-rule="evenodd" clip-rule="evenodd" d="M11.9999 12L-1.5073 22.2768L-1.81738 21.8582L11.9999 12Z" fill="#1963FF"/>
<path fill-rule="evenodd" clip-rule="evenodd" d="M12 12L-1.75492 21.9418L-2.05444 21.5165L12 12Z" fill="#1862FF"/>
<path fill-rule="evenodd" clip-rule="evenodd" d="M11.9999 12L-1.99498 21.6019L-2.28394 21.168L11.9999 12Z" fill="#1762FF"/>
<path fill-rule="evenodd" clip-rule="evenodd" d="M12 12L-2.22624 21.2554L-2.50464 20.8147L12 12Z" fill="#1661FF"/>
<path fill-rule="evenodd" clip-rule="evenodd" d="M12 12L-2.44896 20.903L-2.7168 20.4566L12 12Z" fill="#1560FF"/>
<path fill-rule="evenodd" clip-rule="evenodd" d="M11.9999 12L-2.66311 20.5459L-2.91943 20.0928L11.9999 12Z" fill="#1460FF"/>
<path fill-rule="evenodd" clip-rule="evenodd" d="M12 12L-2.8685 20.183L-3.11426 19.7242L12 12Z" fill="#135FFF"/>
<path fill-rule="evenodd" clip-rule="evenodd" d="M12 12L-3.0653 19.8163L-3.29858 19.3507L12 12Z" fill="#125EFF"/>
<path fill-rule="evenodd" clip-rule="evenodd" d="M11.9999 12L-3.25261 19.4438L-3.47437 18.9734L11.9999 12Z" fill="#115EFF"/>
<path fill-rule="evenodd" clip-rule="evenodd" d="M11.9999 12L-3.43016 19.0675L-3.64136 18.5914L11.9999 12Z" fill="#105DFF"/>
<path fill-rule="evenodd" clip-rule="evenodd" d="M11.9999 12L-3.59915 18.6864L-3.79883 18.2054L11.9999 12Z" fill="#0F5CFF"/>
<path fill-rule="evenodd" clip-rule="evenodd" d="M11.9998 12L-3.7586 18.3014L-3.9458 17.8157L11.9998 12Z" fill="#0E5BFF"/>
<path fill-rule="evenodd" clip-rule="evenodd" d="M11.9999 12L-3.9083 17.9136L-4.08398 17.423L11.9999 12Z" fill="#0D5BFF"/>
<path fill-rule="evenodd" clip-rule="evenodd" d="M11.9998 12L-4.04943 17.521L-4.21167 17.0266L11.9998 12Z" fill="#0C5AFF"/>
<path fill-rule="evenodd" clip-rule="evenodd" d="M12 12L-4.17985 17.1254L-4.33057 16.6272L12 12Z" fill="#0B59FF"/>
<path fill-rule="evenodd" clip-rule="evenodd" d="M11.9998 12L-4.30097 16.727L-4.43921 16.225L11.9998 12Z" fill="#0A59FF"/>
<path fill-rule="evenodd" clip-rule="evenodd" d="M11.9998 12L-4.41137 16.3258L-4.53809 15.8198L11.9998 12Z" fill="#0958FF"/>
<path fill-rule="evenodd" clip-rule="evenodd" d="M12 12L-4.51294 15.9216L-4.62622 15.4138L12 12Z" fill="#0857FF"/>
<path fill-rule="evenodd" clip-rule="evenodd" d="M11.9999 12L-4.60428 15.5146L-4.70508 15.0038L11.9999 12Z" fill="#0757FF"/>
<path fill-rule="evenodd" clip-rule="evenodd" d="M11.9999 12L-4.68489 15.1066L-4.77417 14.5939L11.9999 12Z" fill="#0656FF"/>
<path fill-rule="evenodd" clip-rule="evenodd" d="M11.9999 12L-4.75596 14.6957L-4.83276 14.1811L11.9999 12Z" fill="#0555FF"/>
<path fill-rule="evenodd" clip-rule="evenodd" d="M11.9998 12L-4.8175 14.2838L-4.88086 13.7674L11.9998 12Z" fill="#0455FF"/>
<path fill-rule="evenodd" clip-rule="evenodd" d="M11.9999 12L-4.86831 13.8701L-4.91919 13.3526L11.9999 12Z" fill="#0354FF"/>
<path fill-rule="evenodd" clip-rule="evenodd" d="M11.9998 12L-4.9096 13.4563L-4.948 12.937L11.9998 12Z" fill="#0253FF"/>
<path fill-rule="evenodd" clip-rule="evenodd" d="M11.9998 12L-4.94037 13.0406L-4.96533 12.5203L11.9998 12Z" fill="#0153FF"/>
<path fill-rule="evenodd" clip-rule="evenodd" d="M11.9999 12L-4.96042 12.625L-4.9729 12.1037L11.9999 12Z" fill="#0052FF"/>
<path fill-rule="evenodd" clip-rule="evenodd" d="M11.9999 12L-4.97095 12.2083V11.7917L11.9999 12Z" fill="white"/>
</g>
</g>
<defs>
<clipPath id="clip0_3444_1102">
<rect width="24" height="24" fill="white"/>
</clipPath>
</defs>
</svg>
