<svg width="16" height="16" viewBox="0 0 16 16" fill="none" xmlns="http://www.w3.org/2000/svg">
<path d="M10.4584 0H5.5496C1.0664 0 0 1.0664 0 5.5416V10.4504C0 14.9328 1.0584 16 5.5416 16H10.4504C14.9328 16 16 14.9416 16 10.4584V5.5496C16 1.0664 14.9416 0 10.4584 0ZM12.9168 11.416H11.7496C11.308 11.416 11.1752 11.0584 10.3832 10.2664C9.692 9.6 9.4 9.5168 9.2248 9.5168C8.9832 9.5168 8.9168 9.5832 8.9168 9.9168V10.9664C8.9168 11.2504 8.8248 11.4168 8.0832 11.4168C7.36348 11.3684 6.66554 11.1498 6.04688 10.7788C5.42822 10.4079 4.90654 9.89526 4.5248 9.2832C3.61854 8.1552 2.98795 6.83131 2.6832 5.4168C2.6832 5.2416 2.7496 5.0832 3.0832 5.0832H4.2496C4.5496 5.0832 4.6576 5.2168 4.7752 5.5248C5.3416 7.192 6.308 8.6416 6.7 8.6416C6.8504 8.6416 6.916 8.5752 6.916 8.2V6.4832C6.8664 5.7 6.4504 5.6336 6.4504 5.3504C6.45574 5.2757 6.48997 5.20603 6.54583 5.15614C6.60169 5.10626 6.67478 5.0801 6.7496 5.0832H8.5832C8.8336 5.0832 8.9168 5.208 8.9168 5.508V7.8248C8.9168 8.0752 9.0248 8.1584 9.1 8.1584C9.2504 8.1584 9.3664 8.0752 9.6416 7.8C10.2327 7.07916 10.7156 6.27606 11.0752 5.416C11.112 5.31269 11.1815 5.22424 11.2732 5.16415C11.3649 5.10406 11.4738 5.07563 11.5832 5.0832H12.7504C13.1 5.0832 13.1744 5.2584 13.1 5.508C12.6756 6.45874 12.1505 7.36124 11.5336 8.2C11.408 8.392 11.3576 8.492 11.5336 8.7168C11.6496 8.892 12.0584 9.2336 12.3336 9.5584C12.7335 9.95731 13.0656 10.4189 13.3168 10.9248C13.4168 11.2496 13.2496 11.416 12.9168 11.416Z" fill="white"/>
</svg>
