<svg width="32" height="32" viewBox="0 0 32 32" fill="none" xmlns="http://www.w3.org/2000/svg">
<circle cx="16" cy="16" r="16" fill="white" fill-opacity="0.1"/>
<path d="M16.08 21.8638L16 21.9401L15.912 21.8638C12.112 18.5755 9.6 16.4011 9.6 14.1962C9.6 12.6703 10.8 11.5259 12.4 11.5259C13.632 11.5259 14.832 12.2888 15.256 13.3264H16.744C17.168 12.2888 18.368 11.5259 19.6 11.5259C21.2 11.5259 22.4 12.6703 22.4 14.1962C22.4 16.4011 19.888 18.5755 16.08 21.8638ZM19.6 10C18.208 10 16.872 10.618 16 11.5869C15.128 10.618 13.792 10 12.4 10C9.936 10 8 11.8387 8 14.1962C8 17.0725 10.72 19.43 14.84 22.9929L16 24L17.16 22.9929C21.28 19.43 24 17.0725 24 14.1962C24 11.8387 22.064 10 19.6 10Z" fill="white" fill-opacity="0.8"/>
<path d="M16.1035 22.0486L16.1808 21.9749C18.0809 20.3341 19.6684 18.9622 20.7796 17.7239C21.8894 16.4872 22.55 15.3565 22.55 14.1962C22.55 12.5808 21.2761 11.3759 19.6 11.3759C18.3505 11.3759 17.1264 12.125 16.6455 13.1764H15.3545C14.8736 12.125 13.6495 11.3759 12.4 11.3759C10.7239 11.3759 9.45 12.5808 9.45 14.1962C9.45 15.3565 10.1106 16.4872 11.2193 17.7238C12.3293 18.9619 13.9143 20.3335 15.8098 21.9737L15.8137 21.9771L15.8138 21.9772L15.9017 22.0534L16.0048 22.1427L16.1035 22.0486ZM15.8885 11.6873L16 11.8112L16.1115 11.6873C16.9552 10.7498 18.2508 10.15 19.6 10.15C21.9881 10.15 23.85 11.9283 23.85 14.1962C23.85 15.5826 23.1958 16.8572 22.0111 18.2394C20.825 19.6233 19.1249 21.0953 17.0619 22.8795L17.0617 22.8796L16 23.8014L14.9383 22.8796L14.9381 22.8795C12.8751 21.0953 11.175 19.6233 9.98889 18.2394C8.8042 16.8572 8.15 15.5826 8.15 14.1962C8.15 11.9283 10.0119 10.15 12.4 10.15C13.7492 10.15 15.0448 10.7498 15.8885 11.6873Z" stroke="white" stroke-opacity="0.4" stroke-width="0.3"/>
</svg>
