<svg width="16" height="14" viewBox="0 0 16 14" fill="none" xmlns="http://www.w3.org/2000/svg">
  <path
    d="M1.6261 1.63975L1.62613 1.63972C2.34491 0.908951 3.31785 0.5 4.33051 0.5C5.34317 0.5 6.31611 0.908951 7.03489 1.63972L7.03548 1.64031C7.19872 1.80572 7.40671 2.00942 7.65845 2.25066L8.00479 2.58255L8.35075 2.25026C8.60175 2.00918 8.80923 1.80568 8.97225 1.6405C9.68801 0.916002 10.6542 0.509597 11.6604 0.506856C12.6666 0.504116 13.6349 0.905249 14.3545 1.62581C15.0743 2.34665 15.4868 3.32901 15.4997 4.35989C15.5126 5.38933 15.1259 6.38084 14.4262 7.1199L8.25923 13.3916C8.25921 13.3916 8.25919 13.3916 8.25918 13.3916C8.1899 13.462 8.09778 13.5 8.00353 13.5C7.90926 13.5 7.81713 13.462 7.74785 13.3916C7.74784 13.3916 7.74783 13.3916 7.74782 13.3916L1.58047 7.12034C0.88112 6.3854 0.492209 5.39873 0.500118 4.37253C0.508035 3.34531 0.913778 2.36381 1.6261 1.63975Z"
    stroke="#ffffff" />
</svg>