<svg width="12" height="13" viewBox="0 0 12 13" fill="none" xmlns="http://www.w3.org/2000/svg">
<g opacity="0.3" clip-path="url(#clip0_2702_3861)">
<path d="M6.49972 10.6886C7.02001 10.6886 7.4952 10.632 7.92859 10.5341L6.96226 9.56776C6.81212 9.57931 6.65977 9.58866 6.49972 9.58866C3.55674 9.58866 2.41662 7.47341 2.14053 6.83872C2.34784 6.37608 2.62784 5.94958 2.96991 5.5754L2.20103 4.80652C1.35515 5.72335 1.0345 6.64678 1.02845 6.66493C0.990516 6.77787 0.990516 6.90012 1.02845 7.01307C1.04 7.04937 2.30167 10.6886 6.49972 10.6886ZM6.49972 2.98882C5.4894 2.98882 4.65947 3.20661 3.96758 3.52835L1.93868 1.5L1.161 2.27768L11.0608 12.1775L11.8384 11.3998L10.013 9.57436C11.4507 8.50134 11.9638 7.03617 11.9715 7.01307C12.0095 6.90012 12.0095 6.77787 11.9715 6.66493C11.9594 6.62808 10.6978 2.98882 6.49972 2.98882ZM9.23426 8.79558L7.98029 7.54161C8.08479 7.32711 8.14969 7.09117 8.14969 6.83872C8.14969 5.9362 7.40225 5.18876 6.49972 5.18876C6.24728 5.18876 6.01134 5.25366 5.79739 5.35871L4.80301 4.36433C5.34889 4.17701 5.92263 4.08384 6.49972 4.08879C9.44271 4.08879 10.5828 6.20404 10.8589 6.83872C10.6928 7.21932 10.2176 8.12679 9.23426 8.79558Z" fill="#111810"/>
</g>
<defs>
<clipPath id="clip0_2702_3861">
<rect width="12" height="12" fill="white" transform="translate(0 0.5)"/>
</clipPath>
</defs>
</svg>
