<svg width="16" height="16" viewBox="0 0 16 16" fill="none" xmlns="http://www.w3.org/2000/svg">
<path fill-rule="evenodd" clip-rule="evenodd" d="M4.8 0C3.52696 0 2.30606 0.505713 1.40589 1.40589C0.505713 2.30606 0 3.52696 0 4.8L0 11.2C0 12.473 0.505713 13.6939 1.40589 14.5941C2.30606 15.4943 3.52696 16 4.8 16H11.2C12.473 16 13.6939 15.4943 14.5941 14.5941C15.4943 13.6939 16 12.473 16 11.2V4.8C16 3.52696 15.4943 2.30606 14.5941 1.40589C13.6939 0.505713 12.473 0 11.2 0L4.8 0ZM4.26667 8C4.26667 7.00986 4.66 6.06027 5.36014 5.36014C6.06027 4.66 7.00986 4.26667 8 4.26667C8.99014 4.26667 9.93973 4.66 10.6399 5.36014C11.34 6.06027 11.7333 7.00986 11.7333 8C11.7333 8.99014 11.34 9.93973 10.6399 10.6399C9.93973 11.34 8.99014 11.7333 8 11.7333C7.00986 11.7333 6.06027 11.34 5.36014 10.6399C4.66 9.93973 4.26667 8.99014 4.26667 8ZM11.7333 4.26667H12.8V3.2H11.7333V4.26667Z" fill="white"/>
<path d="M8.00065 4.58325C7.09449 4.58325 6.22545 4.94322 5.5847 5.58397C4.94395 6.22472 4.58398 7.09376 4.58398 7.99992C4.58398 8.90607 4.94395 9.77512 5.5847 10.4159C6.22545 11.0566 7.09449 11.4166 8.00065 11.4166C8.90681 11.4166 9.77585 11.0566 10.4166 10.4159C11.0573 9.77512 11.4173 8.90607 11.4173 7.99992C11.4173 7.09376 11.0573 6.22472 10.4166 5.58397C9.77585 4.94322 8.90681 4.58325 8.00065 4.58325Z" fill="white" stroke="#111810" stroke-width="1.5"/>
</svg>
