<svg width="16" height="14" viewBox="0 0 16 14" fill="none" xmlns="http://www.w3.org/2000/svg">
<path d="M8.08 11.8638L8 11.9401L7.912 11.8638C4.112 8.57548 1.6 6.40109 1.6 4.19619C1.6 2.6703 2.8 1.52589 4.4 1.52589C5.632 1.52589 6.832 2.28883 7.256 3.32643H8.744C9.168 2.28883 10.368 1.52589 11.6 1.52589C13.2 1.52589 14.4 2.6703 14.4 4.19619C14.4 6.40109 11.888 8.57548 8.08 11.8638ZM11.6 0C10.208 0 8.872 0.617984 8 1.58692C7.128 0.617984 5.792 0 4.4 0C1.936 0 0 1.83869 0 4.19619C0 7.07248 2.72 9.42997 6.84 12.9929L8 14L9.16 12.9929C13.28 9.42997 16 7.07248 16 4.19619C16 1.83869 14.064 0 11.6 0Z" fill="#111810"/>
<path d="M8.10352 12.0486L8.18083 11.9749C10.0809 10.3341 11.6684 8.96224 12.7796 7.72389C13.8894 6.48722 14.55 5.35654 14.55 4.19619C14.55 2.58083 13.2761 1.37589 11.6 1.37589C10.3505 1.37589 9.12644 2.12504 8.64552 3.17643H7.35448C6.87356 2.12504 5.64946 1.37589 4.4 1.37589C2.72394 1.37589 1.45 2.58083 1.45 4.19619C1.45 5.35652 2.11058 6.48719 3.21932 7.72384C4.32932 8.96189 5.91433 10.3335 7.80978 11.9737L7.81374 11.9771L7.81385 11.9772L7.90174 12.0534L8.00481 12.1427L8.10352 12.0486ZM7.8885 1.68726L8 1.81115L8.1115 1.68726C8.95521 0.749755 10.2508 0.15 11.6 0.15C13.9881 0.15 15.85 1.92833 15.85 4.19619C15.85 5.58265 15.1958 6.8572 14.0111 8.23944C12.825 9.62331 11.1249 11.0953 9.06188 12.8795L9.06166 12.8796L8 13.8014L6.93834 12.8796L6.93812 12.8795C4.87506 11.0953 3.17497 9.62331 1.98889 8.23944C0.804203 6.8572 0.15 5.58265 0.15 4.19619C0.15 1.92833 2.01188 0.15 4.4 0.15C5.74924 0.15 7.04479 0.749755 7.8885 1.68726Z" stroke="white" stroke-opacity="0.6" stroke-width="0.3"/>
</svg>
