<svg width="33" height="32" viewBox="0 0 33 32" fill="none" xmlns="http://www.w3.org/2000/svg">
<circle cx="16.5" cy="16" r="16" fill="white" fill-opacity="0.1"/>
<path d="M16.58 21.8638L16.5 21.9401L16.412 21.8638C12.612 18.5755 10.1 16.4011 10.1 14.1962C10.1 12.6703 11.3 11.5259 12.9 11.5259C14.132 11.5259 15.332 12.2888 15.756 13.3264H17.244C17.668 12.2888 18.868 11.5259 20.1 11.5259C21.7 11.5259 22.9 12.6703 22.9 14.1962C22.9 16.4011 20.388 18.5755 16.58 21.8638ZM20.1 10C18.708 10 17.372 10.618 16.5 11.5869C15.628 10.618 14.292 10 12.9 10C10.436 10 8.5 11.8387 8.5 14.1962C8.5 17.0725 11.22 19.43 15.34 22.9929L16.5 24L17.66 22.9929C21.78 19.43 24.5 17.0725 24.5 14.1962C24.5 11.8387 22.564 10 20.1 10Z" fill="white" fill-opacity="0.8"/>
<path d="M16.6035 22.0486L16.6808 21.9749C18.5809 20.3341 20.1684 18.9622 21.2796 17.7239C22.3894 16.4872 23.05 15.3565 23.05 14.1962C23.05 12.5808 21.7761 11.3759 20.1 11.3759C18.8505 11.3759 17.6264 12.125 17.1455 13.1764H15.8545C15.3736 12.125 14.1495 11.3759 12.9 11.3759C11.2239 11.3759 9.95 12.5808 9.95 14.1962C9.95 15.3565 10.6106 16.4872 11.7193 17.7238C12.8293 18.9619 14.4143 20.3335 16.3098 21.9737L16.3137 21.9771L16.3138 21.9772L16.4017 22.0534L16.5048 22.1427L16.6035 22.0486ZM16.3885 11.6873L16.5 11.8112L16.6115 11.6873C17.4552 10.7498 18.7508 10.15 20.1 10.15C22.4881 10.15 24.35 11.9283 24.35 14.1962C24.35 15.5826 23.6958 16.8572 22.5111 18.2394C21.325 19.6233 19.6249 21.0953 17.5619 22.8795L17.5617 22.8796L16.5 23.8014L15.4383 22.8796L15.4381 22.8795C13.3751 21.0953 11.675 19.6233 10.4889 18.2394C9.3042 16.8572 8.65 15.5826 8.65 14.1962C8.65 11.9283 10.5119 10.15 12.9 10.15C14.2492 10.15 15.5448 10.7498 16.3885 11.6873Z" stroke="white" stroke-opacity="0.4" stroke-width="0.3"/>
</svg>
