<svg width="0" height="0">
  <symbol fill="none" xmlns="http://www.w3.org/2000/svg" viewBox="0 0 16 18" id="Account _ btn">
    <path
      d="M12.0714 4.57143C12.0714 6.82002 10.2486 8.64286 8 8.64286C5.75141 8.64286 3.92857 6.82002 3.92857 4.57143C3.92857 2.32284 5.75141 0.5 8 0.5C10.2486 0.5 12.0714 2.32284 12.0714 4.57143ZM0.5 16.6429V13.9234C2.68046 11.8023 5.22177 10.6374 7.79853 10.5714C10.3761 10.5053 13.0502 11.5369 15.5 13.9233V16.6429H0.5Z"
      stroke="#111810"></path>
  </symbol>
  <symbol fill="none" xmlns="http://www.w3.org/2000/svg" viewBox="0 0 16 16" id="Bag _ btn">
    <path fill-rule="evenodd" clip-rule="evenodd"
      d="M5.5 10C5.5 9.86739 5.55268 9.74021 5.64645 9.64645C5.74021 9.55268 5.86739 9.5 6 9.5H10C10.1326 9.5 10.2598 9.55268 10.3536 9.64645C10.4473 9.74021 10.5 9.86739 10.5 10C10.5 10.1326 10.4473 10.2598 10.3536 10.3536C10.2598 10.4473 10.1326 10.5 10 10.5H6C5.86739 10.5 5.74021 10.4473 5.64645 10.3536C5.55268 10.2598 5.5 10.1326 5.5 10Z"
      fill="#111810"></path>
    <path
      d="M8 1C8.66304 1 9.29893 1.26339 9.76777 1.73223C10.2366 2.20107 10.5 2.83696 10.5 3.5V4H5.5V3.5C5.5 2.83696 5.76339 2.20107 6.23223 1.73223C6.70107 1.26339 7.33696 1 8 1ZM11.5 4V3.5C11.5 2.57174 11.1313 1.6815 10.4749 1.02513C9.8185 0.368749 8.92826 0 8 0C7.07174 0 6.1815 0.368749 5.52513 1.02513C4.86875 1.6815 4.5 2.57174 4.5 3.5V4H1V14C1 14.5304 1.21071 15.0391 1.58579 15.4142C1.96086 15.7893 2.46957 16 3 16H13C13.5304 16 14.0391 15.7893 14.4142 15.4142C14.7893 15.0391 15 14.5304 15 14V4H11.5ZM2 5H14V14C14 14.2652 13.8946 14.5196 13.7071 14.7071C13.5196 14.8946 13.2652 15 13 15H3C2.73478 15 2.48043 14.8946 2.29289 14.7071C2.10536 14.5196 2 14.2652 2 14V5Z"
      fill="#111810"></path>
  </symbol>
  <symbol fill="none" xmlns="http://www.w3.org/2000/svg" viewBox="0 0 16 14" id="header-fovorites">
    <path
      d="M1.6261 1.63975L1.62613 1.63972C2.34491 0.908951 3.31785 0.5 4.33051 0.5C5.34317 0.5 6.31611 0.908951 7.03489 1.63972L7.03548 1.64031C7.19872 1.80572 7.40671 2.00942 7.65845 2.25066L8.00479 2.58255L8.35075 2.25026C8.60175 2.00918 8.80923 1.80568 8.97225 1.6405C9.68801 0.916002 10.6542 0.509597 11.6604 0.506856C12.6666 0.504116 13.6349 0.905249 14.3545 1.62581C15.0743 2.34665 15.4868 3.32901 15.4997 4.35989C15.5126 5.38933 15.1259 6.38084 14.4262 7.1199L8.25923 13.3916C8.25921 13.3916 8.25919 13.3916 8.25918 13.3916C8.1899 13.462 8.09778 13.5 8.00353 13.5C7.90926 13.5 7.81713 13.462 7.74785 13.3916C7.74784 13.3916 7.74783 13.3916 7.74782 13.3916L1.58047 7.12034C0.88112 6.3854 0.492209 5.39873 0.500118 4.37253C0.508035 3.34531 0.913778 2.36381 1.6261 1.63975Z"
      stroke="#111810"></path>
  </symbol>
  <symbol fill="none" xmlns="http://www.w3.org/2000/svg" viewBox="0 0 33 32" id="Liked _ btn">
    <circle cx="16.5" cy="16" r="16" fill="white" fill-opacity="0.1"></circle>
    <path
      d="M16.58 21.8638L16.5 21.9401L16.412 21.8638C12.612 18.5755 10.1 16.4011 10.1 14.1962C10.1 12.6703 11.3 11.5259 12.9 11.5259C14.132 11.5259 15.332 12.2888 15.756 13.3264H17.244C17.668 12.2888 18.868 11.5259 20.1 11.5259C21.7 11.5259 22.9 12.6703 22.9 14.1962C22.9 16.4011 20.388 18.5755 16.58 21.8638ZM20.1 10C18.708 10 17.372 10.618 16.5 11.5869C15.628 10.618 14.292 10 12.9 10C10.436 10 8.5 11.8387 8.5 14.1962C8.5 17.0725 11.22 19.43 15.34 22.9929L16.5 24L17.66 22.9929C21.78 19.43 24.5 17.0725 24.5 14.1962C24.5 11.8387 22.564 10 20.1 10Z"
      fill="white" fill-opacity="0.8"></path>
    <path
      d="M16.6035 22.0486L16.6808 21.9749C18.5809 20.3341 20.1684 18.9622 21.2796 17.7239C22.3894 16.4872 23.05 15.3565 23.05 14.1962C23.05 12.5808 21.7761 11.3759 20.1 11.3759C18.8505 11.3759 17.6264 12.125 17.1455 13.1764H15.8545C15.3736 12.125 14.1495 11.3759 12.9 11.3759C11.2239 11.3759 9.95 12.5808 9.95 14.1962C9.95 15.3565 10.6106 16.4872 11.7193 17.7238C12.8293 18.9619 14.4143 20.3335 16.3098 21.9737L16.3137 21.9771L16.3138 21.9772L16.4017 22.0534L16.5048 22.1427L16.6035 22.0486ZM16.3885 11.6873L16.5 11.8112L16.6115 11.6873C17.4552 10.7498 18.7508 10.15 20.1 10.15C22.4881 10.15 24.35 11.9283 24.35 14.1962C24.35 15.5826 23.6958 16.8572 22.5111 18.2394C21.325 19.6233 19.6249 21.0953 17.5619 22.8795L17.5617 22.8796L16.5 23.8014L15.4383 22.8796L15.4381 22.8795C13.3751 21.0953 11.675 19.6233 10.4889 18.2394C9.3042 16.8572 8.65 15.5826 8.65 14.1962C8.65 11.9283 10.5119 10.15 12.9 10.15C14.2492 10.15 15.5448 10.7498 16.3885 11.6873Z"
      stroke="white" stroke-opacity="0.4" stroke-width="0.3"></path>
  </symbol>
</svg>