<svg width="195" height="20" viewBox="0 0 195 20" fill="none" xmlns="http://www.w3.org/2000/svg">
<path d="M99.7379 0.233543C100.488 0.233543 101.252 0.240615 102.031 0.254763C102.824 0.254763 103.595 0.275987 104.345 0.318465C105.109 0.346761 105.817 0.396312 106.468 0.467086L106.298 2.80255H100.99C100.608 2.80255 100.318 2.89454 100.12 3.07853C99.9219 3.26256 99.8226 3.53144 99.8226 3.88547V14.9469H96.5742V3.22716C96.5742 2.32128 96.8645 1.59943 97.4447 1.06157C98.0252 0.509531 98.7894 0.233543 99.7379 0.233543ZM96.9565 6.43312H105.513V8.72604H96.9565V6.43312ZM114.488 0.297241C114.756 0.297241 114.99 0.375088 115.188 0.530784C115.401 0.686479 115.542 0.891695 115.613 1.14649L119.859 14.9469H116.547L113.554 4.18272C113.497 3.94193 113.44 3.70148 113.384 3.4607C113.327 3.20593 113.278 2.96532 113.235 2.73885H112.662C112.619 2.96532 112.57 3.20593 112.513 3.4607C112.471 3.70148 112.414 3.94193 112.343 4.18272L109.35 14.9469H106.016L110.284 1.14649C110.355 0.891695 110.489 0.686479 110.687 0.530784C110.9 0.375088 111.14 0.297241 111.409 0.297241H114.488ZM116.738 8.64102V11.0827H109.137V8.64102H116.738ZM126.915 0.127366C128.189 0.127366 129.201 0.240617 129.951 0.467086C130.715 0.679407 131.267 1.06157 131.607 1.61358C131.947 2.16558 132.117 2.9441 132.117 3.94891C132.117 4.9964 131.912 5.79613 131.501 6.3481C131.104 6.88613 130.446 7.19732 129.526 7.28234V7.40987C130.659 7.50884 131.451 7.89111 131.904 8.55633C132.357 9.20727 132.584 10.1203 132.584 11.2953C132.584 12.2999 132.407 13.0784 132.053 13.6307C131.713 14.1827 131.175 14.5719 130.439 14.7984C129.718 15.0106 128.769 15.1169 127.594 15.1169C126.646 15.1169 125.818 15.1096 125.11 15.0957C124.417 15.0957 123.773 15.0814 123.178 15.0532C122.584 15.0249 121.975 14.9894 121.352 14.9469L121.671 12.6965C122.011 12.7104 122.661 12.7247 123.624 12.739C124.601 12.7529 125.733 12.7602 127.021 12.7602C127.616 12.7602 128.083 12.7034 128.422 12.5902C128.762 12.4769 128.996 12.2717 129.123 11.9745C129.265 11.6633 129.335 11.2242 129.335 10.6583C129.335 10.0495 129.265 9.58954 129.123 9.27802C128.981 8.95255 128.734 8.72604 128.38 8.59884C128.04 8.47131 127.566 8.40057 126.957 8.38629H121.65V6.32685H126.915C127.439 6.3129 127.849 6.25611 128.146 6.15714C128.458 6.05817 128.677 5.86687 128.805 5.58391C128.932 5.30061 128.996 4.9044 128.996 4.39494C128.996 3.87119 128.925 3.47498 128.783 3.20593C128.656 2.92284 128.429 2.73178 128.104 2.63267C127.778 2.5336 127.325 2.48405 126.745 2.48405C125.952 2.48405 125.252 2.48405 124.643 2.48405C124.034 2.48405 123.489 2.49116 123.008 2.50531C122.527 2.50531 122.081 2.51945 121.671 2.54775L121.352 0.297241C121.919 0.240615 122.464 0.205214 122.987 0.191066C123.525 0.162769 124.105 0.148621 124.728 0.148621C125.351 0.13444 126.08 0.127366 126.915 0.127366ZM124.537 0.297241V14.9469H121.352V0.297241H124.537ZM140.58 0.0849217C141.869 0.0849217 142.909 0.219395 143.702 0.488308C144.508 0.743073 145.096 1.18894 145.464 1.8259C145.846 2.44868 146.037 3.31918 146.037 4.43745C146.037 5.11662 145.945 5.71841 145.761 6.24216C145.591 6.75162 145.301 7.16211 144.891 7.47331C144.48 7.78483 143.921 7.9831 143.213 8.06779V8.17407C143.468 8.21658 143.73 8.31555 143.999 8.47131C144.282 8.62707 144.544 8.86055 144.784 9.17207C145.025 9.46932 145.202 9.8725 145.315 10.3823L146.589 14.9469H143.171L142.045 10.4882C141.918 10.007 141.727 9.67456 141.472 9.49057C141.232 9.30658 140.892 9.21458 140.453 9.21458C139.491 9.21458 138.677 9.21458 138.011 9.21458C137.361 9.2003 136.808 9.18602 136.356 9.17207C135.917 9.15779 135.52 9.14351 135.167 9.12956L135.23 6.77288H140.517C141.083 6.77288 141.529 6.71609 141.854 6.60284C142.194 6.47564 142.428 6.25611 142.555 5.94491C142.697 5.63339 142.767 5.20164 142.767 4.64967C142.767 4.08341 142.697 3.65166 142.555 3.35456C142.428 3.04316 142.194 2.83084 141.854 2.71763C141.529 2.59023 141.083 2.52653 140.517 2.52653C139.186 2.52653 138.061 2.5336 137.141 2.54775C136.221 2.56193 135.591 2.58315 135.251 2.61145L134.933 0.297241C135.527 0.226467 136.087 0.176917 136.61 0.148621C137.134 0.120292 137.707 0.106144 138.33 0.106144C138.953 0.0919957 139.703 0.0849217 140.58 0.0849217ZM138.139 0.297241V14.9469H134.933V0.297241H138.139ZM151.928 0.297241V14.9469H148.701V0.297241H151.928ZM160.717 0C161.878 0 162.862 0.127366 163.669 0.382164C164.475 0.622781 165.127 1.03324 165.622 1.61358C166.117 2.17973 166.471 2.95824 166.684 3.94891C166.91 4.92566 167.023 6.15016 167.023 7.62209C167.023 9.09403 166.91 10.3255 166.684 11.3162C166.471 12.2929 166.117 13.0714 165.622 13.652C165.127 14.2179 164.475 14.6284 163.669 14.8831C162.862 15.1239 161.878 15.2441 160.717 15.2441C159.557 15.2441 158.573 15.1239 157.766 14.8831C156.96 14.6284 156.308 14.2179 155.813 13.652C155.318 13.0714 154.957 12.2929 154.73 11.3162C154.518 10.3255 154.412 9.09403 154.412 7.62209C154.412 6.15016 154.518 4.92566 154.73 3.94891C154.957 2.95824 155.318 2.17973 155.813 1.61358C156.308 1.03324 156.96 0.622781 157.766 0.382164C158.573 0.127366 159.557 0 160.717 0ZM159.656 15.6689C160.604 16.0508 161.595 16.3554 162.628 16.5819C163.662 16.8223 164.773 17.0276 165.962 17.1976L165.112 20C163.839 19.6885 162.685 19.2992 161.652 18.8323C160.618 18.3653 159.699 17.8698 158.892 17.3461L159.656 15.6689ZM160.717 2.569C159.982 2.569 159.401 2.71763 158.977 3.01487C158.552 3.31208 158.255 3.82868 158.085 4.56465C157.915 5.28666 157.83 6.30559 157.83 7.62209C157.83 8.92431 157.915 9.94324 158.085 10.6795C158.255 11.4155 158.552 11.9319 158.977 12.2292C159.401 12.5264 159.982 12.6752 160.717 12.6752C161.453 12.6752 162.027 12.5264 162.437 12.2292C162.862 11.9319 163.159 11.4155 163.329 10.6795C163.513 9.94324 163.605 8.92431 163.605 7.62209C163.605 6.30559 163.513 5.28666 163.329 4.56465C163.159 3.82868 162.862 3.31208 162.437 3.01487C162.027 2.71763 161.453 2.569 160.717 2.569ZM181.216 0.297241V9.10831C181.216 10.5945 181.032 11.7905 180.664 12.6965C180.296 13.5882 179.687 14.2391 178.838 14.6496C178.003 15.0458 176.885 15.2441 175.484 15.2441C173.997 15.2441 172.808 15.0458 171.917 14.6496C171.025 14.2391 170.381 13.5882 169.984 12.6965C169.588 11.7905 169.39 10.5945 169.39 9.10831V0.297241H172.638V9.10831C172.638 10.0283 172.716 10.7503 172.872 11.274C173.042 11.7835 173.325 12.1445 173.721 12.3567C174.118 12.5689 174.648 12.6752 175.314 12.6752C175.979 12.6752 176.503 12.5689 176.885 12.3567C177.281 12.1445 177.557 11.7835 177.713 11.274C177.883 10.7503 177.967 10.0283 177.967 9.10831V0.297241H181.216ZM187.066 0.233543C187.859 0.233543 188.659 0.240615 189.465 0.254763C190.272 0.254763 191.065 0.268911 191.843 0.297241C192.622 0.325537 193.351 0.37509 194.03 0.445864L193.881 2.80255H188.255C187.901 2.80255 187.632 2.89454 187.448 3.07853C187.279 3.26256 187.194 3.53144 187.194 3.88547V11.3587C187.194 11.7127 187.279 11.9818 187.448 12.1658C187.632 12.3497 187.901 12.4417 188.255 12.4417H193.881L194.03 14.7984C193.351 14.8549 192.622 14.9044 191.843 14.9469C191.065 14.9751 190.272 14.9894 189.465 14.9894C188.659 15.0037 187.859 15.0106 187.066 15.0106C186.132 15.0106 185.375 14.7416 184.794 14.2039C184.228 13.652 183.945 12.9369 183.945 12.0595V3.18471C183.945 2.29299 184.228 1.57818 184.794 1.04032C185.375 0.502456 186.132 0.233543 187.066 0.233543ZM184.327 6.17839H193.096V8.47131H184.327V6.17839Z" fill="#111810"/>
<path d="M3.16372 0.233543C3.91364 0.233543 4.67817 0.240617 5.45664 0.254765C6.2494 0.254765 7.02057 0.275987 7.77082 0.318465C8.53501 0.346761 9.24274 0.396312 9.89402 0.467085L9.72398 2.80255H4.41612C4.03419 2.80255 3.74393 2.89454 3.54566 3.07854C3.34772 3.26256 3.24841 3.53147 3.24841 3.88534V14.9469H0V3.22716C0 2.32128 0.290269 1.59943 0.870473 1.06157C1.45101 0.50953 2.2152 0.233543 3.16372 0.233543ZM0.382264 6.43312H8.93853V8.72611H0.382264V6.43312ZM17.9136 0.297243C18.1823 0.297243 18.4161 0.375091 18.614 0.530786C18.8266 0.686481 18.9681 0.891694 19.0388 1.14649L23.2852 14.9469H19.973L16.9793 4.18258C16.9226 3.94197 16.8661 3.70135 16.8093 3.4607C16.7529 3.20593 16.7034 2.96532 16.6609 2.73885H16.0876C16.0451 2.96532 15.9956 3.20593 15.9388 3.4607C15.8967 3.70135 15.8399 3.94197 15.7691 4.18258L12.7754 14.9469H9.44202L13.7097 1.14649C13.7804 0.891694 13.9149 0.686481 14.1132 0.530786C14.3254 0.375091 14.5659 0.297243 14.8349 0.297243H17.9136ZM20.164 8.64119V11.0828H12.5632V8.64119H20.164ZM29.619 0.0212221C30.3406 0.0212221 31.1261 0.0636658 31.9756 0.148621C32.8249 0.219394 33.6528 0.37509 34.4595 0.615707L34.2473 2.76007C33.6246 2.74592 32.8956 2.73177 32.0603 2.71763C31.2254 2.70345 30.4044 2.69637 29.5977 2.69637C29.2012 2.69637 28.8614 2.71052 28.5785 2.73885C28.3094 2.753 28.0902 2.80962 27.9202 2.90869C27.7505 2.99361 27.6303 3.12809 27.5595 3.31208C27.4884 3.4961 27.4532 3.75087 27.4532 4.07644C27.4532 4.57182 27.5665 4.93276 27.793 5.15923C28.0334 5.3857 28.437 5.59095 29.0032 5.77494L31.8269 6.68789C33.0015 7.0842 33.8156 7.62206 34.2686 8.30147C34.7216 8.98087 34.9481 9.8726 34.9481 10.9766C34.9481 11.8117 34.8488 12.5053 34.6508 13.0573C34.4526 13.6094 34.141 14.041 33.7166 14.3525C33.2918 14.6639 32.7329 14.8832 32.0391 15.0106C31.3456 15.1522 30.4964 15.2229 29.4914 15.2229C29.0102 15.2229 28.3237 15.1876 27.432 15.1168C26.5403 15.0602 25.521 14.9045 24.3745 14.6497L24.5871 12.3567C25.422 12.3708 26.144 12.3921 26.7525 12.4204C27.3752 12.4345 27.9063 12.4487 28.345 12.4629C28.7837 12.4629 29.166 12.4629 29.4914 12.4629C30.0577 12.4629 30.4964 12.4275 30.8079 12.3567C31.1334 12.2859 31.3599 12.1444 31.4871 11.9321C31.6146 11.7198 31.6784 11.4154 31.6784 11.0191C31.6784 10.6794 31.6286 10.4105 31.5296 10.2123C31.4446 10 31.2961 9.83723 31.0839 9.72398C30.8856 9.59661 30.6097 9.48336 30.2556 9.38429L27.2832 8.36517C26.1653 7.95471 25.3725 7.41685 24.9056 6.75159C24.4383 6.08633 24.2048 5.20878 24.2048 4.11888C24.2048 3.26963 24.3038 2.58315 24.5021 2.05944C24.7143 1.52158 25.0328 1.10401 25.4576 0.806772C25.8963 0.50953 26.4552 0.304316 27.1347 0.191065C27.8282 0.0778471 28.6562 0.0212221 29.619 0.0212221ZM40.4881 0.297243V14.9469H37.2397V0.297243H40.4881ZM45.9231 5.92356V8.36517H40.318V5.92356H45.9231ZM48.9381 0.297243V14.9469H45.6896V0.297243H48.9381ZM55.1463 0.297243V14.9469H51.9191V0.297243H55.1463ZM63.936 0C65.0967 0 66.0805 0.127366 66.8872 0.382164C67.6939 0.622781 68.3379 1.03324 68.8191 1.61358C69.3146 2.17973 69.6756 2.95824 69.9021 3.94904C70.1286 4.92569 70.2415 6.15003 70.2415 7.62206C70.2415 9.09412 70.1286 10.3255 69.9021 11.3163C69.6756 12.293 69.3146 13.0715 68.8191 13.6518C68.3379 14.218 67.6939 14.6284 66.8872 14.8832C66.0805 15.1239 65.0967 15.2442 63.936 15.2442C62.7753 15.2442 61.7916 15.1239 60.9848 14.8832C60.1781 14.6284 59.5269 14.218 59.0314 13.6518C58.5362 13.0715 58.1752 12.293 57.9487 11.3163C57.7222 10.3255 57.6089 9.09412 57.6089 7.62206C57.6089 6.15003 57.7222 4.92569 57.9487 3.94904C58.1752 2.95824 58.5362 2.17973 59.0314 1.61358C59.5269 1.03324 60.1781 0.622781 60.9848 0.382164C61.7916 0.127366 62.7753 0 63.936 0ZM63.936 2.569C63.1858 2.569 62.5983 2.71763 62.1738 3.01487C61.7633 3.31208 61.4661 3.82872 61.2821 4.56475C61.112 5.28663 61.0274 6.30572 61.0274 7.62206C61.0274 8.92428 61.112 9.94337 61.2821 10.6794C61.4661 11.4154 61.7633 11.9321 62.1738 12.2293C62.5983 12.5265 63.1858 12.6751 63.936 12.6751C64.672 12.6751 65.2452 12.5265 65.6557 12.2293C66.0805 11.9321 66.3777 11.4154 66.5474 10.6794C66.7314 9.94337 66.8234 8.92428 66.8234 7.62206C66.8234 6.30572 66.7314 5.28663 66.5474 4.56475C66.3777 3.82872 66.0805 3.31208 65.6557 3.01487C65.2452 2.71763 64.672 2.569 63.936 2.569ZM85.1139 0.297243V13.7792C85.1139 14.5577 84.7247 14.9469 83.9462 14.9469H82.1628C81.8088 14.9469 81.5397 14.8691 81.3557 14.7134C81.1718 14.5435 81.0021 14.2958 80.8463 13.9703L76.7912 6.2845C76.6211 5.95893 76.4514 5.59802 76.2817 5.20168C76.1259 4.80536 75.9914 4.4232 75.8782 4.05518H75.6447C75.6872 4.43735 75.7224 4.82659 75.7506 5.22293C75.7792 5.6051 75.7932 5.98726 75.7932 6.36942V14.9469H72.7148V1.46496C72.7148 0.68648 73.111 0.297243 73.9038 0.297243H75.666C76.0054 0.297243 76.2605 0.382165 76.4302 0.552008C76.6142 0.707703 76.7912 0.94832 76.9609 1.27386L80.8888 8.72611C81.0585 9.05165 81.2355 9.41259 81.4195 9.8089C81.6035 10.2052 81.7805 10.6157 81.9502 11.0403H82.205C82.1628 10.6157 82.1273 10.2052 82.099 9.8089C82.0847 9.39844 82.0778 8.99506 82.0778 8.59871L82.0565 0.297243H85.1139Z" fill="#111810"/>
</svg>
