<svg width="233" height="24" viewBox="0 0 233 24" fill="none" xmlns="http://www.w3.org/2000/svg">
<path d="M119.685 0.280252C120.585 0.280252 121.502 0.288738 122.437 0.305716C123.388 0.305716 124.313 0.331185 125.214 0.382158C126.131 0.416113 126.98 0.475575 127.761 0.560503L127.557 3.36306H121.188C120.73 3.36306 120.381 3.47345 120.143 3.69424C119.906 3.91507 119.787 4.23773 119.787 4.66257V17.9363H115.889V3.87259C115.889 2.78554 116.237 1.91932 116.933 1.27389C117.63 0.611437 118.547 0.280252 119.685 0.280252ZM116.347 7.71975H126.615V10.4713H116.347V7.71975ZM137.385 0.356689C137.707 0.356689 137.988 0.450106 138.225 0.63694C138.481 0.823775 138.65 1.07003 138.735 1.37579L143.831 17.9363H139.856L136.264 5.01926C136.196 4.73032 136.128 4.44178 136.06 4.15284C135.992 3.84712 135.933 3.55838 135.882 3.28662H135.194C135.143 3.55838 135.083 3.84712 135.015 4.15284C134.965 4.44178 134.897 4.73032 134.812 5.01926L131.219 17.9363H127.219L132.34 1.37579C132.425 1.07003 132.587 0.823775 132.825 0.63694C133.079 0.450106 133.368 0.356689 133.691 0.356689H137.385ZM140.085 10.3692V13.2993H130.965V10.3692H140.085ZM152.297 0.152839C153.826 0.152839 155.041 0.288741 155.941 0.560503C156.858 0.815288 157.52 1.27388 157.928 1.93629C158.336 2.5987 158.54 3.53291 158.54 4.73869C158.54 5.99568 158.293 6.95535 157.801 7.61772C157.325 8.26335 156.535 8.63678 155.431 8.73881V8.89185C156.79 9.01061 157.741 9.46933 158.285 10.2676C158.828 11.0487 159.1 12.1443 159.1 13.5543C159.1 14.7599 158.888 15.6941 158.463 16.3569C158.056 17.0192 157.41 17.4863 156.527 17.7581C155.661 18.0128 154.522 18.1403 153.113 18.1403C151.975 18.1403 150.981 18.1315 150.132 18.1148C149.3 18.1148 148.527 18.0977 147.814 18.0638C147.1 18.0299 146.37 17.9873 145.622 17.9363L146.005 15.2358C146.412 15.2525 147.193 15.2696 148.348 15.2868C149.52 15.3035 150.879 15.3123 152.425 15.3123C153.138 15.3123 153.699 15.2441 154.106 15.1082C154.514 14.9723 154.794 14.726 154.947 14.3693C155.117 13.9959 155.202 13.469 155.202 12.7899C155.202 12.0594 155.117 11.5075 154.947 11.1336C154.777 10.7431 154.48 10.4713 154.055 10.3186C153.648 10.1656 153.079 10.0807 152.348 10.0635H145.979V7.59222H152.297C152.926 7.57548 153.419 7.50733 153.775 7.38856C154.149 7.2698 154.412 7.04024 154.565 6.70069C154.718 6.36074 154.794 5.88528 154.794 5.27393C154.794 4.64543 154.709 4.16998 154.54 3.84712C154.387 3.50741 154.115 3.27813 153.724 3.15921C153.334 3.04032 152.79 2.98086 152.094 2.98086C151.142 2.98086 150.302 2.98086 149.571 2.98086C148.841 2.98086 148.187 2.98939 147.609 3.00637C147.032 3.00637 146.497 3.02335 146.005 3.0573L145.622 0.356689C146.302 0.288738 146.956 0.246256 147.584 0.229279C148.23 0.195323 148.926 0.178346 149.673 0.178346C150.421 0.161328 151.296 0.152839 152.297 0.152839ZM149.444 0.356689V17.9363H145.622V0.356689H149.444ZM168.696 0.101906C170.242 0.101906 171.49 0.263274 172.442 0.58597C173.41 0.891688 174.115 1.42673 174.556 2.19108C175.014 2.93842 175.244 3.98302 175.244 5.32494C175.244 6.13995 175.134 6.8621 174.913 7.49059C174.709 8.10195 174.361 8.59454 173.868 8.96797C173.376 9.3418 172.705 9.57972 171.855 9.68135V9.80888C172.161 9.85989 172.475 9.97866 172.798 10.1656C173.138 10.3525 173.452 10.6327 173.741 11.0065C174.03 11.3632 174.242 11.847 174.378 12.4588L175.906 17.9363H171.805L170.454 12.5859C170.301 12.0084 170.072 11.6095 169.766 11.3887C169.478 11.1679 169.07 11.0575 168.543 11.0575C167.388 11.0575 166.412 11.0575 165.613 11.0575C164.832 11.0404 164.169 11.0232 163.626 11.0065C163.099 10.9894 162.624 10.9722 162.2 10.9555L162.276 8.12745H168.62C169.299 8.12745 169.834 8.05931 170.225 7.9234C170.633 7.77076 170.913 7.50733 171.066 7.1339C171.236 6.76007 171.32 6.24197 171.32 5.5796C171.32 4.9001 171.236 4.382 171.066 4.02547C170.913 3.6518 170.633 3.39701 170.225 3.26115C169.834 3.10827 169.299 3.03183 168.62 3.03183C167.023 3.03183 165.673 3.04032 164.569 3.0573C163.465 3.07432 162.709 3.09978 162.301 3.13374L161.919 0.356689C162.632 0.27176 163.303 0.212301 163.932 0.178346C164.56 0.14435 165.248 0.127373 165.996 0.127373C166.743 0.110395 167.643 0.101906 168.696 0.101906ZM165.766 0.356689V17.9363H161.919V0.356689H165.766ZM182.313 0.356689V17.9363H178.44V0.356689H182.313ZM192.861 0C194.253 0 195.434 0.152839 196.402 0.458597C197.37 0.747338 198.152 1.23989 198.746 1.93629C199.34 2.61568 199.765 3.54989 200.02 4.73869C200.292 5.91079 200.428 7.3802 200.428 9.14651C200.428 10.9128 200.292 12.3906 200.02 13.5794C199.765 14.7515 199.34 15.6857 198.746 16.3824C198.152 17.0615 197.37 17.5541 196.402 17.8597C195.434 18.1487 194.253 18.2929 192.861 18.2929C191.468 18.2929 190.287 18.1487 189.319 17.8597C188.351 17.5541 187.57 17.0615 186.975 16.3824C186.381 15.6857 185.948 14.7515 185.676 13.5794C185.421 12.3906 185.294 10.9128 185.294 9.14651C185.294 7.3802 185.421 5.91079 185.676 4.73869C185.948 3.54989 186.381 2.61568 186.975 1.93629C187.57 1.23989 188.351 0.747338 189.319 0.458597C190.287 0.152839 191.468 0 192.861 0ZM191.587 18.8027C192.725 19.261 193.914 19.6265 195.154 19.8983C196.394 20.1868 197.727 20.4331 199.153 20.6371L198.134 24C196.606 23.6262 195.222 23.1591 193.982 22.5987C192.742 22.0384 191.638 21.4438 190.669 20.8153L191.587 18.8027ZM192.861 3.08281C191.977 3.08281 191.281 3.26115 190.771 3.61784C190.262 3.97449 189.905 4.59442 189.701 5.47758C189.498 6.344 189.396 7.56671 189.396 9.14651C189.396 10.7092 189.498 11.9319 189.701 12.8154C189.905 13.6986 190.262 14.3183 190.771 14.675C191.281 15.0317 191.977 15.2103 192.861 15.2103C193.744 15.2103 194.432 15.0317 194.924 14.675C195.434 14.3183 195.791 13.6986 195.994 12.8154C196.215 11.9319 196.325 10.7092 196.325 9.14651C196.325 7.56671 196.215 6.344 195.994 5.47758C195.791 4.59442 195.434 3.97449 194.924 3.61784C194.432 3.26115 193.744 3.08281 192.861 3.08281ZM217.459 0.356689V10.93C217.459 12.7134 217.238 14.1486 216.796 15.2358C216.355 16.3058 215.624 17.087 214.605 17.5796C213.603 18.055 212.261 18.2929 210.58 18.2929C208.796 18.2929 207.37 18.055 206.3 17.5796C205.23 17.087 204.457 16.3058 203.981 15.2358C203.506 14.1486 203.268 12.7134 203.268 10.93V0.356689H207.166V10.93C207.166 12.0339 207.259 12.9003 207.446 13.5288C207.65 14.1402 207.989 14.5734 208.465 14.8281C208.941 15.0827 209.578 15.2103 210.376 15.2103C211.174 15.2103 211.803 15.0827 212.261 14.8281C212.737 14.5734 213.068 14.1402 213.255 13.5288C213.459 12.9003 213.561 12.0339 213.561 10.93V0.356689H217.459ZM224.479 0.280252C225.43 0.280252 226.39 0.288738 227.358 0.305716C228.326 0.305716 229.277 0.322694 230.211 0.356689C231.146 0.390644 232.02 0.450108 232.836 0.535037L232.657 3.36306H225.906C225.481 3.36306 225.158 3.47345 224.938 3.69424C224.734 3.91507 224.632 4.23773 224.632 4.66257V13.6305C224.632 14.0553 224.734 14.3781 224.938 14.5989C225.158 14.8197 225.481 14.9301 225.906 14.9301H232.657L232.836 17.7581C232.02 17.8259 231.146 17.8852 230.211 17.9363C229.277 17.9701 228.326 17.9873 227.358 17.9873C226.39 18.0044 225.43 18.0128 224.479 18.0128C223.358 18.0128 222.449 17.69 221.753 17.0447C221.073 16.3824 220.734 15.5243 220.734 14.4714V3.82166C220.734 2.75158 221.073 1.89381 221.753 1.24838C222.449 0.602948 223.358 0.280252 224.479 0.280252ZM221.193 7.41407H231.715V10.1656H221.193V7.41407Z" fill="#111810"/>
<path d="M3.79647 0.280252C4.69636 0.280252 5.6138 0.288741 6.54797 0.305719C7.49928 0.305719 8.42468 0.331185 9.32498 0.382158C10.242 0.416113 11.0913 0.475574 11.8728 0.560502L11.6688 3.36306H5.29935C4.84103 3.36306 4.49271 3.47345 4.25479 3.69424C4.01726 3.91507 3.8981 4.23777 3.8981 4.66241V17.9363H0V3.87259C0 2.78554 0.348322 1.91932 1.04457 1.27388C1.74121 0.611436 2.65824 0.280252 3.79647 0.280252ZM0.458717 7.71975H10.7262V10.4713H0.458717V7.71975ZM21.4963 0.356691C21.8187 0.356691 22.0993 0.450109 22.3368 0.636943C22.5919 0.823777 22.7617 1.07003 22.8466 1.37579L27.9422 17.9363H23.9676L20.3752 5.0191C20.3071 4.73036 20.2393 4.44162 20.1712 4.15284C20.1034 3.84712 20.044 3.55838 19.993 3.28662H19.3051C19.2541 3.55838 19.1948 3.84712 19.1266 4.15284C19.076 4.44162 19.0078 4.73036 18.923 5.0191L15.3305 17.9363H11.3304L16.4516 1.37579C16.5365 1.07003 16.6979 0.823777 16.9358 0.636943C17.1905 0.450109 17.479 0.356691 17.8019 0.356691H21.4963ZM24.1968 10.3694V13.2994H15.0759V10.3694H24.1968ZM35.5428 0.0254665C36.4088 0.0254665 37.3513 0.0763989 38.3708 0.178345C39.3898 0.263273 40.3834 0.450108 41.3514 0.738849L41.0968 3.31208C40.3495 3.29511 39.4747 3.27813 38.4724 3.26115C37.4705 3.24413 36.4853 3.23565 35.5173 3.23565C35.0414 3.23565 34.6337 3.25262 34.2941 3.28662C33.9713 3.3036 33.7083 3.37155 33.5042 3.49043C33.3006 3.59234 33.1563 3.7537 33.0714 3.97449C32.9861 4.19532 32.9439 4.50104 32.9439 4.89173C32.9439 5.48619 33.0798 5.91932 33.3516 6.19108C33.6401 6.46284 34.1244 6.70914 34.8039 6.92993L38.1922 8.02547C39.6019 8.50104 40.5787 9.14647 41.1223 9.96176C41.6659 10.777 41.9377 11.8471 41.9377 13.172C41.9377 14.1741 41.8185 15.0064 41.581 15.6688C41.3431 16.3312 40.9692 16.8492 40.4599 17.223C39.9502 17.5966 39.2794 17.8599 38.4469 18.0127C37.6147 18.1826 36.5957 18.2675 35.3897 18.2675C34.8122 18.2675 33.9885 18.2251 32.9184 18.1401C31.8483 18.0722 30.6252 17.8854 29.2494 17.5796L29.5045 14.828C30.5064 14.845 31.3729 14.8705 32.103 14.9045C32.8502 14.9214 33.4875 14.9384 34.014 14.9554C34.5404 14.9554 34.9992 14.9554 35.3897 14.9554C36.0692 14.9554 36.5957 14.913 36.9695 14.828C37.3601 14.7431 37.6319 14.5732 37.7845 14.3185C37.9376 14.0637 38.0141 13.6985 38.0141 13.2229C38.0141 12.8153 37.9543 12.4926 37.8355 12.2548C37.7335 12 37.5554 11.8047 37.3007 11.6688C37.0628 11.5159 36.7316 11.38 36.3068 11.2612L32.7398 10.0382C31.3984 9.54565 30.4471 8.90022 29.8867 8.10191C29.326 7.3036 29.0458 6.25054 29.0458 4.94266C29.0458 3.92356 29.1646 3.09978 29.4025 2.47133C29.6572 1.8259 30.0394 1.32482 30.5491 0.968127C31.0756 0.611436 31.7463 0.365179 32.5617 0.229278C33.3938 0.0934165 34.3874 0.0254665 35.5428 0.0254665ZM48.5857 0.356691V17.9363H44.6876V0.356691H48.5857ZM55.1077 7.10827V10.0382H48.3816V7.10827H55.1077ZM58.7257 0.356691V17.9363H54.8276V0.356691H58.7257ZM66.1755 0.356691V17.9363H62.3029V0.356691H66.1755ZM76.7232 0C78.1161 0 79.2966 0.152839 80.2646 0.458597C81.2327 0.747337 82.0054 1.23989 82.5829 1.93629C83.1775 2.61568 83.6107 3.54989 83.8825 4.73885C84.1544 5.91083 84.2898 7.38004 84.2898 9.14647C84.2898 10.9129 84.1544 12.3906 83.8825 13.5796C83.6107 14.7516 83.1775 15.6858 82.5829 16.3822C82.0054 17.0616 81.2327 17.5541 80.2646 17.8599C79.2966 18.1486 78.1161 18.293 76.7232 18.293C75.3303 18.293 74.1499 18.1486 73.1818 17.8599C72.2138 17.5541 71.4322 17.0616 70.8376 16.3822C70.2434 15.6858 69.8102 14.7516 69.5384 13.5796C69.2666 12.3906 69.1307 10.9129 69.1307 9.14647C69.1307 7.38004 69.2666 5.91083 69.5384 4.73885C69.8102 3.54989 70.2434 2.61568 70.8376 1.93629C71.4322 1.23989 72.2138 0.747337 73.1818 0.458597C74.1499 0.152839 75.3303 0 76.7232 0ZM76.7232 3.08281C75.8229 3.08281 75.1179 3.26115 74.6086 3.61784C74.116 3.97449 73.7593 4.59446 73.5385 5.4777C73.3344 6.34396 73.2328 7.56687 73.2328 9.14647C73.2328 10.7091 73.3344 11.932 73.5385 12.8153C73.7593 13.6985 74.116 14.3185 74.6086 14.6751C75.1179 15.0318 75.8229 15.2102 76.7232 15.2102C77.6064 15.2102 78.2943 15.0318 78.7868 14.6751C79.2966 14.3185 79.6533 13.6985 79.8569 12.8153C80.0777 11.932 80.1881 10.7091 80.1881 9.14647C80.1881 7.56687 80.0777 6.34396 79.8569 5.4777C79.6533 4.59446 79.2966 3.97449 78.7868 3.61784C78.2943 3.26115 77.6064 3.08281 76.7232 3.08281ZM102.137 0.356691V16.535C102.137 17.4692 101.67 17.9363 100.735 17.9363H98.5953C98.1705 17.9363 97.8477 17.8429 97.6269 17.656C97.4061 17.4522 97.2025 17.155 97.0155 16.7643L92.1494 7.5414C91.9453 7.15072 91.7417 6.71763 91.538 6.24201C91.3511 5.76644 91.1897 5.30784 91.0538 4.86622H90.7736C90.8247 5.32482 90.8669 5.7919 90.9008 6.26752C90.9351 6.72611 90.9518 7.18471 90.9518 7.64331V17.9363H87.2578V1.75795C87.2578 0.823776 87.7332 0.356691 88.6845 0.356691H90.7991C91.2065 0.356691 91.5125 0.458598 91.7162 0.66241C91.937 0.849244 92.1494 1.13798 92.3531 1.52863L97.0666 10.4713C97.2702 10.862 97.4826 11.2951 97.7034 11.7707C97.9242 12.2463 98.1366 12.7388 98.3403 13.2484H98.646C98.5953 12.7388 98.5527 12.2463 98.5188 11.7707C98.5017 11.2781 98.4933 10.7941 98.4933 10.3185L98.4678 0.356691H102.137Z" fill="#111810"/>
</svg>
