<svg width="178" height="24" viewBox="0 0 178 24" fill="none" xmlns="http://www.w3.org/2000/svg">
<path d="M74.8466 0.288147H77.5261V19.8225H74.6449C71.6293 12.1201 69.6605 7.01087 68.7385 4.49465C68.7385 4.70594 68.7769 5.14772 68.8538 5.81999C69.0074 7.49107 69.0843 9.34462 69.0843 11.3806V19.8225H66.4336V0.288147H69.3436C72.0135 7.04929 73.6365 11.2366 74.2127 12.85C74.789 14.4635 75.1155 15.3759 75.1923 15.5872C75.1923 15.4143 75.1347 14.5691 75.0195 13.0517C74.9234 11.5151 74.8658 10.0361 74.8466 8.61473V0.288147Z" fill="#111810"/>
<path d="M61.0223 4.84036C61.0223 3.26532 60.1868 2.4778 58.5157 2.4778C56.8446 2.4778 56.0091 3.26532 56.0091 4.84036V15.2702C56.0091 16.8644 56.8446 17.6616 58.5157 17.6616C60.1868 17.6616 61.0223 16.8644 61.0223 15.2702V4.84036ZM53.3008 4.75393C53.3008 3.31334 53.733 2.16088 54.5973 1.29653C55.4809 0.432175 56.7774 0 58.4869 0C60.2156 0 61.5217 0.441779 62.4053 1.32534C63.2888 2.18969 63.7306 3.33255 63.7306 4.75393V15.3854C63.7306 16.8068 63.2888 17.9497 62.4053 18.814C61.5217 19.6784 60.2252 20.1106 58.5157 20.1106C56.8062 20.1106 55.5097 19.6784 54.6261 18.814C53.7426 17.9497 53.3008 16.8068 53.3008 15.3854V4.75393Z" fill="#111810"/>
<path d="M47.8906 0.288147H50.6277V19.8225H47.8906V0.288147Z" fill="#111810"/>
<path d="M42.1317 0.288147H44.8977V19.8225H42.1317V11.4383H36.6287V19.8225H33.8916V0.288147H36.6287V9.01809H42.1317V0.288147Z" fill="#111810"/>
<path d="M21.8105 4.43692C21.8105 3.07317 22.2523 2.01674 23.1359 1.26764C24.0386 0.518534 25.316 0.143982 26.9678 0.143982C28.6197 0.143982 29.9643 0.316852 31.0015 0.662593V3.25564C29.9643 2.85228 28.7061 2.6506 27.2271 2.6506C25.4408 2.6506 24.5477 3.31327 24.5477 4.63861V5.76226C24.5477 6.37691 24.6629 6.86671 24.8934 7.23166C25.1431 7.5774 25.5753 7.92314 26.1899 8.26888L29.5321 10.1416C31.0879 10.9868 31.8658 12.2641 31.8658 13.9736V15.587C31.8658 16.9892 31.376 18.0745 30.3964 18.8428C29.4168 19.5919 28.0339 19.9664 26.2475 19.9664C24.4804 19.9664 23.0591 19.7647 21.9834 19.3614V16.7683C23.2511 17.2293 24.5861 17.4598 25.9882 17.4598C28.0819 17.4598 29.1287 16.7491 29.1287 15.3277V14.3481C29.1287 13.7719 29.0231 13.3301 28.8118 13.0228C28.6005 12.6963 28.2067 12.3793 27.6305 12.072L24.3748 10.2857C22.6653 9.36372 21.8105 7.99037 21.8105 6.16562V4.43692Z" fill="#111810"/>
<path d="M18.5801 19.8225L17.5141 14.6364H12.6737L11.6077 19.8225H8.95703L13.2212 0.288147H17.0243L21.2308 19.8225H18.5801ZM13.1347 12.3026H17.0243L15.0651 2.82358L13.1347 12.3026Z" fill="#111810"/>
<path d="M0 0.288147H8.64351V2.67952H2.73711V9.24858H8.32658V11.6688H2.73711V19.8225H0V0.288147Z" fill="#111810"/>
<path d="M168.205 0.422577H177.108V2.81395H170.913V8.89321H176.301V11.2846H170.913V17.5943H177.108V19.9569H168.205V0.422577Z" fill="#111810"/>
<path d="M162.655 0.422577H165.363V15.5199C165.363 16.9413 164.922 18.0841 164.038 18.9485C163.174 19.8128 161.887 20.245 160.177 20.245C158.468 20.245 157.171 19.8128 156.288 18.9485C155.423 18.0841 154.991 16.9413 154.991 15.5199V0.422577H157.7V15.4047C157.7 16.9989 158.525 17.796 160.177 17.796C161.829 17.796 162.655 16.9989 162.655 15.4047V0.422577Z" fill="#111810"/>
<path d="M149.723 4.97488C149.723 3.39985 148.888 2.61233 147.217 2.61233C145.546 2.61233 144.71 3.39985 144.71 4.97488V15.4047C144.71 16.999 145.546 17.7961 147.217 17.7961C148.888 17.7961 149.723 16.999 149.723 15.4047V4.97488ZM142.002 4.88845C142.002 3.44787 142.434 2.2954 143.298 1.43105C144.182 0.566697 145.479 0.134521 147.188 0.134521C148.917 0.134521 150.223 0.576301 151.106 1.45986C151.99 2.32421 152.432 3.46707 152.432 4.88845V15.52C152.432 16.9413 151.99 18.0842 151.106 18.9486C150.223 19.8129 148.926 20.2451 147.217 20.2451C145.507 20.2451 144.211 19.8129 143.327 18.9486C142.444 18.0842 142.002 16.9413 142.002 15.52V4.88845Z" fill="#111810"/>
<path d="M136.592 0.422577H139.329V19.9569H136.592V0.422577Z" fill="#111810"/>
<path d="M126.512 12.3506V19.9569H123.804V0.422577H129.047C130.584 0.422577 131.756 0.806733 132.562 1.57505C133.388 2.34336 133.801 3.40939 133.801 4.77314V7.8848C133.801 10.0169 132.985 11.3902 131.352 12.0049L134.464 19.9569H131.468L128.673 12.3506H126.512ZM126.512 2.78514V10.0745H128.817C129.624 10.0745 130.2 9.89202 130.546 9.52707C130.911 9.16212 131.093 8.6051 131.093 7.85599V4.94601C131.093 3.50543 130.334 2.78514 128.817 2.78514H126.512Z" fill="#111810"/>
<path d="M120.933 4.85958V6.55947C120.933 8.38421 120.242 9.55588 118.859 10.0745C120.357 10.5739 121.106 11.784 121.106 13.7048V15.5199C121.106 16.9605 120.703 18.0649 119.896 18.8332C119.108 19.5823 117.937 19.9569 116.381 19.9569H110.705V0.422577H116.208C117.764 0.422577 118.936 0.806733 119.723 1.57505C120.53 2.32415 120.933 3.41899 120.933 4.85958ZM115.891 2.75632H113.413V8.92203H115.891C117.466 8.92203 118.254 8.17292 118.254 6.67471V4.97482C118.254 3.49582 117.466 2.75632 115.891 2.75632ZM118.427 15.4047V13.5607C118.427 12.0817 117.639 11.3422 116.064 11.3422H113.413V17.6232H116.064C117.639 17.6232 118.427 16.8837 118.427 15.4047Z" fill="#111810"/>
<path d="M106.438 19.9569L105.372 14.7708H100.531L99.4651 19.9569H96.8145L101.079 0.422577H104.882L109.088 19.9569H106.438ZM100.992 12.4371H104.882L102.923 2.95801L100.992 12.4371Z" fill="#111810"/>
<path d="M87.8574 0.422577H96.5009V2.81395H90.5945V9.38301H96.184V11.8032H90.5945V19.9569H87.8574V0.422577Z" fill="#111810"/>
<path d="M144.78 21.6949H149.909V23.9999H144.78V21.6949Z" fill="#111810"/>
</svg>
