<svg width="34" height="34" viewBox="0 0 34 34" fill="none" xmlns="http://www.w3.org/2000/svg">
<rect width="34" height="34" rx="17" fill="#111810"/>
<path fill-rule="evenodd" clip-rule="evenodd" d="M16.9524 10.2544C18.1356 10.2544 18.7272 10.812 18.7272 11.9272V19.312C18.7272 20.4408 18.1356 21.0052 16.9524 21.0052C15.7692 21.0052 15.1776 20.4408 15.1776 19.312V11.9272C15.1776 10.812 15.7692 10.2544 16.9524 10.2544ZM14.178 9.418C13.566 10.03 13.26 10.846 13.26 11.866V19.3936C13.26 20.4 13.5728 21.2092 14.1984 21.8212C14.824 22.4332 15.742 22.7392 16.9524 22.7392C18.1628 22.7392 19.0808 22.4332 19.7064 21.8212C20.332 21.2092 20.6448 20.4 20.6448 19.3936V11.866C20.6448 10.8596 20.332 10.0504 19.7064 9.4384C19.0808 8.8128 18.156 8.5 16.932 8.5C15.7216 8.5 14.8036 8.806 14.178 9.418ZM18.9312 23.766H15.3V25.398H18.9312V23.766Z" fill="white"/>
</svg>
