<svg width="32" height="32" viewBox="0 0 32 32" fill="none" xmlns="http://www.w3.org/2000/svg">
<circle cx="16" cy="16" r="16" fill="white" fill-opacity="0.6"/>
<path d="M22.3755 23.0824L19.415 20.123C18.915 20.549 18.34 20.8787 17.69 21.112C17.04 21.3453 16.3867 21.462 15.73 21.462C14.1287 21.462 12.7733 20.9077 11.664 19.799C10.5547 18.6897 10 17.3347 10 15.734C10 14.1333 10.554 12.7777 11.662 11.667C12.7707 10.5557 14.1253 10 15.726 10C17.3273 10 18.6833 10.5547 19.794 11.664C20.9047 12.7733 21.46 14.129 21.46 15.731C21.46 16.4257 21.337 17.098 21.091 17.748C20.8443 18.398 20.521 18.954 20.121 19.416L23.0815 22.3744L22.3745 23.0824H22.3755ZM15.73 20.461C17.0567 20.461 18.177 20.0043 19.091 19.091C20.0043 18.1777 20.461 17.0573 20.461 15.73C20.461 14.4033 20.0043 13.2833 19.091 12.37C18.1777 11.4567 17.0577 11 15.731 11C14.4043 11 13.284 11.4567 12.37 12.37C11.4567 13.2833 11 14.4033 11 15.73C11 17.0567 11.4567 18.1767 12.37 19.09C13.2833 20.0033 14.4033 20.461 15.73 20.461Z" fill="#111810"/>
</svg>
