<svg width="178" height="24" viewBox="0 0 178 24" fill="none" xmlns="http://www.w3.org/2000/svg">
<path d="M74.8466 0.288086H77.5261V19.8224H74.6449C71.6293 12.1201 69.6605 7.01081 68.7385 4.49459C68.7385 4.70588 68.7769 5.14766 68.8538 5.81993C69.0074 7.49101 69.0843 9.34456 69.0843 11.3806V19.8224H66.4336V0.288086H69.3436C72.0135 7.04923 73.6365 11.2365 74.2127 12.85C74.789 14.4634 75.1155 15.3758 75.1923 15.5871C75.1923 15.4142 75.1347 14.5691 75.0195 13.0517C74.9234 11.515 74.8658 10.036 74.8466 8.61466V0.288086Z" fill="#111810"/>
<path d="M61.0218 4.84036C61.0218 3.26532 60.1863 2.4778 58.5152 2.4778C56.8441 2.4778 56.0086 3.26532 56.0086 4.84036V15.2702C56.0086 16.8644 56.8441 17.6616 58.5152 17.6616C60.1863 17.6616 61.0218 16.8644 61.0218 15.2702V4.84036ZM53.3003 4.75393C53.3003 3.31334 53.7325 2.16088 54.5968 1.29653C55.4804 0.432175 56.7769 0 58.4864 0C60.2151 0 61.5212 0.441779 62.4048 1.32534C63.2883 2.18969 63.7301 3.33255 63.7301 4.75393V15.3854C63.7301 16.8068 63.2883 17.9497 62.4048 18.814C61.5212 19.6784 60.2247 20.1106 58.5152 20.1106C56.8057 20.1106 55.5092 19.6784 54.6256 18.814C53.7421 17.9497 53.3003 16.8068 53.3003 15.3854V4.75393Z" fill="#111810"/>
<path d="M47.8901 0.288086H50.6272V19.8224H47.8901V0.288086Z" fill="#111810"/>
<path d="M42.1322 0.288086H44.8982V19.8224H42.1322V11.4382H36.6292V19.8224H33.8921V0.288086H36.6292V9.01803H42.1322V0.288086Z" fill="#111810"/>
<path d="M21.8105 4.43698C21.8105 3.07323 22.2523 2.0168 23.1359 1.2677C24.0386 0.518595 25.316 0.144043 26.9678 0.144043C28.6197 0.144043 29.9643 0.316913 31.0015 0.662654V3.2557C29.9643 2.85234 28.7061 2.65066 27.2271 2.65066C25.4408 2.65066 24.5477 3.31333 24.5477 4.63867V5.76232C24.5477 6.37697 24.6629 6.86677 24.8934 7.23172C25.1431 7.57746 25.5753 7.9232 26.1899 8.26894L29.5321 10.1417C31.0879 10.9868 31.8658 12.2642 31.8658 13.9737V15.5871C31.8658 16.9893 31.376 18.0745 30.3964 18.8428C29.4168 19.5919 28.0339 19.9665 26.2475 19.9665C24.4804 19.9665 23.0591 19.7648 21.9834 19.3614V16.7684C23.2511 17.2294 24.5861 17.4599 25.9882 17.4599C28.0819 17.4599 29.1287 16.7492 29.1287 15.3278V14.3482C29.1287 13.772 29.0231 13.3302 28.8118 13.0229C28.6005 12.6963 28.2067 12.3794 27.6305 12.0721L24.3748 10.2858C22.6653 9.36378 21.8105 7.99043 21.8105 6.16569V4.43698Z" fill="#111810"/>
<path d="M18.5801 19.8224L17.5141 14.6363H12.6737L11.6077 19.8224H8.95703L13.2212 0.288086H17.0243L21.2308 19.8224H18.5801ZM13.1347 12.3026H17.0243L15.0651 2.82351L13.1347 12.3026Z" fill="#111810"/>
<path d="M0 0.288086H8.64351V2.67946H2.73711V9.24852H8.32658V11.6687H2.73711V19.8224H0V0.288086Z" fill="#111810"/>
<path d="M168.205 0.422607H177.108V2.81398H170.913V8.89324H176.301V11.2846H170.913V17.5944H177.108V19.9569H168.205V0.422607Z" fill="#111810"/>
<path d="M162.655 0.422607H165.363V15.5199C165.363 16.9413 164.921 18.0842 164.038 18.9485C163.173 19.8129 161.886 20.245 160.177 20.245C158.467 20.245 157.171 19.8129 156.287 18.9485C155.423 18.0842 154.991 16.9413 154.991 15.5199V0.422607H157.699V15.4047C157.699 16.9989 158.525 17.7961 160.177 17.7961C161.829 17.7961 162.655 16.9989 162.655 15.4047V0.422607Z" fill="#111810"/>
<path d="M149.723 4.97488C149.723 3.39985 148.888 2.61233 147.217 2.61233C145.546 2.61233 144.71 3.39985 144.71 4.97488V15.4047C144.71 16.999 145.546 17.7961 147.217 17.7961C148.888 17.7961 149.723 16.999 149.723 15.4047V4.97488ZM142.002 4.88845C142.002 3.44787 142.434 2.2954 143.298 1.43105C144.182 0.566697 145.479 0.134521 147.188 0.134521C148.917 0.134521 150.223 0.576301 151.106 1.45986C151.99 2.32421 152.432 3.46707 152.432 4.88845V15.52C152.432 16.9413 151.99 18.0842 151.106 18.9486C150.223 19.8129 148.926 20.2451 147.217 20.2451C145.507 20.2451 144.211 19.8129 143.327 18.9486C142.444 18.0842 142.002 16.9413 142.002 15.52V4.88845Z" fill="#111810"/>
<path d="M136.592 0.422607H139.329V19.9569H136.592V0.422607Z" fill="#111810"/>
<path d="M126.512 12.3506V19.9569H123.803V0.422607H129.047C130.584 0.422607 131.755 0.806763 132.562 1.57508C133.388 2.34339 133.801 3.40942 133.801 4.77317V7.88484C133.801 10.0169 132.985 11.3903 131.352 12.0049L134.464 19.9569H131.467L128.672 12.3506H126.512ZM126.512 2.78517V10.0745H128.816C129.623 10.0745 130.199 9.89205 130.545 9.5271C130.91 9.16215 131.093 8.60513 131.093 7.85602V4.94604C131.093 3.50546 130.334 2.78517 128.816 2.78517H126.512Z" fill="#111810"/>
<path d="M120.934 4.85961V6.5595C120.934 8.38424 120.242 9.55591 118.859 10.0745C120.357 10.5739 121.107 11.784 121.107 13.7048V15.5199C121.107 16.9605 120.703 18.065 119.896 18.8333C119.109 19.5824 117.937 19.9569 116.381 19.9569H110.706V0.422607H116.209C117.764 0.422607 118.936 0.806763 119.724 1.57508C120.53 2.32418 120.934 3.41902 120.934 4.85961ZM115.892 2.75636H113.414V8.92206H115.892C117.467 8.92206 118.254 8.17295 118.254 6.67474V4.97485C118.254 3.49585 117.467 2.75636 115.892 2.75636ZM118.427 15.4047V13.5607C118.427 12.0817 117.64 11.3422 116.065 11.3422H113.414V17.6232H116.065C117.64 17.6232 118.427 16.8837 118.427 15.4047Z" fill="#111810"/>
<path d="M106.438 19.9569L105.372 14.7708H100.531L99.4651 19.9569H96.8145L101.079 0.422607H104.882L109.088 19.9569H106.438ZM100.992 12.4371H104.882L102.923 2.95804L100.992 12.4371Z" fill="#111810"/>
<path d="M87.8574 0.422607H96.5009V2.81398H90.5945V9.38304H96.184V11.8032H90.5945V19.9569H87.8574V0.422607Z" fill="#111810"/>
<path d="M144.78 21.6949H149.908V23.9999H144.78V21.6949Z" fill="#111810"/>
</svg>
