<svg width="89" height="24" viewBox="0 0 89 24" fill="none" xmlns="http://www.w3.org/2000/svg">
<g clip-path="url(#clip0_1_856)">
<path d="M31.1861 8.12003H32.3025V16.2593H31.1021C29.8455 13.05 29.0252 10.9212 28.6411 9.87274C28.6411 9.96077 28.6571 10.1448 28.6891 10.425C28.7531 11.1212 28.7851 11.8936 28.7851 12.7419V16.2593H27.6807V8.12003H28.8932C30.0056 10.9372 30.6819 12.6819 30.922 13.3541C31.1621 14.0264 31.2981 14.4066 31.3301 14.4946C31.3301 14.4226 31.3061 14.0704 31.2581 13.4382C31.2181 12.7979 31.1941 12.1817 31.1861 11.5894V8.12003Z" fill="white"/>
<path d="M25.4253 10.0168C25.4253 9.36055 25.0772 9.03242 24.3809 9.03242C23.6846 9.03242 23.3365 9.36055 23.3365 10.0168V14.3626C23.3365 15.0269 23.6846 15.359 24.3809 15.359C25.0772 15.359 25.4253 15.0269 25.4253 14.3626V10.0168ZM22.208 9.9808C22.208 9.38056 22.3881 8.90037 22.7482 8.54022C23.1164 8.18007 23.6566 8 24.3689 8C25.0892 8 25.6334 8.18407 26.0015 8.55222C26.3697 8.91237 26.5538 9.38856 26.5538 9.9808V14.4106C26.5538 15.0028 26.3697 15.479 26.0015 15.8392C25.6334 16.1993 25.0932 16.3794 24.3809 16.3794C23.6686 16.3794 23.1284 16.1993 22.7602 15.8392C22.3921 15.479 22.208 15.0028 22.208 14.4106V9.9808Z" fill="white"/>
<path d="M19.9541 8.12003H21.0946V16.2593H19.9541V8.12003Z" fill="white"/>
<path d="M17.5555 8.12003H18.7079V16.2593H17.5555V12.7659H15.2625V16.2593H14.1221V8.12003H15.2625V11.7575H17.5555V8.12003Z" fill="white"/>
<path d="M9.08789 9.84875C9.08789 9.28052 9.27196 8.84034 9.64011 8.52822C10.0163 8.21609 10.5485 8.06003 11.2368 8.06003C11.925 8.06003 12.4853 8.13206 12.9174 8.27612V9.35655C12.4853 9.18849 11.9611 9.10445 11.3448 9.10445C10.6005 9.10445 10.2284 9.38056 10.2284 9.93279V10.401C10.2284 10.6571 10.2764 10.8612 10.3724 11.0132C10.4765 11.1573 10.6565 11.3013 10.9126 11.4454L12.3052 12.2257C12.9535 12.5779 13.2776 13.1101 13.2776 13.8224V14.4946C13.2776 15.0789 13.0735 15.5311 12.6653 15.8512C12.2572 16.1633 11.6809 16.3194 10.9366 16.3194C10.2003 16.3194 9.6081 16.2353 9.15992 16.0673V14.9868C9.68813 15.1789 10.2444 15.275 10.8286 15.275C11.701 15.275 12.1371 14.9788 12.1371 14.3866V13.9784C12.1371 13.7383 12.0931 13.5543 12.0051 13.4262C11.917 13.2902 11.753 13.1581 11.5129 13.03L10.1563 12.2857C9.44404 11.9016 9.08789 11.3294 9.08789 10.569V9.84875Z" fill="white"/>
<path d="M7.74205 16.2593L7.29787 14.0985H5.28105L4.83687 16.2593H3.73242L5.50914 8.12003H7.09379L8.8465 16.2593H7.74205ZM5.47313 13.1261H7.09379L6.27745 9.17645L5.47313 13.1261Z" fill="white"/>
<path d="M0 8.12003H3.60146V9.11643H1.14046V11.8535H3.46941V12.8619H1.14046V16.2593H0V8.12003Z" fill="white"/>
<path d="M70.0859 8.17612H73.7954V9.17252H71.2144V11.7055H73.4593V12.702H71.2144V15.331H73.7954V16.3154H70.0859V8.17612Z" fill="white"/>
<path d="M67.7734 8.17612H68.9018V14.4667C68.9018 15.0589 68.7178 15.5351 68.3496 15.8952C67.9895 16.2554 67.4532 16.4355 66.741 16.4355C66.0287 16.4355 65.4884 16.2554 65.1203 15.8952C64.7602 15.5351 64.5801 15.0589 64.5801 14.4667V8.17612H65.7085V14.4187C65.7085 15.0829 66.0527 15.4151 66.741 15.4151C67.4292 15.4151 67.7734 15.0829 67.7734 14.4187V8.17612Z" fill="white"/>
<path d="M62.3853 10.0729C62.3853 9.41664 62.0371 9.08851 61.3409 9.08851C60.6446 9.08851 60.2964 9.41664 60.2964 10.0729V14.4187C60.2964 15.0829 60.6446 15.4151 61.3409 15.4151C62.0371 15.4151 62.3853 15.0829 62.3853 14.4187V10.0729ZM59.168 10.0369C59.168 9.43665 59.348 8.95646 59.7082 8.59631C60.0763 8.23616 60.6166 8.05609 61.3288 8.05609C62.0491 8.05609 62.5934 8.24017 62.9615 8.60832C63.3297 8.96846 63.5137 9.44465 63.5137 10.0369V14.4667C63.5137 15.0589 63.3297 15.5351 62.9615 15.8953C62.5934 16.2554 62.0531 16.4355 61.3409 16.4355C60.6286 16.4355 60.0883 16.2554 59.7202 15.8953C59.352 15.5351 59.168 15.0589 59.168 14.4667V10.0369Z" fill="white"/>
<path d="M56.9131 8.17612H58.0535V16.3154H56.9131V8.17612Z" fill="white"/>
<path d="M52.7134 13.1461V16.3154H51.585V8.17612H53.7698C54.4101 8.17612 54.8983 8.33618 55.2344 8.65631C55.5786 8.97644 55.7507 9.42062 55.7507 9.98885V11.2854C55.7507 12.1737 55.4105 12.746 54.7302 13.0021L56.0268 16.3154H54.7783L53.6138 13.1461H52.7134ZM52.7134 9.16052V12.1977H53.6738C54.0099 12.1977 54.25 12.1217 54.3941 11.9697C54.5462 11.8176 54.6222 11.5855 54.6222 11.2734V10.0609C54.6222 9.46064 54.3061 9.16052 53.6738 9.16052H52.7134Z" fill="white"/>
<path d="M50.3887 10.0249V10.7332C50.3887 11.4935 50.1006 11.9817 49.5243 12.1977C50.1486 12.4058 50.4607 12.91 50.4607 13.7104V14.4667C50.4607 15.0669 50.2926 15.5271 49.9565 15.8472C49.6284 16.1594 49.1402 16.3154 48.4919 16.3154H46.127V8.17612H48.4199C49.0681 8.17612 49.5563 8.33618 49.8845 8.65631C50.2206 8.96844 50.3887 9.42462 50.3887 10.0249ZM48.2878 9.14851H47.2554V11.7176H48.2878C48.9441 11.7176 49.2722 11.4054 49.2722 10.7812V10.0729C49.2722 9.45664 48.9441 9.14851 48.2878 9.14851ZM49.3443 14.4187V13.6503C49.3443 13.0341 49.0161 12.726 48.3599 12.726H47.2554V15.343H48.3599C49.0161 15.343 49.3443 15.0349 49.3443 14.4187Z" fill="white"/>
<path d="M44.3495 16.3154L43.9053 14.1545H41.8885L41.4443 16.3154H40.3398L42.1166 8.17612H43.7012L45.4539 16.3154H44.3495ZM42.0805 13.1821H43.7012L42.8849 9.23255L42.0805 13.1821Z" fill="white"/>
<path d="M36.6074 8.17612H40.2089V9.17252H37.7479V11.9096H40.0768V12.918H37.7479V16.3154H36.6074V8.17612Z" fill="white"/>
<path d="M60.3252 17.0396H62.4621V17.9999H60.3252V17.0396Z" fill="white"/>
</g>
<defs>
<clipPath id="clip0_1_856">
<rect width="89" height="24" fill="white"/>
</clipPath>
</defs>
</svg>
