<svg width="394" height="164" viewBox="0 0 394 164" fill="none" xmlns="http://www.w3.org/2000/svg">
<rect width="98.5" height="33.3333" transform="translate(0 0.666992)" fill="#C2C6C7"/>
<path d="M29.4951 17.9304H27.3213V16.8572H29.4951C29.9053 16.8572 30.2357 16.7751 30.4863 16.6111C30.7415 16.447 30.9261 16.2192 31.04 15.9275C31.1585 15.6358 31.2178 15.3031 31.2178 14.9294C31.2178 14.5876 31.1585 14.2664 31.04 13.9656C30.9261 13.6648 30.7415 13.4233 30.4863 13.241C30.2357 13.0541 29.9053 12.9607 29.4951 12.9607H27.5811V21.8337H26.3232V11.8806H29.4951C30.1377 11.8806 30.68 12.0105 31.1221 12.2703C31.5641 12.53 31.8991 12.8901 32.127 13.3503C32.3594 13.8061 32.4756 14.3279 32.4756 14.9158C32.4756 15.5538 32.3594 16.0984 32.127 16.5496C31.8991 17.0007 31.5641 17.3448 31.1221 17.5818C30.68 17.8142 30.1377 17.9304 29.4951 17.9304ZM36.3721 12.7625L33.6514 21.8337H32.3662L35.5723 11.8806H36.3789L36.3721 12.7625ZM38.5732 21.8337L35.8525 12.7625L35.8389 11.8806H36.6523L39.8584 21.8337H38.5732ZM38.5732 18.1492V19.2292H33.7744V18.1492H38.5732ZM43.8301 17.0554H42.8594V16.2146H43.7891C44.1764 16.2146 44.4886 16.144 44.7256 16.0027C44.9626 15.8614 45.1357 15.6654 45.2451 15.4148C45.3545 15.1641 45.4092 14.8748 45.4092 14.5466C45.4092 14.2322 45.3477 13.9451 45.2246 13.6853C45.1061 13.421 44.9215 13.2113 44.6709 13.0564C44.4202 12.8969 44.0944 12.8171 43.6934 12.8171C43.3971 12.8171 43.1283 12.8901 42.8867 13.0359C42.6452 13.1772 42.4538 13.3754 42.3125 13.6306C42.1758 13.8813 42.1074 14.1707 42.1074 14.4988H40.8496C40.8496 14.075 40.9225 13.6944 41.0684 13.3572C41.2188 13.0154 41.4238 12.726 41.6836 12.489C41.9479 12.2475 42.251 12.0629 42.5928 11.9353C42.9391 11.8077 43.306 11.7439 43.6934 11.7439C44.1445 11.7439 44.5524 11.8054 44.917 11.9285C45.2816 12.047 45.5938 12.2247 45.8535 12.4617C46.1178 12.6986 46.3184 12.9926 46.4551 13.3435C46.5964 13.6944 46.667 14.1023 46.667 14.5671C46.667 14.9089 46.5986 15.2302 46.4619 15.531C46.3298 15.8318 46.1361 16.0961 45.8809 16.324C45.6302 16.5518 45.3317 16.7319 44.9854 16.864C44.639 16.9916 44.2539 17.0554 43.8301 17.0554ZM42.8594 16.4744H43.8301C44.2949 16.4744 44.7096 16.5313 45.0742 16.6453C45.4434 16.7592 45.7555 16.9255 46.0107 17.1443C46.266 17.363 46.4596 17.6342 46.5918 17.9578C46.7285 18.2768 46.7969 18.6436 46.7969 19.0583C46.7969 19.5232 46.7194 19.9356 46.5645 20.2957C46.4141 20.6557 46.1999 20.961 45.9219 21.2117C45.6439 21.4623 45.3158 21.6514 44.9375 21.7791C44.5592 21.9067 44.1445 21.9705 43.6934 21.9705C43.3288 21.9705 42.971 21.9158 42.6201 21.8064C42.2692 21.6925 41.9502 21.5193 41.6631 21.2869C41.3805 21.0499 41.1527 20.7491 40.9795 20.3845C40.8109 20.0199 40.7266 19.5824 40.7266 19.072H41.9844C41.9844 19.4047 42.055 19.71 42.1963 19.988C42.3421 20.266 42.5426 20.4893 42.7979 20.658C43.0531 20.822 43.3516 20.9041 43.6934 20.9041C44.0853 20.9041 44.418 20.8266 44.6914 20.6716C44.9694 20.5121 45.179 20.2957 45.3203 20.0222C45.4661 19.7442 45.5391 19.432 45.5391 19.0857C45.5391 18.7804 45.5003 18.516 45.4229 18.2927C45.3499 18.0649 45.2383 17.878 45.0879 17.7322C44.9421 17.5863 44.7598 17.4792 44.541 17.4109C44.3268 17.338 44.0762 17.3015 43.7891 17.3015H42.8594V16.4744ZM48.8682 11.8806H50.085L52.6895 19.9949L55.2871 11.8806H56.5039L53.1611 21.8337H52.2041L48.8682 11.8806ZM48.4717 11.8806H49.5381L49.7227 17.9509V21.8337H48.4717V11.8806ZM55.8271 11.8806H56.8936V21.8337H55.6426V17.9509L55.8271 11.8806ZM64.4062 20.7605V21.8337H60.0859V20.7605H64.4062ZM60.3115 11.8806V21.8337H59.0537V11.8806H60.3115ZM63.8252 16.1599V17.2332H60.0859V16.1599H63.8252ZM64.3379 11.8806V12.9607H60.0859V11.8806H64.3379ZM69.1846 17.9304H67.0107V16.8572H69.1846C69.5947 16.8572 69.9251 16.7751 70.1758 16.6111C70.431 16.447 70.6156 16.2192 70.7295 15.9275C70.848 15.6358 70.9072 15.3031 70.9072 14.9294C70.9072 14.5876 70.848 14.2664 70.7295 13.9656C70.6156 13.6648 70.431 13.4233 70.1758 13.241C69.9251 13.0541 69.5947 12.9607 69.1846 12.9607H67.2705V21.8337H66.0127V11.8806H69.1846C69.8271 11.8806 70.3695 12.0105 70.8115 12.2703C71.2536 12.53 71.5885 12.8901 71.8164 13.3503C72.0488 13.8061 72.165 14.3279 72.165 14.9158C72.165 15.5538 72.0488 16.0984 71.8164 16.5496C71.5885 17.0007 71.2536 17.3448 70.8115 17.5818C70.3695 17.8142 69.8271 17.9304 69.1846 17.9304Z" fill="#111810"/>
<mask id="path-2-inside-1_1190_23763" fill="white">
<path d="M0 33.0002H98.5V66.3336H0V33.0002Z"/>
</mask>
<path d="M98.5 65.3336H0V67.3336H98.5V65.3336Z" fill="#C2C6C7" mask="url(#path-2-inside-1_1190_23763)"/>
<path d="M48.6143 53.1279V54.167H43.0498V53.2578L45.791 49.6279C46.1283 49.1813 46.3857 48.8031 46.5635 48.4932C46.7412 48.1787 46.8643 47.8984 46.9326 47.6523C47.001 47.4017 47.0352 47.1465 47.0352 46.8867C47.0352 46.5586 46.9827 46.2624 46.8779 45.998C46.7731 45.7292 46.6204 45.515 46.4199 45.3555C46.2194 45.196 45.9779 45.1162 45.6953 45.1162C45.3262 45.1162 45.0231 45.2028 44.7861 45.376C44.5537 45.5446 44.3828 45.7816 44.2734 46.0869C44.1641 46.3923 44.1094 46.7432 44.1094 47.1396H42.8994C42.8994 46.5791 43.002 46.0664 43.207 45.6016C43.4167 45.1367 43.7288 44.7676 44.1436 44.4941C44.5583 44.2161 45.0755 44.0771 45.6953 44.0771C46.2285 44.0771 46.6842 44.1888 47.0625 44.4121C47.4453 44.6309 47.737 44.9408 47.9375 45.3418C48.1426 45.7383 48.2451 46.2031 48.2451 46.7363C48.2451 47.028 48.2041 47.3242 48.1221 47.625C48.0446 47.9212 47.9352 48.2174 47.7939 48.5137C47.6572 48.8099 47.4954 49.1016 47.3086 49.3887C47.1217 49.6758 46.9212 49.9583 46.707 50.2363L44.499 53.1279H48.6143ZM51.4307 49.4297L50.4668 49.1699L50.8906 44.2139H55.2246V45.3828H51.9092L51.6768 48.0898C51.8317 47.985 52.0186 47.887 52.2373 47.7959C52.4561 47.7048 52.7113 47.6592 53.0029 47.6592C53.3949 47.6592 53.7435 47.7389 54.0488 47.8984C54.3587 48.0534 54.6208 48.2767 54.835 48.5684C55.0492 48.86 55.2132 49.2109 55.3271 49.6211C55.4411 50.0312 55.498 50.4893 55.498 50.9951C55.498 51.4736 55.4411 51.9134 55.3271 52.3145C55.2178 52.7155 55.0492 53.0664 54.8213 53.3672C54.598 53.6634 54.3154 53.8936 53.9736 54.0576C53.6364 54.2217 53.2422 54.3037 52.791 54.3037C52.4538 54.3037 52.1348 54.249 51.834 54.1396C51.5332 54.0257 51.262 53.8548 51.0205 53.627C50.7835 53.3945 50.5898 53.1074 50.4395 52.7656C50.2891 52.4193 50.1956 52.0137 50.1592 51.5488H51.3008C51.3464 51.9225 51.4329 52.237 51.5605 52.4922C51.6927 52.7474 51.8613 52.9411 52.0664 53.0732C52.276 53.2008 52.5176 53.2646 52.791 53.2646C53.0234 53.2646 53.2331 53.2122 53.4199 53.1074C53.6068 53.0026 53.764 52.8522 53.8916 52.6562C54.0192 52.4603 54.1172 52.2233 54.1855 51.9453C54.2539 51.6673 54.2881 51.3551 54.2881 51.0088C54.2881 50.6943 54.2539 50.4027 54.1855 50.1338C54.1172 49.8649 54.0146 49.6302 53.8779 49.4297C53.7412 49.2292 53.5749 49.0742 53.3789 48.9648C53.1875 48.8509 52.9642 48.7939 52.709 48.7939C52.3672 48.7939 52.1143 48.8509 51.9502 48.9648C51.7907 49.0788 51.6175 49.2337 51.4307 49.4297Z" fill="black"/>
<mask id="path-5-inside-2_1190_23763" fill="white">
<path d="M0 65.3337H98.5V98.6671H0V65.3337Z"/>
</mask>
<path d="M98.5 97.6671H0V99.6671H98.5V97.6671Z" fill="#C2C6C7" mask="url(#path-5-inside-2_1190_23763)"/>
<path d="M48.6143 85.4614V86.5005H43.0498V85.5913L45.791 81.9614C46.1283 81.5148 46.3857 81.1366 46.5635 80.8267C46.7412 80.5122 46.8643 80.2319 46.9326 79.9858C47.001 79.7352 47.0352 79.48 47.0352 79.2202C47.0352 78.8921 46.9827 78.5959 46.8779 78.3315C46.7731 78.0627 46.6204 77.8485 46.4199 77.689C46.2194 77.5295 45.9779 77.4497 45.6953 77.4497C45.3262 77.4497 45.0231 77.5363 44.7861 77.7095C44.5537 77.8781 44.3828 78.1151 44.2734 78.4204C44.1641 78.7257 44.1094 79.0767 44.1094 79.4731H42.8994C42.8994 78.9126 43.002 78.3999 43.207 77.9351C43.4167 77.4702 43.7288 77.1011 44.1436 76.8276C44.5583 76.5496 45.0755 76.4106 45.6953 76.4106C46.2285 76.4106 46.6842 76.5223 47.0625 76.7456C47.4453 76.9644 47.737 77.2743 47.9375 77.6753C48.1426 78.0718 48.2451 78.5366 48.2451 79.0698C48.2451 79.3615 48.2041 79.6577 48.1221 79.9585C48.0446 80.2547 47.9352 80.5509 47.7939 80.8472C47.6572 81.1434 47.4954 81.4351 47.3086 81.7222C47.1217 82.0093 46.9212 82.2918 46.707 82.5698L44.499 85.4614H48.6143ZM54.0898 76.5337H54.1787V77.6069H54.0898C53.5156 77.6069 53.0439 77.7163 52.6748 77.9351C52.3102 78.1493 52.0254 78.4386 51.8203 78.8032C51.6198 79.1632 51.4808 79.5688 51.4033 80.02C51.3258 80.4712 51.2871 80.9292 51.2871 81.394V82.8569C51.2871 83.299 51.3281 83.6909 51.4102 84.0327C51.4967 84.37 51.6084 84.6548 51.7451 84.8872C51.8864 85.1196 52.0436 85.2951 52.2168 85.4136C52.3945 85.5321 52.5745 85.5913 52.7568 85.5913C52.9893 85.5913 53.1943 85.5366 53.3721 85.4272C53.5544 85.3133 53.7048 85.1561 53.8232 84.9556C53.9463 84.7505 54.0397 84.509 54.1035 84.231C54.1673 83.953 54.1992 83.6476 54.1992 83.3149C54.1992 83.0187 54.1696 82.7339 54.1104 82.4604C54.0557 82.1825 53.9714 81.9364 53.8574 81.7222C53.7435 81.5034 53.5977 81.3325 53.4199 81.2095C53.2467 81.0819 53.0394 81.0181 52.7979 81.0181C52.5244 81.0181 52.2692 81.1047 52.0322 81.2778C51.7998 81.4465 51.6084 81.6698 51.458 81.9478C51.3076 82.2212 51.2188 82.5197 51.1914 82.8433L50.5693 82.8364C50.6331 82.326 50.7402 81.8908 50.8906 81.5308C51.041 81.1662 51.2233 80.87 51.4375 80.6421C51.6562 80.4097 51.8978 80.241 52.1621 80.1362C52.4264 80.0269 52.7044 79.9722 52.9961 79.9722C53.4199 79.9722 53.7822 80.0656 54.083 80.2524C54.3883 80.4393 54.6367 80.6899 54.8281 81.0044C55.0241 81.3143 55.1676 81.6652 55.2588 82.0571C55.3499 82.4445 55.3955 82.8433 55.3955 83.2534C55.3955 83.7228 55.3385 84.1626 55.2246 84.5728C55.1152 84.9829 54.9512 85.3429 54.7324 85.6528C54.5137 85.9627 54.238 86.2043 53.9053 86.3774C53.5771 86.5506 53.1943 86.6372 52.7568 86.6372C52.292 86.6372 51.891 86.5278 51.5537 86.3091C51.2165 86.0858 50.9362 85.7896 50.7129 85.4204C50.4941 85.0513 50.3324 84.6411 50.2275 84.1899C50.1227 83.7388 50.0703 83.2808 50.0703 82.8159V82.2212C50.0703 81.5194 50.1204 80.8312 50.2207 80.1567C50.321 79.4823 50.5101 78.8716 50.7881 78.3247C51.0706 77.7778 51.4762 77.3426 52.0049 77.019C52.5381 76.6955 53.2331 76.5337 54.0898 76.5337Z" fill="black"/>
<mask id="path-8-inside-3_1190_23763" fill="white">
<path d="M0 97.667H98.5V131H0V97.667Z"/>
</mask>
<path d="M98.5 130H0V132H98.5V130Z" fill="#C2C6C7" mask="url(#path-8-inside-3_1190_23763)"/>
<path d="M48.6143 117.795V118.834H43.0498V117.925L45.791 114.295C46.1283 113.848 46.3857 113.47 46.5635 113.16C46.7412 112.845 46.8643 112.565 46.9326 112.319C47.001 112.068 47.0352 111.813 47.0352 111.553C47.0352 111.225 46.9827 110.929 46.8779 110.665C46.7731 110.396 46.6204 110.182 46.4199 110.022C46.2194 109.863 45.9779 109.783 45.6953 109.783C45.3262 109.783 45.0231 109.87 44.7861 110.043C44.5537 110.211 44.3828 110.448 44.2734 110.754C44.1641 111.059 44.1094 111.41 44.1094 111.806H42.8994C42.8994 111.246 43.002 110.733 43.207 110.268C43.4167 109.803 43.7288 109.434 44.1436 109.161C44.5583 108.883 45.0755 108.744 45.6953 108.744C46.2285 108.744 46.6842 108.856 47.0625 109.079C47.4453 109.298 47.737 109.608 47.9375 110.009C48.1426 110.405 48.2451 110.87 48.2451 111.403C48.2451 111.695 48.2041 111.991 48.1221 112.292C48.0446 112.588 47.9352 112.884 47.7939 113.18C47.6572 113.477 47.4954 113.768 47.3086 114.055C47.1217 114.343 46.9212 114.625 46.707 114.903L44.499 117.795H48.6143ZM55.4639 108.881V109.592L52.0391 118.834H50.7676L54.1924 109.92H49.7559V108.881H55.4639Z" fill="black"/>
<mask id="path-11-inside-4_1190_23763" fill="white">
<path d="M0 130H98.5V163.334H0V130Z"/>
</mask>
<path d="M98.5 162.334H0V164.334H98.5V162.334Z" fill="#C2C6C7" mask="url(#path-11-inside-4_1190_23763)"/>
<path d="M48.6143 150.128V151.167H43.0498V150.258L45.791 146.628C46.1283 146.181 46.3857 145.803 46.5635 145.493C46.7412 145.179 46.8643 144.898 46.9326 144.652C47.001 144.402 47.0352 144.146 47.0352 143.887C47.0352 143.559 46.9827 143.262 46.8779 142.998C46.7731 142.729 46.6204 142.515 46.4199 142.355C46.2194 142.196 45.9779 142.116 45.6953 142.116C45.3262 142.116 45.0231 142.203 44.7861 142.376C44.5537 142.545 44.3828 142.782 44.2734 143.087C44.1641 143.392 44.1094 143.743 44.1094 144.14H42.8994C42.8994 143.579 43.002 143.066 43.207 142.602C43.4167 142.137 43.7288 141.768 44.1436 141.494C44.5583 141.216 45.0755 141.077 45.6953 141.077C46.2285 141.077 46.6842 141.189 47.0625 141.412C47.4453 141.631 47.737 141.941 47.9375 142.342C48.1426 142.738 48.2451 143.203 48.2451 143.736C48.2451 144.028 48.2041 144.324 48.1221 144.625C48.0446 144.921 47.9352 145.217 47.7939 145.514C47.6572 145.81 47.4954 146.102 47.3086 146.389C47.1217 146.676 46.9212 146.958 46.707 147.236L44.499 150.128H48.6143ZM55.2793 148.474C55.2793 149.08 55.1631 149.595 54.9307 150.019C54.6982 150.438 54.3815 150.757 53.9805 150.976C53.5794 151.194 53.126 151.304 52.6201 151.304C52.1188 151.304 51.6676 151.194 51.2666 150.976C50.8656 150.757 50.5488 150.438 50.3164 150.019C50.084 149.595 49.9678 149.08 49.9678 148.474C49.9678 148.077 50.0316 147.715 50.1592 147.387C50.2868 147.054 50.4668 146.765 50.6992 146.519C50.9362 146.272 51.2165 146.083 51.54 145.951C51.8636 145.814 52.2214 145.746 52.6133 145.746C53.1283 145.746 53.5863 145.865 53.9873 146.102C54.3883 146.334 54.7028 146.655 54.9307 147.065C55.1631 147.476 55.2793 147.945 55.2793 148.474ZM54.0762 148.446C54.0762 148.077 54.0146 147.751 53.8916 147.469C53.7731 147.182 53.6045 146.958 53.3857 146.799C53.167 146.639 52.9095 146.56 52.6133 146.56C52.3125 146.56 52.055 146.639 51.8408 146.799C51.6266 146.958 51.4603 147.182 51.3418 147.469C51.2279 147.751 51.1709 148.077 51.1709 148.446C51.1709 148.829 51.2279 149.157 51.3418 149.431C51.4557 149.7 51.6198 149.907 51.834 150.053C52.0527 150.194 52.3171 150.265 52.627 150.265C52.9323 150.265 53.1921 150.194 53.4062 150.053C53.625 149.907 53.7913 149.7 53.9053 149.431C54.0192 149.157 54.0762 148.829 54.0762 148.446ZM55.0947 143.805C55.0947 144.288 54.9876 144.723 54.7734 145.11C54.5592 145.498 54.2653 145.803 53.8916 146.026C53.5225 146.25 53.1009 146.361 52.627 146.361C52.1439 146.361 51.7155 146.25 51.3418 146.026C50.9681 145.803 50.6764 145.498 50.4668 145.11C50.2572 144.723 50.1523 144.288 50.1523 143.805C50.1523 143.226 50.2572 142.734 50.4668 142.328C50.681 141.923 50.9749 141.613 51.3486 141.398C51.7223 141.184 52.1484 141.077 52.627 141.077C53.11 141.077 53.5361 141.184 53.9053 141.398C54.2744 141.613 54.5638 141.923 54.7734 142.328C54.9876 142.734 55.0947 143.226 55.0947 143.805ZM53.8848 143.825C53.8848 143.493 53.8324 143.199 53.7275 142.943C53.6273 142.688 53.4814 142.488 53.29 142.342C53.1032 142.191 52.8822 142.116 52.627 142.116C52.3717 142.116 52.1484 142.187 51.957 142.328C51.7702 142.465 51.6243 142.661 51.5195 142.916C51.4147 143.171 51.3623 143.474 51.3623 143.825C51.3623 144.167 51.4124 144.465 51.5127 144.721C51.6175 144.976 51.7656 145.174 51.957 145.315C52.1484 145.457 52.3717 145.527 52.627 145.527C52.8822 145.527 53.1032 145.457 53.29 145.315C53.4814 145.174 53.6273 144.976 53.7275 144.721C53.8324 144.465 53.8848 144.167 53.8848 143.825Z" fill="black"/>
<rect width="98.5" height="33.3333" transform="translate(98.5 0.666992)" fill="#C2C6C7"/>
<path d="M140.83 11.8806H143.612C144.259 11.8806 144.802 11.9945 145.239 12.2224C145.681 12.4503 146.014 12.7875 146.237 13.2341C146.465 13.6762 146.579 14.2208 146.579 14.8679C146.579 15.3236 146.504 15.7406 146.354 16.1189C146.203 16.4926 145.984 16.8116 145.697 17.0759C145.41 17.3357 145.062 17.5294 144.651 17.657L144.31 17.8005H141.828L141.814 16.7273H143.599C143.981 16.7273 144.3 16.6453 144.556 16.4812C144.811 16.3126 145.002 16.087 145.13 15.8044C145.257 15.5219 145.321 15.2097 145.321 14.8679C145.321 14.4851 145.264 14.1501 145.15 13.863C145.036 13.5759 144.854 13.3549 144.604 13.2C144.357 13.0404 144.027 12.9607 143.612 12.9607H142.088V21.8337H140.83V11.8806ZM145.608 21.8337L143.626 17.322L144.932 17.3152L146.955 21.7517V21.8337H145.608ZM152.943 11.8806H154.201V18.8875C154.201 19.6348 154.058 20.2341 153.771 20.6853C153.483 21.1365 153.105 21.4646 152.636 21.6697C152.171 21.8702 151.67 21.9705 151.132 21.9705C150.558 21.9705 150.04 21.8702 149.58 21.6697C149.12 21.4646 148.753 21.1365 148.479 20.6853C148.211 20.2341 148.076 19.6348 148.076 18.8875V11.8806H149.327V18.8875C149.327 19.407 149.4 19.8126 149.546 20.1042C149.696 20.3959 149.906 20.601 150.175 20.7195C150.448 20.838 150.767 20.8972 151.132 20.8972C151.501 20.8972 151.82 20.838 152.089 20.7195C152.362 20.601 152.572 20.3959 152.718 20.1042C152.868 19.8126 152.943 19.407 152.943 18.8875V11.8806Z" fill="#111810"/>
<mask id="path-15-inside-5_1190_23763" fill="white">
<path d="M98.5 33.0002H197V66.3336H98.5V33.0002Z"/>
</mask>
<path d="M197 65.3336H98.5V67.3336H197V65.3336Z" fill="#C2C6C7" mask="url(#path-15-inside-5_1190_23763)"/>
<path d="M147.244 50.8174V51.8564H141.16V51.1113L144.858 44.2139H145.829L144.858 46.21L142.507 50.8174H147.244ZM146.137 44.2139V54.167H144.927V44.2139H146.137ZM153.786 48.3975V49.915C153.786 50.7308 153.722 51.4189 153.595 51.9795C153.472 52.54 153.294 52.9912 153.062 53.333C152.829 53.6748 152.549 53.9232 152.221 54.0781C151.897 54.2285 151.533 54.3037 151.127 54.3037C150.808 54.3037 150.509 54.2559 150.231 54.1602C149.958 54.0645 149.712 53.9118 149.493 53.7021C149.274 53.488 149.088 53.21 148.933 52.8682C148.778 52.5264 148.659 52.1117 148.577 51.624C148.495 51.1364 148.454 50.5667 148.454 49.915V48.3975C148.454 47.5817 148.518 46.8981 148.646 46.3467C148.773 45.7952 148.953 45.3532 149.186 45.0205C149.423 44.6833 149.703 44.4417 150.026 44.2959C150.354 44.1501 150.719 44.0771 151.12 44.0771C151.444 44.0771 151.742 44.125 152.016 44.2207C152.294 44.3118 152.54 44.46 152.754 44.665C152.973 44.8656 153.16 45.1344 153.314 45.4717C153.469 45.8044 153.586 46.2122 153.663 46.6953C153.745 47.1784 153.786 47.7458 153.786 48.3975ZM152.583 50.1201V48.1855C152.583 47.7389 152.562 47.347 152.521 47.0098C152.48 46.668 152.421 46.3763 152.344 46.1348C152.266 45.8932 152.166 45.6973 152.043 45.5469C151.924 45.3965 151.788 45.2871 151.633 45.2188C151.478 45.1458 151.307 45.1094 151.12 45.1094C150.888 45.1094 150.68 45.1663 150.498 45.2803C150.32 45.3896 150.168 45.5651 150.04 45.8066C149.917 46.0482 149.824 46.3649 149.76 46.7568C149.696 47.1488 149.664 47.625 149.664 48.1855V50.1201C149.664 50.5667 149.685 50.9609 149.726 51.3027C149.771 51.6445 149.833 51.9408 149.91 52.1914C149.992 52.4375 150.092 52.6403 150.211 52.7998C150.329 52.9593 150.466 53.0778 150.621 53.1553C150.776 53.2282 150.945 53.2646 151.127 53.2646C151.368 53.2646 151.578 53.2054 151.756 53.0869C151.938 52.9684 152.091 52.7839 152.214 52.5332C152.337 52.278 152.428 51.9521 152.487 51.5557C152.551 51.1546 152.583 50.6761 152.583 50.1201Z" fill="black"/>
<mask id="path-18-inside-6_1190_23763" fill="white">
<path d="M98.5 65.3337H197V98.6671H98.5V65.3337Z"/>
</mask>
<path d="M197 97.6671H98.5V99.6671H197V97.6671Z" fill="#C2C6C7" mask="url(#path-18-inside-6_1190_23763)"/>
<path d="M147.244 83.1509V84.1899H141.16V83.4448L144.858 76.5474H145.829L144.858 78.5435L142.507 83.1509H147.244ZM146.137 76.5474V86.5005H144.927V76.5474H146.137ZM154.032 85.4614V86.5005H148.468V85.5913L151.209 81.9614C151.546 81.5148 151.804 81.1366 151.981 80.8267C152.159 80.5122 152.282 80.2319 152.351 79.9858C152.419 79.7352 152.453 79.48 152.453 79.2202C152.453 78.8921 152.401 78.5959 152.296 78.3315C152.191 78.0627 152.038 77.8485 151.838 77.689C151.637 77.5295 151.396 77.4497 151.113 77.4497C150.744 77.4497 150.441 77.5363 150.204 77.7095C149.972 77.8781 149.801 78.1151 149.691 78.4204C149.582 78.7257 149.527 79.0767 149.527 79.4731H148.317C148.317 78.9126 148.42 78.3999 148.625 77.9351C148.835 77.4702 149.147 77.1011 149.562 76.8276C149.976 76.5496 150.493 76.4106 151.113 76.4106C151.646 76.4106 152.102 76.5223 152.48 76.7456C152.863 76.9644 153.155 77.2743 153.355 77.6753C153.561 78.0718 153.663 78.5366 153.663 79.0698C153.663 79.3615 153.622 79.6577 153.54 79.9585C153.463 80.2547 153.353 80.5509 153.212 80.8472C153.075 81.1434 152.913 81.4351 152.727 81.7222C152.54 82.0093 152.339 82.2918 152.125 82.5698L149.917 85.4614H154.032Z" fill="black"/>
<mask id="path-21-inside-7_1190_23763" fill="white">
<path d="M98.5 97.667H197V131H98.5V97.667Z"/>
</mask>
<path d="M197 130H98.5V132H197V130Z" fill="#C2C6C7" mask="url(#path-21-inside-7_1190_23763)"/>
<path d="M147.244 115.484V116.523H141.16V115.778L144.858 108.881H145.829L144.858 110.877L142.507 115.484H147.244ZM146.137 108.881V118.834H144.927V108.881H146.137ZM154.162 115.484V116.523H148.078V115.778L151.776 108.881H152.747L151.776 110.877L149.425 115.484H154.162ZM153.055 108.881V118.834H151.845V108.881H153.055Z" fill="black"/>
<mask id="path-24-inside-8_1190_23763" fill="white">
<path d="M98.5 130H197V163.334H98.5V130Z"/>
</mask>
<path d="M197 162.334H98.5V164.334H197V162.334Z" fill="#C2C6C7" mask="url(#path-24-inside-8_1190_23763)"/>
<path d="M147.244 147.817V148.856H141.16V148.111L144.858 141.214H145.829L144.858 143.21L142.507 147.817H147.244ZM146.137 141.214V151.167H144.927V141.214H146.137ZM152.59 141.2H152.679V142.273H152.59C152.016 142.273 151.544 142.383 151.175 142.602C150.81 142.816 150.525 143.105 150.32 143.47C150.12 143.83 149.981 144.235 149.903 144.687C149.826 145.138 149.787 145.596 149.787 146.061V147.523C149.787 147.965 149.828 148.357 149.91 148.699C149.997 149.036 150.108 149.321 150.245 149.554C150.386 149.786 150.544 149.962 150.717 150.08C150.895 150.199 151.075 150.258 151.257 150.258C151.489 150.258 151.694 150.203 151.872 150.094C152.054 149.98 152.205 149.823 152.323 149.622C152.446 149.417 152.54 149.175 152.604 148.897C152.667 148.619 152.699 148.314 152.699 147.981C152.699 147.685 152.67 147.4 152.61 147.127C152.556 146.849 152.471 146.603 152.357 146.389C152.243 146.17 152.098 145.999 151.92 145.876C151.747 145.748 151.539 145.685 151.298 145.685C151.024 145.685 150.769 145.771 150.532 145.944C150.3 146.113 150.108 146.336 149.958 146.614C149.808 146.888 149.719 147.186 149.691 147.51L149.069 147.503C149.133 146.993 149.24 146.557 149.391 146.197C149.541 145.833 149.723 145.536 149.938 145.309C150.156 145.076 150.398 144.908 150.662 144.803C150.926 144.693 151.204 144.639 151.496 144.639C151.92 144.639 152.282 144.732 152.583 144.919C152.888 145.106 153.137 145.356 153.328 145.671C153.524 145.981 153.668 146.332 153.759 146.724C153.85 147.111 153.896 147.51 153.896 147.92C153.896 148.389 153.839 148.829 153.725 149.239C153.615 149.649 153.451 150.009 153.232 150.319C153.014 150.629 152.738 150.871 152.405 151.044C152.077 151.217 151.694 151.304 151.257 151.304C150.792 151.304 150.391 151.194 150.054 150.976C149.716 150.752 149.436 150.456 149.213 150.087C148.994 149.718 148.832 149.308 148.728 148.856C148.623 148.405 148.57 147.947 148.57 147.482V146.888C148.57 146.186 148.62 145.498 148.721 144.823C148.821 144.149 149.01 143.538 149.288 142.991C149.571 142.444 149.976 142.009 150.505 141.686C151.038 141.362 151.733 141.2 152.59 141.2Z" fill="black"/>
<rect width="98.5" height="33.3333" transform="translate(197 0.666992)" fill="#C2C6C7"/>
<path d="M230.022 11.8806V21.8337H228.778V11.8806H230.022ZM232.641 11.8806V12.9607H226.167V11.8806H232.641ZM236.79 12.7625L234.069 21.8337H232.784L235.99 11.8806H236.797L236.79 12.7625ZM238.991 21.8337L236.271 12.7625L236.257 11.8806H237.07L240.276 21.8337H238.991ZM238.991 18.1492V19.2292H234.192V18.1492H238.991ZM247.064 11.8806V12.9607H243.346V11.8806H247.064ZM248.172 11.8806V21.8337H246.914V11.8806H248.172ZM242.922 11.8806H244.173L243.995 16.7546C243.972 17.4565 243.929 18.0831 243.865 18.6345C243.801 19.1814 243.71 19.6576 243.592 20.0632C243.473 20.4643 243.318 20.797 243.127 21.0613C242.936 21.321 242.701 21.5147 242.423 21.6423C242.149 21.7699 241.824 21.8337 241.445 21.8337H241.117V20.7605L241.356 20.74C241.566 20.7218 241.746 20.6648 241.896 20.5691C242.051 20.4688 242.179 20.3184 242.279 20.1179C242.384 19.9174 242.468 19.6576 242.532 19.3386C242.601 19.0196 242.653 18.63 242.689 18.1697C242.726 17.7048 242.753 17.1625 242.771 16.5427L242.922 11.8806ZM251.706 19.5505L255.582 11.8806H256.84V21.8337H255.582V14.157L251.706 21.8337H250.455V11.8806H251.706V19.5505ZM263.689 17.9578H261.529L260.894 17.6912C260.274 17.4633 259.798 17.1147 259.465 16.6453C259.137 16.1713 258.973 15.5834 258.973 14.8816C258.973 14.239 259.093 13.6944 259.335 13.2478C259.576 12.8012 259.921 12.4617 260.367 12.2292C260.818 11.9968 261.349 11.8806 261.96 11.8806H264.681V21.8337H263.423V12.9607H261.96C261.381 12.9607 260.948 13.1339 260.661 13.4802C260.374 13.8266 260.23 14.2937 260.23 14.8816C260.23 15.2644 260.294 15.6062 260.422 15.907C260.554 16.2078 260.75 16.4447 261.01 16.6179C261.27 16.7911 261.595 16.8777 261.987 16.8777H263.696L263.689 17.9578ZM262.008 17.2742L259.984 21.8337H258.645L260.736 17.2742H262.008Z" fill="#111810"/>
<mask id="path-28-inside-9_1190_23763" fill="white">
<path d="M197 33.0002H295.5V66.3336H197V33.0002Z"/>
</mask>
<path d="M295.5 65.3336H197V67.3336H295.5V65.3336Z" fill="#C2C6C7" mask="url(#path-28-inside-9_1190_23763)"/>
<path d="M232.513 49.4297L231.549 49.1699L231.973 44.2139H236.307V45.3828H232.991L232.759 48.0898C232.914 47.985 233.101 47.887 233.319 47.7959C233.538 47.7048 233.793 47.6592 234.085 47.6592C234.477 47.6592 234.826 47.7389 235.131 47.8984C235.441 48.0534 235.703 48.2767 235.917 48.5684C236.131 48.86 236.295 49.2109 236.409 49.6211C236.523 50.0312 236.58 50.4893 236.58 50.9951C236.58 51.4736 236.523 51.9134 236.409 52.3145C236.3 52.7155 236.131 53.0664 235.903 53.3672C235.68 53.6634 235.397 53.8936 235.056 54.0576C234.718 54.2217 234.324 54.3037 233.873 54.3037C233.536 54.3037 233.217 54.249 232.916 54.1396C232.615 54.0257 232.344 53.8548 232.103 53.627C231.866 53.3945 231.672 53.1074 231.521 52.7656C231.371 52.4193 231.278 52.0137 231.241 51.5488H232.383C232.428 51.9225 232.515 52.237 232.643 52.4922C232.775 52.7474 232.943 52.9411 233.148 53.0732C233.358 53.2008 233.6 53.2646 233.873 53.2646C234.105 53.2646 234.315 53.2122 234.502 53.1074C234.689 53.0026 234.846 52.8522 234.974 52.6562C235.101 52.4603 235.199 52.2233 235.268 51.9453C235.336 51.6673 235.37 51.3551 235.37 51.0088C235.37 50.6943 235.336 50.4027 235.268 50.1338C235.199 49.8649 235.097 49.6302 234.96 49.4297C234.823 49.2292 234.657 49.0742 234.461 48.9648C234.27 48.8509 234.046 48.7939 233.791 48.7939C233.449 48.7939 233.196 48.8509 233.032 48.9648C232.873 49.0788 232.7 49.2337 232.513 49.4297ZM243.279 51.4736C243.279 52.0798 243.163 52.5947 242.931 53.0186C242.698 53.4378 242.382 53.7568 241.98 53.9756C241.579 54.1943 241.126 54.3037 240.62 54.3037C240.119 54.3037 239.668 54.1943 239.267 53.9756C238.866 53.7568 238.549 53.4378 238.316 53.0186C238.084 52.5947 237.968 52.0798 237.968 51.4736C237.968 51.0771 238.032 50.7148 238.159 50.3867C238.287 50.054 238.467 49.7646 238.699 49.5186C238.936 49.2725 239.216 49.0833 239.54 48.9512C239.864 48.8145 240.221 48.7461 240.613 48.7461C241.128 48.7461 241.586 48.8646 241.987 49.1016C242.388 49.334 242.703 49.6553 242.931 50.0654C243.163 50.4756 243.279 50.945 243.279 51.4736ZM242.076 51.4463C242.076 51.0771 242.015 50.7513 241.892 50.4688C241.773 50.1816 241.604 49.9583 241.386 49.7988C241.167 49.6393 240.91 49.5596 240.613 49.5596C240.312 49.5596 240.055 49.6393 239.841 49.7988C239.627 49.9583 239.46 50.1816 239.342 50.4688C239.228 50.7513 239.171 51.0771 239.171 51.4463C239.171 51.8291 239.228 52.1572 239.342 52.4307C239.456 52.6995 239.62 52.9069 239.834 53.0527C240.053 53.194 240.317 53.2646 240.627 53.2646C240.932 53.2646 241.192 53.194 241.406 53.0527C241.625 52.9069 241.791 52.6995 241.905 52.4307C242.019 52.1572 242.076 51.8291 242.076 51.4463ZM243.095 46.8047C243.095 47.2878 242.988 47.723 242.773 48.1104C242.559 48.4977 242.265 48.8031 241.892 49.0264C241.522 49.2497 241.101 49.3613 240.627 49.3613C240.144 49.3613 239.715 49.2497 239.342 49.0264C238.968 48.8031 238.676 48.4977 238.467 48.1104C238.257 47.723 238.152 47.2878 238.152 46.8047C238.152 46.2259 238.257 45.7337 238.467 45.3281C238.681 44.9225 238.975 44.6126 239.349 44.3984C239.722 44.1842 240.148 44.0771 240.627 44.0771C241.11 44.0771 241.536 44.1842 241.905 44.3984C242.274 44.6126 242.564 44.9225 242.773 45.3281C242.988 45.7337 243.095 46.2259 243.095 46.8047ZM241.885 46.8252C241.885 46.4925 241.832 46.1986 241.728 45.9434C241.627 45.6882 241.481 45.4876 241.29 45.3418C241.103 45.1914 240.882 45.1162 240.627 45.1162C240.372 45.1162 240.148 45.1868 239.957 45.3281C239.77 45.4648 239.624 45.6608 239.52 45.916C239.415 46.1712 239.362 46.4743 239.362 46.8252C239.362 47.167 239.412 47.4655 239.513 47.7207C239.618 47.9759 239.766 48.1742 239.957 48.3154C240.148 48.4567 240.372 48.5273 240.627 48.5273C240.882 48.5273 241.103 48.4567 241.29 48.3154C241.481 48.1742 241.627 47.9759 241.728 47.7207C241.832 47.4655 241.885 47.167 241.885 46.8252ZM247.237 49.416V50.4551H244.414V49.416H247.237ZM252.48 44.2002H252.569V45.2734H252.48C251.906 45.2734 251.435 45.3828 251.065 45.6016C250.701 45.8158 250.416 46.1051 250.211 46.4697C250.01 46.8298 249.871 47.2354 249.794 47.6865C249.716 48.1377 249.678 48.5957 249.678 49.0605V50.5234C249.678 50.9655 249.719 51.3574 249.801 51.6992C249.887 52.0365 249.999 52.3213 250.136 52.5537C250.277 52.7861 250.434 52.9616 250.607 53.0801C250.785 53.1986 250.965 53.2578 251.147 53.2578C251.38 53.2578 251.585 53.2031 251.763 53.0938C251.945 52.9798 252.095 52.8226 252.214 52.6221C252.337 52.417 252.43 52.1755 252.494 51.8975C252.558 51.6195 252.59 51.3141 252.59 50.9814C252.59 50.6852 252.56 50.4004 252.501 50.127C252.446 49.849 252.362 49.6029 252.248 49.3887C252.134 49.1699 251.988 48.999 251.811 48.876C251.637 48.7484 251.43 48.6846 251.188 48.6846C250.915 48.6846 250.66 48.7712 250.423 48.9443C250.19 49.113 249.999 49.3363 249.849 49.6143C249.698 49.8877 249.609 50.1862 249.582 50.5098L248.96 50.5029C249.024 49.9925 249.131 49.5573 249.281 49.1973C249.432 48.8327 249.614 48.5365 249.828 48.3086C250.047 48.0762 250.288 47.9076 250.553 47.8027C250.817 47.6934 251.095 47.6387 251.387 47.6387C251.811 47.6387 252.173 47.7321 252.474 47.9189C252.779 48.1058 253.027 48.3564 253.219 48.6709C253.415 48.9808 253.558 49.3317 253.649 49.7236C253.741 50.111 253.786 50.5098 253.786 50.9199C253.786 51.3893 253.729 51.8291 253.615 52.2393C253.506 52.6494 253.342 53.0094 253.123 53.3193C252.904 53.6292 252.629 53.8708 252.296 54.0439C251.968 54.2171 251.585 54.3037 251.147 54.3037C250.683 54.3037 250.282 54.1943 249.944 53.9756C249.607 53.7523 249.327 53.4561 249.104 53.0869C248.885 52.7178 248.723 52.3076 248.618 51.8564C248.513 51.4053 248.461 50.9473 248.461 50.4824V49.8877C248.461 49.1859 248.511 48.4977 248.611 47.8232C248.712 47.1488 248.901 46.5381 249.179 45.9912C249.461 45.4443 249.867 45.0091 250.396 44.6855C250.929 44.362 251.624 44.2002 252.48 44.2002ZM260.841 53.1279V54.167H255.276V53.2578L258.018 49.6279C258.355 49.1813 258.612 48.8031 258.79 48.4932C258.968 48.1787 259.091 47.8984 259.159 47.6523C259.228 47.4017 259.262 47.1465 259.262 46.8867C259.262 46.5586 259.209 46.2624 259.104 45.998C259 45.7292 258.847 45.515 258.646 45.3555C258.446 45.196 258.204 45.1162 257.922 45.1162C257.553 45.1162 257.25 45.2028 257.013 45.376C256.78 45.5446 256.609 45.7816 256.5 46.0869C256.391 46.3923 256.336 46.7432 256.336 47.1396H255.126C255.126 46.5791 255.229 46.0664 255.434 45.6016C255.643 45.1367 255.955 44.7676 256.37 44.4941C256.785 44.2161 257.302 44.0771 257.922 44.0771C258.455 44.0771 258.911 44.1888 259.289 44.4121C259.672 44.6309 259.964 44.9408 260.164 45.3418C260.369 45.7383 260.472 46.2031 260.472 46.7363C260.472 47.028 260.431 47.3242 260.349 47.625C260.271 47.9212 260.162 48.2174 260.021 48.5137C259.884 48.8099 259.722 49.1016 259.535 49.3887C259.348 49.6758 259.148 49.9583 258.934 50.2363L256.726 53.1279H260.841Z" fill="black"/>
<mask id="path-31-inside-10_1190_23763" fill="white">
<path d="M197 65.3337H295.5V98.6671H197V65.3337Z"/>
</mask>
<path d="M295.5 97.6671H197V99.6671H295.5V97.6671Z" fill="#C2C6C7" mask="url(#path-31-inside-10_1190_23763)"/>
<path d="M235.172 76.5337H235.261V77.6069H235.172C234.598 77.6069 234.126 77.7163 233.757 77.9351C233.392 78.1493 233.107 78.4386 232.902 78.8032C232.702 79.1632 232.563 79.5688 232.485 80.02C232.408 80.4712 232.369 80.9292 232.369 81.394V82.8569C232.369 83.299 232.41 83.6909 232.492 84.0327C232.579 84.37 232.69 84.6548 232.827 84.8872C232.968 85.1196 233.126 85.2951 233.299 85.4136C233.477 85.5321 233.657 85.5913 233.839 85.5913C234.071 85.5913 234.276 85.5366 234.454 85.4272C234.636 85.3133 234.787 85.1561 234.905 84.9556C235.028 84.7505 235.122 84.509 235.186 84.231C235.249 83.953 235.281 83.6476 235.281 83.3149C235.281 83.0187 235.252 82.7339 235.192 82.4604C235.138 82.1825 235.053 81.9364 234.939 81.7222C234.826 81.5034 234.68 81.3325 234.502 81.2095C234.329 81.0819 234.121 81.0181 233.88 81.0181C233.606 81.0181 233.351 81.1047 233.114 81.2778C232.882 81.4465 232.69 81.6698 232.54 81.9478C232.39 82.2212 232.301 82.5197 232.273 82.8433L231.651 82.8364C231.715 82.326 231.822 81.8908 231.973 81.5308C232.123 81.1662 232.305 80.87 232.52 80.6421C232.738 80.4097 232.98 80.241 233.244 80.1362C233.508 80.0269 233.786 79.9722 234.078 79.9722C234.502 79.9722 234.864 80.0656 235.165 80.2524C235.47 80.4393 235.719 80.6899 235.91 81.0044C236.106 81.3143 236.25 81.6652 236.341 82.0571C236.432 82.4445 236.478 82.8433 236.478 83.2534C236.478 83.7228 236.421 84.1626 236.307 84.5728C236.197 84.9829 236.033 85.3429 235.814 85.6528C235.596 85.9627 235.32 86.2043 234.987 86.3774C234.659 86.5506 234.276 86.6372 233.839 86.6372C233.374 86.6372 232.973 86.5278 232.636 86.3091C232.299 86.0858 232.018 85.7896 231.795 85.4204C231.576 85.0513 231.414 84.6411 231.31 84.1899C231.205 83.7388 231.152 83.2808 231.152 82.8159V82.2212C231.152 81.5194 231.202 80.8312 231.303 80.1567C231.403 79.4823 231.592 78.8716 231.87 78.3247C232.153 77.7778 232.558 77.3426 233.087 77.019C233.62 76.6955 234.315 76.5337 235.172 76.5337ZM243.532 85.4614V86.5005H237.968V85.5913L240.709 81.9614C241.046 81.5148 241.304 81.1366 241.481 80.8267C241.659 80.5122 241.782 80.2319 241.851 79.9858C241.919 79.7352 241.953 79.48 241.953 79.2202C241.953 78.8921 241.901 78.5959 241.796 78.3315C241.691 78.0627 241.538 77.8485 241.338 77.689C241.137 77.5295 240.896 77.4497 240.613 77.4497C240.244 77.4497 239.941 77.5363 239.704 77.7095C239.472 77.8781 239.301 78.1151 239.191 78.4204C239.082 78.7257 239.027 79.0767 239.027 79.4731H237.817C237.817 78.9126 237.92 78.3999 238.125 77.9351C238.335 77.4702 238.647 77.1011 239.062 76.8276C239.476 76.5496 239.993 76.4106 240.613 76.4106C241.146 76.4106 241.602 76.5223 241.98 76.7456C242.363 76.9644 242.655 77.2743 242.855 77.6753C243.061 78.0718 243.163 78.5366 243.163 79.0698C243.163 79.3615 243.122 79.6577 243.04 79.9585C242.963 80.2547 242.853 80.5509 242.712 80.8472C242.575 81.1434 242.413 81.4351 242.227 81.7222C242.04 82.0093 241.839 82.2918 241.625 82.5698L239.417 85.4614H243.532ZM247.237 81.7495V82.7886H244.414V81.7495H247.237ZM252.48 76.5337H252.569V77.6069H252.48C251.906 77.6069 251.435 77.7163 251.065 77.9351C250.701 78.1493 250.416 78.4386 250.211 78.8032C250.01 79.1632 249.871 79.5688 249.794 80.02C249.716 80.4712 249.678 80.9292 249.678 81.394V82.8569C249.678 83.299 249.719 83.6909 249.801 84.0327C249.887 84.37 249.999 84.6548 250.136 84.8872C250.277 85.1196 250.434 85.2951 250.607 85.4136C250.785 85.5321 250.965 85.5913 251.147 85.5913C251.38 85.5913 251.585 85.5366 251.763 85.4272C251.945 85.3133 252.095 85.1561 252.214 84.9556C252.337 84.7505 252.43 84.509 252.494 84.231C252.558 83.953 252.59 83.6476 252.59 83.3149C252.59 83.0187 252.56 82.7339 252.501 82.4604C252.446 82.1825 252.362 81.9364 252.248 81.7222C252.134 81.5034 251.988 81.3325 251.811 81.2095C251.637 81.0819 251.43 81.0181 251.188 81.0181C250.915 81.0181 250.66 81.1047 250.423 81.2778C250.19 81.4465 249.999 81.6698 249.849 81.9478C249.698 82.2212 249.609 82.5197 249.582 82.8433L248.96 82.8364C249.024 82.326 249.131 81.8908 249.281 81.5308C249.432 81.1662 249.614 80.87 249.828 80.6421C250.047 80.4097 250.288 80.241 250.553 80.1362C250.817 80.0269 251.095 79.9722 251.387 79.9722C251.811 79.9722 252.173 80.0656 252.474 80.2524C252.779 80.4393 253.027 80.6899 253.219 81.0044C253.415 81.3143 253.558 81.6652 253.649 82.0571C253.741 82.4445 253.786 82.8433 253.786 83.2534C253.786 83.7228 253.729 84.1626 253.615 84.5728C253.506 84.9829 253.342 85.3429 253.123 85.6528C252.904 85.9627 252.629 86.2043 252.296 86.3774C251.968 86.5506 251.585 86.6372 251.147 86.6372C250.683 86.6372 250.282 86.5278 249.944 86.3091C249.607 86.0858 249.327 85.7896 249.104 85.4204C248.885 85.0513 248.723 84.6411 248.618 84.1899C248.513 83.7388 248.461 83.2808 248.461 82.8159V82.2212C248.461 81.5194 248.511 80.8312 248.611 80.1567C248.712 79.4823 248.901 78.8716 249.179 78.3247C249.461 77.7778 249.867 77.3426 250.396 77.019C250.929 76.6955 251.624 76.5337 252.48 76.5337ZM259.398 76.5337H259.487V77.6069H259.398C258.824 77.6069 258.353 77.7163 257.983 77.9351C257.619 78.1493 257.334 78.4386 257.129 78.8032C256.928 79.1632 256.789 79.5688 256.712 80.02C256.634 80.4712 256.596 80.9292 256.596 81.394V82.8569C256.596 83.299 256.637 83.6909 256.719 84.0327C256.805 84.37 256.917 84.6548 257.054 84.8872C257.195 85.1196 257.352 85.2951 257.525 85.4136C257.703 85.5321 257.883 85.5913 258.065 85.5913C258.298 85.5913 258.503 85.5366 258.681 85.4272C258.863 85.3133 259.013 85.1561 259.132 84.9556C259.255 84.7505 259.348 84.509 259.412 84.231C259.476 83.953 259.508 83.6476 259.508 83.3149C259.508 83.0187 259.478 82.7339 259.419 82.4604C259.364 82.1825 259.28 81.9364 259.166 81.7222C259.052 81.5034 258.906 81.3325 258.729 81.2095C258.555 81.0819 258.348 81.0181 258.106 81.0181C257.833 81.0181 257.578 81.1047 257.341 81.2778C257.108 81.4465 256.917 81.6698 256.767 81.9478C256.616 82.2212 256.527 82.5197 256.5 82.8433L255.878 82.8364C255.942 82.326 256.049 81.8908 256.199 81.5308C256.35 81.1662 256.532 80.87 256.746 80.6421C256.965 80.4097 257.206 80.241 257.471 80.1362C257.735 80.0269 258.013 79.9722 258.305 79.9722C258.729 79.9722 259.091 80.0656 259.392 80.2524C259.697 80.4393 259.945 80.6899 260.137 81.0044C260.333 81.3143 260.476 81.6652 260.567 82.0571C260.659 82.4445 260.704 82.8433 260.704 83.2534C260.704 83.7228 260.647 84.1626 260.533 84.5728C260.424 84.9829 260.26 85.3429 260.041 85.6528C259.822 85.9627 259.547 86.2043 259.214 86.3774C258.886 86.5506 258.503 86.6372 258.065 86.6372C257.601 86.6372 257.2 86.5278 256.862 86.3091C256.525 86.0858 256.245 85.7896 256.021 85.4204C255.803 85.0513 255.641 84.6411 255.536 84.1899C255.431 83.7388 255.379 83.2808 255.379 82.8159V82.2212C255.379 81.5194 255.429 80.8312 255.529 80.1567C255.63 79.4823 255.819 78.8716 256.097 78.3247C256.379 77.7778 256.785 77.3426 257.313 77.019C257.847 76.6955 258.542 76.5337 259.398 76.5337Z" fill="black"/>
<mask id="path-34-inside-11_1190_23763" fill="white">
<path d="M197 97.667H295.5V131H197V97.667Z"/>
</mask>
<path d="M295.5 130H197V132H295.5V130Z" fill="#C2C6C7" mask="url(#path-34-inside-11_1190_23763)"/>
<path d="M235.172 108.867H235.261V109.94H235.172C234.598 109.94 234.126 110.05 233.757 110.268C233.392 110.483 233.107 110.772 232.902 111.136C232.702 111.497 232.563 111.902 232.485 112.353C232.408 112.804 232.369 113.262 232.369 113.727V115.19C232.369 115.632 232.41 116.024 232.492 116.366C232.579 116.703 232.69 116.988 232.827 117.22C232.968 117.453 233.126 117.628 233.299 117.747C233.477 117.865 233.657 117.925 233.839 117.925C234.071 117.925 234.276 117.87 234.454 117.76C234.636 117.647 234.787 117.489 234.905 117.289C235.028 117.084 235.122 116.842 235.186 116.564C235.249 116.286 235.281 115.981 235.281 115.648C235.281 115.352 235.252 115.067 235.192 114.794C235.138 114.516 235.053 114.27 234.939 114.055C234.826 113.837 234.68 113.666 234.502 113.543C234.329 113.415 234.121 113.351 233.88 113.351C233.606 113.351 233.351 113.438 233.114 113.611C232.882 113.78 232.69 114.003 232.54 114.281C232.39 114.554 232.301 114.853 232.273 115.177L231.651 115.17C231.715 114.659 231.822 114.224 231.973 113.864C232.123 113.499 232.305 113.203 232.52 112.975C232.738 112.743 232.98 112.574 233.244 112.469C233.508 112.36 233.786 112.305 234.078 112.305C234.502 112.305 234.864 112.399 235.165 112.586C235.47 112.773 235.719 113.023 235.91 113.338C236.106 113.648 236.25 113.998 236.341 114.39C236.432 114.778 236.478 115.177 236.478 115.587C236.478 116.056 236.421 116.496 236.307 116.906C236.197 117.316 236.033 117.676 235.814 117.986C235.596 118.296 235.32 118.538 234.987 118.711C234.659 118.884 234.276 118.97 233.839 118.97C233.374 118.97 232.973 118.861 232.636 118.642C232.299 118.419 232.018 118.123 231.795 117.754C231.576 117.385 231.414 116.974 231.31 116.523C231.205 116.072 231.152 115.614 231.152 115.149V114.554C231.152 113.853 231.202 113.164 231.303 112.49C231.403 111.816 231.592 111.205 231.87 110.658C232.153 110.111 232.558 109.676 233.087 109.352C233.62 109.029 234.315 108.867 235.172 108.867ZM242.09 108.867H242.179V109.94H242.09C241.516 109.94 241.044 110.05 240.675 110.268C240.31 110.483 240.025 110.772 239.82 111.136C239.62 111.497 239.481 111.902 239.403 112.353C239.326 112.804 239.287 113.262 239.287 113.727V115.19C239.287 115.632 239.328 116.024 239.41 116.366C239.497 116.703 239.608 116.988 239.745 117.22C239.886 117.453 240.044 117.628 240.217 117.747C240.395 117.865 240.575 117.925 240.757 117.925C240.989 117.925 241.194 117.87 241.372 117.76C241.554 117.647 241.705 117.489 241.823 117.289C241.946 117.084 242.04 116.842 242.104 116.564C242.167 116.286 242.199 115.981 242.199 115.648C242.199 115.352 242.17 115.067 242.11 114.794C242.056 114.516 241.971 114.27 241.857 114.055C241.743 113.837 241.598 113.666 241.42 113.543C241.247 113.415 241.039 113.351 240.798 113.351C240.524 113.351 240.269 113.438 240.032 113.611C239.8 113.78 239.608 114.003 239.458 114.281C239.308 114.554 239.219 114.853 239.191 115.177L238.569 115.17C238.633 114.659 238.74 114.224 238.891 113.864C239.041 113.499 239.223 113.203 239.438 112.975C239.656 112.743 239.898 112.574 240.162 112.469C240.426 112.36 240.704 112.305 240.996 112.305C241.42 112.305 241.782 112.399 242.083 112.586C242.388 112.773 242.637 113.023 242.828 113.338C243.024 113.648 243.168 113.998 243.259 114.39C243.35 114.778 243.396 115.177 243.396 115.587C243.396 116.056 243.339 116.496 243.225 116.906C243.115 117.316 242.951 117.676 242.732 117.986C242.514 118.296 242.238 118.538 241.905 118.711C241.577 118.884 241.194 118.97 240.757 118.97C240.292 118.97 239.891 118.861 239.554 118.642C239.216 118.419 238.936 118.123 238.713 117.754C238.494 117.385 238.332 116.974 238.228 116.523C238.123 116.072 238.07 115.614 238.07 115.149V114.554C238.07 113.853 238.12 113.164 238.221 112.49C238.321 111.816 238.51 111.205 238.788 110.658C239.071 110.111 239.476 109.676 240.005 109.352C240.538 109.029 241.233 108.867 242.09 108.867ZM247.237 114.083V115.122H244.414V114.083H247.237ZM253.854 108.881V109.592L250.43 118.834H249.158L252.583 109.92H248.146V108.881H253.854ZM260.595 113.064V114.582C260.595 115.398 260.531 116.086 260.403 116.646C260.28 117.207 260.103 117.658 259.87 118C259.638 118.342 259.357 118.59 259.029 118.745C258.706 118.895 258.341 118.97 257.936 118.97C257.617 118.97 257.318 118.923 257.04 118.827C256.767 118.731 256.521 118.579 256.302 118.369C256.083 118.155 255.896 117.877 255.741 117.535C255.586 117.193 255.468 116.778 255.386 116.291C255.304 115.803 255.263 115.233 255.263 114.582V113.064C255.263 112.248 255.326 111.565 255.454 111.013C255.582 110.462 255.762 110.02 255.994 109.687C256.231 109.35 256.511 109.108 256.835 108.963C257.163 108.817 257.528 108.744 257.929 108.744C258.252 108.744 258.551 108.792 258.824 108.887C259.102 108.979 259.348 109.127 259.562 109.332C259.781 109.532 259.968 109.801 260.123 110.138C260.278 110.471 260.394 110.879 260.472 111.362C260.554 111.845 260.595 112.413 260.595 113.064ZM259.392 114.787V112.852C259.392 112.406 259.371 112.014 259.33 111.677C259.289 111.335 259.23 111.043 259.152 110.802C259.075 110.56 258.975 110.364 258.852 110.214C258.733 110.063 258.596 109.954 258.441 109.885C258.286 109.813 258.116 109.776 257.929 109.776C257.696 109.776 257.489 109.833 257.307 109.947C257.129 110.056 256.976 110.232 256.849 110.473C256.726 110.715 256.632 111.032 256.568 111.424C256.505 111.816 256.473 112.292 256.473 112.852V114.787C256.473 115.233 256.493 115.628 256.534 115.969C256.58 116.311 256.641 116.608 256.719 116.858C256.801 117.104 256.901 117.307 257.02 117.467C257.138 117.626 257.275 117.745 257.43 117.822C257.585 117.895 257.753 117.931 257.936 117.931C258.177 117.931 258.387 117.872 258.564 117.754C258.747 117.635 258.899 117.451 259.022 117.2C259.146 116.945 259.237 116.619 259.296 116.222C259.36 115.821 259.392 115.343 259.392 114.787Z" fill="black"/>
<mask id="path-37-inside-12_1190_23763" fill="white">
<path d="M197 130H295.5V163.334H197V130Z"/>
</mask>
<path d="M295.5 162.334H197V164.334H295.5V162.334Z" fill="#C2C6C7" mask="url(#path-37-inside-12_1190_23763)"/>
<path d="M236.546 141.214V141.925L233.121 151.167H231.85L235.274 142.253H230.838V141.214H236.546ZM243.286 145.397V146.915C243.286 147.731 243.222 148.419 243.095 148.979C242.972 149.54 242.794 149.991 242.562 150.333C242.329 150.675 242.049 150.923 241.721 151.078C241.397 151.229 241.033 151.304 240.627 151.304C240.308 151.304 240.009 151.256 239.731 151.16C239.458 151.064 239.212 150.912 238.993 150.702C238.774 150.488 238.588 150.21 238.433 149.868C238.278 149.526 238.159 149.112 238.077 148.624C237.995 148.136 237.954 147.567 237.954 146.915V145.397C237.954 144.582 238.018 143.898 238.146 143.347C238.273 142.795 238.453 142.353 238.686 142.021C238.923 141.683 239.203 141.442 239.526 141.296C239.854 141.15 240.219 141.077 240.62 141.077C240.944 141.077 241.242 141.125 241.516 141.221C241.794 141.312 242.04 141.46 242.254 141.665C242.473 141.866 242.66 142.134 242.814 142.472C242.969 142.804 243.086 143.212 243.163 143.695C243.245 144.178 243.286 144.746 243.286 145.397ZM242.083 147.12V145.186C242.083 144.739 242.062 144.347 242.021 144.01C241.98 143.668 241.921 143.376 241.844 143.135C241.766 142.893 241.666 142.697 241.543 142.547C241.424 142.396 241.288 142.287 241.133 142.219C240.978 142.146 240.807 142.109 240.62 142.109C240.388 142.109 240.18 142.166 239.998 142.28C239.82 142.39 239.668 142.565 239.54 142.807C239.417 143.048 239.324 143.365 239.26 143.757C239.196 144.149 239.164 144.625 239.164 145.186V147.12C239.164 147.567 239.185 147.961 239.226 148.303C239.271 148.645 239.333 148.941 239.41 149.191C239.492 149.438 239.592 149.64 239.711 149.8C239.829 149.959 239.966 150.078 240.121 150.155C240.276 150.228 240.445 150.265 240.627 150.265C240.868 150.265 241.078 150.205 241.256 150.087C241.438 149.968 241.591 149.784 241.714 149.533C241.837 149.278 241.928 148.952 241.987 148.556C242.051 148.155 242.083 147.676 242.083 147.12ZM247.237 146.416V147.455H244.414V146.416H247.237ZM253.854 141.214V141.925L250.43 151.167H249.158L252.583 142.253H248.146V141.214H253.854ZM260.971 147.817V148.856H254.887V148.111L258.585 141.214H259.556L258.585 143.21L256.233 147.817H260.971ZM259.863 141.214V151.167H258.653V141.214H259.863Z" fill="black"/>
<rect width="98.5" height="33.3333" transform="translate(295.5 0.666992)" fill="#C2C6C7"/>
<path d="M331.457 11.8806V12.9607H327.547V21.8337H326.289V11.8806H331.457ZM327.28 15.9343H329.543C330.158 15.9343 330.678 16.0574 331.102 16.3035C331.53 16.545 331.854 16.8845 332.072 17.322C332.296 17.7595 332.407 18.2722 332.407 18.8601C332.407 19.2976 332.343 19.6986 332.216 20.0632C332.093 20.4233 331.908 20.7377 331.662 21.0066C331.421 21.2709 331.122 21.476 330.767 21.6218C330.411 21.7631 330.003 21.8337 329.543 21.8337H326.289V11.8806H327.547V20.7605H329.543C329.926 20.7605 330.233 20.6716 330.466 20.4939C330.703 20.3116 330.876 20.0746 330.985 19.783C331.095 19.4913 331.149 19.1791 331.149 18.8464C331.149 18.5138 331.095 18.2084 330.985 17.9304C330.876 17.6524 330.703 17.4314 330.466 17.2673C330.233 17.0987 329.926 17.0144 329.543 17.0144H327.28V15.9343ZM339.373 20.7605V21.8337H335.053V20.7605H339.373ZM335.278 11.8806V21.8337H334.021V11.8806H335.278ZM338.792 16.1599V17.2332H335.053V16.1599H338.792ZM339.305 11.8806V12.9607H335.053V11.8806H339.305ZM347.597 20.7605V21.8337H341.355V20.7605H347.597ZM341.547 20.7605V24.281H340.296L340.289 20.7605H341.547ZM348.69 20.7605L348.677 24.2742H347.433V20.7605H348.69ZM346.421 11.8806V12.9607H342.812V11.8806H346.421ZM347.521 11.8806V21.8337H346.264V11.8806H347.521ZM342.381 11.8806H343.639L343.461 15.8865C343.438 16.488 343.393 17.044 343.324 17.5544C343.256 18.0603 343.167 18.5229 343.058 18.9421C342.953 19.3614 342.832 19.7374 342.695 20.0701C342.559 20.3982 342.41 20.683 342.251 20.9246C342.091 21.1615 341.923 21.3575 341.745 21.5125C341.567 21.6628 341.385 21.7699 341.198 21.8337H340.672V20.7605H341.021C341.121 20.6329 341.23 20.4483 341.349 20.2068C341.472 19.9653 341.59 19.6531 341.704 19.2703C341.823 18.8829 341.925 18.4112 342.012 17.8552C342.103 17.2992 342.164 16.643 342.196 15.8865L342.381 11.8806ZM353.394 17.9304H351.22V16.8572H353.394C353.804 16.8572 354.134 16.7751 354.385 16.6111C354.64 16.447 354.825 16.2192 354.938 15.9275C355.057 15.6358 355.116 15.3031 355.116 14.9294C355.116 14.5876 355.057 14.2664 354.938 13.9656C354.825 13.6648 354.64 13.4233 354.385 13.241C354.134 13.0541 353.804 12.9607 353.394 12.9607H351.479V21.8337H350.222V11.8806H353.394C354.036 11.8806 354.578 12.0105 355.021 12.2703C355.463 12.53 355.798 12.8901 356.025 13.3503C356.258 13.8061 356.374 14.3279 356.374 14.9158C356.374 15.5538 356.258 16.0984 356.025 16.5496C355.798 17.0007 355.463 17.3448 355.021 17.5818C354.578 17.8142 354.036 17.9304 353.394 17.9304ZM360.271 12.7625L357.55 21.8337H356.265L359.471 11.8806H360.277L360.271 12.7625ZM362.472 21.8337L359.751 12.7625L359.737 11.8806H360.551L363.757 21.8337H362.472ZM362.472 18.1492V19.2292H357.673V18.1492H362.472Z" fill="#111810"/>
<mask id="path-41-inside-13_1190_23763" fill="white">
<path d="M295.5 33.0002H394V66.3336H295.5V33.0002Z"/>
</mask>
<path d="M394 65.3336H295.5V67.3336H394V65.3336Z" fill="#C2C6C7" mask="url(#path-41-inside-13_1190_23763)"/>
<path d="M334.861 51.4736C334.861 52.0798 334.745 52.5947 334.513 53.0186C334.28 53.4378 333.964 53.7568 333.562 53.9756C333.161 54.1943 332.708 54.3037 332.202 54.3037C331.701 54.3037 331.25 54.1943 330.849 53.9756C330.448 53.7568 330.131 53.4378 329.898 53.0186C329.666 52.5947 329.55 52.0798 329.55 51.4736C329.55 51.0771 329.614 50.7148 329.741 50.3867C329.869 50.054 330.049 49.7646 330.281 49.5186C330.518 49.2725 330.799 49.0833 331.122 48.9512C331.446 48.8145 331.803 48.7461 332.195 48.7461C332.71 48.7461 333.168 48.8646 333.569 49.1016C333.97 49.334 334.285 49.6553 334.513 50.0654C334.745 50.4756 334.861 50.945 334.861 51.4736ZM333.658 51.4463C333.658 51.0771 333.597 50.7513 333.474 50.4688C333.355 50.1816 333.187 49.9583 332.968 49.7988C332.749 49.6393 332.492 49.5596 332.195 49.5596C331.895 49.5596 331.637 49.6393 331.423 49.7988C331.209 49.9583 331.042 50.1816 330.924 50.4688C330.81 50.7513 330.753 51.0771 330.753 51.4463C330.753 51.8291 330.81 52.1572 330.924 52.4307C331.038 52.6995 331.202 52.9069 331.416 53.0527C331.635 53.194 331.899 53.2646 332.209 53.2646C332.514 53.2646 332.774 53.194 332.988 53.0527C333.207 52.9069 333.373 52.6995 333.487 52.4307C333.601 52.1572 333.658 51.8291 333.658 51.4463ZM334.677 46.8047C334.677 47.2878 334.57 47.723 334.355 48.1104C334.141 48.4977 333.847 48.8031 333.474 49.0264C333.104 49.2497 332.683 49.3613 332.209 49.3613C331.726 49.3613 331.298 49.2497 330.924 49.0264C330.55 48.8031 330.258 48.4977 330.049 48.1104C329.839 47.723 329.734 47.2878 329.734 46.8047C329.734 46.2259 329.839 45.7337 330.049 45.3281C330.263 44.9225 330.557 44.6126 330.931 44.3984C331.304 44.1842 331.73 44.0771 332.209 44.0771C332.692 44.0771 333.118 44.1842 333.487 44.3984C333.856 44.6126 334.146 44.9225 334.355 45.3281C334.57 45.7337 334.677 46.2259 334.677 46.8047ZM333.467 46.8252C333.467 46.4925 333.414 46.1986 333.31 45.9434C333.209 45.6882 333.063 45.4876 332.872 45.3418C332.685 45.1914 332.464 45.1162 332.209 45.1162C331.954 45.1162 331.73 45.1868 331.539 45.3281C331.352 45.4648 331.206 45.6608 331.102 45.916C330.997 46.1712 330.944 46.4743 330.944 46.8252C330.944 47.167 330.994 47.4655 331.095 47.7207C331.2 47.9759 331.348 48.1742 331.539 48.3154C331.73 48.4567 331.954 48.5273 332.209 48.5273C332.464 48.5273 332.685 48.4567 332.872 48.3154C333.063 48.1742 333.209 47.9759 333.31 47.7207C333.414 47.4655 333.467 47.167 333.467 46.8252ZM342.162 50.8174V51.8564H336.078V51.1113L339.776 44.2139H340.747L339.776 46.21L337.425 50.8174H342.162ZM341.055 44.2139V54.167H339.845V44.2139H341.055ZM345.737 49.416V50.4551H342.914V49.416H345.737ZM352.17 51.4736C352.17 52.0798 352.054 52.5947 351.821 53.0186C351.589 53.4378 351.272 53.7568 350.871 53.9756C350.47 54.1943 350.017 54.3037 349.511 54.3037C349.009 54.3037 348.558 54.1943 348.157 53.9756C347.756 53.7568 347.439 53.4378 347.207 53.0186C346.975 52.5947 346.858 52.0798 346.858 51.4736C346.858 51.0771 346.922 50.7148 347.05 50.3867C347.177 50.054 347.357 49.7646 347.59 49.5186C347.827 49.2725 348.107 49.0833 348.431 48.9512C348.754 48.8145 349.112 48.7461 349.504 48.7461C350.019 48.7461 350.477 48.8646 350.878 49.1016C351.279 49.334 351.593 49.6553 351.821 50.0654C352.054 50.4756 352.17 50.945 352.17 51.4736ZM350.967 51.4463C350.967 51.0771 350.905 50.7513 350.782 50.4688C350.664 50.1816 350.495 49.9583 350.276 49.7988C350.058 49.6393 349.8 49.5596 349.504 49.5596C349.203 49.5596 348.946 49.6393 348.731 49.7988C348.517 49.9583 348.351 50.1816 348.232 50.4688C348.118 50.7513 348.062 51.0771 348.062 51.4463C348.062 51.8291 348.118 52.1572 348.232 52.4307C348.346 52.6995 348.51 52.9069 348.725 53.0527C348.943 53.194 349.208 53.2646 349.518 53.2646C349.823 53.2646 350.083 53.194 350.297 53.0527C350.516 52.9069 350.682 52.6995 350.796 52.4307C350.91 52.1572 350.967 51.8291 350.967 51.4463ZM351.985 46.8047C351.985 47.2878 351.878 47.723 351.664 48.1104C351.45 48.4977 351.156 48.8031 350.782 49.0264C350.413 49.2497 349.992 49.3613 349.518 49.3613C349.035 49.3613 348.606 49.2497 348.232 49.0264C347.859 48.8031 347.567 48.4977 347.357 48.1104C347.148 47.723 347.043 47.2878 347.043 46.8047C347.043 46.2259 347.148 45.7337 347.357 45.3281C347.572 44.9225 347.866 44.6126 348.239 44.3984C348.613 44.1842 349.039 44.0771 349.518 44.0771C350.001 44.0771 350.427 44.1842 350.796 44.3984C351.165 44.6126 351.454 44.9225 351.664 45.3281C351.878 45.7337 351.985 46.2259 351.985 46.8047ZM350.775 46.8252C350.775 46.4925 350.723 46.1986 350.618 45.9434C350.518 45.6882 350.372 45.4876 350.181 45.3418C349.994 45.1914 349.773 45.1162 349.518 45.1162C349.262 45.1162 349.039 45.1868 348.848 45.3281C348.661 45.4648 348.515 45.6608 348.41 45.916C348.305 46.1712 348.253 46.4743 348.253 46.8252C348.253 47.167 348.303 47.4655 348.403 47.7207C348.508 47.9759 348.656 48.1742 348.848 48.3154C349.039 48.4567 349.262 48.5273 349.518 48.5273C349.773 48.5273 349.994 48.4567 350.181 48.3154C350.372 48.1742 350.518 47.9759 350.618 47.7207C350.723 47.4655 350.775 47.167 350.775 46.8252ZM359.088 51.4736C359.088 52.0798 358.972 52.5947 358.739 53.0186C358.507 53.4378 358.19 53.7568 357.789 53.9756C357.388 54.1943 356.935 54.3037 356.429 54.3037C355.927 54.3037 355.476 54.1943 355.075 53.9756C354.674 53.7568 354.357 53.4378 354.125 53.0186C353.893 52.5947 353.776 52.0798 353.776 51.4736C353.776 51.0771 353.84 50.7148 353.968 50.3867C354.095 50.054 354.275 49.7646 354.508 49.5186C354.745 49.2725 355.025 49.0833 355.349 48.9512C355.672 48.8145 356.03 48.7461 356.422 48.7461C356.937 48.7461 357.395 48.8646 357.796 49.1016C358.197 49.334 358.511 49.6553 358.739 50.0654C358.972 50.4756 359.088 50.945 359.088 51.4736ZM357.885 51.4463C357.885 51.0771 357.823 50.7513 357.7 50.4688C357.582 50.1816 357.413 49.9583 357.194 49.7988C356.976 49.6393 356.718 49.5596 356.422 49.5596C356.121 49.5596 355.864 49.6393 355.649 49.7988C355.435 49.9583 355.269 50.1816 355.15 50.4688C355.036 50.7513 354.979 51.0771 354.979 51.4463C354.979 51.8291 355.036 52.1572 355.15 52.4307C355.264 52.6995 355.428 52.9069 355.643 53.0527C355.861 53.194 356.126 53.2646 356.436 53.2646C356.741 53.2646 357.001 53.194 357.215 53.0527C357.434 52.9069 357.6 52.6995 357.714 52.4307C357.828 52.1572 357.885 51.8291 357.885 51.4463ZM358.903 46.8047C358.903 47.2878 358.796 47.723 358.582 48.1104C358.368 48.4977 358.074 48.8031 357.7 49.0264C357.331 49.2497 356.91 49.3613 356.436 49.3613C355.952 49.3613 355.524 49.2497 355.15 49.0264C354.777 48.8031 354.485 48.4977 354.275 48.1104C354.066 47.723 353.961 47.2878 353.961 46.8047C353.961 46.2259 354.066 45.7337 354.275 45.3281C354.49 44.9225 354.784 44.6126 355.157 44.3984C355.531 44.1842 355.957 44.0771 356.436 44.0771C356.919 44.0771 357.345 44.1842 357.714 44.3984C358.083 44.6126 358.372 44.9225 358.582 45.3281C358.796 45.7337 358.903 46.2259 358.903 46.8047ZM357.693 46.8252C357.693 46.4925 357.641 46.1986 357.536 45.9434C357.436 45.6882 357.29 45.4876 357.099 45.3418C356.912 45.1914 356.691 45.1162 356.436 45.1162C356.18 45.1162 355.957 45.1868 355.766 45.3281C355.579 45.4648 355.433 45.6608 355.328 45.916C355.223 46.1712 355.171 46.4743 355.171 46.8252C355.171 47.167 355.221 47.4655 355.321 47.7207C355.426 47.9759 355.574 48.1742 355.766 48.3154C355.957 48.4567 356.18 48.5273 356.436 48.5273C356.691 48.5273 356.912 48.4567 357.099 48.3154C357.29 48.1742 357.436 47.9759 357.536 47.7207C357.641 47.4655 357.693 47.167 357.693 46.8252Z" fill="black"/>
<mask id="path-44-inside-14_1190_23763" fill="white">
<path d="M295.5 65.3337H394V98.6671H295.5V65.3337Z"/>
</mask>
<path d="M394 97.6671H295.5V99.6671H394V97.6671Z" fill="#C2C6C7" mask="url(#path-44-inside-14_1190_23763)"/>
<path d="M334.861 83.8071C334.861 84.4132 334.745 84.9282 334.513 85.3521C334.28 85.7713 333.964 86.0903 333.562 86.3091C333.161 86.5278 332.708 86.6372 332.202 86.6372C331.701 86.6372 331.25 86.5278 330.849 86.3091C330.448 86.0903 330.131 85.7713 329.898 85.3521C329.666 84.9282 329.55 84.4132 329.55 83.8071C329.55 83.4106 329.614 83.0483 329.741 82.7202C329.869 82.3875 330.049 82.0981 330.281 81.8521C330.518 81.606 330.799 81.4168 331.122 81.2847C331.446 81.1479 331.803 81.0796 332.195 81.0796C332.71 81.0796 333.168 81.1981 333.569 81.4351C333.97 81.6675 334.285 81.9888 334.513 82.3989C334.745 82.8091 334.861 83.2785 334.861 83.8071ZM333.658 83.7798C333.658 83.4106 333.597 83.0848 333.474 82.8022C333.355 82.5151 333.187 82.2918 332.968 82.1323C332.749 81.9728 332.492 81.8931 332.195 81.8931C331.895 81.8931 331.637 81.9728 331.423 82.1323C331.209 82.2918 331.042 82.5151 330.924 82.8022C330.81 83.0848 330.753 83.4106 330.753 83.7798C330.753 84.1626 330.81 84.4907 330.924 84.7642C331.038 85.033 331.202 85.2404 331.416 85.3862C331.635 85.5275 331.899 85.5981 332.209 85.5981C332.514 85.5981 332.774 85.5275 332.988 85.3862C333.207 85.2404 333.373 85.033 333.487 84.7642C333.601 84.4907 333.658 84.1626 333.658 83.7798ZM334.677 79.1382C334.677 79.6213 334.57 80.0565 334.355 80.4438C334.141 80.8312 333.847 81.1366 333.474 81.3599C333.104 81.5832 332.683 81.6948 332.209 81.6948C331.726 81.6948 331.298 81.5832 330.924 81.3599C330.55 81.1366 330.258 80.8312 330.049 80.4438C329.839 80.0565 329.734 79.6213 329.734 79.1382C329.734 78.5594 329.839 78.0672 330.049 77.6616C330.263 77.256 330.557 76.9461 330.931 76.7319C331.304 76.5177 331.73 76.4106 332.209 76.4106C332.692 76.4106 333.118 76.5177 333.487 76.7319C333.856 76.9461 334.146 77.256 334.355 77.6616C334.57 78.0672 334.677 78.5594 334.677 79.1382ZM333.467 79.1587C333.467 78.826 333.414 78.5321 333.31 78.2769C333.209 78.0216 333.063 77.8211 332.872 77.6753C332.685 77.5249 332.464 77.4497 332.209 77.4497C331.954 77.4497 331.73 77.5203 331.539 77.6616C331.352 77.7983 331.206 77.9943 331.102 78.2495C330.997 78.5047 330.944 78.8078 330.944 79.1587C330.944 79.5005 330.994 79.799 331.095 80.0542C331.2 80.3094 331.348 80.5076 331.539 80.6489C331.73 80.7902 331.954 80.8608 332.209 80.8608C332.464 80.8608 332.685 80.7902 332.872 80.6489C333.063 80.5076 333.209 80.3094 333.31 80.0542C333.414 79.799 333.467 79.5005 333.467 79.1587ZM341.779 83.8071C341.779 84.4132 341.663 84.9282 341.431 85.3521C341.198 85.7713 340.882 86.0903 340.48 86.3091C340.079 86.5278 339.626 86.6372 339.12 86.6372C338.619 86.6372 338.168 86.5278 337.767 86.3091C337.366 86.0903 337.049 85.7713 336.816 85.3521C336.584 84.9282 336.468 84.4132 336.468 83.8071C336.468 83.4106 336.532 83.0483 336.659 82.7202C336.787 82.3875 336.967 82.0981 337.199 81.8521C337.436 81.606 337.716 81.4168 338.04 81.2847C338.364 81.1479 338.721 81.0796 339.113 81.0796C339.628 81.0796 340.086 81.1981 340.487 81.4351C340.888 81.6675 341.203 81.9888 341.431 82.3989C341.663 82.8091 341.779 83.2785 341.779 83.8071ZM340.576 83.7798C340.576 83.4106 340.515 83.0848 340.392 82.8022C340.273 82.5151 340.104 82.2918 339.886 82.1323C339.667 81.9728 339.41 81.8931 339.113 81.8931C338.812 81.8931 338.555 81.9728 338.341 82.1323C338.127 82.2918 337.96 82.5151 337.842 82.8022C337.728 83.0848 337.671 83.4106 337.671 83.7798C337.671 84.1626 337.728 84.4907 337.842 84.7642C337.956 85.033 338.12 85.2404 338.334 85.3862C338.553 85.5275 338.817 85.5981 339.127 85.5981C339.432 85.5981 339.692 85.5275 339.906 85.3862C340.125 85.2404 340.291 85.033 340.405 84.7642C340.519 84.4907 340.576 84.1626 340.576 83.7798ZM341.595 79.1382C341.595 79.6213 341.488 80.0565 341.273 80.4438C341.059 80.8312 340.765 81.1366 340.392 81.3599C340.022 81.5832 339.601 81.6948 339.127 81.6948C338.644 81.6948 338.215 81.5832 337.842 81.3599C337.468 81.1366 337.176 80.8312 336.967 80.4438C336.757 80.0565 336.652 79.6213 336.652 79.1382C336.652 78.5594 336.757 78.0672 336.967 77.6616C337.181 77.256 337.475 76.9461 337.849 76.7319C338.222 76.5177 338.648 76.4106 339.127 76.4106C339.61 76.4106 340.036 76.5177 340.405 76.7319C340.774 76.9461 341.064 77.256 341.273 77.6616C341.488 78.0672 341.595 78.5594 341.595 79.1382ZM340.385 79.1587C340.385 78.826 340.332 78.5321 340.228 78.2769C340.127 78.0216 339.981 77.8211 339.79 77.6753C339.603 77.5249 339.382 77.4497 339.127 77.4497C338.872 77.4497 338.648 77.5203 338.457 77.6616C338.27 77.7983 338.124 77.9943 338.02 78.2495C337.915 78.5047 337.862 78.8078 337.862 79.1587C337.862 79.5005 337.912 79.799 338.013 80.0542C338.118 80.3094 338.266 80.5076 338.457 80.6489C338.648 80.7902 338.872 80.8608 339.127 80.8608C339.382 80.8608 339.603 80.7902 339.79 80.6489C339.981 80.5076 340.127 80.3094 340.228 80.0542C340.332 79.799 340.385 79.5005 340.385 79.1587ZM345.737 81.7495V82.7886H342.914V81.7495H345.737ZM347.952 85.4409H348.048C348.663 85.4409 349.158 85.3384 349.531 85.1333C349.905 84.9282 350.185 84.6525 350.372 84.3062C350.563 83.9598 350.691 83.5701 350.755 83.1372C350.823 82.6997 350.857 82.2508 350.857 81.7905V80.2661C350.857 79.8149 350.814 79.4139 350.728 79.063C350.646 78.7121 350.534 78.4181 350.393 78.1812C350.256 77.9442 350.099 77.7642 349.921 77.6411C349.748 77.5181 349.57 77.4565 349.388 77.4565C349.155 77.4565 348.95 77.5158 348.772 77.6343C348.595 77.7482 348.444 77.91 348.321 78.1196C348.203 78.3293 348.112 78.5754 348.048 78.8579C347.984 79.1405 347.952 79.4481 347.952 79.7808C347.952 80.077 347.979 80.3641 348.034 80.6421C348.089 80.9201 348.173 81.1707 348.287 81.394C348.406 81.6174 348.551 81.7951 348.725 81.9272C348.902 82.0549 349.112 82.1187 349.354 82.1187C349.554 82.1187 349.748 82.064 349.935 81.9546C350.126 81.8407 350.299 81.688 350.454 81.4966C350.609 81.3006 350.737 81.0796 350.837 80.8335C350.937 80.5874 350.996 80.3299 351.015 80.061H351.582C351.582 80.4393 351.521 80.813 351.397 81.1821C351.279 81.5467 351.108 81.8794 350.885 82.1802C350.666 82.481 350.409 82.7225 350.112 82.9048C349.821 83.0825 349.499 83.1714 349.148 83.1714C348.725 83.1714 348.362 83.0757 348.062 82.8843C347.761 82.6929 347.515 82.4377 347.323 82.1187C347.136 81.7996 346.997 81.4442 346.906 81.0522C346.815 80.6558 346.77 80.2547 346.77 79.8491C346.77 79.3752 346.824 78.9308 346.934 78.5161C347.043 78.1014 347.205 77.7368 347.419 77.4224C347.638 77.1034 347.911 76.855 348.239 76.6772C348.567 76.4995 348.95 76.4106 349.388 76.4106C349.875 76.4106 350.29 76.5246 350.632 76.7524C350.974 76.9803 351.249 77.2856 351.459 77.6685C351.669 78.0513 351.821 78.4819 351.917 78.9604C352.013 79.439 352.061 79.9312 352.061 80.437V80.895C352.061 81.41 352.035 81.9341 351.985 82.4673C351.94 82.9959 351.842 83.5018 351.691 83.9849C351.546 84.4679 351.327 84.9009 351.035 85.2837C350.743 85.6619 350.354 85.9627 349.866 86.186C349.383 86.4048 348.777 86.5142 348.048 86.5142H347.959L347.952 85.4409ZM359.341 85.4614V86.5005H353.776V85.5913L356.518 81.9614C356.855 81.5148 357.112 81.1366 357.29 80.8267C357.468 80.5122 357.591 80.2319 357.659 79.9858C357.728 79.7352 357.762 79.48 357.762 79.2202C357.762 78.8921 357.709 78.5959 357.604 78.3315C357.5 78.0627 357.347 77.8485 357.146 77.689C356.946 77.5295 356.704 77.4497 356.422 77.4497C356.053 77.4497 355.75 77.5363 355.513 77.7095C355.28 77.8781 355.109 78.1151 355 78.4204C354.891 78.7257 354.836 79.0767 354.836 79.4731H353.626C353.626 78.9126 353.729 78.3999 353.934 77.9351C354.143 77.4702 354.455 77.1011 354.87 76.8276C355.285 76.5496 355.802 76.4106 356.422 76.4106C356.955 76.4106 357.411 76.5223 357.789 76.7456C358.172 76.9644 358.464 77.2743 358.664 77.6753C358.869 78.0718 358.972 78.5366 358.972 79.0698C358.972 79.3615 358.931 79.6577 358.849 79.9585C358.771 80.2547 358.662 80.5509 358.521 80.8472C358.384 81.1434 358.222 81.4351 358.035 81.7222C357.848 82.0093 357.648 82.2918 357.434 82.5698L355.226 85.4614H359.341Z" fill="black"/>
<mask id="path-47-inside-15_1190_23763" fill="white">
<path d="M295.5 97.667H394V131H295.5V97.667Z"/>
</mask>
<path d="M394 130H295.5V132H394V130Z" fill="#C2C6C7" mask="url(#path-47-inside-15_1190_23763)"/>
<path d="M330.644 117.774H330.739C331.354 117.774 331.849 117.672 332.223 117.467C332.596 117.261 332.877 116.986 333.063 116.639C333.255 116.293 333.382 115.903 333.446 115.47C333.515 115.033 333.549 114.584 333.549 114.124V112.599C333.549 112.148 333.506 111.747 333.419 111.396C333.337 111.045 333.225 110.751 333.084 110.514C332.947 110.277 332.79 110.097 332.612 109.974C332.439 109.851 332.261 109.79 332.079 109.79C331.847 109.79 331.642 109.849 331.464 109.968C331.286 110.081 331.136 110.243 331.013 110.453C330.894 110.663 330.803 110.909 330.739 111.191C330.675 111.474 330.644 111.781 330.644 112.114C330.644 112.41 330.671 112.697 330.726 112.975C330.78 113.253 330.865 113.504 330.979 113.727C331.097 113.951 331.243 114.128 331.416 114.26C331.594 114.388 331.803 114.452 332.045 114.452C332.245 114.452 332.439 114.397 332.626 114.288C332.817 114.174 332.991 114.021 333.146 113.83C333.3 113.634 333.428 113.413 333.528 113.167C333.629 112.921 333.688 112.663 333.706 112.394H334.273C334.273 112.773 334.212 113.146 334.089 113.515C333.97 113.88 333.799 114.213 333.576 114.513C333.357 114.814 333.1 115.056 332.804 115.238C332.512 115.416 332.191 115.505 331.84 115.505C331.416 115.505 331.054 115.409 330.753 115.218C330.452 115.026 330.206 114.771 330.015 114.452C329.828 114.133 329.689 113.777 329.598 113.385C329.507 112.989 329.461 112.588 329.461 112.182C329.461 111.708 329.516 111.264 329.625 110.849C329.734 110.435 329.896 110.07 330.11 109.756C330.329 109.437 330.603 109.188 330.931 109.01C331.259 108.833 331.642 108.744 332.079 108.744C332.567 108.744 332.981 108.858 333.323 109.086C333.665 109.314 333.941 109.619 334.15 110.002C334.36 110.385 334.513 110.815 334.608 111.294C334.704 111.772 334.752 112.264 334.752 112.77V113.228C334.752 113.743 334.727 114.267 334.677 114.801C334.631 115.329 334.533 115.835 334.383 116.318C334.237 116.801 334.018 117.234 333.727 117.617C333.435 117.995 333.045 118.296 332.558 118.519C332.075 118.738 331.468 118.847 330.739 118.847H330.65L330.644 117.774ZM342.032 117.795V118.834H336.468V117.925L339.209 114.295C339.546 113.848 339.804 113.47 339.981 113.16C340.159 112.845 340.282 112.565 340.351 112.319C340.419 112.068 340.453 111.813 340.453 111.553C340.453 111.225 340.401 110.929 340.296 110.665C340.191 110.396 340.038 110.182 339.838 110.022C339.637 109.863 339.396 109.783 339.113 109.783C338.744 109.783 338.441 109.87 338.204 110.043C337.972 110.211 337.801 110.448 337.691 110.754C337.582 111.059 337.527 111.41 337.527 111.806H336.317C336.317 111.246 336.42 110.733 336.625 110.268C336.835 109.803 337.147 109.434 337.562 109.161C337.976 108.883 338.493 108.744 339.113 108.744C339.646 108.744 340.102 108.856 340.48 109.079C340.863 109.298 341.155 109.608 341.355 110.009C341.561 110.405 341.663 110.87 341.663 111.403C341.663 111.695 341.622 111.991 341.54 112.292C341.463 112.588 341.353 112.884 341.212 113.18C341.075 113.477 340.913 113.768 340.727 114.055C340.54 114.343 340.339 114.625 340.125 114.903L337.917 117.795H342.032ZM345.737 114.083V115.122H342.914V114.083H345.737ZM347.952 117.774H348.048C348.663 117.774 349.158 117.672 349.531 117.467C349.905 117.261 350.185 116.986 350.372 116.639C350.563 116.293 350.691 115.903 350.755 115.47C350.823 115.033 350.857 114.584 350.857 114.124V112.599C350.857 112.148 350.814 111.747 350.728 111.396C350.646 111.045 350.534 110.751 350.393 110.514C350.256 110.277 350.099 110.097 349.921 109.974C349.748 109.851 349.57 109.79 349.388 109.79C349.155 109.79 348.95 109.849 348.772 109.968C348.595 110.081 348.444 110.243 348.321 110.453C348.203 110.663 348.112 110.909 348.048 111.191C347.984 111.474 347.952 111.781 347.952 112.114C347.952 112.41 347.979 112.697 348.034 112.975C348.089 113.253 348.173 113.504 348.287 113.727C348.406 113.951 348.551 114.128 348.725 114.26C348.902 114.388 349.112 114.452 349.354 114.452C349.554 114.452 349.748 114.397 349.935 114.288C350.126 114.174 350.299 114.021 350.454 113.83C350.609 113.634 350.737 113.413 350.837 113.167C350.937 112.921 350.996 112.663 351.015 112.394H351.582C351.582 112.773 351.521 113.146 351.397 113.515C351.279 113.88 351.108 114.213 350.885 114.513C350.666 114.814 350.409 115.056 350.112 115.238C349.821 115.416 349.499 115.505 349.148 115.505C348.725 115.505 348.362 115.409 348.062 115.218C347.761 115.026 347.515 114.771 347.323 114.452C347.136 114.133 346.997 113.777 346.906 113.385C346.815 112.989 346.77 112.588 346.77 112.182C346.77 111.708 346.824 111.264 346.934 110.849C347.043 110.435 347.205 110.07 347.419 109.756C347.638 109.437 347.911 109.188 348.239 109.01C348.567 108.833 348.95 108.744 349.388 108.744C349.875 108.744 350.29 108.858 350.632 109.086C350.974 109.314 351.249 109.619 351.459 110.002C351.669 110.385 351.821 110.815 351.917 111.294C352.013 111.772 352.061 112.264 352.061 112.77V113.228C352.061 113.743 352.035 114.267 351.985 114.801C351.94 115.329 351.842 115.835 351.691 116.318C351.546 116.801 351.327 117.234 351.035 117.617C350.743 117.995 350.354 118.296 349.866 118.519C349.383 118.738 348.777 118.847 348.048 118.847H347.959L347.952 117.774ZM357.898 108.867H357.987V109.94H357.898C357.324 109.94 356.853 110.05 356.483 110.268C356.119 110.483 355.834 110.772 355.629 111.136C355.428 111.497 355.289 111.902 355.212 112.353C355.134 112.804 355.096 113.262 355.096 113.727V115.19C355.096 115.632 355.137 116.024 355.219 116.366C355.305 116.703 355.417 116.988 355.554 117.22C355.695 117.453 355.852 117.628 356.025 117.747C356.203 117.865 356.383 117.925 356.565 117.925C356.798 117.925 357.003 117.87 357.181 117.76C357.363 117.647 357.513 117.489 357.632 117.289C357.755 117.084 357.848 116.842 357.912 116.564C357.976 116.286 358.008 115.981 358.008 115.648C358.008 115.352 357.978 115.067 357.919 114.794C357.864 114.516 357.78 114.27 357.666 114.055C357.552 113.837 357.406 113.666 357.229 113.543C357.055 113.415 356.848 113.351 356.606 113.351C356.333 113.351 356.078 113.438 355.841 113.611C355.608 113.78 355.417 114.003 355.267 114.281C355.116 114.554 355.027 114.853 355 115.177L354.378 115.17C354.442 114.659 354.549 114.224 354.699 113.864C354.85 113.499 355.032 113.203 355.246 112.975C355.465 112.743 355.706 112.574 355.971 112.469C356.235 112.36 356.513 112.305 356.805 112.305C357.229 112.305 357.591 112.399 357.892 112.586C358.197 112.773 358.445 113.023 358.637 113.338C358.833 113.648 358.976 113.998 359.067 114.39C359.159 114.778 359.204 115.177 359.204 115.587C359.204 116.056 359.147 116.496 359.033 116.906C358.924 117.316 358.76 117.676 358.541 117.986C358.322 118.296 358.047 118.538 357.714 118.711C357.386 118.884 357.003 118.97 356.565 118.97C356.101 118.97 355.7 118.861 355.362 118.642C355.025 118.419 354.745 118.123 354.521 117.754C354.303 117.385 354.141 116.974 354.036 116.523C353.931 116.072 353.879 115.614 353.879 115.149V114.554C353.879 113.853 353.929 113.164 354.029 112.49C354.13 111.816 354.319 111.205 354.597 110.658C354.879 110.111 355.285 109.676 355.813 109.352C356.347 109.029 357.042 108.867 357.898 108.867Z" fill="black"/>
<mask id="path-50-inside-16_1190_23763" fill="white">
<path d="M295.5 130H394V163.334H295.5V130Z"/>
</mask>
<path d="M394 162.334H295.5V164.334H394V162.334Z" fill="#C2C6C7" mask="url(#path-50-inside-16_1190_23763)"/>
<path d="M327.144 150.107H327.239C327.854 150.107 328.349 150.005 328.723 149.8C329.096 149.595 329.377 149.319 329.563 148.973C329.755 148.626 329.882 148.237 329.946 147.804C330.015 147.366 330.049 146.917 330.049 146.457V144.933C330.049 144.481 330.006 144.08 329.919 143.729C329.837 143.379 329.725 143.085 329.584 142.848C329.447 142.611 329.29 142.431 329.112 142.308C328.939 142.185 328.761 142.123 328.579 142.123C328.347 142.123 328.142 142.182 327.964 142.301C327.786 142.415 327.636 142.576 327.513 142.786C327.394 142.996 327.303 143.242 327.239 143.524C327.175 143.807 327.144 144.115 327.144 144.447C327.144 144.743 327.171 145.031 327.226 145.309C327.28 145.587 327.365 145.837 327.479 146.061C327.597 146.284 327.743 146.462 327.916 146.594C328.094 146.721 328.303 146.785 328.545 146.785C328.745 146.785 328.939 146.73 329.126 146.621C329.317 146.507 329.491 146.354 329.646 146.163C329.8 145.967 329.928 145.746 330.028 145.5C330.129 145.254 330.188 144.996 330.206 144.728H330.773C330.773 145.106 330.712 145.479 330.589 145.849C330.47 146.213 330.299 146.546 330.076 146.847C329.857 147.147 329.6 147.389 329.304 147.571C329.012 147.749 328.691 147.838 328.34 147.838C327.916 147.838 327.554 147.742 327.253 147.551C326.952 147.359 326.706 147.104 326.515 146.785C326.328 146.466 326.189 146.111 326.098 145.719C326.007 145.322 325.961 144.921 325.961 144.516C325.961 144.042 326.016 143.597 326.125 143.183C326.234 142.768 326.396 142.403 326.61 142.089C326.829 141.77 327.103 141.521 327.431 141.344C327.759 141.166 328.142 141.077 328.579 141.077C329.067 141.077 329.481 141.191 329.823 141.419C330.165 141.647 330.441 141.952 330.65 142.335C330.86 142.718 331.013 143.148 331.108 143.627C331.204 144.105 331.252 144.598 331.252 145.104V145.562C331.252 146.076 331.227 146.601 331.177 147.134C331.131 147.662 331.033 148.168 330.883 148.651C330.737 149.134 330.518 149.567 330.227 149.95C329.935 150.328 329.545 150.629 329.058 150.853C328.575 151.071 327.968 151.181 327.239 151.181H327.15L327.144 150.107ZM337.09 141.2H337.179V142.273H337.09C336.516 142.273 336.044 142.383 335.675 142.602C335.31 142.816 335.025 143.105 334.82 143.47C334.62 143.83 334.481 144.235 334.403 144.687C334.326 145.138 334.287 145.596 334.287 146.061V147.523C334.287 147.965 334.328 148.357 334.41 148.699C334.497 149.036 334.608 149.321 334.745 149.554C334.886 149.786 335.044 149.962 335.217 150.08C335.395 150.199 335.575 150.258 335.757 150.258C335.989 150.258 336.194 150.203 336.372 150.094C336.554 149.98 336.705 149.823 336.823 149.622C336.946 149.417 337.04 149.175 337.104 148.897C337.167 148.619 337.199 148.314 337.199 147.981C337.199 147.685 337.17 147.4 337.11 147.127C337.056 146.849 336.971 146.603 336.857 146.389C336.743 146.17 336.598 145.999 336.42 145.876C336.247 145.748 336.039 145.685 335.798 145.685C335.524 145.685 335.269 145.771 335.032 145.944C334.8 146.113 334.608 146.336 334.458 146.614C334.308 146.888 334.219 147.186 334.191 147.51L333.569 147.503C333.633 146.993 333.74 146.557 333.891 146.197C334.041 145.833 334.223 145.536 334.438 145.309C334.656 145.076 334.898 144.908 335.162 144.803C335.426 144.693 335.704 144.639 335.996 144.639C336.42 144.639 336.782 144.732 337.083 144.919C337.388 145.106 337.637 145.356 337.828 145.671C338.024 145.981 338.168 146.332 338.259 146.724C338.35 147.111 338.396 147.51 338.396 147.92C338.396 148.389 338.339 148.829 338.225 149.239C338.115 149.649 337.951 150.009 337.732 150.319C337.514 150.629 337.238 150.871 336.905 151.044C336.577 151.217 336.194 151.304 335.757 151.304C335.292 151.304 334.891 151.194 334.554 150.976C334.216 150.752 333.936 150.456 333.713 150.087C333.494 149.718 333.332 149.308 333.228 148.856C333.123 148.405 333.07 147.947 333.07 147.482V146.888C333.07 146.186 333.12 145.498 333.221 144.823C333.321 144.149 333.51 143.538 333.788 142.991C334.071 142.444 334.476 142.009 335.005 141.686C335.538 141.362 336.233 141.2 337.09 141.2ZM342.237 146.416V147.455H339.414V146.416H342.237ZM346.961 141.159V151.167H345.751V142.738L343.659 143.668V142.526L346.776 141.159H346.961ZM355.595 145.397V146.915C355.595 147.731 355.531 148.419 355.403 148.979C355.28 149.54 355.103 149.991 354.87 150.333C354.638 150.675 354.357 150.923 354.029 151.078C353.706 151.229 353.341 151.304 352.936 151.304C352.617 151.304 352.318 151.256 352.04 151.16C351.767 151.064 351.521 150.912 351.302 150.702C351.083 150.488 350.896 150.21 350.741 149.868C350.586 149.526 350.468 149.112 350.386 148.624C350.304 148.136 350.263 147.567 350.263 146.915V145.397C350.263 144.582 350.326 143.898 350.454 143.347C350.582 142.795 350.762 142.353 350.994 142.021C351.231 141.683 351.511 141.442 351.835 141.296C352.163 141.15 352.528 141.077 352.929 141.077C353.252 141.077 353.551 141.125 353.824 141.221C354.102 141.312 354.348 141.46 354.562 141.665C354.781 141.866 354.968 142.134 355.123 142.472C355.278 142.804 355.394 143.212 355.472 143.695C355.554 144.178 355.595 144.746 355.595 145.397ZM354.392 147.12V145.186C354.392 144.739 354.371 144.347 354.33 144.01C354.289 143.668 354.23 143.376 354.152 143.135C354.075 142.893 353.975 142.697 353.852 142.547C353.733 142.396 353.596 142.287 353.441 142.219C353.286 142.146 353.116 142.109 352.929 142.109C352.696 142.109 352.489 142.166 352.307 142.28C352.129 142.39 351.976 142.565 351.849 142.807C351.726 143.048 351.632 143.365 351.568 143.757C351.505 144.149 351.473 144.625 351.473 145.186V147.12C351.473 147.567 351.493 147.961 351.534 148.303C351.58 148.645 351.641 148.941 351.719 149.191C351.801 149.438 351.901 149.64 352.02 149.8C352.138 149.959 352.275 150.078 352.43 150.155C352.585 150.228 352.753 150.265 352.936 150.265C353.177 150.265 353.387 150.205 353.564 150.087C353.747 149.968 353.899 149.784 354.022 149.533C354.146 149.278 354.237 148.952 354.296 148.556C354.36 148.155 354.392 147.676 354.392 147.12ZM362.513 145.397V146.915C362.513 147.731 362.449 148.419 362.321 148.979C362.198 149.54 362.021 149.991 361.788 150.333C361.556 150.675 361.275 150.923 360.947 151.078C360.624 151.229 360.259 151.304 359.854 151.304C359.535 151.304 359.236 151.256 358.958 151.16C358.685 151.064 358.438 150.912 358.22 150.702C358.001 150.488 357.814 150.21 357.659 149.868C357.504 149.526 357.386 149.112 357.304 148.624C357.222 148.136 357.181 147.567 357.181 146.915V145.397C357.181 144.582 357.244 143.898 357.372 143.347C357.5 142.795 357.68 142.353 357.912 142.021C358.149 141.683 358.429 141.442 358.753 141.296C359.081 141.15 359.446 141.077 359.847 141.077C360.17 141.077 360.469 141.125 360.742 141.221C361.02 141.312 361.266 141.46 361.48 141.665C361.699 141.866 361.886 142.134 362.041 142.472C362.196 142.804 362.312 143.212 362.39 143.695C362.472 144.178 362.513 144.746 362.513 145.397ZM361.31 147.12V145.186C361.31 144.739 361.289 144.347 361.248 144.01C361.207 143.668 361.148 143.376 361.07 143.135C360.993 142.893 360.893 142.697 360.77 142.547C360.651 142.396 360.514 142.287 360.359 142.219C360.204 142.146 360.034 142.109 359.847 142.109C359.614 142.109 359.407 142.166 359.225 142.28C359.047 142.39 358.894 142.565 358.767 142.807C358.644 143.048 358.55 143.365 358.486 143.757C358.423 144.149 358.391 144.625 358.391 145.186V147.12C358.391 147.567 358.411 147.961 358.452 148.303C358.498 148.645 358.559 148.941 358.637 149.191C358.719 149.438 358.819 149.64 358.938 149.8C359.056 149.959 359.193 150.078 359.348 150.155C359.503 150.228 359.671 150.265 359.854 150.265C360.095 150.265 360.305 150.205 360.482 150.087C360.665 149.968 360.817 149.784 360.94 149.533C361.063 149.278 361.155 148.952 361.214 148.556C361.278 148.155 361.31 147.676 361.31 147.12Z" fill="black"/>
</svg>
