<svg width="394" height="228" viewBox="0 0 394 228" fill="none" xmlns="http://www.w3.org/2000/svg">
<rect width="197" height="33.3333" transform="translate(0 0.333496)" fill="#C2C6C7"/>
<path d="M78.7451 17.5969H76.5713V16.5236H78.7451C79.1553 16.5236 79.4857 16.4416 79.7363 16.2775C79.9915 16.1135 80.1761 15.8856 80.29 15.5939C80.4085 15.3023 80.4678 14.9696 80.4678 14.5959C80.4678 14.2541 80.4085 13.9328 80.29 13.632C80.1761 13.3312 79.9915 13.0897 79.7363 12.9074C79.4857 12.7206 79.1553 12.6271 78.7451 12.6271H76.8311V21.5002H75.5732V11.5471H78.7451C79.3877 11.5471 79.93 11.6769 80.3721 11.9367C80.8141 12.1965 81.1491 12.5565 81.377 13.0168C81.6094 13.4725 81.7256 13.9943 81.7256 14.5822C81.7256 15.2202 81.6094 15.7648 81.377 16.216C81.1491 16.6672 80.8141 17.0113 80.3721 17.2482C79.93 17.4807 79.3877 17.5969 78.7451 17.5969ZM85.6221 12.4289L82.9014 21.5002H81.6162L84.8223 11.5471H85.6289L85.6221 12.4289ZM87.8232 21.5002L85.1025 12.4289L85.0889 11.5471H85.9023L89.1084 21.5002H87.8232ZM87.8232 17.8156V18.8957H83.0244V17.8156H87.8232ZM93.0801 16.7219H92.1094V15.881H93.0391C93.4264 15.881 93.7386 15.8104 93.9756 15.6691C94.2126 15.5279 94.3857 15.3319 94.4951 15.0812C94.6045 14.8306 94.6592 14.5412 94.6592 14.2131C94.6592 13.8986 94.5977 13.6115 94.4746 13.3517C94.3561 13.0874 94.1715 12.8778 93.9209 12.7228C93.6702 12.5633 93.3444 12.4836 92.9434 12.4836C92.6471 12.4836 92.3783 12.5565 92.1367 12.7023C91.8952 12.8436 91.7038 13.0418 91.5625 13.2971C91.4258 13.5477 91.3574 13.8371 91.3574 14.1652H90.0996C90.0996 13.7414 90.1725 13.3609 90.3184 13.0236C90.4688 12.6818 90.6738 12.3924 90.9336 12.1555C91.1979 11.9139 91.501 11.7293 91.8428 11.6017C92.1891 11.4741 92.556 11.4103 92.9434 11.4103C93.3945 11.4103 93.8024 11.4719 94.167 11.5949C94.5316 11.7134 94.8438 11.8911 95.1035 12.1281C95.3678 12.3651 95.5684 12.659 95.7051 13.0099C95.8464 13.3609 95.917 13.7687 95.917 14.2336C95.917 14.5754 95.8486 14.8967 95.7119 15.1974C95.5798 15.4982 95.3861 15.7626 95.1309 15.9904C94.8802 16.2183 94.5817 16.3983 94.2354 16.5305C93.889 16.6581 93.5039 16.7219 93.0801 16.7219ZM92.1094 16.1408H93.0801C93.5449 16.1408 93.9596 16.1978 94.3242 16.3117C94.6934 16.4256 95.0055 16.592 95.2607 16.8107C95.516 17.0295 95.7096 17.3006 95.8418 17.6242C95.9785 17.9432 96.0469 18.3101 96.0469 18.7248C96.0469 19.1896 95.9694 19.6021 95.8145 19.9621C95.6641 20.3221 95.4499 20.6275 95.1719 20.8781C94.8939 21.1288 94.5658 21.3179 94.1875 21.4455C93.8092 21.5731 93.3945 21.6369 92.9434 21.6369C92.5788 21.6369 92.221 21.5822 91.8701 21.4728C91.5192 21.3589 91.2002 21.1857 90.9131 20.9533C90.6305 20.7163 90.4027 20.4155 90.2295 20.051C90.0609 19.6864 89.9766 19.2489 89.9766 18.7385H91.2344C91.2344 19.0711 91.305 19.3765 91.4463 19.6545C91.5921 19.9325 91.7926 20.1558 92.0479 20.3244C92.3031 20.4885 92.6016 20.5705 92.9434 20.5705C93.3353 20.5705 93.668 20.493 93.9414 20.3381C94.2194 20.1786 94.429 19.9621 94.5703 19.6887C94.7161 19.4107 94.7891 19.0985 94.7891 18.7521C94.7891 18.4468 94.7503 18.1825 94.6729 17.9592C94.5999 17.7313 94.4883 17.5445 94.3379 17.3986C94.1921 17.2528 94.0098 17.1457 93.791 17.0773C93.5768 17.0044 93.3262 16.968 93.0391 16.968H92.1094V16.1408ZM98.1182 11.5471H99.335L101.939 19.6613L104.537 11.5471H105.754L102.411 21.5002H101.454L98.1182 11.5471ZM97.7217 11.5471H98.7881L98.9727 17.6174V21.5002H97.7217V11.5471ZM105.077 11.5471H106.144V21.5002H104.893V17.6174L105.077 11.5471ZM113.656 20.4269V21.5002H109.336V20.4269H113.656ZM109.562 11.5471V21.5002H108.304V11.5471H109.562ZM113.075 15.8264V16.8996H109.336V15.8264H113.075ZM113.588 11.5471V12.6271H109.336V11.5471H113.588ZM118.435 17.5969H116.261V16.5236H118.435C118.845 16.5236 119.175 16.4416 119.426 16.2775C119.681 16.1135 119.866 15.8856 119.979 15.5939C120.098 15.3023 120.157 14.9696 120.157 14.5959C120.157 14.2541 120.098 13.9328 119.979 13.632C119.866 13.3312 119.681 13.0897 119.426 12.9074C119.175 12.7206 118.845 12.6271 118.435 12.6271H116.521V21.5002H115.263V11.5471H118.435C119.077 11.5471 119.619 11.6769 120.062 11.9367C120.504 12.1965 120.839 12.5565 121.066 13.0168C121.299 13.4725 121.415 13.9943 121.415 14.5822C121.415 15.2202 121.299 15.7648 121.066 16.216C120.839 16.6672 120.504 17.0113 120.062 17.2482C119.619 17.4807 119.077 17.5969 118.435 17.5969Z" fill="#111810"/>
<mask id="path-2-inside-1_1190_23833" fill="white">
<path d="M0 32.6668H197V66.0001H0V32.6668Z"/>
</mask>
<path d="M197 65.0001H0V67.0001H197V65.0001Z" fill="#C2C6C7" mask="url(#path-2-inside-1_1190_23833)"/>
<path d="M93.8516 48.2349H94.6309C94.9772 48.2349 95.2643 48.1619 95.4922 48.0161C95.7201 47.8657 95.8887 47.6629 95.998 47.4077C96.112 47.1479 96.1689 46.8563 96.1689 46.5327C96.1689 46.1499 96.1188 45.8286 96.0186 45.5688C95.9183 45.3091 95.7679 45.1131 95.5674 44.981C95.3714 44.8488 95.123 44.7827 94.8223 44.7827C94.5397 44.7827 94.2936 44.8534 94.084 44.9946C93.8743 45.1313 93.7126 45.3273 93.5986 45.5825C93.4847 45.8377 93.4277 46.1385 93.4277 46.4849H92.2246C92.2246 45.979 92.3294 45.5187 92.5391 45.104C92.7533 44.6893 93.054 44.3589 93.4414 44.1128C93.8333 43.8667 94.2936 43.7437 94.8223 43.7437C95.3281 43.7437 95.7725 43.8507 96.1553 44.0649C96.5381 44.2746 96.8366 44.589 97.0508 45.0083C97.2695 45.423 97.3789 45.9403 97.3789 46.5601C97.3789 46.8107 97.3311 47.0796 97.2354 47.3667C97.1442 47.6493 96.9961 47.9136 96.791 48.1597C96.5905 48.4058 96.3262 48.6086 95.998 48.7681C95.6745 48.923 95.278 49.0005 94.8086 49.0005H93.8516V48.2349ZM93.8516 49.2739V48.5151H94.8086C95.3646 48.5151 95.818 48.5903 96.1689 48.7407C96.5199 48.8911 96.791 49.0916 96.9824 49.3423C97.1738 49.5929 97.306 49.8687 97.3789 50.1694C97.4564 50.4657 97.4951 50.7619 97.4951 51.0581C97.4951 51.5229 97.4268 51.9354 97.29 52.2954C97.1579 52.6554 96.9688 52.9608 96.7227 53.2114C96.4811 53.4621 96.1986 53.6512 95.875 53.7788C95.5514 53.9064 95.1982 53.9702 94.8154 53.9702C94.4417 53.9702 94.0954 53.9087 93.7764 53.7856C93.4574 53.6626 93.1771 53.4849 92.9355 53.2524C92.694 53.0155 92.5049 52.7261 92.3682 52.3843C92.236 52.0379 92.1699 51.6437 92.1699 51.2017H93.3799C93.3799 51.548 93.4368 51.8511 93.5508 52.1108C93.6647 52.3706 93.8288 52.5734 94.043 52.7192C94.2572 52.8605 94.5146 52.9312 94.8154 52.9312C95.1162 52.9312 95.376 52.8651 95.5947 52.7329C95.8135 52.5962 95.9821 52.3911 96.1006 52.1177C96.2236 51.8442 96.2852 51.5002 96.2852 51.0854C96.2852 50.6707 96.2168 50.3312 96.0801 50.0669C95.9479 49.798 95.7588 49.5998 95.5127 49.4722C95.2666 49.34 94.9727 49.2739 94.6309 49.2739H93.8516ZM100.681 49.0962L99.7168 48.8364L100.141 43.8804H104.475V45.0493H101.159L100.927 47.7563C101.082 47.6515 101.269 47.5535 101.487 47.4624C101.706 47.3713 101.961 47.3257 102.253 47.3257C102.645 47.3257 102.993 47.4054 103.299 47.5649C103.609 47.7199 103.871 47.9432 104.085 48.2349C104.299 48.5265 104.463 48.8774 104.577 49.2876C104.691 49.6978 104.748 50.1558 104.748 50.6616C104.748 51.1401 104.691 51.5799 104.577 51.981C104.468 52.382 104.299 52.7329 104.071 53.0337C103.848 53.3299 103.565 53.5601 103.224 53.7241C102.886 53.8882 102.492 53.9702 102.041 53.9702C101.704 53.9702 101.385 53.9155 101.084 53.8062C100.783 53.6922 100.512 53.5213 100.271 53.2935C100.034 53.061 99.8398 52.7739 99.6895 52.4321C99.5391 52.0858 99.4456 51.6802 99.4092 51.2153H100.551C100.596 51.589 100.683 51.9035 100.811 52.1587C100.943 52.4139 101.111 52.6076 101.316 52.7397C101.526 52.8674 101.768 52.9312 102.041 52.9312C102.273 52.9312 102.483 52.8787 102.67 52.7739C102.857 52.6691 103.014 52.5187 103.142 52.3228C103.269 52.1268 103.367 51.8898 103.436 51.6118C103.504 51.3338 103.538 51.0216 103.538 50.6753C103.538 50.3608 103.504 50.0692 103.436 49.8003C103.367 49.5314 103.265 49.2967 103.128 49.0962C102.991 48.8957 102.825 48.7407 102.629 48.6313C102.438 48.5174 102.214 48.4604 101.959 48.4604C101.617 48.4604 101.364 48.5174 101.2 48.6313C101.041 48.7453 100.868 48.9002 100.681 49.0962Z" fill="black"/>
<mask id="path-5-inside-2_1190_23833" fill="white">
<path d="M0 65.0002H197V98.3335H0V65.0002Z"/>
</mask>
<path d="M197 97.3335H0V99.3335H197V97.3335Z" fill="#C2C6C7" mask="url(#path-5-inside-2_1190_23833)"/>
<path d="M93.8516 80.5682H94.6309C94.9772 80.5682 95.2643 80.4953 95.4922 80.3495C95.7201 80.1991 95.8887 79.9963 95.998 79.7411C96.112 79.4813 96.1689 79.1897 96.1689 78.8661C96.1689 78.4833 96.1188 78.162 96.0186 77.9022C95.9183 77.6425 95.7679 77.4465 95.5674 77.3143C95.3714 77.1822 95.123 77.1161 94.8223 77.1161C94.5397 77.1161 94.2936 77.1867 94.084 77.328C93.8743 77.4647 93.7126 77.6607 93.5986 77.9159C93.4847 78.1711 93.4277 78.4719 93.4277 78.8182H92.2246C92.2246 78.3124 92.3294 77.8521 92.5391 77.4374C92.7533 77.0227 93.054 76.6923 93.4414 76.4462C93.8333 76.2001 94.2936 76.077 94.8223 76.077C95.3281 76.077 95.7725 76.1841 96.1553 76.3983C96.5381 76.608 96.8366 76.9224 97.0508 77.3417C97.2695 77.7564 97.3789 78.2736 97.3789 78.8934C97.3789 79.1441 97.3311 79.413 97.2354 79.7001C97.1442 79.9826 96.9961 80.2469 96.791 80.493C96.5905 80.7391 96.3262 80.9419 95.998 81.1014C95.6745 81.2564 95.278 81.3339 94.8086 81.3339H93.8516V80.5682ZM93.8516 81.6073V80.8485H94.8086C95.3646 80.8485 95.818 80.9237 96.1689 81.0741C96.5199 81.2245 96.791 81.425 96.9824 81.6757C97.1738 81.9263 97.306 82.202 97.3789 82.5028C97.4564 82.799 97.4951 83.0953 97.4951 83.3915C97.4951 83.8563 97.4268 84.2688 97.29 84.6288C97.1579 84.9888 96.9688 85.2941 96.7227 85.5448C96.4811 85.7955 96.1986 85.9846 95.875 86.1122C95.5514 86.2398 95.1982 86.3036 94.8154 86.3036C94.4417 86.3036 94.0954 86.2421 93.7764 86.119C93.4574 85.996 93.1771 85.8182 92.9355 85.5858C92.694 85.3488 92.5049 85.0594 92.3682 84.7177C92.236 84.3713 92.1699 83.9771 92.1699 83.535H93.3799C93.3799 83.8814 93.4368 84.1844 93.5508 84.4442C93.6647 84.704 93.8288 84.9068 94.043 85.0526C94.2572 85.1939 94.5146 85.2645 94.8154 85.2645C95.1162 85.2645 95.376 85.1984 95.5947 85.0663C95.8135 84.9296 95.9821 84.7245 96.1006 84.451C96.2236 84.1776 96.2852 83.8335 96.2852 83.4188C96.2852 83.0041 96.2168 82.6646 96.0801 82.4003C95.9479 82.1314 95.7588 81.9331 95.5127 81.8055C95.2666 81.6734 94.9727 81.6073 94.6309 81.6073H93.8516ZM103.34 76.2001H103.429V77.2733H103.34C102.766 77.2733 102.294 77.3827 101.925 77.6014C101.56 77.8156 101.275 78.105 101.07 78.4696C100.87 78.8296 100.731 79.2352 100.653 79.6864C100.576 80.1376 100.537 80.5956 100.537 81.0604V82.5233C100.537 82.9654 100.578 83.3573 100.66 83.6991C100.747 84.0363 100.858 84.3212 100.995 84.5536C101.136 84.786 101.294 84.9615 101.467 85.08C101.645 85.1984 101.825 85.2577 102.007 85.2577C102.239 85.2577 102.444 85.203 102.622 85.0936C102.804 84.9797 102.955 84.8225 103.073 84.6219C103.196 84.4169 103.29 84.1753 103.354 83.8973C103.417 83.6193 103.449 83.314 103.449 82.9813C103.449 82.6851 103.42 82.4003 103.36 82.1268C103.306 81.8488 103.221 81.6027 103.107 81.3885C102.993 81.1698 102.848 80.9989 102.67 80.8759C102.497 80.7483 102.289 80.6844 102.048 80.6844C101.774 80.6844 101.519 80.771 101.282 80.9442C101.05 81.1128 100.858 81.3361 100.708 81.6141C100.558 81.8876 100.469 82.1861 100.441 82.5096L99.8193 82.5028C99.8831 81.9924 99.9902 81.5572 100.141 81.1971C100.291 80.8326 100.473 80.5363 100.688 80.3085C100.906 80.076 101.148 79.9074 101.412 79.8026C101.676 79.6932 101.954 79.6385 102.246 79.6385C102.67 79.6385 103.032 79.732 103.333 79.9188C103.638 80.1057 103.887 80.3563 104.078 80.6708C104.274 80.9807 104.418 81.3316 104.509 81.7235C104.6 82.1109 104.646 82.5096 104.646 82.9198C104.646 83.3892 104.589 83.829 104.475 84.2391C104.365 84.6493 104.201 85.0093 103.982 85.3192C103.764 85.6291 103.488 85.8706 103.155 86.0438C102.827 86.217 102.444 86.3036 102.007 86.3036C101.542 86.3036 101.141 86.1942 100.804 85.9755C100.466 85.7522 100.186 85.4559 99.9629 85.0868C99.7441 84.7177 99.5824 84.3075 99.4775 83.8563C99.3727 83.4052 99.3203 82.9471 99.3203 82.4823V81.8876C99.3203 81.1858 99.3704 80.4976 99.4707 79.8231C99.571 79.1486 99.7601 78.538 100.038 77.9911C100.321 77.4442 100.726 77.009 101.255 76.6854C101.788 76.3619 102.483 76.2001 103.34 76.2001Z" fill="black"/>
<mask id="path-8-inside-3_1190_23833" fill="white">
<path d="M0 97.3335H197V130.667H0V97.3335Z"/>
</mask>
<path d="M197 129.667H0V131.667H197V129.667Z" fill="#C2C6C7" mask="url(#path-8-inside-3_1190_23833)"/>
<path d="M93.8516 112.902H94.6309C94.9772 112.902 95.2643 112.829 95.4922 112.683C95.7201 112.532 95.8887 112.33 95.998 112.074C96.112 111.815 96.1689 111.523 96.1689 111.199C96.1689 110.817 96.1188 110.495 96.0186 110.236C95.9183 109.976 95.7679 109.78 95.5674 109.648C95.3714 109.515 95.123 109.449 94.8223 109.449C94.5397 109.449 94.2936 109.52 94.084 109.661C93.8743 109.798 93.7126 109.994 93.5986 110.249C93.4847 110.504 93.4277 110.805 93.4277 111.152H92.2246C92.2246 110.646 92.3294 110.185 92.5391 109.771C92.7533 109.356 93.054 109.026 93.4414 108.779C93.8333 108.533 94.2936 108.41 94.8223 108.41C95.3281 108.41 95.7725 108.517 96.1553 108.732C96.5381 108.941 96.8366 109.256 97.0508 109.675C97.2695 110.09 97.3789 110.607 97.3789 111.227C97.3789 111.477 97.3311 111.746 97.2354 112.033C97.1442 112.316 96.9961 112.58 96.791 112.826C96.5905 113.072 96.3262 113.275 95.998 113.435C95.6745 113.59 95.278 113.667 94.8086 113.667H93.8516V112.902ZM93.8516 113.941V113.182H94.8086C95.3646 113.182 95.818 113.257 96.1689 113.407C96.5199 113.558 96.791 113.758 96.9824 114.009C97.1738 114.26 97.306 114.535 97.3789 114.836C97.4564 115.132 97.4951 115.429 97.4951 115.725C97.4951 116.19 97.4268 116.602 97.29 116.962C97.1579 117.322 96.9688 117.627 96.7227 117.878C96.4811 118.129 96.1986 118.318 95.875 118.445C95.5514 118.573 95.1982 118.637 94.8154 118.637C94.4417 118.637 94.0954 118.575 93.7764 118.452C93.4574 118.329 93.1771 118.152 92.9355 117.919C92.694 117.682 92.5049 117.393 92.3682 117.051C92.236 116.705 92.1699 116.31 92.1699 115.868H93.3799C93.3799 116.215 93.4368 116.518 93.5508 116.778C93.6647 117.037 93.8288 117.24 94.043 117.386C94.2572 117.527 94.5146 117.598 94.8154 117.598C95.1162 117.598 95.376 117.532 95.5947 117.4C95.8135 117.263 95.9821 117.058 96.1006 116.784C96.2236 116.511 96.2852 116.167 96.2852 115.752C96.2852 115.337 96.2168 114.998 96.0801 114.734C95.9479 114.465 95.7588 114.266 95.5127 114.139C95.2666 114.007 94.9727 113.941 94.6309 113.941H93.8516ZM104.714 108.547V109.258L101.289 118.5H100.018L103.442 109.586H99.0059V108.547H104.714Z" fill="black"/>
<mask id="path-11-inside-4_1190_23833" fill="white">
<path d="M0 129.667H197V163H0V129.667Z"/>
</mask>
<path d="M197 162H0V164H197V162Z" fill="#C2C6C7" mask="url(#path-11-inside-4_1190_23833)"/>
<path d="M93.8516 145.235H94.6309C94.9772 145.235 95.2643 145.162 95.4922 145.016C95.7201 144.866 95.8887 144.663 95.998 144.408C96.112 144.148 96.1689 143.856 96.1689 143.533C96.1689 143.15 96.1188 142.829 96.0186 142.569C95.9183 142.309 95.7679 142.113 95.5674 141.981C95.3714 141.849 95.123 141.783 94.8223 141.783C94.5397 141.783 94.2936 141.853 94.084 141.995C93.8743 142.131 93.7126 142.327 93.5986 142.583C93.4847 142.838 93.4277 143.139 93.4277 143.485H92.2246C92.2246 142.979 92.3294 142.519 92.5391 142.104C92.7533 141.689 93.054 141.359 93.4414 141.113C93.8333 140.867 94.2936 140.744 94.8223 140.744C95.3281 140.744 95.7725 140.851 96.1553 141.065C96.5381 141.275 96.8366 141.589 97.0508 142.008C97.2695 142.423 97.3789 142.94 97.3789 143.56C97.3789 143.811 97.3311 144.08 97.2354 144.367C97.1442 144.649 96.9961 144.914 96.791 145.16C96.5905 145.406 96.3262 145.609 95.998 145.768C95.6745 145.923 95.278 146.001 94.8086 146.001H93.8516V145.235ZM93.8516 146.274V145.515H94.8086C95.3646 145.515 95.818 145.59 96.1689 145.741C96.5199 145.891 96.791 146.092 96.9824 146.342C97.1738 146.593 97.306 146.869 97.3789 147.169C97.4564 147.466 97.4951 147.762 97.4951 148.058C97.4951 148.523 97.4268 148.935 97.29 149.295C97.1579 149.655 96.9688 149.961 96.7227 150.211C96.4811 150.462 96.1986 150.651 95.875 150.779C95.5514 150.906 95.1982 150.97 94.8154 150.97C94.4417 150.97 94.0954 150.909 93.7764 150.786C93.4574 150.663 93.1771 150.485 92.9355 150.253C92.694 150.016 92.5049 149.726 92.3682 149.384C92.236 149.038 92.1699 148.644 92.1699 148.202H93.3799C93.3799 148.548 93.4368 148.851 93.5508 149.111C93.6647 149.371 93.8288 149.573 94.043 149.719C94.2572 149.861 94.5146 149.931 94.8154 149.931C95.1162 149.931 95.376 149.865 95.5947 149.733C95.8135 149.596 95.9821 149.391 96.1006 149.118C96.2236 148.844 96.2852 148.5 96.2852 148.086C96.2852 147.671 96.2168 147.331 96.0801 147.067C95.9479 146.798 95.7588 146.6 95.5127 146.472C95.2666 146.34 94.9727 146.274 94.6309 146.274H93.8516ZM104.529 148.14C104.529 148.746 104.413 149.261 104.181 149.685C103.948 150.104 103.632 150.423 103.23 150.642C102.829 150.861 102.376 150.97 101.87 150.97C101.369 150.97 100.918 150.861 100.517 150.642C100.116 150.423 99.7988 150.104 99.5664 149.685C99.334 149.261 99.2178 148.746 99.2178 148.14C99.2178 147.744 99.2816 147.381 99.4092 147.053C99.5368 146.721 99.7168 146.431 99.9492 146.185C100.186 145.939 100.466 145.75 100.79 145.618C101.114 145.481 101.471 145.413 101.863 145.413C102.378 145.413 102.836 145.531 103.237 145.768C103.638 146.001 103.953 146.322 104.181 146.732C104.413 147.142 104.529 147.612 104.529 148.14ZM103.326 148.113C103.326 147.744 103.265 147.418 103.142 147.135C103.023 146.848 102.854 146.625 102.636 146.465C102.417 146.306 102.16 146.226 101.863 146.226C101.562 146.226 101.305 146.306 101.091 146.465C100.877 146.625 100.71 146.848 100.592 147.135C100.478 147.418 100.421 147.744 100.421 148.113C100.421 148.496 100.478 148.824 100.592 149.097C100.706 149.366 100.87 149.573 101.084 149.719C101.303 149.861 101.567 149.931 101.877 149.931C102.182 149.931 102.442 149.861 102.656 149.719C102.875 149.573 103.041 149.366 103.155 149.097C103.269 148.824 103.326 148.496 103.326 148.113ZM104.345 143.471C104.345 143.954 104.238 144.39 104.023 144.777C103.809 145.164 103.515 145.47 103.142 145.693C102.772 145.916 102.351 146.028 101.877 146.028C101.394 146.028 100.965 145.916 100.592 145.693C100.218 145.47 99.9264 145.164 99.7168 144.777C99.5072 144.39 99.4023 143.954 99.4023 143.471C99.4023 142.892 99.5072 142.4 99.7168 141.995C99.931 141.589 100.225 141.279 100.599 141.065C100.972 140.851 101.398 140.744 101.877 140.744C102.36 140.744 102.786 140.851 103.155 141.065C103.524 141.279 103.814 141.589 104.023 141.995C104.238 142.4 104.345 142.892 104.345 143.471ZM103.135 143.492C103.135 143.159 103.082 142.865 102.978 142.61C102.877 142.355 102.731 142.154 102.54 142.008C102.353 141.858 102.132 141.783 101.877 141.783C101.622 141.783 101.398 141.853 101.207 141.995C101.02 142.131 100.874 142.327 100.77 142.583C100.665 142.838 100.612 143.141 100.612 143.492C100.612 143.834 100.662 144.132 100.763 144.387C100.868 144.642 101.016 144.841 101.207 144.982C101.398 145.123 101.622 145.194 101.877 145.194C102.132 145.194 102.353 145.123 102.54 144.982C102.731 144.841 102.877 144.642 102.978 144.387C103.082 144.132 103.135 143.834 103.135 143.492Z" fill="black"/>
<mask id="path-14-inside-5_1190_23833" fill="white">
<path d="M0 162H197V195.334H0V162Z"/>
</mask>
<path d="M197 194.334H0V196.334H197V194.334Z" fill="#C2C6C7" mask="url(#path-14-inside-5_1190_23833)"/>
<path d="M93.8516 177.568H94.6309C94.9772 177.568 95.2643 177.495 95.4922 177.349C95.7201 177.199 95.8887 176.996 95.998 176.741C96.112 176.481 96.1689 176.19 96.1689 175.866C96.1689 175.483 96.1188 175.162 96.0186 174.902C95.9183 174.642 95.7679 174.446 95.5674 174.314C95.3714 174.182 95.123 174.116 94.8223 174.116C94.5397 174.116 94.2936 174.187 94.084 174.328C93.8743 174.465 93.7126 174.661 93.5986 174.916C93.4847 175.171 93.4277 175.472 93.4277 175.818H92.2246C92.2246 175.312 92.3294 174.852 92.5391 174.437C92.7533 174.023 93.054 173.692 93.4414 173.446C93.8333 173.2 94.2936 173.077 94.8223 173.077C95.3281 173.077 95.7725 173.184 96.1553 173.398C96.5381 173.608 96.8366 173.922 97.0508 174.342C97.2695 174.756 97.3789 175.274 97.3789 175.893C97.3789 176.144 97.3311 176.413 97.2354 176.7C97.1442 176.983 96.9961 177.247 96.791 177.493C96.5905 177.739 96.3262 177.942 95.998 178.101C95.6745 178.256 95.278 178.334 94.8086 178.334H93.8516V177.568ZM93.8516 178.607V177.849H94.8086C95.3646 177.849 95.818 177.924 96.1689 178.074C96.5199 178.224 96.791 178.425 96.9824 178.676C97.1738 178.926 97.306 179.202 97.3789 179.503C97.4564 179.799 97.4951 180.095 97.4951 180.391C97.4951 180.856 97.4268 181.269 97.29 181.629C97.1579 181.989 96.9688 182.294 96.7227 182.545C96.4811 182.795 96.1986 182.985 95.875 183.112C95.5514 183.24 95.1982 183.304 94.8154 183.304C94.4417 183.304 94.0954 183.242 93.7764 183.119C93.4574 182.996 93.1771 182.818 92.9355 182.586C92.694 182.349 92.5049 182.059 92.3682 181.718C92.236 181.371 92.1699 180.977 92.1699 180.535H93.3799C93.3799 180.881 93.4368 181.184 93.5508 181.444C93.6647 181.704 93.8288 181.907 94.043 182.053C94.2572 182.194 94.5146 182.265 94.8154 182.265C95.1162 182.265 95.376 182.198 95.5947 182.066C95.8135 181.93 95.9821 181.724 96.1006 181.451C96.2236 181.178 96.2852 180.834 96.2852 180.419C96.2852 180.004 96.2168 179.665 96.0801 179.4C95.9479 179.131 95.7588 178.933 95.5127 178.806C95.2666 178.673 94.9727 178.607 94.6309 178.607H93.8516ZM100.312 182.107H100.407C101.022 182.107 101.517 182.005 101.891 181.8C102.264 181.595 102.545 181.319 102.731 180.973C102.923 180.626 103.05 180.237 103.114 179.804C103.183 179.366 103.217 178.917 103.217 178.457V176.932C103.217 176.481 103.174 176.08 103.087 175.729C103.005 175.378 102.893 175.085 102.752 174.848C102.615 174.611 102.458 174.431 102.28 174.307C102.107 174.184 101.929 174.123 101.747 174.123C101.515 174.123 101.31 174.182 101.132 174.301C100.954 174.415 100.804 174.576 100.681 174.786C100.562 174.996 100.471 175.242 100.407 175.524C100.343 175.807 100.312 176.114 100.312 176.447C100.312 176.743 100.339 177.03 100.394 177.308C100.448 177.586 100.533 177.837 100.646 178.06C100.765 178.284 100.911 178.461 101.084 178.594C101.262 178.721 101.471 178.785 101.713 178.785C101.913 178.785 102.107 178.73 102.294 178.621C102.485 178.507 102.659 178.354 102.813 178.163C102.968 177.967 103.096 177.746 103.196 177.5C103.297 177.254 103.356 176.996 103.374 176.727H103.941C103.941 177.106 103.88 177.479 103.757 177.849C103.638 178.213 103.467 178.546 103.244 178.847C103.025 179.147 102.768 179.389 102.472 179.571C102.18 179.749 101.859 179.838 101.508 179.838C101.084 179.838 100.722 179.742 100.421 179.551C100.12 179.359 99.874 179.104 99.6826 178.785C99.4958 178.466 99.3568 178.111 99.2656 177.719C99.1745 177.322 99.1289 176.921 99.1289 176.516C99.1289 176.042 99.1836 175.597 99.293 175.182C99.4023 174.768 99.5641 174.403 99.7783 174.089C99.9971 173.77 100.271 173.521 100.599 173.344C100.927 173.166 101.31 173.077 101.747 173.077C102.235 173.077 102.649 173.191 102.991 173.419C103.333 173.647 103.609 173.952 103.818 174.335C104.028 174.718 104.181 175.148 104.276 175.627C104.372 176.105 104.42 176.598 104.42 177.103V177.561C104.42 178.076 104.395 178.6 104.345 179.134C104.299 179.662 104.201 180.168 104.051 180.651C103.905 181.134 103.686 181.567 103.395 181.95C103.103 182.328 102.713 182.629 102.226 182.852C101.743 183.071 101.136 183.181 100.407 183.181H100.318L100.312 182.107Z" fill="black"/>
<mask id="path-17-inside-6_1190_23833" fill="white">
<path d="M0 194.333H197V227.667H0V194.333Z"/>
</mask>
<path d="M197 226.667H0V228.667H197V226.667Z" fill="#C2C6C7" mask="url(#path-17-inside-6_1190_23833)"/>
<path d="M97.9941 212.151V213.19H91.9102V212.445L95.6084 205.547H96.5791L95.6084 207.543L93.2568 212.151H97.9941ZM96.8867 205.547V215.5H95.6768V205.547H96.8867ZM104.536 209.731V211.248C104.536 212.064 104.472 212.752 104.345 213.313C104.222 213.873 104.044 214.324 103.812 214.666C103.579 215.008 103.299 215.256 102.971 215.411C102.647 215.562 102.283 215.637 101.877 215.637C101.558 215.637 101.259 215.589 100.981 215.493C100.708 215.398 100.462 215.245 100.243 215.035C100.024 214.821 99.8376 214.543 99.6826 214.201C99.5277 213.86 99.4092 213.445 99.3271 212.957C99.2451 212.47 99.2041 211.9 99.2041 211.248V209.731C99.2041 208.915 99.2679 208.231 99.3955 207.68C99.5231 207.128 99.7031 206.686 99.9355 206.354C100.173 206.016 100.453 205.775 100.776 205.629C101.104 205.483 101.469 205.41 101.87 205.41C102.194 205.41 102.492 205.458 102.766 205.554C103.044 205.645 103.29 205.793 103.504 205.998C103.723 206.199 103.91 206.468 104.064 206.805C104.219 207.138 104.336 207.545 104.413 208.029C104.495 208.512 104.536 209.079 104.536 209.731ZM103.333 211.453V209.519C103.333 209.072 103.312 208.68 103.271 208.343C103.23 208.001 103.171 207.709 103.094 207.468C103.016 207.226 102.916 207.03 102.793 206.88C102.674 206.73 102.538 206.62 102.383 206.552C102.228 206.479 102.057 206.443 101.87 206.443C101.638 206.443 101.43 206.5 101.248 206.613C101.07 206.723 100.918 206.898 100.79 207.14C100.667 207.381 100.574 207.698 100.51 208.09C100.446 208.482 100.414 208.958 100.414 209.519V211.453C100.414 211.9 100.435 212.294 100.476 212.636C100.521 212.978 100.583 213.274 100.66 213.525C100.742 213.771 100.842 213.973 100.961 214.133C101.079 214.293 101.216 214.411 101.371 214.488C101.526 214.561 101.695 214.598 101.877 214.598C102.118 214.598 102.328 214.539 102.506 214.42C102.688 214.302 102.841 214.117 102.964 213.866C103.087 213.611 103.178 213.285 103.237 212.889C103.301 212.488 103.333 212.009 103.333 211.453Z" fill="black"/>
<rect width="197" height="33.3333" transform="translate(197 0.333496)" fill="#C2C6C7"/>
<path d="M259.557 18.3351H260.814C260.783 19.0187 260.644 19.6089 260.397 20.1057C260.156 20.5978 259.803 20.9761 259.338 21.2404C258.878 21.5047 258.301 21.6369 257.608 21.6369C257.112 21.6369 256.663 21.5389 256.262 21.343C255.861 21.147 255.517 20.8667 255.229 20.5021C254.947 20.133 254.73 19.6909 254.58 19.176C254.43 18.661 254.354 18.0822 254.354 17.4396V15.6008C254.354 14.9627 254.43 14.3863 254.58 13.8713C254.735 13.3563 254.956 12.9165 255.243 12.5519C255.535 12.1828 255.888 11.9002 256.303 11.7043C256.722 11.5083 257.196 11.4103 257.725 11.4103C258.372 11.4103 258.919 11.5402 259.365 11.8C259.816 12.0552 260.163 12.4312 260.404 12.9279C260.65 13.4201 260.787 14.0239 260.814 14.7394H259.557C259.525 14.2154 259.443 13.7892 259.311 13.4611C259.178 13.1284 258.982 12.8846 258.723 12.7297C258.467 12.5702 258.135 12.4904 257.725 12.4904C257.36 12.4904 257.043 12.5633 256.774 12.7092C256.51 12.855 256.291 13.0646 256.118 13.3381C255.95 13.607 255.822 13.9328 255.735 14.3156C255.653 14.6939 255.612 15.1177 255.612 15.5871V17.4396C255.612 17.8771 255.646 18.285 255.715 18.6633C255.788 19.0415 255.902 19.3742 256.057 19.6613C256.216 19.9439 256.424 20.1649 256.679 20.3244C256.934 20.4839 257.244 20.5637 257.608 20.5637C258.069 20.5637 258.433 20.4885 258.702 20.3381C258.971 20.1877 259.169 19.9484 259.297 19.6203C259.429 19.2922 259.516 18.8638 259.557 18.3351ZM265.743 12.4289L263.022 21.5002H261.737L264.943 11.5471H265.75L265.743 12.4289ZM267.944 21.5002L265.224 12.4289L265.21 11.5471H266.023L269.229 21.5002H267.944ZM267.944 17.8156V18.8957H263.146V17.8156H267.944ZM275.997 15.8264V16.8996H271.684V15.8264H275.997ZM271.854 11.5471V21.5002H270.597V11.5471H271.854ZM277.111 11.5471V21.5002H275.854V11.5471H277.111ZM282.272 11.5471V21.5002H281.028V11.5471H282.272ZM284.891 11.5471V12.6271H278.417V11.5471H284.891ZM287.673 19.217L291.549 11.5471H292.807V21.5002H291.549V13.8234L287.673 21.5002H286.422V11.5471H287.673V19.217ZM295.438 11.5471H296.655L299.26 19.6613L301.857 11.5471H303.074L299.731 21.5002H298.774L295.438 11.5471ZM295.042 11.5471H296.108L296.293 17.6174V21.5002H295.042V11.5471ZM302.397 11.5471H303.464V21.5002H302.213V17.6174L302.397 11.5471ZM310.977 20.4269V21.5002H306.656V20.4269H310.977ZM306.882 11.5471V21.5002H305.624V11.5471H306.882ZM310.396 15.8264V16.8996H306.656V15.8264H310.396ZM310.908 11.5471V12.6271H306.656V11.5471H310.908ZM315.919 11.5471V21.5002H314.675V11.5471H315.919ZM318.537 11.5471V12.6271H312.063V11.5471H318.537ZM323.179 17.5969H321.005V16.5236H323.179C323.589 16.5236 323.919 16.4416 324.17 16.2775C324.425 16.1135 324.61 15.8856 324.724 15.5939C324.842 15.3023 324.901 14.9696 324.901 14.5959C324.901 14.2541 324.842 13.9328 324.724 13.632C324.61 13.3312 324.425 13.0897 324.17 12.9074C323.919 12.7206 323.589 12.6271 323.179 12.6271H321.265V21.5002H320.007V11.5471H323.179C323.821 11.5471 324.364 11.6769 324.806 11.9367C325.248 12.1965 325.583 12.5565 325.811 13.0168C326.043 13.4725 326.159 13.9943 326.159 14.5822C326.159 15.2202 326.043 15.7648 325.811 16.216C325.583 16.6672 325.248 17.0113 324.806 17.2482C324.364 17.4807 323.821 17.5969 323.179 17.5969ZM328.832 15.6008H331.095C331.71 15.6008 332.229 15.7238 332.653 15.9699C333.082 16.2114 333.405 16.551 333.624 16.9885C333.847 17.426 333.959 17.9387 333.959 18.5266C333.959 18.9641 333.895 19.3651 333.768 19.7297C333.645 20.0897 333.46 20.4042 333.214 20.673C332.972 20.9374 332.674 21.1424 332.318 21.2883C331.963 21.4295 331.555 21.5002 331.095 21.5002H327.841V11.5471H329.099V20.4269H331.095C331.478 20.4269 331.785 20.3381 332.018 20.1603C332.255 19.978 332.428 19.7411 332.537 19.4494C332.646 19.1577 332.701 18.8456 332.701 18.5129C332.701 18.1802 332.646 17.8749 332.537 17.5969C332.428 17.3189 332.255 17.0978 332.018 16.9338C331.785 16.7652 331.478 16.6808 331.095 16.6808H328.832V15.6008ZM336.085 11.5471V21.5002H334.827V11.5471H336.085Z" fill="#111810"/>
<mask id="path-21-inside-7_1190_23833" fill="white">
<path d="M197 32.6668H394V66.0001H197V32.6668Z"/>
</mask>
<path d="M394 65.0001H197V67.0001H394V65.0001Z" fill="#C2C6C7" mask="url(#path-21-inside-7_1190_23833)"/>
<path d="M289.364 52.7944V53.8335H283.8V52.9243L286.541 49.2944C286.878 48.8478 287.136 48.4696 287.313 48.1597C287.491 47.8452 287.614 47.5649 287.683 47.3188C287.751 47.0682 287.785 46.813 287.785 46.5532C287.785 46.2251 287.733 45.9289 287.628 45.6646C287.523 45.3957 287.37 45.1815 287.17 45.022C286.969 44.8625 286.728 44.7827 286.445 44.7827C286.076 44.7827 285.773 44.8693 285.536 45.0425C285.304 45.2111 285.133 45.4481 285.023 45.7534C284.914 46.0588 284.859 46.4097 284.859 46.8062H283.649C283.649 46.2456 283.752 45.7329 283.957 45.2681C284.167 44.8032 284.479 44.4341 284.894 44.1606C285.308 43.8826 285.826 43.7437 286.445 43.7437C286.979 43.7437 287.434 43.8553 287.812 44.0786C288.195 44.2974 288.487 44.6073 288.688 45.0083C288.893 45.4048 288.995 45.8696 288.995 46.4028C288.995 46.6945 288.954 46.9907 288.872 47.2915C288.795 47.5877 288.685 47.884 288.544 48.1802C288.407 48.4764 288.245 48.7681 288.059 49.0552C287.872 49.3423 287.671 49.6248 287.457 49.9028L285.249 52.7944H289.364ZM296.282 52.7944V53.8335H290.718V52.9243L293.459 49.2944C293.796 48.8478 294.054 48.4696 294.231 48.1597C294.409 47.8452 294.532 47.5649 294.601 47.3188C294.669 47.0682 294.703 46.813 294.703 46.5532C294.703 46.2251 294.651 45.9289 294.546 45.6646C294.441 45.3957 294.288 45.1815 294.088 45.022C293.887 44.8625 293.646 44.7827 293.363 44.7827C292.994 44.7827 292.691 44.8693 292.454 45.0425C292.222 45.2111 292.051 45.4481 291.941 45.7534C291.832 46.0588 291.777 46.4097 291.777 46.8062H290.567C290.567 46.2456 290.67 45.7329 290.875 45.2681C291.085 44.8032 291.397 44.4341 291.812 44.1606C292.226 43.8826 292.743 43.7437 293.363 43.7437C293.896 43.7437 294.352 43.8553 294.73 44.0786C295.113 44.2974 295.405 44.6073 295.605 45.0083C295.811 45.4048 295.913 45.8696 295.913 46.4028C295.913 46.6945 295.872 46.9907 295.79 47.2915C295.713 47.5877 295.603 47.884 295.462 48.1802C295.325 48.4764 295.163 48.7681 294.977 49.0552C294.79 49.3423 294.589 49.6248 294.375 49.9028L292.167 52.7944H296.282ZM297.82 53.1636C297.82 52.9494 297.886 52.7694 298.019 52.6235C298.155 52.4731 298.351 52.3979 298.606 52.3979C298.862 52.3979 299.055 52.4731 299.188 52.6235C299.324 52.7694 299.393 52.9494 299.393 53.1636C299.393 53.3732 299.324 53.5509 299.188 53.6968C299.055 53.8426 298.862 53.9155 298.606 53.9155C298.351 53.9155 298.155 53.8426 298.019 53.6968C297.886 53.5509 297.82 53.3732 297.82 53.1636ZM302.79 49.0962L301.826 48.8364L302.25 43.8804H306.584V45.0493H303.269L303.036 47.7563C303.191 47.6515 303.378 47.5535 303.597 47.4624C303.815 47.3713 304.071 47.3257 304.362 47.3257C304.754 47.3257 305.103 47.4054 305.408 47.5649C305.718 47.7199 305.98 47.9432 306.194 48.2349C306.409 48.5265 306.573 48.8774 306.687 49.2876C306.8 49.6978 306.857 50.1558 306.857 50.6616C306.857 51.1401 306.8 51.5799 306.687 51.981C306.577 52.382 306.409 52.7329 306.181 53.0337C305.957 53.3299 305.675 53.5601 305.333 53.7241C304.996 53.8882 304.602 53.9702 304.15 53.9702C303.813 53.9702 303.494 53.9155 303.193 53.8062C302.893 53.6922 302.621 53.5213 302.38 53.2935C302.143 53.061 301.949 52.7739 301.799 52.4321C301.648 52.0858 301.555 51.6802 301.519 51.2153H302.66C302.706 51.589 302.792 51.9035 302.92 52.1587C303.052 52.4139 303.221 52.6076 303.426 52.7397C303.635 52.8674 303.877 52.9312 304.15 52.9312C304.383 52.9312 304.592 52.8787 304.779 52.7739C304.966 52.6691 305.123 52.5187 305.251 52.3228C305.379 52.1268 305.477 51.8898 305.545 51.6118C305.613 51.3338 305.647 51.0216 305.647 50.6753C305.647 50.3608 305.613 50.0692 305.545 49.8003C305.477 49.5314 305.374 49.2967 305.237 49.0962C305.101 48.8957 304.934 48.7407 304.738 48.6313C304.547 48.5174 304.324 48.4604 304.068 48.4604C303.727 48.4604 303.474 48.5174 303.31 48.6313C303.15 48.7453 302.977 48.9002 302.79 49.0962Z" fill="black"/>
<mask id="path-24-inside-8_1190_23833" fill="white">
<path d="M197 65.0002H394V98.3335H197V65.0002Z"/>
</mask>
<path d="M394 97.3335H197V99.3335H394V97.3335Z" fill="#C2C6C7" mask="url(#path-24-inside-8_1190_23833)"/>
<path d="M294.864 85.1278V86.1669H289.3V85.2577L292.041 81.6278C292.378 81.1812 292.636 80.8029 292.813 80.493C292.991 80.1786 293.114 79.8983 293.183 79.6522C293.251 79.4016 293.285 79.1464 293.285 78.8866C293.285 78.5585 293.233 78.2622 293.128 77.9979C293.023 77.729 292.87 77.5149 292.67 77.3553C292.469 77.1958 292.228 77.1161 291.945 77.1161C291.576 77.1161 291.273 77.2027 291.036 77.3759C290.804 77.5445 290.633 77.7815 290.523 78.0868C290.414 78.3921 290.359 78.743 290.359 79.1395H289.149C289.149 78.579 289.252 78.0663 289.457 77.6014C289.667 77.1366 289.979 76.7675 290.394 76.494C290.808 76.216 291.326 76.077 291.945 76.077C292.479 76.077 292.934 76.1887 293.312 76.412C293.695 76.6307 293.987 76.9406 294.188 77.3417C294.393 77.7382 294.495 78.203 294.495 78.7362C294.495 79.0279 294.454 79.3241 294.372 79.6249C294.295 79.9211 294.185 80.2173 294.044 80.5135C293.907 80.8098 293.745 81.1014 293.559 81.3885C293.372 81.6757 293.171 81.9582 292.957 82.2362L290.749 85.1278H294.864ZM297.77 80.5682H298.549C298.895 80.5682 299.182 80.4953 299.41 80.3495C299.638 80.1991 299.807 79.9963 299.916 79.7411C300.03 79.4813 300.087 79.1897 300.087 78.8661C300.087 78.4833 300.037 78.162 299.937 77.9022C299.836 77.6425 299.686 77.4465 299.485 77.3143C299.289 77.1822 299.041 77.1161 298.74 77.1161C298.458 77.1161 298.212 77.1867 298.002 77.328C297.792 77.4647 297.631 77.6607 297.517 77.9159C297.403 78.1711 297.346 78.4719 297.346 78.8182H296.143C296.143 78.3124 296.247 77.8521 296.457 77.4374C296.671 77.0227 296.972 76.6923 297.359 76.4462C297.751 76.2001 298.212 76.077 298.74 76.077C299.246 76.077 299.69 76.1841 300.073 76.3983C300.456 76.608 300.755 76.9224 300.969 77.3417C301.188 77.7564 301.297 78.2736 301.297 78.8934C301.297 79.1441 301.249 79.413 301.153 79.7001C301.062 79.9826 300.914 80.2469 300.709 80.493C300.508 80.7391 300.244 80.9419 299.916 81.1014C299.592 81.2564 299.196 81.3339 298.727 81.3339H297.77V80.5682ZM297.77 81.6073V80.8485H298.727C299.283 80.8485 299.736 80.9237 300.087 81.0741C300.438 81.2245 300.709 81.425 300.9 81.6757C301.092 81.9263 301.224 82.202 301.297 82.5028C301.374 82.799 301.413 83.0953 301.413 83.3915C301.413 83.8563 301.345 84.2688 301.208 84.6288C301.076 84.9888 300.887 85.2941 300.641 85.5448C300.399 85.7955 300.117 85.9846 299.793 86.1122C299.469 86.2398 299.116 86.3036 298.733 86.3036C298.36 86.3036 298.013 86.2421 297.694 86.119C297.375 85.996 297.095 85.8182 296.854 85.5858C296.612 85.3488 296.423 85.0594 296.286 84.7177C296.154 84.3713 296.088 83.9771 296.088 83.535H297.298C297.298 83.8814 297.355 84.1844 297.469 84.4442C297.583 84.704 297.747 84.9068 297.961 85.0526C298.175 85.1939 298.433 85.2645 298.733 85.2645C299.034 85.2645 299.294 85.1984 299.513 85.0663C299.731 84.9296 299.9 84.7245 300.019 84.451C300.142 84.1776 300.203 83.8335 300.203 83.4188C300.203 83.0041 300.135 82.6646 299.998 82.4003C299.866 82.1314 299.677 81.9331 299.431 81.8055C299.185 81.6734 298.891 81.6073 298.549 81.6073H297.77Z" fill="black"/>
<mask id="path-27-inside-9_1190_23833" fill="white">
<path d="M197 97.3335H394V130.667H197V97.3335Z"/>
</mask>
<path d="M394 129.667H197V131.667H394V129.667Z" fill="#C2C6C7" mask="url(#path-27-inside-9_1190_23833)"/>
<path d="M289.364 117.461V118.5H283.8V117.591L286.541 113.961C286.878 113.515 287.136 113.136 287.313 112.826C287.491 112.512 287.614 112.232 287.683 111.986C287.751 111.735 287.785 111.48 287.785 111.22C287.785 110.892 287.733 110.596 287.628 110.331C287.523 110.062 287.37 109.848 287.17 109.689C286.969 109.529 286.728 109.449 286.445 109.449C286.076 109.449 285.773 109.536 285.536 109.709C285.304 109.878 285.133 110.115 285.023 110.42C284.914 110.725 284.859 111.076 284.859 111.473H283.649C283.649 110.912 283.752 110.4 283.957 109.935C284.167 109.47 284.479 109.101 284.894 108.827C285.308 108.549 285.826 108.41 286.445 108.41C286.979 108.41 287.434 108.522 287.812 108.745C288.195 108.964 288.487 109.274 288.688 109.675C288.893 110.071 288.995 110.536 288.995 111.07C288.995 111.361 288.954 111.657 288.872 111.958C288.795 112.254 288.685 112.551 288.544 112.847C288.407 113.143 288.245 113.435 288.059 113.722C287.872 114.009 287.671 114.292 287.457 114.57L285.249 117.461H289.364ZM292.27 112.902H293.049C293.395 112.902 293.682 112.829 293.91 112.683C294.138 112.532 294.307 112.33 294.416 112.074C294.53 111.815 294.587 111.523 294.587 111.199C294.587 110.817 294.537 110.495 294.437 110.236C294.336 109.976 294.186 109.78 293.985 109.648C293.789 109.515 293.541 109.449 293.24 109.449C292.958 109.449 292.712 109.52 292.502 109.661C292.292 109.798 292.131 109.994 292.017 110.249C291.903 110.504 291.846 110.805 291.846 111.152H290.643C290.643 110.646 290.747 110.185 290.957 109.771C291.171 109.356 291.472 109.026 291.859 108.779C292.251 108.533 292.712 108.41 293.24 108.41C293.746 108.41 294.19 108.517 294.573 108.732C294.956 108.941 295.255 109.256 295.469 109.675C295.688 110.09 295.797 110.607 295.797 111.227C295.797 111.477 295.749 111.746 295.653 112.033C295.562 112.316 295.414 112.58 295.209 112.826C295.008 113.072 294.744 113.275 294.416 113.435C294.092 113.59 293.696 113.667 293.227 113.667H292.27V112.902ZM292.27 113.941V113.182H293.227C293.783 113.182 294.236 113.257 294.587 113.407C294.938 113.558 295.209 113.758 295.4 114.009C295.592 114.26 295.724 114.535 295.797 114.836C295.874 115.132 295.913 115.429 295.913 115.725C295.913 116.19 295.845 116.602 295.708 116.962C295.576 117.322 295.387 117.627 295.141 117.878C294.899 118.129 294.617 118.318 294.293 118.445C293.969 118.573 293.616 118.637 293.233 118.637C292.86 118.637 292.513 118.575 292.194 118.452C291.875 118.329 291.595 118.152 291.354 117.919C291.112 117.682 290.923 117.393 290.786 117.051C290.654 116.705 290.588 116.31 290.588 115.868H291.798C291.798 116.215 291.855 116.518 291.969 116.778C292.083 117.037 292.247 117.24 292.461 117.386C292.675 117.527 292.933 117.598 293.233 117.598C293.534 117.598 293.794 117.532 294.013 117.4C294.231 117.263 294.4 117.058 294.519 116.784C294.642 116.511 294.703 116.167 294.703 115.752C294.703 115.337 294.635 114.998 294.498 114.734C294.366 114.465 294.177 114.266 293.931 114.139C293.685 114.007 293.391 113.941 293.049 113.941H292.27ZM297.82 117.83C297.82 117.616 297.886 117.436 298.019 117.29C298.155 117.14 298.351 117.065 298.606 117.065C298.862 117.065 299.055 117.14 299.188 117.29C299.324 117.436 299.393 117.616 299.393 117.83C299.393 118.04 299.324 118.218 299.188 118.363C299.055 118.509 298.862 118.582 298.606 118.582C298.351 118.582 298.155 118.509 298.019 118.363C297.886 118.218 297.82 118.04 297.82 117.83ZM302.79 113.763L301.826 113.503L302.25 108.547H306.584V109.716H303.269L303.036 112.423C303.191 112.318 303.378 112.22 303.597 112.129C303.815 112.038 304.071 111.992 304.362 111.992C304.754 111.992 305.103 112.072 305.408 112.232C305.718 112.387 305.98 112.61 306.194 112.902C306.409 113.193 306.573 113.544 306.687 113.954C306.8 114.364 306.857 114.822 306.857 115.328C306.857 115.807 306.8 116.247 306.687 116.648C306.577 117.049 306.409 117.4 306.181 117.7C305.957 117.997 305.675 118.227 305.333 118.391C304.996 118.555 304.602 118.637 304.15 118.637C303.813 118.637 303.494 118.582 303.193 118.473C302.893 118.359 302.621 118.188 302.38 117.96C302.143 117.728 301.949 117.441 301.799 117.099C301.648 116.752 301.555 116.347 301.519 115.882H302.66C302.706 116.256 302.792 116.57 302.92 116.825C303.052 117.081 303.221 117.274 303.426 117.406C303.635 117.534 303.877 117.598 304.15 117.598C304.383 117.598 304.592 117.545 304.779 117.441C304.966 117.336 305.123 117.185 305.251 116.989C305.379 116.793 305.477 116.556 305.545 116.279C305.613 116.001 305.647 115.688 305.647 115.342C305.647 115.028 305.613 114.736 305.545 114.467C305.477 114.198 305.374 113.963 305.237 113.763C305.101 113.562 304.934 113.407 304.738 113.298C304.547 113.184 304.324 113.127 304.068 113.127C303.727 113.127 303.474 113.184 303.31 113.298C303.15 113.412 302.977 113.567 302.79 113.763Z" fill="black"/>
<mask id="path-30-inside-10_1190_23833" fill="white">
<path d="M197 129.667H394V163H197V129.667Z"/>
</mask>
<path d="M394 162H197V164H394V162Z" fill="#C2C6C7" mask="url(#path-30-inside-10_1190_23833)"/>
<path d="M294.864 149.794V150.834H289.3V149.924L292.041 146.294C292.378 145.848 292.636 145.47 292.813 145.16C292.991 144.845 293.114 144.565 293.183 144.319C293.251 144.068 293.285 143.813 293.285 143.553C293.285 143.225 293.233 142.929 293.128 142.665C293.023 142.396 292.87 142.182 292.67 142.022C292.469 141.863 292.228 141.783 291.945 141.783C291.576 141.783 291.273 141.869 291.036 142.043C290.804 142.211 290.633 142.448 290.523 142.753C290.414 143.059 290.359 143.41 290.359 143.806H289.149C289.149 143.246 289.252 142.733 289.457 142.268C289.667 141.803 289.979 141.434 290.394 141.161C290.808 140.883 291.326 140.744 291.945 140.744C292.479 140.744 292.934 140.855 293.312 141.079C293.695 141.297 293.987 141.607 294.188 142.008C294.393 142.405 294.495 142.87 294.495 143.403C294.495 143.695 294.454 143.991 294.372 144.292C294.295 144.588 294.185 144.884 294.044 145.18C293.907 145.476 293.745 145.768 293.559 146.055C293.372 146.342 293.171 146.625 292.957 146.903L290.749 149.794H294.864ZM301.912 147.484V148.523H295.828V147.778L299.526 140.88H300.497L299.526 142.877L297.175 147.484H301.912ZM300.805 140.88V150.834H299.595V140.88H300.805Z" fill="black"/>
<mask id="path-33-inside-11_1190_23833" fill="white">
<path d="M197 162H394V195.334H197V162Z"/>
</mask>
<path d="M394 194.334H197V196.334H394V194.334Z" fill="#C2C6C7" mask="url(#path-33-inside-11_1190_23833)"/>
<path d="M289.364 182.128V183.167H283.8V182.258L286.541 178.628C286.878 178.181 287.136 177.803 287.313 177.493C287.491 177.179 287.614 176.898 287.683 176.652C287.751 176.402 287.785 176.146 287.785 175.887C287.785 175.558 287.733 175.262 287.628 174.998C287.523 174.729 287.37 174.515 287.17 174.355C286.969 174.196 286.728 174.116 286.445 174.116C286.076 174.116 285.773 174.203 285.536 174.376C285.304 174.544 285.133 174.781 285.023 175.087C284.914 175.392 284.859 175.743 284.859 176.14H283.649C283.649 175.579 283.752 175.066 283.957 174.601C284.167 174.137 284.479 173.767 284.894 173.494C285.308 173.216 285.826 173.077 286.445 173.077C286.979 173.077 287.434 173.189 287.812 173.412C288.195 173.631 288.487 173.941 288.688 174.342C288.893 174.738 288.995 175.203 288.995 175.736C288.995 176.028 288.954 176.324 288.872 176.625C288.795 176.921 288.685 177.217 288.544 177.514C288.407 177.81 288.245 178.101 288.059 178.389C287.872 178.676 287.671 178.958 287.457 179.236L285.249 182.128H289.364ZM296.412 179.817V180.856H290.328V180.111L294.026 173.214H294.997L294.026 175.21L291.675 179.817H296.412ZM295.305 173.214V183.167H294.095V173.214H295.305ZM297.82 182.497C297.82 182.283 297.886 182.103 298.019 181.957C298.155 181.807 298.351 181.731 298.606 181.731C298.862 181.731 299.055 181.807 299.188 181.957C299.324 182.103 299.393 182.283 299.393 182.497C299.393 182.707 299.324 182.884 299.188 183.03C299.055 183.176 298.862 183.249 298.606 183.249C298.351 183.249 298.155 183.176 298.019 183.03C297.886 182.884 297.82 182.707 297.82 182.497ZM302.79 178.43L301.826 178.17L302.25 173.214H306.584V174.383H303.269L303.036 177.09C303.191 176.985 303.378 176.887 303.597 176.796C303.815 176.705 304.071 176.659 304.362 176.659C304.754 176.659 305.103 176.739 305.408 176.898C305.718 177.053 305.98 177.277 306.194 177.568C306.409 177.86 306.573 178.211 306.687 178.621C306.8 179.031 306.857 179.489 306.857 179.995C306.857 180.474 306.8 180.913 306.687 181.314C306.577 181.715 306.409 182.066 306.181 182.367C305.957 182.663 305.675 182.893 305.333 183.057C304.996 183.222 304.602 183.304 304.15 183.304C303.813 183.304 303.494 183.249 303.193 183.14C302.893 183.026 302.621 182.855 302.38 182.627C302.143 182.394 301.949 182.107 301.799 181.766C301.648 181.419 301.555 181.014 301.519 180.549H302.66C302.706 180.922 302.792 181.237 302.92 181.492C303.052 181.747 303.221 181.941 303.426 182.073C303.635 182.201 303.877 182.265 304.15 182.265C304.383 182.265 304.592 182.212 304.779 182.107C304.966 182.002 305.123 181.852 305.251 181.656C305.379 181.46 305.477 181.223 305.545 180.945C305.613 180.667 305.647 180.355 305.647 180.009C305.647 179.694 305.613 179.403 305.545 179.134C305.477 178.865 305.374 178.63 305.237 178.43C305.101 178.229 304.934 178.074 304.738 177.965C304.547 177.851 304.324 177.794 304.068 177.794C303.727 177.794 303.474 177.851 303.31 177.965C303.15 178.079 302.977 178.234 302.79 178.43Z" fill="black"/>
<mask id="path-36-inside-12_1190_23833" fill="white">
<path d="M197 194.333H394V227.667H197V194.333Z"/>
</mask>
<path d="M394 226.667H197V228.667H394V226.667Z" fill="#C2C6C7" mask="url(#path-36-inside-12_1190_23833)"/>
<path d="M294.864 214.461V215.5H289.3V214.591L292.041 210.961C292.378 210.515 292.636 210.136 292.813 209.826C292.991 209.512 293.114 209.232 293.183 208.986C293.251 208.735 293.285 208.48 293.285 208.22C293.285 207.892 293.233 207.596 293.128 207.331C293.023 207.062 292.87 206.848 292.67 206.689C292.469 206.529 292.228 206.449 291.945 206.449C291.576 206.449 291.273 206.536 291.036 206.709C290.804 206.878 290.633 207.115 290.523 207.42C290.414 207.725 290.359 208.076 290.359 208.473H289.149C289.149 207.912 289.252 207.4 289.457 206.935C289.667 206.47 289.979 206.101 290.394 205.827C290.808 205.549 291.326 205.41 291.945 205.41C292.479 205.41 292.934 205.522 293.312 205.745C293.695 205.964 293.987 206.274 294.188 206.675C294.393 207.071 294.495 207.536 294.495 208.07C294.495 208.361 294.454 208.657 294.372 208.958C294.295 209.254 294.185 209.551 294.044 209.847C293.907 210.143 293.745 210.435 293.559 210.722C293.372 211.009 293.171 211.292 292.957 211.57L290.749 214.461H294.864ZM297.681 210.763L296.717 210.503L297.141 205.547H301.475V206.716H298.159L297.927 209.423C298.082 209.318 298.269 209.22 298.487 209.129C298.706 209.038 298.961 208.992 299.253 208.992C299.645 208.992 299.993 209.072 300.299 209.232C300.609 209.387 300.871 209.61 301.085 209.902C301.299 210.193 301.463 210.544 301.577 210.954C301.691 211.364 301.748 211.822 301.748 212.328C301.748 212.807 301.691 213.247 301.577 213.648C301.468 214.049 301.299 214.4 301.071 214.7C300.848 214.997 300.565 215.227 300.224 215.391C299.886 215.555 299.492 215.637 299.041 215.637C298.704 215.637 298.385 215.582 298.084 215.473C297.783 215.359 297.512 215.188 297.271 214.96C297.034 214.728 296.84 214.441 296.689 214.099C296.539 213.752 296.446 213.347 296.409 212.882H297.551C297.596 213.256 297.683 213.57 297.811 213.825C297.943 214.081 298.111 214.274 298.316 214.406C298.526 214.534 298.768 214.598 299.041 214.598C299.273 214.598 299.483 214.545 299.67 214.441C299.857 214.336 300.014 214.185 300.142 213.989C300.269 213.793 300.367 213.556 300.436 213.279C300.504 213.001 300.538 212.688 300.538 212.342C300.538 212.028 300.504 211.736 300.436 211.467C300.367 211.198 300.265 210.963 300.128 210.763C299.991 210.562 299.825 210.407 299.629 210.298C299.438 210.184 299.214 210.127 298.959 210.127C298.617 210.127 298.364 210.184 298.2 210.298C298.041 210.412 297.868 210.567 297.681 210.763Z" fill="black"/>
</svg>
