<svg width="394" height="99" viewBox="0 0 394 99" fill="none" xmlns="http://www.w3.org/2000/svg">
<rect width="78.8" height="33.3333" transform="translate(0 0.333313)" fill="#C2C6C7"/>
<path d="M19.6436 17.5967H17.4697V16.5234H19.6436C20.0537 16.5234 20.3841 16.4414 20.6348 16.2773C20.89 16.1133 21.0745 15.8854 21.1885 15.5938C21.307 15.3021 21.3662 14.9694 21.3662 14.5957C21.3662 14.2539 21.307 13.9326 21.1885 13.6318C21.0745 13.3311 20.89 13.0895 20.6348 12.9072C20.3841 12.7204 20.0537 12.627 19.6436 12.627H17.7295V21.5H16.4717V11.5469H19.6436C20.2861 11.5469 20.8285 11.6768 21.2705 11.9365C21.7126 12.1963 22.0475 12.5563 22.2754 13.0166C22.5078 13.4723 22.624 13.9941 22.624 14.582C22.624 15.2201 22.5078 15.7646 22.2754 16.2158C22.0475 16.667 21.7126 17.0111 21.2705 17.248C20.8285 17.4805 20.2861 17.5967 19.6436 17.5967ZM26.5205 12.4287L23.7998 21.5H22.5146L25.7207 11.5469H26.5273L26.5205 12.4287ZM28.7217 21.5L26.001 12.4287L25.9873 11.5469H26.8008L30.0068 21.5H28.7217ZM28.7217 17.8154V18.8955H23.9229V17.8154H28.7217ZM33.9785 16.7217H33.0078V15.8809H33.9375C34.3249 15.8809 34.637 15.8102 34.874 15.6689C35.111 15.5277 35.2842 15.3317 35.3936 15.0811C35.5029 14.8304 35.5576 14.541 35.5576 14.2129C35.5576 13.8984 35.4961 13.6113 35.373 13.3516C35.2546 13.0872 35.07 12.8776 34.8193 12.7227C34.5687 12.5632 34.2428 12.4834 33.8418 12.4834C33.5456 12.4834 33.2767 12.5563 33.0352 12.7021C32.7936 12.8434 32.6022 13.0417 32.4609 13.2969C32.3242 13.5475 32.2559 13.8369 32.2559 14.165H30.998C30.998 13.7412 31.071 13.3607 31.2168 13.0234C31.3672 12.6816 31.5723 12.3923 31.832 12.1553C32.0964 11.9137 32.3994 11.7292 32.7412 11.6016C33.0876 11.474 33.4544 11.4102 33.8418 11.4102C34.293 11.4102 34.7008 11.4717 35.0654 11.5947C35.43 11.7132 35.7422 11.891 36.002 12.1279C36.2663 12.3649 36.4668 12.6589 36.6035 13.0098C36.7448 13.3607 36.8154 13.7686 36.8154 14.2334C36.8154 14.5752 36.7471 14.8965 36.6104 15.1973C36.4782 15.498 36.2845 15.7624 36.0293 15.9902C35.7786 16.2181 35.4801 16.3981 35.1338 16.5303C34.7874 16.6579 34.4023 16.7217 33.9785 16.7217ZM33.0078 16.1406H33.9785C34.4434 16.1406 34.8581 16.1976 35.2227 16.3115C35.5918 16.4255 35.904 16.5918 36.1592 16.8105C36.4144 17.0293 36.6081 17.3005 36.7402 17.624C36.877 17.943 36.9453 18.3099 36.9453 18.7246C36.9453 19.1895 36.8678 19.6019 36.7129 19.9619C36.5625 20.3219 36.3483 20.6273 36.0703 20.8779C35.7923 21.1286 35.4642 21.3177 35.0859 21.4453C34.7077 21.5729 34.293 21.6367 33.8418 21.6367C33.4772 21.6367 33.1195 21.582 32.7686 21.4727C32.4176 21.3587 32.0986 21.1855 31.8115 20.9531C31.529 20.7161 31.3011 20.4154 31.1279 20.0508C30.9593 19.6862 30.875 19.2487 30.875 18.7383H32.1328C32.1328 19.071 32.2035 19.3763 32.3447 19.6543C32.4906 19.9323 32.6911 20.1556 32.9463 20.3242C33.2015 20.4883 33.5 20.5703 33.8418 20.5703C34.2337 20.5703 34.5664 20.4928 34.8398 20.3379C35.1178 20.1784 35.3275 19.9619 35.4688 19.6885C35.6146 19.4105 35.6875 19.0983 35.6875 18.752C35.6875 18.4466 35.6488 18.1823 35.5713 17.959C35.4984 17.7311 35.3867 17.5443 35.2363 17.3984C35.0905 17.2526 34.9082 17.1455 34.6895 17.0771C34.4753 17.0042 34.2246 16.9678 33.9375 16.9678H33.0078V16.1406ZM39.0166 11.5469H40.2334L42.8379 19.6611L45.4355 11.5469H46.6523L43.3096 21.5H42.3525L39.0166 11.5469ZM38.6201 11.5469H39.6865L39.8711 17.6172V21.5H38.6201V11.5469ZM45.9756 11.5469H47.042V21.5H45.791V17.6172L45.9756 11.5469ZM54.5547 20.4268V21.5H50.2344V20.4268H54.5547ZM50.46 11.5469V21.5H49.2021V11.5469H50.46ZM53.9736 15.8262V16.8994H50.2344V15.8262H53.9736ZM54.4863 11.5469V12.627H50.2344V11.5469H54.4863ZM59.333 17.5967H57.1592V16.5234H59.333C59.7432 16.5234 60.0736 16.4414 60.3242 16.2773C60.5794 16.1133 60.764 15.8854 60.8779 15.5938C60.9964 15.3021 61.0557 14.9694 61.0557 14.5957C61.0557 14.2539 60.9964 13.9326 60.8779 13.6318C60.764 13.3311 60.5794 13.0895 60.3242 12.9072C60.0736 12.7204 59.7432 12.627 59.333 12.627H57.4189V21.5H56.1611V11.5469H59.333C59.9756 11.5469 60.5179 11.6768 60.96 11.9365C61.402 12.1963 61.737 12.5563 61.9648 13.0166C62.1973 13.4723 62.3135 13.9941 62.3135 14.582C62.3135 15.2201 62.1973 15.7646 61.9648 16.2158C61.737 16.667 61.402 17.0111 60.96 17.248C60.5179 17.4805 59.9756 17.5967 59.333 17.5967Z" fill="#111810"/>
<mask id="path-2-inside-1_1190_24109" fill="white">
<path d="M0 32.6666H78.8V66H0V32.6666Z"/>
</mask>
<path d="M78.8 65H0V67H78.8V65Z" fill="#C2C6C7" mask="url(#path-2-inside-1_1190_24109)"/>
<path d="M42.0166 48.0638V49.5814C42.0166 50.3971 41.9528 51.0853 41.8252 51.6458C41.7021 52.2064 41.5244 52.6575 41.292 52.9993C41.0596 53.3411 40.7793 53.5895 40.4512 53.7444C40.1276 53.8948 39.763 53.97 39.3574 53.97C39.0384 53.97 38.7399 53.9222 38.4619 53.8265C38.1885 53.7308 37.9424 53.5781 37.7236 53.3685C37.5049 53.1543 37.318 52.8763 37.1631 52.5345C37.0081 52.1927 36.8896 51.778 36.8076 51.2903C36.7256 50.8027 36.6846 50.2331 36.6846 49.5814V48.0638C36.6846 47.248 36.7484 46.5644 36.876 46.013C37.0036 45.4616 37.1836 45.0195 37.416 44.6868C37.653 44.3496 37.9333 44.1081 38.2568 43.9622C38.585 43.8164 38.9495 43.7435 39.3506 43.7435C39.6742 43.7435 39.9727 43.7913 40.2461 43.887C40.5241 43.9782 40.7702 44.1263 40.9844 44.3314C41.2031 44.5319 41.39 44.8008 41.5449 45.138C41.6999 45.4707 41.8161 45.8786 41.8936 46.3616C41.9756 46.8447 42.0166 47.4121 42.0166 48.0638ZM40.8135 49.7864V47.8519C40.8135 47.4053 40.793 47.0133 40.752 46.6761C40.7109 46.3343 40.6517 46.0426 40.5742 45.8011C40.4967 45.5595 40.3965 45.3636 40.2734 45.2132C40.1549 45.0628 40.0182 44.9534 39.8633 44.8851C39.7083 44.8122 39.5374 44.7757 39.3506 44.7757C39.1182 44.7757 38.9108 44.8327 38.7285 44.9466C38.5508 45.056 38.3981 45.2314 38.2705 45.473C38.1475 45.7145 38.054 46.0312 37.9902 46.4232C37.9264 46.8151 37.8945 47.2913 37.8945 47.8519V49.7864C37.8945 50.2331 37.915 50.6273 37.9561 50.9691C38.0016 51.3109 38.0632 51.6071 38.1406 51.8577C38.2227 52.1038 38.3229 52.3066 38.4414 52.4661C38.5599 52.6256 38.6966 52.7441 38.8516 52.8216C39.0065 52.8945 39.1751 52.931 39.3574 52.931C39.599 52.931 39.8086 52.8717 39.9863 52.7532C40.1686 52.6347 40.3213 52.4502 40.4443 52.1995C40.5674 51.9443 40.6585 51.6185 40.7178 51.222C40.7816 50.8209 40.8135 50.3424 40.8135 49.7864Z" fill="black"/>
<mask id="path-5-inside-2_1190_24109" fill="white">
<path d="M0 65H78.8V98.3333H0V65Z"/>
</mask>
<path d="M78.8 97.3333H0V99.3333H78.8V97.3333Z" fill="#C2C6C7" mask="url(#path-5-inside-2_1190_24109)"/>
<path d="M40.3008 76.1589V86.1667H39.0908V77.738L36.999 78.6677V77.5261L40.1162 76.1589H40.3008Z" fill="black"/>
<rect width="78.8" height="33.3333" transform="translate(78.8008 0.333313)" fill="#C2C6C7"/>
<path d="M111.279 11.5469H114.062C114.709 11.5469 115.251 11.6608 115.688 11.8887C116.131 12.1165 116.463 12.4538 116.687 12.9004C116.914 13.3424 117.028 13.887 117.028 14.5342C117.028 14.9899 116.953 15.4069 116.803 15.7852C116.652 16.1589 116.434 16.4779 116.146 16.7422C115.859 17.002 115.511 17.1956 115.101 17.3232L114.759 17.4668H112.277L112.264 16.3936H114.048C114.431 16.3936 114.75 16.3115 115.005 16.1475C115.26 15.9788 115.451 15.7533 115.579 15.4707C115.707 15.1882 115.771 14.876 115.771 14.5342C115.771 14.1514 115.714 13.8164 115.6 13.5293C115.486 13.2422 115.303 13.0212 115.053 12.8662C114.807 12.7067 114.476 12.627 114.062 12.627H112.537V21.5H111.279V11.5469ZM116.058 21.5L114.075 16.9883L115.381 16.9814L117.404 21.418V21.5H116.058ZM123.393 11.5469H124.65V18.5537C124.65 19.3011 124.507 19.9004 124.22 20.3516C123.933 20.8027 123.554 21.1309 123.085 21.3359C122.62 21.5365 122.119 21.6367 121.581 21.6367C121.007 21.6367 120.49 21.5365 120.029 21.3359C119.569 21.1309 119.202 20.8027 118.929 20.3516C118.66 19.9004 118.525 19.3011 118.525 18.5537V11.5469H119.776V18.5537C119.776 19.0732 119.849 19.4788 119.995 19.7705C120.146 20.0622 120.355 20.2673 120.624 20.3857C120.897 20.5042 121.216 20.5635 121.581 20.5635C121.95 20.5635 122.269 20.5042 122.538 20.3857C122.812 20.2673 123.021 20.0622 123.167 19.7705C123.317 19.4788 123.393 19.0732 123.393 18.5537V11.5469Z" fill="#111810"/>
<mask id="path-9-inside-3_1190_24109" fill="white">
<path d="M78.8008 32.6666H157.601V66H78.8008V32.6666Z"/>
</mask>
<path d="M157.601 65H78.8008V67H157.601V65Z" fill="#C2C6C7" mask="url(#path-9-inside-3_1190_24109)"/>
<path d="M117.693 50.4837V51.5228H111.609V50.7776L115.308 43.8802H116.278L115.308 45.8763L112.956 50.4837H117.693ZM116.586 43.8802V53.8333H115.376V43.8802H116.586ZM124.481 52.7943V53.8333H118.917V52.9241L121.658 49.2943C121.995 48.8476 122.253 48.4694 122.431 48.1595C122.608 47.845 122.731 47.5648 122.8 47.3187C122.868 47.068 122.902 46.8128 122.902 46.553C122.902 46.2249 122.85 45.9287 122.745 45.6644C122.64 45.3955 122.488 45.1813 122.287 45.0218C122.087 44.8623 121.845 44.7825 121.562 44.7825C121.193 44.7825 120.89 44.8691 120.653 45.0423C120.421 45.2109 120.25 45.4479 120.141 45.7532C120.031 46.0586 119.977 46.4095 119.977 46.806H118.767C118.767 46.2454 118.869 45.7327 119.074 45.2679C119.284 44.803 119.596 44.4339 120.011 44.1605C120.425 43.8825 120.943 43.7435 121.562 43.7435C122.096 43.7435 122.551 43.8551 122.93 44.0784C123.312 44.2972 123.604 44.6071 123.805 45.0081C124.01 45.4046 124.112 45.8694 124.112 46.4026C124.112 46.6943 124.071 46.9905 123.989 47.2913C123.912 47.5875 123.802 47.8838 123.661 48.18C123.524 48.4762 123.363 48.7679 123.176 49.055C122.989 49.3421 122.788 49.6247 122.574 49.9026L120.366 52.7943H124.481Z" fill="black"/>
<mask id="path-12-inside-4_1190_24109" fill="white">
<path d="M78.8008 65H157.601V98.3333H78.8008V65Z"/>
</mask>
<path d="M157.601 97.3333H78.8008V99.3333H157.601V97.3333Z" fill="#C2C6C7" mask="url(#path-12-inside-4_1190_24109)"/>
<path d="M117.693 82.8171V83.8561H111.609V83.111L115.308 76.2136H116.278L115.308 78.2097L112.956 82.8171H117.693ZM116.586 76.2136V86.1667H115.376V76.2136H116.586ZM124.611 82.8171V83.8561H118.527V83.111L122.226 76.2136H123.196L122.226 78.2097L119.874 82.8171H124.611ZM123.504 76.2136V86.1667H122.294V76.2136H123.504Z" fill="black"/>
<rect width="78.8" height="33.3333" transform="translate(157.602 0.333313)" fill="#C2C6C7"/>
<path d="M183.81 11.5469V12.627H179.899V21.5H178.642V11.5469H183.81ZM188.581 17.5967H186.407V16.5234H188.581C188.991 16.5234 189.322 16.4414 189.572 16.2773C189.827 16.1133 190.012 15.8854 190.126 15.5938C190.244 15.3021 190.304 14.9694 190.304 14.5957C190.304 14.2539 190.244 13.9326 190.126 13.6318C190.012 13.3311 189.827 13.0895 189.572 12.9072C189.322 12.7204 188.991 12.627 188.581 12.627H186.667V21.5H185.409V11.5469H188.581C189.224 11.5469 189.766 11.6768 190.208 11.9365C190.65 12.1963 190.985 12.5563 191.213 13.0166C191.445 13.4723 191.562 13.9941 191.562 14.582C191.562 15.2201 191.445 15.7646 191.213 16.2158C190.985 16.667 190.65 17.0111 190.208 17.248C189.766 17.4805 189.224 17.5967 188.581 17.5967ZM195.718 18.1982L197.83 11.5469H199.279L196.415 19.8389C196.324 20.0713 196.226 20.2969 196.121 20.5156C196.021 20.7298 195.898 20.9212 195.752 21.0898C195.606 21.2585 195.424 21.3929 195.205 21.4932C194.986 21.5934 194.713 21.6436 194.385 21.6436C194.285 21.6436 194.168 21.6367 194.036 21.623C193.909 21.6139 193.826 21.6025 193.79 21.5889L193.817 20.5361C193.858 20.5452 193.943 20.5544 194.07 20.5635C194.202 20.568 194.296 20.5703 194.351 20.5703C194.556 20.5703 194.713 20.5179 194.822 20.4131C194.936 20.3083 195.025 20.1761 195.089 20.0166C195.153 19.8525 195.214 19.6862 195.273 19.5176L195.718 18.1982ZM194.132 11.5469L196.278 17.7471L196.572 18.9707L195.513 19.0527L192.73 11.5469H194.132ZM206.901 20.4268V21.5H200.66V20.4268H206.901ZM200.852 20.4268V23.9473H199.601L199.594 20.4268H200.852ZM207.995 20.4268L207.981 23.9404H206.737V20.4268H207.995ZM205.726 11.5469V12.627H202.116V11.5469H205.726ZM206.826 11.5469V21.5H205.568V11.5469H206.826ZM201.686 11.5469H202.943L202.766 15.5527C202.743 16.1543 202.697 16.7103 202.629 17.2207C202.561 17.7266 202.472 18.1891 202.362 18.6084C202.257 19.0277 202.137 19.4036 202 19.7363C201.863 20.0645 201.715 20.3493 201.556 20.5908C201.396 20.8278 201.228 21.0238 201.05 21.1787C200.872 21.3291 200.69 21.4362 200.503 21.5H199.977V20.4268H200.325C200.425 20.2992 200.535 20.1146 200.653 19.873C200.776 19.6315 200.895 19.3193 201.009 18.9365C201.127 18.5492 201.23 18.0775 201.316 17.5215C201.408 16.9655 201.469 16.3092 201.501 15.5527L201.686 11.5469ZM210.265 15.6006H212.527C213.143 15.6006 213.662 15.7236 214.086 15.9697C214.514 16.2113 214.838 16.5508 215.057 16.9883C215.28 17.4258 215.392 17.9385 215.392 18.5264C215.392 18.9639 215.328 19.3649 215.2 19.7295C215.077 20.0895 214.893 20.404 214.646 20.6729C214.405 20.9372 214.106 21.1423 213.751 21.2881C213.396 21.4294 212.988 21.5 212.527 21.5H209.273V11.5469H210.531V20.4268H212.527C212.91 20.4268 213.218 20.3379 213.45 20.1602C213.687 19.9779 213.86 19.7409 213.97 19.4492C214.079 19.1576 214.134 18.8454 214.134 18.5127C214.134 18.18 214.079 17.8747 213.97 17.5967C213.86 17.3187 213.687 17.0977 213.45 16.9336C213.218 16.765 212.91 16.6807 212.527 16.6807H210.265V15.6006Z" fill="#111810"/>
<mask id="path-16-inside-5_1190_24109" fill="white">
<path d="M157.602 32.6666H236.402V66H157.602V32.6666Z"/>
</mask>
<path d="M236.402 65H157.602V67H236.402V65Z" fill="#C2C6C7" mask="url(#path-16-inside-5_1190_24109)"/>
<path d="M187.111 51.14C187.111 51.7461 186.995 52.261 186.763 52.6849C186.53 53.1041 186.214 53.4232 185.812 53.6419C185.411 53.8607 184.958 53.97 184.452 53.97C183.951 53.97 183.5 53.8607 183.099 53.6419C182.698 53.4232 182.381 53.1041 182.148 52.6849C181.916 52.261 181.8 51.7461 181.8 51.14C181.8 50.7435 181.864 50.3812 181.991 50.053C182.119 49.7204 182.299 49.431 182.531 49.1849C182.768 48.9388 183.049 48.7497 183.372 48.6175C183.696 48.4808 184.053 48.4124 184.445 48.4124C184.96 48.4124 185.418 48.5309 185.819 48.7679C186.22 49.0003 186.535 49.3216 186.763 49.7318C186.995 50.1419 187.111 50.6113 187.111 51.14ZM185.908 51.1126C185.908 50.7435 185.847 50.4176 185.724 50.1351C185.605 49.848 185.437 49.6247 185.218 49.4651C184.999 49.3056 184.742 49.2259 184.445 49.2259C184.145 49.2259 183.887 49.3056 183.673 49.4651C183.459 49.6247 183.292 49.848 183.174 50.1351C183.06 50.4176 183.003 50.7435 183.003 51.1126C183.003 51.4954 183.06 51.8235 183.174 52.097C183.288 52.3659 183.452 52.5732 183.666 52.7191C183.885 52.8603 184.149 52.931 184.459 52.931C184.764 52.931 185.024 52.8603 185.238 52.7191C185.457 52.5732 185.623 52.3659 185.737 52.097C185.851 51.8235 185.908 51.4954 185.908 51.1126ZM186.927 46.471C186.927 46.9541 186.82 47.3893 186.605 47.7767C186.391 48.164 186.097 48.4694 185.724 48.6927C185.354 48.916 184.933 49.0276 184.459 49.0276C183.976 49.0276 183.548 48.916 183.174 48.6927C182.8 48.4694 182.508 48.164 182.299 47.7767C182.089 47.3893 181.984 46.9541 181.984 46.471C181.984 45.8922 182.089 45.4 182.299 44.9944C182.513 44.5888 182.807 44.279 183.181 44.0648C183.554 43.8506 183.98 43.7435 184.459 43.7435C184.942 43.7435 185.368 43.8506 185.737 44.0648C186.106 44.279 186.396 44.5888 186.605 44.9944C186.82 45.4 186.927 45.8922 186.927 46.471ZM185.717 46.4915C185.717 46.1588 185.664 45.8649 185.56 45.6097C185.459 45.3545 185.313 45.154 185.122 45.0081C184.935 44.8577 184.714 44.7825 184.459 44.7825C184.204 44.7825 183.98 44.8532 183.789 44.9944C183.602 45.1312 183.456 45.3271 183.352 45.5823C183.247 45.8375 183.194 46.1406 183.194 46.4915C183.194 46.8333 183.244 47.1318 183.345 47.387C183.45 47.6422 183.598 47.8405 183.789 47.9818C183.98 48.123 184.204 48.1937 184.459 48.1937C184.714 48.1937 184.935 48.123 185.122 47.9818C185.313 47.8405 185.459 47.6422 185.56 47.387C185.664 47.1318 185.717 46.8333 185.717 46.4915ZM194.282 52.7943V53.8333H188.718V52.9241L191.459 49.2943C191.796 48.8476 192.054 48.4694 192.231 48.1595C192.409 47.845 192.532 47.5648 192.601 47.3187C192.669 47.068 192.703 46.8128 192.703 46.553C192.703 46.2249 192.651 45.9287 192.546 45.6644C192.441 45.3955 192.288 45.1813 192.088 45.0218C191.887 44.8623 191.646 44.7825 191.363 44.7825C190.994 44.7825 190.691 44.8691 190.454 45.0423C190.222 45.2109 190.051 45.4479 189.941 45.7532C189.832 46.0586 189.777 46.4095 189.777 46.806H188.567C188.567 46.2454 188.67 45.7327 188.875 45.2679C189.085 44.803 189.397 44.4339 189.812 44.1605C190.226 43.8825 190.743 43.7435 191.363 43.7435C191.896 43.7435 192.352 43.8551 192.73 44.0784C193.113 44.2972 193.405 44.6071 193.605 45.0081C193.811 45.4046 193.913 45.8694 193.913 46.4026C193.913 46.6943 193.872 46.9905 193.79 47.2913C193.713 47.5875 193.603 47.8838 193.462 48.18C193.325 48.4762 193.163 48.7679 192.977 49.055C192.79 49.3421 192.589 49.6247 192.375 49.9026L190.167 52.7943H194.282ZM197.987 49.0823V50.1214H195.164V49.0823H197.987ZM204.42 51.14C204.42 51.7461 204.304 52.261 204.071 52.6849C203.839 53.1041 203.522 53.4232 203.121 53.6419C202.72 53.8607 202.267 53.97 201.761 53.97C201.259 53.97 200.808 53.8607 200.407 53.6419C200.006 53.4232 199.689 53.1041 199.457 52.6849C199.225 52.261 199.108 51.7461 199.108 51.14C199.108 50.7435 199.172 50.3812 199.3 50.053C199.427 49.7204 199.607 49.431 199.84 49.1849C200.077 48.9388 200.357 48.7497 200.681 48.6175C201.004 48.4808 201.362 48.4124 201.754 48.4124C202.269 48.4124 202.727 48.5309 203.128 48.7679C203.529 49.0003 203.843 49.3216 204.071 49.7318C204.304 50.1419 204.42 50.6113 204.42 51.14ZM203.217 51.1126C203.217 50.7435 203.155 50.4176 203.032 50.1351C202.914 49.848 202.745 49.6247 202.526 49.4651C202.308 49.3056 202.05 49.2259 201.754 49.2259C201.453 49.2259 201.196 49.3056 200.981 49.4651C200.767 49.6247 200.601 49.848 200.482 50.1351C200.368 50.4176 200.312 50.7435 200.312 51.1126C200.312 51.4954 200.368 51.8235 200.482 52.097C200.596 52.3659 200.76 52.5732 200.975 52.7191C201.193 52.8603 201.458 52.931 201.768 52.931C202.073 52.931 202.333 52.8603 202.547 52.7191C202.766 52.5732 202.932 52.3659 203.046 52.097C203.16 51.8235 203.217 51.4954 203.217 51.1126ZM204.235 46.471C204.235 46.9541 204.128 47.3893 203.914 47.7767C203.7 48.164 203.406 48.4694 203.032 48.6927C202.663 48.916 202.242 49.0276 201.768 49.0276C201.285 49.0276 200.856 48.916 200.482 48.6927C200.109 48.4694 199.817 48.164 199.607 47.7767C199.398 47.3893 199.293 46.9541 199.293 46.471C199.293 45.8922 199.398 45.4 199.607 44.9944C199.822 44.5888 200.116 44.279 200.489 44.0648C200.863 43.8506 201.289 43.7435 201.768 43.7435C202.251 43.7435 202.677 43.8506 203.046 44.0648C203.415 44.279 203.704 44.5888 203.914 44.9944C204.128 45.4 204.235 45.8922 204.235 46.471ZM203.025 46.4915C203.025 46.1588 202.973 45.8649 202.868 45.6097C202.768 45.3545 202.622 45.154 202.431 45.0081C202.244 44.8577 202.023 44.7825 201.768 44.7825C201.512 44.7825 201.289 44.8532 201.098 44.9944C200.911 45.1312 200.765 45.3271 200.66 45.5823C200.555 45.8375 200.503 46.1406 200.503 46.4915C200.503 46.8333 200.553 47.1318 200.653 47.387C200.758 47.6422 200.906 47.8405 201.098 47.9818C201.289 48.123 201.512 48.1937 201.768 48.1937C202.023 48.1937 202.244 48.123 202.431 47.9818C202.622 47.8405 202.768 47.6422 202.868 47.387C202.973 47.1318 203.025 46.8333 203.025 46.4915ZM210.148 43.8665H210.237V44.9398H210.148C209.574 44.9398 209.103 45.0491 208.733 45.2679C208.369 45.4821 208.084 45.7715 207.879 46.136C207.678 46.4961 207.539 46.9017 207.462 47.3528C207.384 47.804 207.346 48.262 207.346 48.7269V50.1898C207.346 50.6318 207.387 51.0237 207.469 51.3655C207.555 51.7028 207.667 51.9876 207.804 52.22C207.945 52.4525 208.102 52.6279 208.275 52.7464C208.453 52.8649 208.633 52.9241 208.815 52.9241C209.048 52.9241 209.253 52.8694 209.431 52.7601C209.613 52.6461 209.763 52.4889 209.882 52.2884C210.005 52.0833 210.098 51.8418 210.162 51.5638C210.226 51.2858 210.258 50.9804 210.258 50.6478C210.258 50.3515 210.228 50.0667 210.169 49.7933C210.114 49.5153 210.03 49.2692 209.916 49.055C209.802 48.8362 209.656 48.6653 209.479 48.5423C209.305 48.4147 209.098 48.3509 208.856 48.3509C208.583 48.3509 208.328 48.4375 208.091 48.6107C207.858 48.7793 207.667 49.0026 207.517 49.2806C207.366 49.554 207.277 49.8525 207.25 50.1761L206.628 50.1693C206.692 49.6588 206.799 49.2236 206.949 48.8636C207.1 48.499 207.282 48.2028 207.496 47.9749C207.715 47.7425 207.956 47.5739 208.221 47.4691C208.485 47.3597 208.763 47.305 209.055 47.305C209.479 47.305 209.841 47.3984 210.142 47.5853C210.447 47.7721 210.695 48.0228 210.887 48.3372C211.083 48.6471 211.226 48.998 211.317 49.39C211.409 49.7773 211.454 50.1761 211.454 50.5862C211.454 51.0556 211.397 51.4954 211.283 51.9056C211.174 52.3157 211.01 52.6758 210.791 52.9857C210.572 53.2956 210.297 53.5371 209.964 53.7103C209.636 53.8834 209.253 53.97 208.815 53.97C208.351 53.97 207.95 53.8607 207.612 53.6419C207.275 53.4186 206.995 53.1224 206.771 52.7532C206.553 52.3841 206.391 51.9739 206.286 51.5228C206.181 51.0716 206.129 50.6136 206.129 50.1487V49.554C206.129 48.8522 206.179 48.164 206.279 47.4896C206.38 46.8151 206.569 46.2044 206.847 45.6575C207.129 45.1107 207.535 44.6754 208.063 44.3519C208.597 44.0283 209.292 43.8665 210.148 43.8665Z" fill="black"/>
<mask id="path-19-inside-6_1190_24109" fill="white">
<path d="M157.602 65H236.402V98.3333H157.602V65Z"/>
</mask>
<path d="M236.402 97.3333H157.602V99.3333H236.402V97.3333Z" fill="#C2C6C7" mask="url(#path-19-inside-6_1190_24109)"/>
<path d="M187.111 83.4733C187.111 84.0794 186.995 84.5944 186.763 85.0182C186.53 85.4375 186.214 85.7565 185.812 85.9753C185.411 86.194 184.958 86.3034 184.452 86.3034C183.951 86.3034 183.5 86.194 183.099 85.9753C182.698 85.7565 182.381 85.4375 182.148 85.0182C181.916 84.5944 181.8 84.0794 181.8 83.4733C181.8 83.0768 181.864 82.7145 181.991 82.3864C182.119 82.0537 182.299 81.7643 182.531 81.5182C182.768 81.2722 183.049 81.083 183.372 80.9509C183.696 80.8141 184.053 80.7458 184.445 80.7458C184.96 80.7458 185.418 80.8643 185.819 81.1013C186.22 81.3337 186.535 81.655 186.763 82.0651C186.995 82.4753 187.111 82.9447 187.111 83.4733ZM185.908 83.446C185.908 83.0768 185.847 82.751 185.724 82.4684C185.605 82.1813 185.437 81.958 185.218 81.7985C184.999 81.639 184.742 81.5593 184.445 81.5593C184.145 81.5593 183.887 81.639 183.673 81.7985C183.459 81.958 183.292 82.1813 183.174 82.4684C183.06 82.751 183.003 83.0768 183.003 83.446C183.003 83.8288 183.06 84.1569 183.174 84.4304C183.288 84.6992 183.452 84.9066 183.666 85.0524C183.885 85.1937 184.149 85.2643 184.459 85.2643C184.764 85.2643 185.024 85.1937 185.238 85.0524C185.457 84.9066 185.623 84.6992 185.737 84.4304C185.851 84.1569 185.908 83.8288 185.908 83.446ZM186.927 78.8044C186.927 79.2875 186.82 79.7227 186.605 80.11C186.391 80.4974 186.097 80.8028 185.724 81.0261C185.354 81.2494 184.933 81.361 184.459 81.361C183.976 81.361 183.548 81.2494 183.174 81.0261C182.8 80.8028 182.508 80.4974 182.299 80.11C182.089 79.7227 181.984 79.2875 181.984 78.8044C181.984 78.2256 182.089 77.7334 182.299 77.3278C182.513 76.9222 182.807 76.6123 183.181 76.3981C183.554 76.1839 183.98 76.0768 184.459 76.0768C184.942 76.0768 185.368 76.1839 185.737 76.3981C186.106 76.6123 186.396 76.9222 186.605 77.3278C186.82 77.7334 186.927 78.2256 186.927 78.8044ZM185.717 78.8249C185.717 78.4922 185.664 78.1983 185.56 77.9431C185.459 77.6878 185.313 77.4873 185.122 77.3415C184.935 77.1911 184.714 77.1159 184.459 77.1159C184.204 77.1159 183.98 77.1865 183.789 77.3278C183.602 77.4645 183.456 77.6605 183.352 77.9157C183.247 78.1709 183.194 78.474 183.194 78.8249C183.194 79.1667 183.244 79.4652 183.345 79.7204C183.45 79.9756 183.598 80.1738 183.789 80.3151C183.98 80.4564 184.204 80.527 184.459 80.527C184.714 80.527 184.935 80.4564 185.122 80.3151C185.313 80.1738 185.459 79.9756 185.56 79.7204C185.664 79.4652 185.717 79.1667 185.717 78.8249ZM192.84 76.1999H192.929V77.2731H192.84C192.266 77.2731 191.794 77.3825 191.425 77.6013C191.06 77.8155 190.775 78.1048 190.57 78.4694C190.37 78.8294 190.231 79.235 190.153 79.6862C190.076 80.1374 190.037 80.5954 190.037 81.0602V82.5231C190.037 82.9652 190.078 83.3571 190.16 83.6989C190.247 84.0362 190.358 84.321 190.495 84.5534C190.636 84.7858 190.794 84.9613 190.967 85.0798C191.145 85.1983 191.325 85.2575 191.507 85.2575C191.739 85.2575 191.944 85.2028 192.122 85.0934C192.304 84.9795 192.455 84.8223 192.573 84.6218C192.696 84.4167 192.79 84.1752 192.854 83.8972C192.917 83.6192 192.949 83.3138 192.949 82.9811C192.949 82.6849 192.92 82.4001 192.86 82.1266C192.806 81.8487 192.721 81.6026 192.607 81.3884C192.493 81.1696 192.348 80.9987 192.17 80.8757C191.997 80.7481 191.789 80.6843 191.548 80.6843C191.274 80.6843 191.019 80.7709 190.782 80.944C190.55 81.1127 190.358 81.336 190.208 81.614C190.058 81.8874 189.969 82.1859 189.941 82.5095L189.319 82.5026C189.383 81.9922 189.49 81.557 189.641 81.197C189.791 80.8324 189.973 80.5362 190.188 80.3083C190.406 80.0759 190.648 79.9072 190.912 79.8024C191.176 79.6931 191.454 79.6384 191.746 79.6384C192.17 79.6384 192.532 79.7318 192.833 79.9186C193.138 80.1055 193.387 80.3561 193.578 80.6706C193.774 80.9805 193.918 81.3314 194.009 81.7233C194.1 82.1107 194.146 82.5095 194.146 82.9196C194.146 83.389 194.089 83.8288 193.975 84.239C193.865 84.6491 193.701 85.0091 193.482 85.319C193.264 85.6289 192.988 85.8705 192.655 86.0436C192.327 86.2168 191.944 86.3034 191.507 86.3034C191.042 86.3034 190.641 86.194 190.304 85.9753C189.966 85.752 189.686 85.4557 189.463 85.0866C189.244 84.7175 189.082 84.3073 188.978 83.8561C188.873 83.405 188.82 82.947 188.82 82.4821V81.8874C188.82 81.1856 188.87 80.4974 188.971 79.8229C189.071 79.1485 189.26 78.5378 189.538 77.9909C189.821 77.444 190.226 77.0088 190.755 76.6852C191.288 76.3617 191.983 76.1999 192.84 76.1999ZM197.987 81.4157V82.4548H195.164V81.4157H197.987ZM200.202 85.1071H200.298C200.913 85.1071 201.408 85.0046 201.781 84.7995C202.155 84.5944 202.435 84.3187 202.622 83.9724C202.813 83.626 202.941 83.2363 203.005 82.8034C203.073 82.3659 203.107 81.917 203.107 81.4567V79.9323C203.107 79.4811 203.064 79.0801 202.978 78.7292C202.896 78.3783 202.784 78.0843 202.643 77.8474C202.506 77.6104 202.349 77.4304 202.171 77.3073C201.998 77.1843 201.82 77.1227 201.638 77.1227C201.405 77.1227 201.2 77.182 201.022 77.3005C200.845 77.4144 200.694 77.5762 200.571 77.7858C200.453 77.9955 200.362 78.2416 200.298 78.5241C200.234 78.8067 200.202 79.1143 200.202 79.447C200.202 79.7432 200.229 80.0303 200.284 80.3083C200.339 80.5863 200.423 80.8369 200.537 81.0602C200.656 81.2835 200.801 81.4613 200.975 81.5934C201.152 81.721 201.362 81.7849 201.604 81.7849C201.804 81.7849 201.998 81.7302 202.185 81.6208C202.376 81.5069 202.549 81.3542 202.704 81.1628C202.859 80.9668 202.987 80.7458 203.087 80.4997C203.187 80.2536 203.246 79.9961 203.265 79.7272H203.832C203.832 80.1055 203.771 80.4792 203.647 80.8483C203.529 81.2129 203.358 81.5456 203.135 81.8464C202.916 82.1472 202.659 82.3887 202.362 82.571C202.071 82.7487 201.749 82.8376 201.398 82.8376C200.975 82.8376 200.612 82.7419 200.312 82.5505C200.011 82.3591 199.765 82.1039 199.573 81.7849C199.386 81.4658 199.247 81.1104 199.156 80.7184C199.065 80.322 199.02 79.9209 199.02 79.5153C199.02 79.0414 199.074 78.597 199.184 78.1823C199.293 77.7676 199.455 77.403 199.669 77.0886C199.888 76.7696 200.161 76.5212 200.489 76.3434C200.817 76.1657 201.2 76.0768 201.638 76.0768C202.125 76.0768 202.54 76.1908 202.882 76.4186C203.224 76.6465 203.499 76.9518 203.709 77.3347C203.919 77.7175 204.071 78.1481 204.167 78.6266C204.263 79.1052 204.311 79.5974 204.311 80.1032V80.5612C204.311 81.0762 204.285 81.6003 204.235 82.1335C204.19 82.6621 204.092 83.168 203.941 83.6511C203.796 84.1341 203.577 84.5671 203.285 84.9499C202.993 85.3281 202.604 85.6289 202.116 85.8522C201.633 86.071 201.027 86.1804 200.298 86.1804H200.209L200.202 85.1071ZM211.345 80.3972V81.9147C211.345 82.7305 211.281 83.4186 211.153 83.9792C211.03 84.5397 210.853 84.9909 210.62 85.3327C210.388 85.6745 210.107 85.9229 209.779 86.0778C209.456 86.2282 209.091 86.3034 208.686 86.3034C208.367 86.3034 208.068 86.2556 207.79 86.1599C207.517 86.0641 207.271 85.9115 207.052 85.7018C206.833 85.4877 206.646 85.2097 206.491 84.8679C206.336 84.5261 206.218 84.1113 206.136 83.6237C206.054 83.1361 206.013 82.5664 206.013 81.9147V80.3972C206.013 79.5814 206.076 78.8978 206.204 78.3464C206.332 77.7949 206.512 77.3529 206.744 77.0202C206.981 76.683 207.261 76.4414 207.585 76.2956C207.913 76.1498 208.278 76.0768 208.679 76.0768C209.002 76.0768 209.301 76.1247 209.574 76.2204C209.852 76.3115 210.098 76.4597 210.312 76.6647C210.531 76.8653 210.718 77.1341 210.873 77.4714C211.028 77.8041 211.144 78.2119 211.222 78.695C211.304 79.1781 211.345 79.7455 211.345 80.3972ZM210.142 82.1198V80.1852C210.142 79.7386 210.121 79.3467 210.08 79.0095C210.039 78.6677 209.98 78.376 209.902 78.1345C209.825 77.8929 209.725 77.697 209.602 77.5466C209.483 77.3962 209.346 77.2868 209.191 77.2184C209.036 77.1455 208.866 77.1091 208.679 77.1091C208.446 77.1091 208.239 77.166 208.057 77.28C207.879 77.3893 207.726 77.5648 207.599 77.8063C207.476 78.0479 207.382 78.3646 207.318 78.7565C207.255 79.1485 207.223 79.6247 207.223 80.1852V82.1198C207.223 82.5664 207.243 82.9606 207.284 83.3024C207.33 83.6442 207.391 83.9405 207.469 84.1911C207.551 84.4372 207.651 84.64 207.77 84.7995C207.888 84.959 208.025 85.0775 208.18 85.155C208.335 85.2279 208.503 85.2643 208.686 85.2643C208.927 85.2643 209.137 85.2051 209.314 85.0866C209.497 84.9681 209.649 84.7835 209.772 84.5329C209.896 84.2777 209.987 83.9518 210.046 83.5554C210.11 83.1543 210.142 82.6758 210.142 82.1198Z" fill="black"/>
<rect width="78.8" height="33.3333" transform="translate(236.398 0.333313)" fill="#C2C6C7"/>
<path d="M259.569 11.5469V21.5H258.325V11.5469H259.569ZM262.188 11.5469V12.627H255.714V11.5469H262.188ZM266.337 12.4287L263.616 21.5H262.331L265.537 11.5469H266.344L266.337 12.4287ZM268.538 21.5L265.817 12.4287L265.804 11.5469H266.617L269.823 21.5H268.538ZM268.538 17.8154V18.8955H263.739V17.8154H268.538ZM276.611 11.5469V12.627H272.893V11.5469H276.611ZM277.719 11.5469V21.5H276.461V11.5469H277.719ZM272.469 11.5469H273.72L273.542 16.4209C273.519 17.1227 273.476 17.7493 273.412 18.3008C273.348 18.8477 273.257 19.3239 273.139 19.7295C273.02 20.1305 272.865 20.4632 272.674 20.7275C272.482 20.9873 272.248 21.181 271.97 21.3086C271.696 21.4362 271.37 21.5 270.992 21.5H270.664V20.4268L270.903 20.4062C271.113 20.388 271.293 20.3311 271.443 20.2354C271.598 20.1351 271.726 19.9847 271.826 19.7842C271.931 19.5837 272.015 19.3239 272.079 19.0049C272.147 18.6859 272.2 18.2962 272.236 17.8359C272.273 17.3711 272.3 16.8288 272.318 16.209L272.469 11.5469ZM281.253 19.2168L285.129 11.5469H286.387V21.5H285.129V13.8232L281.253 21.5H280.002V11.5469H281.253V19.2168ZM293.236 17.624H291.076L290.44 17.3574C289.821 17.1296 289.344 16.7809 289.012 16.3115C288.684 15.8376 288.52 15.2497 288.52 14.5479C288.52 13.9053 288.64 13.3607 288.882 12.9141C289.123 12.4674 289.467 12.1279 289.914 11.8955C290.365 11.6631 290.896 11.5469 291.507 11.5469H294.228V21.5H292.97V12.627H291.507C290.928 12.627 290.495 12.8001 290.208 13.1465C289.921 13.4928 289.777 13.96 289.777 14.5479C289.777 14.9307 289.841 15.2725 289.969 15.5732C290.101 15.874 290.297 16.111 290.557 16.2842C290.816 16.4574 291.142 16.5439 291.534 16.5439H293.243L293.236 17.624ZM291.555 16.9404L289.531 21.5H288.191L290.283 16.9404H291.555Z" fill="#111810"/>
<mask id="path-23-inside-7_1190_24109" fill="white">
<path d="M236.398 32.6666H315.198V66H236.398V32.6666Z"/>
</mask>
<path d="M315.198 65H236.398V67H315.198V65Z" fill="#C2C6C7" mask="url(#path-23-inside-7_1190_24109)"/>
<path d="M264.719 43.8665H264.808V44.9398H264.719C264.145 44.9398 263.673 45.0491 263.304 45.2679C262.939 45.4821 262.654 45.7715 262.449 46.136C262.249 46.4961 262.11 46.9017 262.032 47.3528C261.955 47.804 261.916 48.262 261.916 48.7269V50.1898C261.916 50.6318 261.957 51.0237 262.039 51.3655C262.126 51.7028 262.237 51.9876 262.374 52.22C262.515 52.4525 262.673 52.6279 262.846 52.7464C263.023 52.8649 263.203 52.9241 263.386 52.9241C263.618 52.9241 263.823 52.8694 264.001 52.7601C264.183 52.6461 264.334 52.4889 264.452 52.2884C264.575 52.0833 264.669 51.8418 264.732 51.5638C264.796 51.2858 264.828 50.9804 264.828 50.6478C264.828 50.3515 264.799 50.0667 264.739 49.7933C264.685 49.5153 264.6 49.2692 264.486 49.055C264.372 48.8362 264.227 48.6653 264.049 48.5423C263.876 48.4147 263.668 48.3509 263.427 48.3509C263.153 48.3509 262.898 48.4375 262.661 48.6107C262.429 48.7793 262.237 49.0026 262.087 49.2806C261.937 49.554 261.848 49.8525 261.82 50.1761L261.198 50.1693C261.262 49.6588 261.369 49.2236 261.52 48.8636C261.67 48.499 261.852 48.2028 262.066 47.9749C262.285 47.7425 262.527 47.5739 262.791 47.4691C263.055 47.3597 263.333 47.305 263.625 47.305C264.049 47.305 264.411 47.3984 264.712 47.5853C265.017 47.7721 265.266 48.0228 265.457 48.3372C265.653 48.6471 265.797 48.998 265.888 49.39C265.979 49.7773 266.024 50.1761 266.024 50.5862C266.024 51.0556 265.967 51.4954 265.854 51.9056C265.744 52.3157 265.58 52.6758 265.361 52.9857C265.143 53.2956 264.867 53.5371 264.534 53.7103C264.206 53.8834 263.823 53.97 263.386 53.97C262.921 53.97 262.52 53.8607 262.183 53.6419C261.845 53.4186 261.565 53.1224 261.342 52.7532C261.123 52.3841 260.961 51.9739 260.856 51.5228C260.752 51.0716 260.699 50.6136 260.699 50.1487V49.554C260.699 48.8522 260.749 48.164 260.85 47.4896C260.95 46.8151 261.139 46.2044 261.417 45.6575C261.7 45.1107 262.105 44.6754 262.634 44.3519C263.167 44.0283 263.862 43.8665 264.719 43.8665ZM273.079 52.7943V53.8333H267.515V52.9241L270.256 49.2943C270.593 48.8476 270.851 48.4694 271.028 48.1595C271.206 47.845 271.329 47.5648 271.397 47.3187C271.466 47.068 271.5 46.8128 271.5 46.553C271.5 46.2249 271.448 45.9287 271.343 45.6644C271.238 45.3955 271.085 45.1813 270.885 45.0218C270.684 44.8623 270.443 44.7825 270.16 44.7825C269.791 44.7825 269.488 44.8691 269.251 45.0423C269.019 45.2109 268.848 45.4479 268.738 45.7532C268.629 46.0586 268.574 46.4095 268.574 46.806H267.364C267.364 46.2454 267.467 45.7327 267.672 45.2679C267.882 44.803 268.194 44.4339 268.608 44.1605C269.023 43.8825 269.54 43.7435 270.16 43.7435C270.693 43.7435 271.149 43.8551 271.527 44.0784C271.91 44.2972 272.202 44.6071 272.402 45.0081C272.607 45.4046 272.71 45.8694 272.71 46.4026C272.71 46.6943 272.669 46.9905 272.587 47.2913C272.509 47.5875 272.4 47.8838 272.259 48.18C272.122 48.4762 271.96 48.7679 271.773 49.055C271.587 49.3421 271.386 49.6247 271.172 49.9026L268.964 52.7943H273.079ZM276.784 49.0823V50.1214H273.961V49.0823H276.784ZM282.027 43.8665H282.116V44.9398H282.027C281.453 44.9398 280.981 45.0491 280.612 45.2679C280.248 45.4821 279.963 45.7715 279.758 46.136C279.557 46.4961 279.418 46.9017 279.341 47.3528C279.263 47.804 279.225 48.262 279.225 48.7269V50.1898C279.225 50.6318 279.266 51.0237 279.348 51.3655C279.434 51.7028 279.546 51.9876 279.683 52.22C279.824 52.4525 279.981 52.6279 280.154 52.7464C280.332 52.8649 280.512 52.9241 280.694 52.9241C280.927 52.9241 281.132 52.8694 281.31 52.7601C281.492 52.6461 281.642 52.4889 281.761 52.2884C281.884 52.0833 281.977 51.8418 282.041 51.5638C282.105 51.2858 282.137 50.9804 282.137 50.6478C282.137 50.3515 282.107 50.0667 282.048 49.7933C281.993 49.5153 281.909 49.2692 281.795 49.055C281.681 48.8362 281.535 48.6653 281.357 48.5423C281.184 48.4147 280.977 48.3509 280.735 48.3509C280.462 48.3509 280.207 48.4375 279.97 48.6107C279.737 48.7793 279.546 49.0026 279.396 49.2806C279.245 49.554 279.156 49.8525 279.129 50.1761L278.507 50.1693C278.571 49.6588 278.678 49.2236 278.828 48.8636C278.979 48.499 279.161 48.2028 279.375 47.9749C279.594 47.7425 279.835 47.5739 280.1 47.4691C280.364 47.3597 280.642 47.305 280.934 47.305C281.357 47.305 281.72 47.3984 282.021 47.5853C282.326 47.7721 282.574 48.0228 282.766 48.3372C282.962 48.6471 283.105 48.998 283.196 49.39C283.287 49.7773 283.333 50.1761 283.333 50.5862C283.333 51.0556 283.276 51.4954 283.162 51.9056C283.053 52.3157 282.889 52.6758 282.67 52.9857C282.451 53.2956 282.175 53.5371 281.843 53.7103C281.515 53.8834 281.132 53.97 280.694 53.97C280.229 53.97 279.828 53.8607 279.491 53.6419C279.154 53.4186 278.874 53.1224 278.65 52.7532C278.432 52.3841 278.27 51.9739 278.165 51.5228C278.06 51.0716 278.008 50.6136 278.008 50.1487V49.554C278.008 48.8522 278.058 48.164 278.158 47.4896C278.258 46.8151 278.448 46.2044 278.726 45.6575C279.008 45.1107 279.414 44.6754 279.942 44.3519C280.476 44.0283 281.171 43.8665 282.027 43.8665ZM288.945 43.8665H289.034V44.9398H288.945C288.371 44.9398 287.899 45.0491 287.53 45.2679C287.166 45.4821 286.881 45.7715 286.676 46.136C286.475 46.4961 286.336 46.9017 286.259 47.3528C286.181 47.804 286.143 48.262 286.143 48.7269V50.1898C286.143 50.6318 286.184 51.0237 286.266 51.3655C286.352 51.7028 286.464 51.9876 286.601 52.22C286.742 52.4525 286.899 52.6279 287.072 52.7464C287.25 52.8649 287.43 52.9241 287.612 52.9241C287.845 52.9241 288.05 52.8694 288.228 52.7601C288.41 52.6461 288.56 52.4889 288.679 52.2884C288.802 52.0833 288.895 51.8418 288.959 51.5638C289.023 51.2858 289.055 50.9804 289.055 50.6478C289.055 50.3515 289.025 50.0667 288.966 49.7933C288.911 49.5153 288.827 49.2692 288.713 49.055C288.599 48.8362 288.453 48.6653 288.275 48.5423C288.102 48.4147 287.895 48.3509 287.653 48.3509C287.38 48.3509 287.125 48.4375 286.888 48.6107C286.655 48.7793 286.464 49.0026 286.313 49.2806C286.163 49.554 286.074 49.8525 286.047 50.1761L285.425 50.1693C285.489 49.6588 285.596 49.2236 285.746 48.8636C285.896 48.499 286.079 48.2028 286.293 47.9749C286.512 47.7425 286.753 47.5739 287.018 47.4691C287.282 47.3597 287.56 47.305 287.852 47.305C288.275 47.305 288.638 47.3984 288.938 47.5853C289.244 47.7721 289.492 48.0228 289.684 48.3372C289.88 48.6471 290.023 48.998 290.114 49.39C290.205 49.7773 290.251 50.1761 290.251 50.5862C290.251 51.0556 290.194 51.4954 290.08 51.9056C289.971 52.3157 289.807 52.6758 289.588 52.9857C289.369 53.2956 289.093 53.5371 288.761 53.7103C288.433 53.8834 288.05 53.97 287.612 53.97C287.147 53.97 286.746 53.8607 286.409 53.6419C286.072 53.4186 285.792 53.1224 285.568 52.7532C285.35 52.3841 285.188 51.9739 285.083 51.5228C284.978 51.0716 284.926 50.6136 284.926 50.1487V49.554C284.926 48.8522 284.976 48.164 285.076 47.4896C285.176 46.8151 285.366 46.2044 285.644 45.6575C285.926 45.1107 286.332 44.6754 286.86 44.3519C287.394 44.0283 288.089 43.8665 288.945 43.8665Z" fill="black"/>
<mask id="path-26-inside-8_1190_24109" fill="white">
<path d="M236.398 65H315.198V98.3333H236.398V65Z"/>
</mask>
<path d="M315.198 97.3333H236.398V99.3333H315.198V97.3333Z" fill="#C2C6C7" mask="url(#path-26-inside-8_1190_24109)"/>
<path d="M264.719 76.1999H264.808V77.2731H264.719C264.145 77.2731 263.673 77.3825 263.304 77.6013C262.939 77.8155 262.654 78.1048 262.449 78.4694C262.249 78.8294 262.11 79.235 262.032 79.6862C261.955 80.1374 261.916 80.5954 261.916 81.0602V82.5231C261.916 82.9652 261.957 83.3571 262.039 83.6989C262.126 84.0362 262.237 84.321 262.374 84.5534C262.515 84.7858 262.673 84.9613 262.846 85.0798C263.023 85.1983 263.203 85.2575 263.386 85.2575C263.618 85.2575 263.823 85.2028 264.001 85.0934C264.183 84.9795 264.334 84.8223 264.452 84.6218C264.575 84.4167 264.669 84.1752 264.732 83.8972C264.796 83.6192 264.828 83.3138 264.828 82.9811C264.828 82.6849 264.799 82.4001 264.739 82.1266C264.685 81.8487 264.6 81.6026 264.486 81.3884C264.372 81.1696 264.227 80.9987 264.049 80.8757C263.876 80.7481 263.668 80.6843 263.427 80.6843C263.153 80.6843 262.898 80.7709 262.661 80.944C262.429 81.1127 262.237 81.336 262.087 81.614C261.937 81.8874 261.848 82.1859 261.82 82.5095L261.198 82.5026C261.262 81.9922 261.369 81.557 261.52 81.197C261.67 80.8324 261.852 80.5362 262.066 80.3083C262.285 80.0759 262.527 79.9072 262.791 79.8024C263.055 79.6931 263.333 79.6384 263.625 79.6384C264.049 79.6384 264.411 79.7318 264.712 79.9186C265.017 80.1055 265.266 80.3561 265.457 80.6706C265.653 80.9805 265.797 81.3314 265.888 81.7233C265.979 82.1107 266.024 82.5095 266.024 82.9196C266.024 83.389 265.967 83.8288 265.854 84.239C265.744 84.6491 265.58 85.0091 265.361 85.319C265.143 85.6289 264.867 85.8705 264.534 86.0436C264.206 86.2168 263.823 86.3034 263.386 86.3034C262.921 86.3034 262.52 86.194 262.183 85.9753C261.845 85.752 261.565 85.4557 261.342 85.0866C261.123 84.7175 260.961 84.3073 260.856 83.8561C260.752 83.405 260.699 82.947 260.699 82.4821V81.8874C260.699 81.1856 260.749 80.4974 260.85 79.8229C260.95 79.1485 261.139 78.5378 261.417 77.9909C261.7 77.444 262.105 77.0088 262.634 76.6852C263.167 76.3617 263.862 76.1999 264.719 76.1999ZM271.637 76.1999H271.726V77.2731H271.637C271.062 77.2731 270.591 77.3825 270.222 77.6013C269.857 77.8155 269.572 78.1048 269.367 78.4694C269.167 78.8294 269.028 79.235 268.95 79.6862C268.873 80.1374 268.834 80.5954 268.834 81.0602V82.5231C268.834 82.9652 268.875 83.3571 268.957 83.6989C269.044 84.0362 269.155 84.321 269.292 84.5534C269.433 84.7858 269.59 84.9613 269.764 85.0798C269.941 85.1983 270.121 85.2575 270.304 85.2575C270.536 85.2575 270.741 85.2028 270.919 85.0934C271.101 84.9795 271.252 84.8223 271.37 84.6218C271.493 84.4167 271.587 84.1752 271.65 83.8972C271.714 83.6192 271.746 83.3138 271.746 82.9811C271.746 82.6849 271.716 82.4001 271.657 82.1266C271.603 81.8487 271.518 81.6026 271.404 81.3884C271.29 81.1696 271.145 80.9987 270.967 80.8757C270.794 80.7481 270.586 80.6843 270.345 80.6843C270.071 80.6843 269.816 80.7709 269.579 80.944C269.347 81.1127 269.155 81.336 269.005 81.614C268.854 81.8874 268.766 82.1859 268.738 82.5095L268.116 82.5026C268.18 81.9922 268.287 81.557 268.438 81.197C268.588 80.8324 268.77 80.5362 268.984 80.3083C269.203 80.0759 269.445 79.9072 269.709 79.8024C269.973 79.6931 270.251 79.6384 270.543 79.6384C270.967 79.6384 271.329 79.7318 271.63 79.9186C271.935 80.1055 272.184 80.3561 272.375 80.6706C272.571 80.9805 272.715 81.3314 272.806 81.7233C272.897 82.1107 272.942 82.5095 272.942 82.9196C272.942 83.389 272.885 83.8288 272.771 84.239C272.662 84.6491 272.498 85.0091 272.279 85.319C272.061 85.6289 271.785 85.8705 271.452 86.0436C271.124 86.2168 270.741 86.3034 270.304 86.3034C269.839 86.3034 269.438 86.194 269.101 85.9753C268.763 85.752 268.483 85.4557 268.26 85.0866C268.041 84.7175 267.879 84.3073 267.774 83.8561C267.67 83.405 267.617 82.947 267.617 82.4821V81.8874C267.617 81.1856 267.667 80.4974 267.768 79.8229C267.868 79.1485 268.057 78.5378 268.335 77.9909C268.618 77.444 269.023 77.0088 269.552 76.6852C270.085 76.3617 270.78 76.1999 271.637 76.1999ZM276.784 81.4157V82.4548H273.961V81.4157H276.784ZM283.401 76.2136V76.9245L279.977 86.1667H278.705L282.13 77.2526H277.693V76.2136H283.401ZM290.142 80.3972V81.9147C290.142 82.7305 290.078 83.4186 289.95 83.9792C289.827 84.5397 289.649 84.9909 289.417 85.3327C289.185 85.6745 288.904 85.9229 288.576 86.0778C288.253 86.2282 287.888 86.3034 287.482 86.3034C287.163 86.3034 286.865 86.2556 286.587 86.1599C286.313 86.0641 286.067 85.9115 285.849 85.7018C285.63 85.4877 285.443 85.2097 285.288 84.8679C285.133 84.5261 285.015 84.1113 284.933 83.6237C284.851 83.1361 284.81 82.5664 284.81 81.9147V80.3972C284.81 79.5814 284.873 78.8978 285.001 78.3464C285.129 77.7949 285.309 77.3529 285.541 77.0202C285.778 76.683 286.058 76.4414 286.382 76.2956C286.71 76.1498 287.075 76.0768 287.476 76.0768C287.799 76.0768 288.098 76.1247 288.371 76.2204C288.649 76.3115 288.895 76.4597 289.109 76.6647C289.328 76.8653 289.515 77.1341 289.67 77.4714C289.825 77.8041 289.941 78.2119 290.019 78.695C290.101 79.1781 290.142 79.7455 290.142 80.3972ZM288.938 82.1198V80.1852C288.938 79.7386 288.918 79.3467 288.877 79.0095C288.836 78.6677 288.777 78.376 288.699 78.1345C288.622 77.8929 288.521 77.697 288.398 77.5466C288.28 77.3962 288.143 77.2868 287.988 77.2184C287.833 77.1455 287.662 77.1091 287.476 77.1091C287.243 77.1091 287.036 77.166 286.854 77.28C286.676 77.3893 286.523 77.5648 286.396 77.8063C286.272 78.0479 286.179 78.3646 286.115 78.7565C286.051 79.1485 286.02 79.6247 286.02 80.1852V82.1198C286.02 82.5664 286.04 82.9606 286.081 83.3024C286.127 83.6442 286.188 83.9405 286.266 84.1911C286.348 84.4372 286.448 84.64 286.566 84.7995C286.685 84.959 286.822 85.0775 286.977 85.155C287.132 85.2279 287.3 85.2643 287.482 85.2643C287.724 85.2643 287.934 85.2051 288.111 85.0866C288.294 84.9681 288.446 84.7835 288.569 84.5329C288.692 84.2777 288.784 83.9518 288.843 83.5554C288.907 83.1543 288.938 82.6758 288.938 82.1198Z" fill="black"/>
<rect width="78.8" height="33.3333" transform="translate(315.199 0.333313)" fill="#C2C6C7"/>
<path d="M341.305 11.5469V12.627H337.395V21.5H336.137V11.5469H341.305ZM337.128 15.6006H339.391C340.006 15.6006 340.525 15.7236 340.949 15.9697C341.378 16.2113 341.701 16.5508 341.92 16.9883C342.143 17.4258 342.255 17.9385 342.255 18.5264C342.255 18.9639 342.191 19.3649 342.063 19.7295C341.94 20.0895 341.756 20.404 341.51 20.6729C341.268 20.9372 340.97 21.1423 340.614 21.2881C340.259 21.4294 339.851 21.5 339.391 21.5H336.137V11.5469H337.395V20.4268H339.391C339.773 20.4268 340.081 20.3379 340.313 20.1602C340.55 19.9779 340.724 19.7409 340.833 19.4492C340.942 19.1576 340.997 18.8454 340.997 18.5127C340.997 18.18 340.942 17.8747 340.833 17.5967C340.724 17.3187 340.55 17.0977 340.313 16.9336C340.081 16.765 339.773 16.6807 339.391 16.6807H337.128V15.6006ZM349.221 20.4268V21.5H344.9V20.4268H349.221ZM345.126 11.5469V21.5H343.868V11.5469H345.126ZM348.64 15.8262V16.8994H344.9V15.8262H348.64ZM349.152 11.5469V12.627H344.9V11.5469H349.152ZM357.444 20.4268V21.5H351.203V20.4268H357.444ZM351.395 20.4268V23.9473H350.144L350.137 20.4268H351.395ZM358.538 20.4268L358.524 23.9404H357.28V20.4268H358.538ZM356.269 11.5469V12.627H352.659V11.5469H356.269ZM357.369 11.5469V21.5H356.111V11.5469H357.369ZM352.229 11.5469H353.486L353.309 15.5527C353.286 16.1543 353.24 16.7103 353.172 17.2207C353.104 17.7266 353.015 18.1891 352.905 18.6084C352.8 19.0277 352.68 19.4036 352.543 19.7363C352.406 20.0645 352.258 20.3493 352.099 20.5908C351.939 20.8278 351.771 21.0238 351.593 21.1787C351.415 21.3291 351.233 21.4362 351.046 21.5H350.52V20.4268H350.868C350.968 20.2992 351.078 20.1146 351.196 19.873C351.319 19.6315 351.438 19.3193 351.552 18.9365C351.67 18.5492 351.773 18.0775 351.859 17.5215C351.951 16.9655 352.012 16.3092 352.044 15.5527L352.229 11.5469ZM363.241 17.5967H361.067V16.5234H363.241C363.651 16.5234 363.982 16.4414 364.232 16.2773C364.488 16.1133 364.672 15.8854 364.786 15.5938C364.905 15.3021 364.964 14.9694 364.964 14.5957C364.964 14.2539 364.905 13.9326 364.786 13.6318C364.672 13.3311 364.488 13.0895 364.232 12.9072C363.982 12.7204 363.651 12.627 363.241 12.627H361.327V21.5H360.069V11.5469H363.241C363.884 11.5469 364.426 11.6768 364.868 11.9365C365.31 12.1963 365.645 12.5563 365.873 13.0166C366.105 13.4723 366.222 13.9941 366.222 14.582C366.222 15.2201 366.105 15.7646 365.873 16.2158C365.645 16.667 365.31 17.0111 364.868 17.248C364.426 17.4805 363.884 17.5967 363.241 17.5967ZM370.118 12.4287L367.397 21.5H366.112L369.318 11.5469H370.125L370.118 12.4287ZM372.319 21.5L369.599 12.4287L369.585 11.5469H370.398L373.604 21.5H372.319ZM372.319 17.8154V18.8955H367.521V17.8154H372.319Z" fill="#111810"/>
<mask id="path-30-inside-9_1190_24109" fill="white">
<path d="M315.199 32.6666H393.999V66H315.199V32.6666Z"/>
</mask>
<path d="M393.999 65H315.199V67H393.999V65Z" fill="#C2C6C7" mask="url(#path-30-inside-9_1190_24109)"/>
<path d="M344.709 51.14C344.709 51.7461 344.593 52.261 344.36 52.6849C344.128 53.1041 343.811 53.4232 343.41 53.6419C343.009 53.8607 342.556 53.97 342.05 53.97C341.549 53.97 341.097 53.8607 340.696 53.6419C340.295 53.4232 339.979 53.1041 339.746 52.6849C339.514 52.261 339.397 51.7461 339.397 51.14C339.397 50.7435 339.461 50.3812 339.589 50.053C339.716 49.7204 339.896 49.431 340.129 49.1849C340.366 48.9388 340.646 48.7497 340.97 48.6175C341.293 48.4808 341.651 48.4124 342.043 48.4124C342.558 48.4124 343.016 48.5309 343.417 48.7679C343.818 49.0003 344.132 49.3216 344.36 49.7318C344.593 50.1419 344.709 50.6113 344.709 51.14ZM343.506 51.1126C343.506 50.7435 343.444 50.4176 343.321 50.1351C343.203 49.848 343.034 49.6247 342.815 49.4651C342.597 49.3056 342.339 49.2259 342.043 49.2259C341.742 49.2259 341.485 49.3056 341.271 49.4651C341.056 49.6247 340.89 49.848 340.771 50.1351C340.658 50.4176 340.601 50.7435 340.601 51.1126C340.601 51.4954 340.658 51.8235 340.771 52.097C340.885 52.3659 341.049 52.5732 341.264 52.7191C341.482 52.8603 341.747 52.931 342.057 52.931C342.362 52.931 342.622 52.8603 342.836 52.7191C343.055 52.5732 343.221 52.3659 343.335 52.097C343.449 51.8235 343.506 51.4954 343.506 51.1126ZM344.524 46.471C344.524 46.9541 344.417 47.3893 344.203 47.7767C343.989 48.164 343.695 48.4694 343.321 48.6927C342.952 48.916 342.531 49.0276 342.057 49.0276C341.574 49.0276 341.145 48.916 340.771 48.6927C340.398 48.4694 340.106 48.164 339.896 47.7767C339.687 47.3893 339.582 46.9541 339.582 46.471C339.582 45.8922 339.687 45.4 339.896 44.9944C340.111 44.5888 340.405 44.279 340.778 44.0648C341.152 43.8506 341.578 43.7435 342.057 43.7435C342.54 43.7435 342.966 43.8506 343.335 44.0648C343.704 44.279 343.993 44.5888 344.203 44.9944C344.417 45.4 344.524 45.8922 344.524 46.471ZM343.314 46.4915C343.314 46.1588 343.262 45.8649 343.157 45.6097C343.057 45.3545 342.911 45.154 342.72 45.0081C342.533 44.8577 342.312 44.7825 342.057 44.7825C341.801 44.7825 341.578 44.8532 341.387 44.9944C341.2 45.1312 341.054 45.3271 340.949 45.5823C340.844 45.8375 340.792 46.1406 340.792 46.4915C340.792 46.8333 340.842 47.1318 340.942 47.387C341.047 47.6422 341.195 47.8405 341.387 47.9818C341.578 48.123 341.801 48.1937 342.057 48.1937C342.312 48.1937 342.533 48.123 342.72 47.9818C342.911 47.8405 343.057 47.6422 343.157 47.387C343.262 47.1318 343.314 46.8333 343.314 46.4915ZM351.627 51.14C351.627 51.7461 351.511 52.261 351.278 52.6849C351.046 53.1041 350.729 53.4232 350.328 53.6419C349.927 53.8607 349.474 53.97 348.968 53.97C348.466 53.97 348.015 53.8607 347.614 53.6419C347.213 53.4232 346.896 53.1041 346.664 52.6849C346.432 52.261 346.315 51.7461 346.315 51.14C346.315 50.7435 346.379 50.3812 346.507 50.053C346.634 49.7204 346.814 49.431 347.047 49.1849C347.284 48.9388 347.564 48.7497 347.888 48.6175C348.211 48.4808 348.569 48.4124 348.961 48.4124C349.476 48.4124 349.934 48.5309 350.335 48.7679C350.736 49.0003 351.05 49.3216 351.278 49.7318C351.511 50.1419 351.627 50.6113 351.627 51.14ZM350.424 51.1126C350.424 50.7435 350.362 50.4176 350.239 50.1351C350.121 49.848 349.952 49.6247 349.733 49.4651C349.515 49.3056 349.257 49.2259 348.961 49.2259C348.66 49.2259 348.403 49.3056 348.188 49.4651C347.974 49.6247 347.808 49.848 347.689 50.1351C347.576 50.4176 347.519 50.7435 347.519 51.1126C347.519 51.4954 347.576 51.8235 347.689 52.097C347.803 52.3659 347.967 52.5732 348.182 52.7191C348.4 52.8603 348.665 52.931 348.975 52.931C349.28 52.931 349.54 52.8603 349.754 52.7191C349.973 52.5732 350.139 52.3659 350.253 52.097C350.367 51.8235 350.424 51.4954 350.424 51.1126ZM351.442 46.471C351.442 46.9541 351.335 47.3893 351.121 47.7767C350.907 48.164 350.613 48.4694 350.239 48.6927C349.87 48.916 349.449 49.0276 348.975 49.0276C348.492 49.0276 348.063 48.916 347.689 48.6927C347.316 48.4694 347.024 48.164 346.814 47.7767C346.605 47.3893 346.5 46.9541 346.5 46.471C346.5 45.8922 346.605 45.4 346.814 44.9944C347.029 44.5888 347.323 44.279 347.696 44.0648C348.07 43.8506 348.496 43.7435 348.975 43.7435C349.458 43.7435 349.884 43.8506 350.253 44.0648C350.622 44.279 350.911 44.5888 351.121 44.9944C351.335 45.4 351.442 45.8922 351.442 46.471ZM350.232 46.4915C350.232 46.1588 350.18 45.8649 350.075 45.6097C349.975 45.3545 349.829 45.154 349.638 45.0081C349.451 44.8577 349.23 44.7825 348.975 44.7825C348.719 44.7825 348.496 44.8532 348.305 44.9944C348.118 45.1312 347.972 45.3271 347.867 45.5823C347.762 45.8375 347.71 46.1406 347.71 46.4915C347.71 46.8333 347.76 47.1318 347.86 47.387C347.965 47.6422 348.113 47.8405 348.305 47.9818C348.496 48.123 348.719 48.1937 348.975 48.1937C349.23 48.1937 349.451 48.123 349.638 47.9818C349.829 47.8405 349.975 47.6422 350.075 47.387C350.18 47.1318 350.232 46.8333 350.232 46.4915ZM355.585 49.0823V50.1214H352.762V49.0823H355.585ZM357.8 52.7737H357.896C358.511 52.7737 359.005 52.6712 359.379 52.4661C359.753 52.261 360.033 51.9853 360.22 51.639C360.411 51.2926 360.539 50.903 360.603 50.47C360.671 50.0325 360.705 49.5836 360.705 49.1234V47.5989C360.705 47.1478 360.662 46.7467 360.575 46.3958C360.493 46.0449 360.382 45.751 360.24 45.514C360.104 45.277 359.946 45.097 359.769 44.9739C359.595 44.8509 359.418 44.7894 359.235 44.7894C359.003 44.7894 358.798 44.8486 358.62 44.9671C358.442 45.081 358.292 45.2428 358.169 45.4525C358.05 45.6621 357.959 45.9082 357.896 46.1907C357.832 46.4733 357.8 46.7809 357.8 47.1136C357.8 47.4098 357.827 47.6969 357.882 47.9749C357.937 48.2529 358.021 48.5036 358.135 48.7269C358.253 48.9502 358.399 49.1279 358.572 49.2601C358.75 49.3877 358.96 49.4515 359.201 49.4515C359.402 49.4515 359.595 49.3968 359.782 49.2874C359.974 49.1735 360.147 49.0208 360.302 48.8294C360.457 48.6334 360.584 48.4124 360.685 48.1663C360.785 47.9202 360.844 47.6627 360.862 47.3939H361.43C361.43 47.7721 361.368 48.1458 361.245 48.515C361.127 48.8795 360.956 49.2122 360.732 49.513C360.514 49.8138 360.256 50.0553 359.96 50.2376C359.668 50.4153 359.347 50.5042 358.996 50.5042C358.572 50.5042 358.21 50.4085 357.909 50.2171C357.608 50.0257 357.362 49.7705 357.171 49.4515C356.984 49.1325 356.845 48.777 356.754 48.3851C356.663 47.9886 356.617 47.5875 356.617 47.1819C356.617 46.708 356.672 46.2637 356.781 45.8489C356.891 45.4342 357.052 45.0696 357.267 44.7552C357.485 44.4362 357.759 44.1878 358.087 44.0101C358.415 43.8323 358.798 43.7435 359.235 43.7435C359.723 43.7435 360.138 43.8574 360.479 44.0853C360.821 44.3131 361.097 44.6185 361.307 45.0013C361.516 45.3841 361.669 45.8148 361.765 46.2933C361.86 46.7718 361.908 47.264 361.908 47.7698V48.2278C361.908 48.7428 361.883 49.2669 361.833 49.8001C361.787 50.3288 361.689 50.8346 361.539 51.3177C361.393 51.8008 361.174 52.2337 360.883 52.6165C360.591 52.9948 360.201 53.2956 359.714 53.5189C359.231 53.7376 358.625 53.847 357.896 53.847H357.807L357.8 52.7737ZM369.188 52.7943V53.8333H363.624V52.9241L366.365 49.2943C366.702 48.8476 366.96 48.4694 367.138 48.1595C367.315 47.845 367.438 47.5648 367.507 47.3187C367.575 47.068 367.609 46.8128 367.609 46.553C367.609 46.2249 367.557 45.9287 367.452 45.6644C367.347 45.3955 367.195 45.1813 366.994 45.0218C366.794 44.8623 366.552 44.7825 366.27 44.7825C365.9 44.7825 365.597 44.8691 365.36 45.0423C365.128 45.2109 364.957 45.4479 364.848 45.7532C364.738 46.0586 364.684 46.4095 364.684 46.806H363.474C363.474 46.2454 363.576 45.7327 363.781 45.2679C363.991 44.803 364.303 44.4339 364.718 44.1605C365.132 43.8825 365.65 43.7435 366.27 43.7435C366.803 43.7435 367.258 43.8551 367.637 44.0784C368.02 44.2972 368.311 44.6071 368.512 45.0081C368.717 45.4046 368.819 45.8694 368.819 46.4026C368.819 46.6943 368.778 46.9905 368.696 47.2913C368.619 47.5875 368.509 47.8838 368.368 48.18C368.231 48.4762 368.07 48.7679 367.883 49.055C367.696 49.3421 367.495 49.6247 367.281 49.9026L365.073 52.7943H369.188Z" fill="black"/>
<mask id="path-33-inside-10_1190_24109" fill="white">
<path d="M315.199 65H393.999V98.3333H315.199V65Z"/>
</mask>
<path d="M393.999 97.3333H315.199V99.3333H393.999V97.3333Z" fill="#C2C6C7" mask="url(#path-33-inside-10_1190_24109)"/>
<path d="M340.491 85.1071H340.587C341.202 85.1071 341.697 85.0046 342.07 84.7995C342.444 84.5944 342.724 84.3187 342.911 83.9724C343.103 83.626 343.23 83.2363 343.294 82.8034C343.362 82.3659 343.396 81.917 343.396 81.4567V79.9323C343.396 79.4811 343.353 79.0801 343.267 78.7292C343.185 78.3783 343.073 78.0843 342.932 77.8474C342.795 77.6104 342.638 77.4304 342.46 77.3073C342.287 77.1843 342.109 77.1227 341.927 77.1227C341.694 77.1227 341.489 77.182 341.312 77.3005C341.134 77.4144 340.983 77.5762 340.86 77.7858C340.742 77.9955 340.651 78.2416 340.587 78.5241C340.523 78.8067 340.491 79.1143 340.491 79.447C340.491 79.7432 340.519 80.0303 340.573 80.3083C340.628 80.5863 340.712 80.8369 340.826 81.0602C340.945 81.2835 341.09 81.4613 341.264 81.5934C341.441 81.721 341.651 81.7849 341.893 81.7849C342.093 81.7849 342.287 81.7302 342.474 81.6208C342.665 81.5069 342.838 81.3542 342.993 81.1628C343.148 80.9668 343.276 80.7458 343.376 80.4997C343.476 80.2536 343.535 79.9961 343.554 79.7272H344.121C344.121 80.1055 344.06 80.4792 343.937 80.8483C343.818 81.2129 343.647 81.5456 343.424 81.8464C343.205 82.1472 342.948 82.3887 342.651 82.571C342.36 82.7487 342.038 82.8376 341.688 82.8376C341.264 82.8376 340.901 82.7419 340.601 82.5505C340.3 82.3591 340.054 82.1039 339.862 81.7849C339.675 81.4658 339.536 81.1104 339.445 80.7184C339.354 80.322 339.309 79.9209 339.309 79.5153C339.309 79.0414 339.363 78.597 339.473 78.1823C339.582 77.7676 339.744 77.403 339.958 77.0886C340.177 76.7696 340.45 76.5212 340.778 76.3434C341.106 76.1657 341.489 76.0768 341.927 76.0768C342.414 76.0768 342.829 76.1908 343.171 76.4186C343.513 76.6465 343.788 76.9518 343.998 77.3347C344.208 77.7175 344.36 78.1481 344.456 78.6266C344.552 79.1052 344.6 79.5974 344.6 80.1032V80.5612C344.6 81.0762 344.575 81.6003 344.524 82.1335C344.479 82.6621 344.381 83.168 344.23 83.6511C344.085 84.1341 343.866 84.5671 343.574 84.9499C343.283 85.3281 342.893 85.6289 342.405 85.8522C341.922 86.071 341.316 86.1804 340.587 86.1804H340.498L340.491 85.1071ZM351.88 85.1276V86.1667H346.315V85.2575L349.057 81.6276C349.394 81.181 349.651 80.8028 349.829 80.4929C350.007 80.1784 350.13 79.8981 350.198 79.652C350.267 79.4014 350.301 79.1462 350.301 78.8864C350.301 78.5583 350.248 78.2621 350.144 77.9977C350.039 77.7289 349.886 77.5147 349.686 77.3552C349.485 77.1957 349.243 77.1159 348.961 77.1159C348.592 77.1159 348.289 77.2025 348.052 77.3757C347.819 77.5443 347.648 77.7813 347.539 78.0866C347.43 78.3919 347.375 78.7429 347.375 79.1393H346.165C346.165 78.5788 346.268 78.0661 346.473 77.6013C346.682 77.1364 346.994 76.7673 347.409 76.4938C347.824 76.2158 348.341 76.0768 348.961 76.0768C349.494 76.0768 349.95 76.1885 350.328 76.4118C350.711 76.6306 351.003 76.9405 351.203 77.3415C351.408 77.738 351.511 78.2028 351.511 78.736C351.511 79.0277 351.47 79.3239 351.388 79.6247C351.31 79.9209 351.201 80.2171 351.06 80.5134C350.923 80.8096 350.761 81.1013 350.574 81.3884C350.387 81.6755 350.187 81.958 349.973 82.236L347.765 85.1276H351.88ZM355.585 81.4157V82.4548H352.762V81.4157H355.585ZM357.8 85.1071H357.896C358.511 85.1071 359.005 85.0046 359.379 84.7995C359.753 84.5944 360.033 84.3187 360.22 83.9724C360.411 83.626 360.539 83.2363 360.603 82.8034C360.671 82.3659 360.705 81.917 360.705 81.4567V79.9323C360.705 79.4811 360.662 79.0801 360.575 78.7292C360.493 78.3783 360.382 78.0843 360.24 77.8474C360.104 77.6104 359.946 77.4304 359.769 77.3073C359.595 77.1843 359.418 77.1227 359.235 77.1227C359.003 77.1227 358.798 77.182 358.62 77.3005C358.442 77.4144 358.292 77.5762 358.169 77.7858C358.05 77.9955 357.959 78.2416 357.896 78.5241C357.832 78.8067 357.8 79.1143 357.8 79.447C357.8 79.7432 357.827 80.0303 357.882 80.3083C357.937 80.5863 358.021 80.8369 358.135 81.0602C358.253 81.2835 358.399 81.4613 358.572 81.5934C358.75 81.721 358.96 81.7849 359.201 81.7849C359.402 81.7849 359.595 81.7302 359.782 81.6208C359.974 81.5069 360.147 81.3542 360.302 81.1628C360.457 80.9668 360.584 80.7458 360.685 80.4997C360.785 80.2536 360.844 79.9961 360.862 79.7272H361.43C361.43 80.1055 361.368 80.4792 361.245 80.8483C361.127 81.2129 360.956 81.5456 360.732 81.8464C360.514 82.1472 360.256 82.3887 359.96 82.571C359.668 82.7487 359.347 82.8376 358.996 82.8376C358.572 82.8376 358.21 82.7419 357.909 82.5505C357.608 82.3591 357.362 82.1039 357.171 81.7849C356.984 81.4658 356.845 81.1104 356.754 80.7184C356.663 80.322 356.617 79.9209 356.617 79.5153C356.617 79.0414 356.672 78.597 356.781 78.1823C356.891 77.7676 357.052 77.403 357.267 77.0886C357.485 76.7696 357.759 76.5212 358.087 76.3434C358.415 76.1657 358.798 76.0768 359.235 76.0768C359.723 76.0768 360.138 76.1908 360.479 76.4186C360.821 76.6465 361.097 76.9518 361.307 77.3347C361.516 77.7175 361.669 78.1481 361.765 78.6266C361.86 79.1052 361.908 79.5974 361.908 80.1032V80.5612C361.908 81.0762 361.883 81.6003 361.833 82.1335C361.787 82.6621 361.689 83.168 361.539 83.6511C361.393 84.1341 361.174 84.5671 360.883 84.9499C360.591 85.3281 360.201 85.6289 359.714 85.8522C359.231 86.071 358.625 86.1804 357.896 86.1804H357.807L357.8 85.1071ZM367.746 76.1999H367.835V77.2731H367.746C367.172 77.2731 366.7 77.3825 366.331 77.6013C365.966 77.8155 365.682 78.1048 365.477 78.4694C365.276 78.8294 365.137 79.235 365.06 79.6862C364.982 80.1374 364.943 80.5954 364.943 81.0602V82.5231C364.943 82.9652 364.984 83.3571 365.066 83.6989C365.153 84.0362 365.265 84.321 365.401 84.5534C365.543 84.7858 365.7 84.9613 365.873 85.0798C366.051 85.1983 366.231 85.2575 366.413 85.2575C366.646 85.2575 366.851 85.2028 367.028 85.0934C367.211 84.9795 367.361 84.8223 367.479 84.6218C367.603 84.4167 367.696 84.1752 367.76 83.8972C367.824 83.6192 367.855 83.3138 367.855 82.9811C367.855 82.6849 367.826 82.4001 367.767 82.1266C367.712 81.8487 367.628 81.6026 367.514 81.3884C367.4 81.1696 367.254 80.9987 367.076 80.8757C366.903 80.7481 366.696 80.6843 366.454 80.6843C366.181 80.6843 365.925 80.7709 365.688 80.944C365.456 81.1127 365.265 81.336 365.114 81.614C364.964 81.8874 364.875 82.1859 364.848 82.5095L364.226 82.5026C364.289 81.9922 364.396 81.557 364.547 81.197C364.697 80.8324 364.88 80.5362 365.094 80.3083C365.312 80.0759 365.554 79.9072 365.818 79.8024C366.083 79.6931 366.361 79.6384 366.652 79.6384C367.076 79.6384 367.438 79.7318 367.739 79.9186C368.045 80.1055 368.293 80.3561 368.484 80.6706C368.68 80.9805 368.824 81.3314 368.915 81.7233C369.006 82.1107 369.052 82.5095 369.052 82.9196C369.052 83.389 368.995 83.8288 368.881 84.239C368.771 84.6491 368.607 85.0091 368.389 85.319C368.17 85.6289 367.894 85.8705 367.562 86.0436C367.233 86.2168 366.851 86.3034 366.413 86.3034C365.948 86.3034 365.547 86.194 365.21 85.9753C364.873 85.752 364.592 85.4557 364.369 85.0866C364.15 84.7175 363.989 84.3073 363.884 83.8561C363.779 83.405 363.727 82.947 363.727 82.4821V81.8874C363.727 81.1856 363.777 80.4974 363.877 79.8229C363.977 79.1485 364.166 78.5378 364.444 77.9909C364.727 77.444 365.132 77.0088 365.661 76.6852C366.194 76.3617 366.889 76.1999 367.746 76.1999Z" fill="black"/>
</svg>
