<svg width="394" height="196" viewBox="0 0 394 196" fill="none" xmlns="http://www.w3.org/2000/svg">
<rect width="131.333" height="33.3333" transform="translate(0 0.666992)" fill="#C2C6C7"/>
<path d="M45.9131 17.9304H43.7393V16.8572H45.9131C46.3232 16.8572 46.6536 16.7751 46.9043 16.6111C47.1595 16.447 47.3441 16.2192 47.458 15.9275C47.5765 15.6358 47.6357 15.3031 47.6357 14.9294C47.6357 14.5876 47.5765 14.2664 47.458 13.9656C47.3441 13.6648 47.1595 13.4233 46.9043 13.241C46.6536 13.0541 46.3232 12.9607 45.9131 12.9607H43.999V21.8337H42.7412V11.8806H45.9131C46.5557 11.8806 47.098 12.0105 47.54 12.2703C47.9821 12.53 48.3171 12.8901 48.5449 13.3503C48.7773 13.8061 48.8936 14.3279 48.8936 14.9158C48.8936 15.5538 48.7773 16.0984 48.5449 16.5496C48.3171 17.0007 47.9821 17.3448 47.54 17.5818C47.098 17.8142 46.5557 17.9304 45.9131 17.9304ZM52.79 12.7625L50.0693 21.8337H48.7842L51.9902 11.8806H52.7969L52.79 12.7625ZM54.9912 21.8337L52.2705 12.7625L52.2568 11.8806H53.0703L56.2764 21.8337H54.9912ZM54.9912 18.1492V19.2292H50.1924V18.1492H54.9912ZM60.248 17.0554H59.2773V16.2146H60.207C60.5944 16.2146 60.9066 16.144 61.1436 16.0027C61.3805 15.8614 61.5537 15.6654 61.6631 15.4148C61.7725 15.1641 61.8271 14.8748 61.8271 14.5466C61.8271 14.2322 61.7656 13.9451 61.6426 13.6853C61.5241 13.421 61.3395 13.2113 61.0889 13.0564C60.8382 12.8969 60.5124 12.8171 60.1113 12.8171C59.8151 12.8171 59.5462 12.8901 59.3047 13.0359C59.0632 13.1772 58.8717 13.3754 58.7305 13.6306C58.5938 13.8813 58.5254 14.1707 58.5254 14.4988H57.2676C57.2676 14.075 57.3405 13.6944 57.4863 13.3572C57.6367 13.0154 57.8418 12.726 58.1016 12.489C58.3659 12.2475 58.6689 12.0629 59.0107 11.9353C59.3571 11.8077 59.724 11.7439 60.1113 11.7439C60.5625 11.7439 60.9704 11.8054 61.335 11.9285C61.6995 12.047 62.0117 12.2247 62.2715 12.4617C62.5358 12.6986 62.7363 12.9926 62.873 13.3435C63.0143 13.6944 63.085 14.1023 63.085 14.5671C63.085 14.9089 63.0166 15.2302 62.8799 15.531C62.7477 15.8318 62.554 16.0961 62.2988 16.324C62.0482 16.5518 61.7497 16.7319 61.4033 16.864C61.057 16.9916 60.6719 17.0554 60.248 17.0554ZM59.2773 16.4744H60.248C60.7129 16.4744 61.1276 16.5313 61.4922 16.6453C61.8613 16.7592 62.1735 16.9255 62.4287 17.1443C62.6839 17.363 62.8776 17.6342 63.0098 17.9578C63.1465 18.2768 63.2148 18.6436 63.2148 19.0583C63.2148 19.5232 63.1374 19.9356 62.9824 20.2957C62.832 20.6557 62.6178 20.961 62.3398 21.2117C62.0618 21.4623 61.7337 21.6514 61.3555 21.7791C60.9772 21.9067 60.5625 21.9705 60.1113 21.9705C59.7467 21.9705 59.389 21.9158 59.0381 21.8064C58.6872 21.6925 58.3682 21.5193 58.0811 21.2869C57.7985 21.0499 57.5706 20.7491 57.3975 20.3845C57.2288 20.0199 57.1445 19.5824 57.1445 19.072H58.4023C58.4023 19.4047 58.473 19.71 58.6143 19.988C58.7601 20.266 58.9606 20.4893 59.2158 20.658C59.471 20.822 59.7695 20.9041 60.1113 20.9041C60.5033 20.9041 60.8359 20.8266 61.1094 20.6716C61.3874 20.5121 61.597 20.2957 61.7383 20.0222C61.8841 19.7442 61.957 19.432 61.957 19.0857C61.957 18.7804 61.9183 18.516 61.8408 18.2927C61.7679 18.0649 61.6562 17.878 61.5059 17.7322C61.36 17.5863 61.1777 17.4792 60.959 17.4109C60.7448 17.338 60.4941 17.3015 60.207 17.3015H59.2773V16.4744ZM65.2861 11.8806H66.5029L69.1074 19.9949L71.7051 11.8806H72.9219L69.5791 21.8337H68.6221L65.2861 11.8806ZM64.8896 11.8806H65.9561L66.1406 17.9509V21.8337H64.8896V11.8806ZM72.2451 11.8806H73.3115V21.8337H72.0605V17.9509L72.2451 11.8806ZM80.8242 20.7605V21.8337H76.5039V20.7605H80.8242ZM76.7295 11.8806V21.8337H75.4717V11.8806H76.7295ZM80.2432 16.1599V17.2332H76.5039V16.1599H80.2432ZM80.7559 11.8806V12.9607H76.5039V11.8806H80.7559ZM85.6025 17.9304H83.4287V16.8572H85.6025C86.0127 16.8572 86.3431 16.7751 86.5938 16.6111C86.849 16.447 87.0335 16.2192 87.1475 15.9275C87.266 15.6358 87.3252 15.3031 87.3252 14.9294C87.3252 14.5876 87.266 14.2664 87.1475 13.9656C87.0335 13.6648 86.849 13.4233 86.5938 13.241C86.3431 13.0541 86.0127 12.9607 85.6025 12.9607H83.6885V21.8337H82.4307V11.8806H85.6025C86.2451 11.8806 86.7874 12.0105 87.2295 12.2703C87.6715 12.53 88.0065 12.8901 88.2344 13.3503C88.4668 13.8061 88.583 14.3279 88.583 14.9158C88.583 15.5538 88.4668 16.0984 88.2344 16.5496C88.0065 17.0007 87.6715 17.3448 87.2295 17.5818C86.7874 17.8142 86.2451 17.9304 85.6025 17.9304Z" fill="#111810"/>
<mask id="path-2-inside-1_1190_23686" fill="white">
<path d="M0 33.0002H131.333V66.3336H0V33.0002Z"/>
</mask>
<path d="M131.333 65.3336H0V67.3336H131.333V65.3336Z" fill="#C2C6C7" mask="url(#path-2-inside-1_1190_23686)"/>
<path d="M64.4307 49.4297L63.4668 49.1699L63.8906 44.2139H68.2246V45.3828H64.9092L64.6768 48.0898C64.8317 47.985 65.0186 47.887 65.2373 47.7959C65.4561 47.7048 65.7113 47.6592 66.0029 47.6592C66.3949 47.6592 66.7435 47.7389 67.0488 47.8984C67.3587 48.0534 67.6208 48.2767 67.835 48.5684C68.0492 48.86 68.2132 49.2109 68.3271 49.6211C68.4411 50.0312 68.498 50.4893 68.498 50.9951C68.498 51.4736 68.4411 51.9134 68.3271 52.3145C68.2178 52.7155 68.0492 53.0664 67.8213 53.3672C67.598 53.6634 67.3154 53.8936 66.9736 54.0576C66.6364 54.2217 66.2422 54.3037 65.791 54.3037C65.4538 54.3037 65.1348 54.249 64.834 54.1396C64.5332 54.0257 64.262 53.8548 64.0205 53.627C63.7835 53.3945 63.5898 53.1074 63.4395 52.7656C63.2891 52.4193 63.1956 52.0137 63.1592 51.5488H64.3008C64.3464 51.9225 64.4329 52.237 64.5605 52.4922C64.6927 52.7474 64.8613 52.9411 65.0664 53.0732C65.276 53.2008 65.5176 53.2646 65.791 53.2646C66.0234 53.2646 66.2331 53.2122 66.4199 53.1074C66.6068 53.0026 66.764 52.8522 66.8916 52.6562C67.0192 52.4603 67.1172 52.2233 67.1855 51.9453C67.2539 51.6673 67.2881 51.3551 67.2881 51.0088C67.2881 50.6943 67.2539 50.4027 67.1855 50.1338C67.1172 49.8649 67.0146 49.6302 66.8779 49.4297C66.7412 49.2292 66.5749 49.0742 66.3789 48.9648C66.1875 48.8509 65.9642 48.7939 65.709 48.7939C65.3672 48.7939 65.1143 48.8509 64.9502 48.9648C64.7907 49.0788 64.6175 49.2337 64.4307 49.4297Z" fill="black"/>
<mask id="path-5-inside-2_1190_23686" fill="white">
<path d="M0 65.3337H131.333V98.6671H0V65.3337Z"/>
</mask>
<path d="M131.333 97.6671H0V99.6671H131.333V97.6671Z" fill="#C2C6C7" mask="url(#path-5-inside-2_1190_23686)"/>
<path d="M67.0898 76.5337H67.1787V77.6069H67.0898C66.5156 77.6069 66.0439 77.7163 65.6748 77.9351C65.3102 78.1493 65.0254 78.4386 64.8203 78.8032C64.6198 79.1632 64.4808 79.5688 64.4033 80.02C64.3258 80.4712 64.2871 80.9292 64.2871 81.394V82.8569C64.2871 83.299 64.3281 83.6909 64.4102 84.0327C64.4967 84.37 64.6084 84.6548 64.7451 84.8872C64.8864 85.1196 65.0436 85.2951 65.2168 85.4136C65.3945 85.5321 65.5745 85.5913 65.7568 85.5913C65.9893 85.5913 66.1943 85.5366 66.3721 85.4272C66.5544 85.3133 66.7048 85.1561 66.8232 84.9556C66.9463 84.7505 67.0397 84.509 67.1035 84.231C67.1673 83.953 67.1992 83.6476 67.1992 83.3149C67.1992 83.0187 67.1696 82.7339 67.1104 82.4604C67.0557 82.1825 66.9714 81.9364 66.8574 81.7222C66.7435 81.5034 66.5977 81.3325 66.4199 81.2095C66.2467 81.0819 66.0394 81.0181 65.7979 81.0181C65.5244 81.0181 65.2692 81.1047 65.0322 81.2778C64.7998 81.4465 64.6084 81.6698 64.458 81.9478C64.3076 82.2212 64.2188 82.5197 64.1914 82.8433L63.5693 82.8364C63.6331 82.326 63.7402 81.8908 63.8906 81.5308C64.041 81.1662 64.2233 80.87 64.4375 80.6421C64.6562 80.4097 64.8978 80.241 65.1621 80.1362C65.4264 80.0269 65.7044 79.9722 65.9961 79.9722C66.4199 79.9722 66.7822 80.0656 67.083 80.2524C67.3883 80.4393 67.6367 80.6899 67.8281 81.0044C68.0241 81.3143 68.1676 81.6652 68.2588 82.0571C68.3499 82.4445 68.3955 82.8433 68.3955 83.2534C68.3955 83.7228 68.3385 84.1626 68.2246 84.5728C68.1152 84.9829 67.9512 85.3429 67.7324 85.6528C67.5137 85.9627 67.238 86.2043 66.9053 86.3774C66.5771 86.5506 66.1943 86.6372 65.7568 86.6372C65.292 86.6372 64.891 86.5278 64.5537 86.3091C64.2165 86.0858 63.9362 85.7896 63.7129 85.4204C63.4941 85.0513 63.3324 84.6411 63.2275 84.1899C63.1227 83.7388 63.0703 83.2808 63.0703 82.8159V82.2212C63.0703 81.5194 63.1204 80.8312 63.2207 80.1567C63.321 79.4823 63.5101 78.8716 63.7881 78.3247C64.0706 77.7778 64.4762 77.3426 65.0049 77.019C65.5381 76.6955 66.2331 76.5337 67.0898 76.5337Z" fill="black"/>
<mask id="path-8-inside-3_1190_23686" fill="white">
<path d="M0 97.667H131.333V131H0V97.667Z"/>
</mask>
<path d="M131.333 130H0V132H131.333V130Z" fill="#C2C6C7" mask="url(#path-8-inside-3_1190_23686)"/>
<path d="M68.4639 108.881V109.592L65.0391 118.834H63.7676L67.1924 109.92H62.7559V108.881H68.4639Z" fill="black"/>
<mask id="path-11-inside-4_1190_23686" fill="white">
<path d="M0 130H131.333V163.334H0V130Z"/>
</mask>
<path d="M131.333 162.334H0V164.334H131.333V162.334Z" fill="#C2C6C7" mask="url(#path-11-inside-4_1190_23686)"/>
<path d="M68.2793 148.474C68.2793 149.08 68.1631 149.595 67.9307 150.019C67.6982 150.438 67.3815 150.757 66.9805 150.976C66.5794 151.194 66.126 151.304 65.6201 151.304C65.1188 151.304 64.6676 151.194 64.2666 150.976C63.8656 150.757 63.5488 150.438 63.3164 150.019C63.084 149.595 62.9678 149.08 62.9678 148.474C62.9678 148.077 63.0316 147.715 63.1592 147.387C63.2868 147.054 63.4668 146.765 63.6992 146.519C63.9362 146.272 64.2165 146.083 64.54 145.951C64.8636 145.814 65.2214 145.746 65.6133 145.746C66.1283 145.746 66.5863 145.865 66.9873 146.102C67.3883 146.334 67.7028 146.655 67.9307 147.065C68.1631 147.476 68.2793 147.945 68.2793 148.474ZM67.0762 148.446C67.0762 148.077 67.0146 147.751 66.8916 147.469C66.7731 147.182 66.6045 146.958 66.3857 146.799C66.167 146.639 65.9095 146.56 65.6133 146.56C65.3125 146.56 65.055 146.639 64.8408 146.799C64.6266 146.958 64.4603 147.182 64.3418 147.469C64.2279 147.751 64.1709 148.077 64.1709 148.446C64.1709 148.829 64.2279 149.157 64.3418 149.431C64.4557 149.7 64.6198 149.907 64.834 150.053C65.0527 150.194 65.3171 150.265 65.627 150.265C65.9323 150.265 66.1921 150.194 66.4062 150.053C66.625 149.907 66.7913 149.7 66.9053 149.431C67.0192 149.157 67.0762 148.829 67.0762 148.446ZM68.0947 143.805C68.0947 144.288 67.9876 144.723 67.7734 145.11C67.5592 145.498 67.2653 145.803 66.8916 146.026C66.5225 146.25 66.1009 146.361 65.627 146.361C65.1439 146.361 64.7155 146.25 64.3418 146.026C63.9681 145.803 63.6764 145.498 63.4668 145.11C63.2572 144.723 63.1523 144.288 63.1523 143.805C63.1523 143.226 63.2572 142.734 63.4668 142.328C63.681 141.923 63.9749 141.613 64.3486 141.398C64.7223 141.184 65.1484 141.077 65.627 141.077C66.11 141.077 66.5361 141.184 66.9053 141.398C67.2744 141.613 67.5638 141.923 67.7734 142.328C67.9876 142.734 68.0947 143.226 68.0947 143.805ZM66.8848 143.825C66.8848 143.493 66.8324 143.199 66.7275 142.943C66.6273 142.688 66.4814 142.488 66.29 142.342C66.1032 142.191 65.8822 142.116 65.627 142.116C65.3717 142.116 65.1484 142.187 64.957 142.328C64.7702 142.465 64.6243 142.661 64.5195 142.916C64.4147 143.171 64.3623 143.474 64.3623 143.825C64.3623 144.167 64.4124 144.465 64.5127 144.721C64.6175 144.976 64.7656 145.174 64.957 145.315C65.1484 145.457 65.3717 145.527 65.627 145.527C65.8822 145.527 66.1032 145.457 66.29 145.315C66.4814 145.174 66.6273 144.976 66.7275 144.721C66.8324 144.465 66.8848 144.167 66.8848 143.825Z" fill="black"/>
<mask id="path-14-inside-5_1190_23686" fill="white">
<path d="M0 162.334H131.333V195.667H0V162.334Z"/>
</mask>
<path d="M131.333 194.667H0V196.667H131.333V194.667Z" fill="#C2C6C7" mask="url(#path-14-inside-5_1190_23686)"/>
<path d="M64.0615 182.441H64.1572C64.7725 182.441 65.2669 182.338 65.6406 182.133C66.0143 181.928 66.2946 181.653 66.4814 181.306C66.6729 180.96 66.8005 180.57 66.8643 180.137C66.9326 179.7 66.9668 179.251 66.9668 178.791V177.266C66.9668 176.815 66.9235 176.414 66.8369 176.063C66.7549 175.712 66.6432 175.418 66.502 175.181C66.3652 174.944 66.208 174.764 66.0303 174.641C65.8571 174.518 65.6794 174.457 65.4971 174.457C65.2646 174.457 65.0596 174.516 64.8818 174.634C64.7041 174.748 64.5537 174.91 64.4307 175.12C64.3122 175.329 64.221 175.575 64.1572 175.858C64.0934 176.14 64.0615 176.448 64.0615 176.781C64.0615 177.077 64.0889 177.364 64.1436 177.642C64.1982 177.92 64.2826 178.171 64.3965 178.394C64.515 178.617 64.6608 178.795 64.834 178.927C65.0117 179.055 65.2214 179.119 65.4629 179.119C65.6634 179.119 65.8571 179.064 66.0439 178.955C66.2354 178.841 66.4085 178.688 66.5635 178.497C66.7184 178.301 66.846 178.08 66.9463 177.833C67.0465 177.587 67.1058 177.33 67.124 177.061H67.6914C67.6914 177.439 67.6299 177.813 67.5068 178.182C67.3883 178.547 67.2174 178.879 66.9941 179.18C66.7754 179.481 66.5179 179.722 66.2217 179.905C65.93 180.083 65.6087 180.171 65.2578 180.171C64.834 180.171 64.4717 180.076 64.1709 179.884C63.8701 179.693 63.624 179.438 63.4326 179.119C63.2458 178.8 63.1068 178.444 63.0156 178.052C62.9245 177.656 62.8789 177.255 62.8789 176.849C62.8789 176.375 62.9336 175.931 63.043 175.516C63.1523 175.101 63.3141 174.737 63.5283 174.422C63.7471 174.103 64.0205 173.855 64.3486 173.677C64.6768 173.5 65.0596 173.411 65.4971 173.411C65.9847 173.411 66.3994 173.525 66.7412 173.752C67.083 173.98 67.3587 174.286 67.5684 174.668C67.778 175.051 67.9307 175.482 68.0264 175.96C68.1221 176.439 68.1699 176.931 68.1699 177.437V177.895C68.1699 178.41 68.1449 178.934 68.0947 179.467C68.0492 179.996 67.9512 180.502 67.8008 180.985C67.6549 181.468 67.4362 181.901 67.1445 182.284C66.8529 182.662 66.4632 182.963 65.9756 183.186C65.4925 183.405 64.8864 183.514 64.1572 183.514H64.0684L64.0615 182.441Z" fill="black"/>
<rect width="131.333" height="33.3333" transform="translate(131.332 0.666992)" fill="#C2C6C7"/>
<path d="M175.19 20.7605V21.8337H168.949V20.7605H175.19ZM169.141 20.7605V24.281H167.89L167.883 20.7605H169.141ZM176.284 20.7605L176.271 24.2742H175.026V20.7605H176.284ZM174.015 11.8806V12.9607H170.405V11.8806H174.015ZM175.115 11.8806V21.8337H173.857V11.8806H175.115ZM169.975 11.8806H171.232L171.055 15.8865C171.032 16.488 170.986 17.044 170.918 17.5544C170.85 18.0603 170.761 18.5229 170.651 18.9421C170.547 19.3614 170.426 19.7374 170.289 20.0701C170.152 20.3982 170.004 20.683 169.845 20.9246C169.685 21.1615 169.517 21.3575 169.339 21.5125C169.161 21.6628 168.979 21.7699 168.792 21.8337H168.266V20.7605H168.614C168.715 20.6329 168.824 20.4483 168.942 20.2068C169.065 19.9653 169.184 19.6531 169.298 19.2703C169.416 18.8829 169.519 18.4112 169.605 17.8552C169.697 17.2992 169.758 16.643 169.79 15.8865L169.975 11.8806ZM179.128 19.5505L183.004 11.8806H184.262V21.8337H183.004V14.157L179.128 21.8337H177.877V11.8806H179.128V19.5505ZM189.847 12.7625L187.126 21.8337H185.841L189.047 11.8806H189.854L189.847 12.7625ZM192.048 21.8337L189.327 12.7625L189.313 11.8806H190.127L193.333 21.8337H192.048ZM192.048 18.1492V19.2292H187.249V18.1492H192.048ZM195.097 11.8806H196.313L198.918 19.9949L201.516 11.8806H202.732L199.39 21.8337H198.433L195.097 11.8806ZM194.7 11.8806H195.767L195.951 17.9509V21.8337H194.7V11.8806ZM202.056 11.8806H203.122V21.8337H201.871V17.9509L202.056 11.8806ZM210.635 20.7605V21.8337H206.314V20.7605H210.635ZM206.54 11.8806V21.8337H205.282V11.8806H206.54ZM210.054 16.1599V17.2332H206.314V16.1599H210.054ZM210.566 11.8806V12.9607H206.314V11.8806H210.566ZM215.577 11.8806V21.8337H214.333V11.8806H215.577ZM218.195 11.8806V12.9607H211.722V11.8806H218.195ZM222.837 17.9304H220.663V16.8572H222.837C223.247 16.8572 223.577 16.7751 223.828 16.6111C224.083 16.447 224.268 16.2192 224.382 15.9275C224.5 15.6358 224.56 15.3031 224.56 14.9294C224.56 14.5876 224.5 14.2664 224.382 13.9656C224.268 13.6648 224.083 13.4233 223.828 13.241C223.577 13.0541 223.247 12.9607 222.837 12.9607H220.923V21.8337H219.665V11.8806H222.837C223.479 11.8806 224.022 12.0105 224.464 12.2703C224.906 12.53 225.241 12.8901 225.469 13.3503C225.701 13.8061 225.817 14.3279 225.817 14.9158C225.817 15.5538 225.701 16.0984 225.469 16.5496C225.241 17.0007 224.906 17.3448 224.464 17.5818C224.022 17.8142 223.479 17.9304 222.837 17.9304Z" fill="#111810"/>
<mask id="path-18-inside-6_1190_23686" fill="white">
<path d="M131.332 33.0002H262.665V66.3336H131.332V33.0002Z"/>
</mask>
<path d="M262.665 65.3336H131.332V67.3336H262.665V65.3336Z" fill="#C2C6C7" mask="url(#path-18-inside-6_1190_23686)"/>
<path d="M188.902 44.1592V54.167H187.692V45.7383L185.601 46.668V45.5264L188.718 44.1592H188.902ZM193.681 49.4297L192.717 49.1699L193.141 44.2139H197.475V45.3828H194.159L193.927 48.0898C194.082 47.985 194.269 47.887 194.487 47.7959C194.706 47.7048 194.961 47.6592 195.253 47.6592C195.645 47.6592 195.993 47.7389 196.299 47.8984C196.609 48.0534 196.871 48.2767 197.085 48.5684C197.299 48.86 197.463 49.2109 197.577 49.6211C197.691 50.0312 197.748 50.4893 197.748 50.9951C197.748 51.4736 197.691 51.9134 197.577 52.3145C197.468 52.7155 197.299 53.0664 197.071 53.3672C196.848 53.6634 196.565 53.8936 196.224 54.0576C195.886 54.2217 195.492 54.3037 195.041 54.3037C194.704 54.3037 194.385 54.249 194.084 54.1396C193.783 54.0257 193.512 53.8548 193.271 53.627C193.034 53.3945 192.84 53.1074 192.689 52.7656C192.539 52.4193 192.446 52.0137 192.409 51.5488H193.551C193.596 51.9225 193.683 52.237 193.811 52.4922C193.943 52.7474 194.111 52.9411 194.316 53.0732C194.526 53.2008 194.768 53.2646 195.041 53.2646C195.273 53.2646 195.483 53.2122 195.67 53.1074C195.857 53.0026 196.014 52.8522 196.142 52.6562C196.269 52.4603 196.367 52.2233 196.436 51.9453C196.504 51.6673 196.538 51.3551 196.538 51.0088C196.538 50.6943 196.504 50.4027 196.436 50.1338C196.367 49.8649 196.265 49.6302 196.128 49.4297C195.991 49.2292 195.825 49.0742 195.629 48.9648C195.438 48.8509 195.214 48.7939 194.959 48.7939C194.617 48.7939 194.364 48.8509 194.2 48.9648C194.041 49.0788 193.868 49.2337 193.681 49.4297ZM199.32 53.4971C199.32 53.2829 199.386 53.1029 199.519 52.957C199.655 52.8066 199.851 52.7314 200.106 52.7314C200.362 52.7314 200.555 52.8066 200.688 52.957C200.824 53.1029 200.893 53.2829 200.893 53.4971C200.893 53.7067 200.824 53.8844 200.688 54.0303C200.555 54.1761 200.362 54.249 200.106 54.249C199.851 54.249 199.655 54.1761 199.519 54.0303C199.386 53.8844 199.32 53.7067 199.32 53.4971ZM208.323 44.2139V44.9248L204.898 54.167H203.627L207.052 45.2529H202.615V44.2139H208.323Z" fill="black"/>
<mask id="path-21-inside-7_1190_23686" fill="white">
<path d="M131.332 65.3337H262.665V98.6671H131.332V65.3337Z"/>
</mask>
<path d="M262.665 97.6671H131.332V99.6671H262.665V97.6671Z" fill="#C2C6C7" mask="url(#path-21-inside-7_1190_23686)"/>
<path d="M188.902 76.4927V86.5005H187.692V78.0718L185.601 79.0015V77.8599L188.718 76.4927H188.902ZM196.34 76.5337H196.429V77.6069H196.34C195.766 77.6069 195.294 77.7163 194.925 77.9351C194.56 78.1493 194.275 78.4386 194.07 78.8032C193.87 79.1632 193.731 79.5688 193.653 80.02C193.576 80.4712 193.537 80.9292 193.537 81.394V82.8569C193.537 83.299 193.578 83.6909 193.66 84.0327C193.747 84.37 193.858 84.6548 193.995 84.8872C194.136 85.1196 194.294 85.2951 194.467 85.4136C194.645 85.5321 194.825 85.5913 195.007 85.5913C195.239 85.5913 195.444 85.5366 195.622 85.4272C195.804 85.3133 195.955 85.1561 196.073 84.9556C196.196 84.7505 196.29 84.509 196.354 84.231C196.417 83.953 196.449 83.6476 196.449 83.3149C196.449 83.0187 196.42 82.7339 196.36 82.4604C196.306 82.1825 196.221 81.9364 196.107 81.7222C195.993 81.5034 195.848 81.3325 195.67 81.2095C195.497 81.0819 195.289 81.0181 195.048 81.0181C194.774 81.0181 194.519 81.1047 194.282 81.2778C194.05 81.4465 193.858 81.6698 193.708 81.9478C193.558 82.2212 193.469 82.5197 193.441 82.8433L192.819 82.8364C192.883 82.326 192.99 81.8908 193.141 81.5308C193.291 81.1662 193.473 80.87 193.688 80.6421C193.906 80.4097 194.148 80.241 194.412 80.1362C194.676 80.0269 194.954 79.9722 195.246 79.9722C195.67 79.9722 196.032 80.0656 196.333 80.2524C196.638 80.4393 196.887 80.6899 197.078 81.0044C197.274 81.3143 197.418 81.6652 197.509 82.0571C197.6 82.4445 197.646 82.8433 197.646 83.2534C197.646 83.7228 197.589 84.1626 197.475 84.5728C197.365 84.9829 197.201 85.3429 196.982 85.6528C196.764 85.9627 196.488 86.2043 196.155 86.3774C195.827 86.5506 195.444 86.6372 195.007 86.6372C194.542 86.6372 194.141 86.5278 193.804 86.3091C193.466 86.0858 193.186 85.7896 192.963 85.4204C192.744 85.0513 192.582 84.6411 192.478 84.1899C192.373 83.7388 192.32 83.2808 192.32 82.8159V82.2212C192.32 81.5194 192.37 80.8312 192.471 80.1567C192.571 79.4823 192.76 78.8716 193.038 78.3247C193.321 77.7778 193.726 77.3426 194.255 77.019C194.788 76.6955 195.483 76.5337 196.34 76.5337ZM199.32 85.8306C199.32 85.6164 199.386 85.4364 199.519 85.2905C199.655 85.1401 199.851 85.0649 200.106 85.0649C200.362 85.0649 200.555 85.1401 200.688 85.2905C200.824 85.4364 200.893 85.6164 200.893 85.8306C200.893 86.0402 200.824 86.2179 200.688 86.3638C200.555 86.5096 200.362 86.5825 200.106 86.5825C199.851 86.5825 199.655 86.5096 199.519 86.3638C199.386 86.2179 199.32 86.0402 199.32 85.8306ZM204.29 81.7632L203.326 81.5034L203.75 76.5474H208.084V77.7163H204.769L204.536 80.4233C204.691 80.3185 204.878 80.2205 205.097 80.1294C205.315 80.0382 205.571 79.9927 205.862 79.9927C206.254 79.9927 206.603 80.0724 206.908 80.2319C207.218 80.3869 207.48 80.6102 207.694 80.9019C207.909 81.1935 208.073 81.5444 208.187 81.9546C208.3 82.3647 208.357 82.8228 208.357 83.3286C208.357 83.8071 208.3 84.2469 208.187 84.6479C208.077 85.049 207.909 85.3999 207.681 85.7007C207.457 85.9969 207.175 86.2271 206.833 86.3911C206.496 86.5552 206.102 86.6372 205.65 86.6372C205.313 86.6372 204.994 86.5825 204.693 86.4731C204.393 86.3592 204.121 86.1883 203.88 85.9604C203.643 85.728 203.449 85.4409 203.299 85.0991C203.148 84.7528 203.055 84.3472 203.019 83.8823H204.16C204.206 84.256 204.292 84.5705 204.42 84.8257C204.552 85.0809 204.721 85.2746 204.926 85.4067C205.135 85.5343 205.377 85.5981 205.65 85.5981C205.883 85.5981 206.092 85.5457 206.279 85.4409C206.466 85.3361 206.623 85.1857 206.751 84.9897C206.879 84.7938 206.977 84.5568 207.045 84.2788C207.113 84.0008 207.147 83.6886 207.147 83.3423C207.147 83.0278 207.113 82.7362 207.045 82.4673C206.977 82.1984 206.874 81.9637 206.737 81.7632C206.601 81.5627 206.434 81.4077 206.238 81.2983C206.047 81.1844 205.824 81.1274 205.568 81.1274C205.227 81.1274 204.974 81.1844 204.81 81.2983C204.65 81.4123 204.477 81.5672 204.29 81.7632Z" fill="black"/>
<mask id="path-24-inside-8_1190_23686" fill="white">
<path d="M131.332 97.667H262.665V131H131.332V97.667Z"/>
</mask>
<path d="M262.665 130H131.332V132H262.665V130Z" fill="#C2C6C7" mask="url(#path-24-inside-8_1190_23686)"/>
<path d="M188.902 108.826V118.834H187.692V110.405L185.601 111.335V110.193L188.718 108.826H188.902ZM197.714 108.881V109.592L194.289 118.834H193.018L196.442 109.92H192.006V108.881H197.714ZM199.32 118.164C199.32 117.95 199.386 117.77 199.519 117.624C199.655 117.473 199.851 117.398 200.106 117.398C200.362 117.398 200.555 117.473 200.688 117.624C200.824 117.77 200.893 117.95 200.893 118.164C200.893 118.373 200.824 118.551 200.688 118.697C200.555 118.843 200.362 118.916 200.106 118.916C199.851 118.916 199.655 118.843 199.519 118.697C199.386 118.551 199.32 118.373 199.32 118.164ZM204.379 113.235H205.158C205.505 113.235 205.792 113.162 206.02 113.016C206.247 112.866 206.416 112.663 206.525 112.408C206.639 112.148 206.696 111.857 206.696 111.533C206.696 111.15 206.646 110.829 206.546 110.569C206.446 110.309 206.295 110.113 206.095 109.981C205.899 109.849 205.65 109.783 205.35 109.783C205.067 109.783 204.821 109.854 204.611 109.995C204.402 110.132 204.24 110.328 204.126 110.583C204.012 110.838 203.955 111.139 203.955 111.485H202.752C202.752 110.979 202.857 110.519 203.066 110.104C203.281 109.69 203.581 109.359 203.969 109.113C204.361 108.867 204.821 108.744 205.35 108.744C205.855 108.744 206.3 108.851 206.683 109.065C207.065 109.275 207.364 109.589 207.578 110.009C207.797 110.423 207.906 110.941 207.906 111.56C207.906 111.811 207.858 112.08 207.763 112.367C207.672 112.649 207.523 112.914 207.318 113.16C207.118 113.406 206.854 113.609 206.525 113.768C206.202 113.923 205.805 114.001 205.336 114.001H204.379V113.235ZM204.379 114.274V113.515H205.336C205.892 113.515 206.345 113.591 206.696 113.741C207.047 113.891 207.318 114.092 207.51 114.343C207.701 114.593 207.833 114.869 207.906 115.17C207.984 115.466 208.022 115.762 208.022 116.058C208.022 116.523 207.954 116.936 207.817 117.296C207.685 117.656 207.496 117.961 207.25 118.212C207.008 118.462 206.726 118.651 206.402 118.779C206.079 118.907 205.726 118.97 205.343 118.97C204.969 118.97 204.623 118.909 204.304 118.786C203.985 118.663 203.704 118.485 203.463 118.253C203.221 118.016 203.032 117.726 202.896 117.385C202.763 117.038 202.697 116.644 202.697 116.202H203.907C203.907 116.548 203.964 116.851 204.078 117.111C204.192 117.371 204.356 117.574 204.57 117.719C204.785 117.861 205.042 117.931 205.343 117.931C205.644 117.931 205.903 117.865 206.122 117.733C206.341 117.596 206.509 117.391 206.628 117.118C206.751 116.844 206.812 116.5 206.812 116.086C206.812 115.671 206.744 115.331 206.607 115.067C206.475 114.798 206.286 114.6 206.04 114.472C205.794 114.34 205.5 114.274 205.158 114.274H204.379Z" fill="black"/>
<mask id="path-27-inside-9_1190_23686" fill="white">
<path d="M131.332 130H262.665V163.334H131.332V130Z"/>
</mask>
<path d="M262.665 162.334H131.332V164.334H262.665V162.334Z" fill="#C2C6C7" mask="url(#path-27-inside-9_1190_23686)"/>
<path d="M188.902 141.159V151.167H187.692V142.738L185.601 143.668V142.526L188.718 141.159H188.902ZM197.529 148.474C197.529 149.08 197.413 149.595 197.181 150.019C196.948 150.438 196.632 150.757 196.23 150.976C195.829 151.194 195.376 151.304 194.87 151.304C194.369 151.304 193.918 151.194 193.517 150.976C193.116 150.757 192.799 150.438 192.566 150.019C192.334 149.595 192.218 149.08 192.218 148.474C192.218 148.077 192.282 147.715 192.409 147.387C192.537 147.054 192.717 146.765 192.949 146.519C193.186 146.272 193.466 146.083 193.79 145.951C194.114 145.814 194.471 145.746 194.863 145.746C195.378 145.746 195.836 145.865 196.237 146.102C196.638 146.334 196.953 146.655 197.181 147.065C197.413 147.476 197.529 147.945 197.529 148.474ZM196.326 148.446C196.326 148.077 196.265 147.751 196.142 147.469C196.023 147.182 195.854 146.958 195.636 146.799C195.417 146.639 195.16 146.56 194.863 146.56C194.562 146.56 194.305 146.639 194.091 146.799C193.877 146.958 193.71 147.182 193.592 147.469C193.478 147.751 193.421 148.077 193.421 148.446C193.421 148.829 193.478 149.157 193.592 149.431C193.706 149.7 193.87 149.907 194.084 150.053C194.303 150.194 194.567 150.265 194.877 150.265C195.182 150.265 195.442 150.194 195.656 150.053C195.875 149.907 196.041 149.7 196.155 149.431C196.269 149.157 196.326 148.829 196.326 148.446ZM197.345 143.805C197.345 144.288 197.238 144.723 197.023 145.11C196.809 145.498 196.515 145.803 196.142 146.026C195.772 146.25 195.351 146.361 194.877 146.361C194.394 146.361 193.965 146.25 193.592 146.026C193.218 145.803 192.926 145.498 192.717 145.11C192.507 144.723 192.402 144.288 192.402 143.805C192.402 143.226 192.507 142.734 192.717 142.328C192.931 141.923 193.225 141.613 193.599 141.398C193.972 141.184 194.398 141.077 194.877 141.077C195.36 141.077 195.786 141.184 196.155 141.398C196.524 141.613 196.814 141.923 197.023 142.328C197.238 142.734 197.345 143.226 197.345 143.805ZM196.135 143.825C196.135 143.493 196.082 143.199 195.978 142.943C195.877 142.688 195.731 142.488 195.54 142.342C195.353 142.191 195.132 142.116 194.877 142.116C194.622 142.116 194.398 142.187 194.207 142.328C194.02 142.465 193.874 142.661 193.77 142.916C193.665 143.171 193.612 143.474 193.612 143.825C193.612 144.167 193.662 144.465 193.763 144.721C193.868 144.976 194.016 145.174 194.207 145.315C194.398 145.457 194.622 145.527 194.877 145.527C195.132 145.527 195.353 145.457 195.54 145.315C195.731 145.174 195.877 144.976 195.978 144.721C196.082 144.465 196.135 144.167 196.135 143.825ZM199.32 150.497C199.32 150.283 199.386 150.103 199.519 149.957C199.655 149.807 199.851 149.731 200.106 149.731C200.362 149.731 200.555 149.807 200.688 149.957C200.824 150.103 200.893 150.283 200.893 150.497C200.893 150.707 200.824 150.884 200.688 151.03C200.555 151.176 200.362 151.249 200.106 151.249C199.851 151.249 199.655 151.176 199.519 151.03C199.386 150.884 199.32 150.707 199.32 150.497ZM208.392 150.128V151.167H202.827V150.258L205.568 146.628C205.906 146.181 206.163 145.803 206.341 145.493C206.519 145.179 206.642 144.898 206.71 144.652C206.778 144.402 206.812 144.146 206.812 143.887C206.812 143.559 206.76 143.262 206.655 142.998C206.55 142.729 206.398 142.515 206.197 142.355C205.997 142.196 205.755 142.116 205.473 142.116C205.104 142.116 204.8 142.203 204.563 142.376C204.331 142.545 204.16 142.782 204.051 143.087C203.941 143.392 203.887 143.743 203.887 144.14H202.677C202.677 143.579 202.779 143.066 202.984 142.602C203.194 142.137 203.506 141.768 203.921 141.494C204.336 141.216 204.853 141.077 205.473 141.077C206.006 141.077 206.462 141.189 206.84 141.412C207.223 141.631 207.514 141.941 207.715 142.342C207.92 142.738 208.022 143.203 208.022 143.736C208.022 144.028 207.981 144.324 207.899 144.625C207.822 144.921 207.713 145.217 207.571 145.514C207.435 145.81 207.273 146.102 207.086 146.389C206.899 146.676 206.699 146.958 206.484 147.236L204.276 150.128H208.392Z" fill="black"/>
<mask id="path-30-inside-10_1190_23686" fill="white">
<path d="M131.332 162.334H262.665V195.667H131.332V162.334Z"/>
</mask>
<path d="M262.665 194.667H131.332V196.667H262.665V194.667Z" fill="#C2C6C7" mask="url(#path-30-inside-10_1190_23686)"/>
<path d="M188.902 173.493V183.5H187.692V175.072L185.601 176.001V174.86L188.718 173.493H188.902ZM197.529 180.807C197.529 181.413 197.413 181.928 197.181 182.352C196.948 182.771 196.632 183.09 196.23 183.309C195.829 183.528 195.376 183.637 194.87 183.637C194.369 183.637 193.918 183.528 193.517 183.309C193.116 183.09 192.799 182.771 192.566 182.352C192.334 181.928 192.218 181.413 192.218 180.807C192.218 180.411 192.282 180.048 192.409 179.72C192.537 179.388 192.717 179.098 192.949 178.852C193.186 178.606 193.466 178.417 193.79 178.285C194.114 178.148 194.471 178.08 194.863 178.08C195.378 178.08 195.836 178.198 196.237 178.435C196.638 178.667 196.953 178.989 197.181 179.399C197.413 179.809 197.529 180.278 197.529 180.807ZM196.326 180.78C196.326 180.411 196.265 180.085 196.142 179.802C196.023 179.515 195.854 179.292 195.636 179.132C195.417 178.973 195.16 178.893 194.863 178.893C194.562 178.893 194.305 178.973 194.091 179.132C193.877 179.292 193.71 179.515 193.592 179.802C193.478 180.085 193.421 180.411 193.421 180.78C193.421 181.163 193.478 181.491 193.592 181.764C193.706 182.033 193.87 182.24 194.084 182.386C194.303 182.528 194.567 182.598 194.877 182.598C195.182 182.598 195.442 182.528 195.656 182.386C195.875 182.24 196.041 182.033 196.155 181.764C196.269 181.491 196.326 181.163 196.326 180.78ZM197.345 176.138C197.345 176.621 197.238 177.056 197.023 177.444C196.809 177.831 196.515 178.137 196.142 178.36C195.772 178.583 195.351 178.695 194.877 178.695C194.394 178.695 193.965 178.583 193.592 178.36C193.218 178.137 192.926 177.831 192.717 177.444C192.507 177.056 192.402 176.621 192.402 176.138C192.402 175.559 192.507 175.067 192.717 174.662C192.931 174.256 193.225 173.946 193.599 173.732C193.972 173.518 194.398 173.411 194.877 173.411C195.36 173.411 195.786 173.518 196.155 173.732C196.524 173.946 196.814 174.256 197.023 174.662C197.238 175.067 197.345 175.559 197.345 176.138ZM196.135 176.159C196.135 175.826 196.082 175.532 195.978 175.277C195.877 175.022 195.731 174.821 195.54 174.675C195.353 174.525 195.132 174.45 194.877 174.45C194.622 174.45 194.398 174.52 194.207 174.662C194.02 174.798 193.874 174.994 193.77 175.25C193.665 175.505 193.612 175.808 193.612 176.159C193.612 176.5 193.662 176.799 193.763 177.054C193.868 177.309 194.016 177.508 194.207 177.649C194.398 177.79 194.622 177.861 194.877 177.861C195.132 177.861 195.353 177.79 195.54 177.649C195.731 177.508 195.877 177.309 195.978 177.054C196.082 176.799 196.135 176.5 196.135 176.159ZM199.32 182.831C199.32 182.616 199.386 182.436 199.519 182.291C199.655 182.14 199.851 182.065 200.106 182.065C200.362 182.065 200.555 182.14 200.688 182.291C200.824 182.436 200.893 182.616 200.893 182.831C200.893 183.04 200.824 183.218 200.688 183.364C200.555 183.51 200.362 183.583 200.106 183.583C199.851 183.583 199.655 183.51 199.519 183.364C199.386 183.218 199.32 183.04 199.32 182.831ZM203.921 182.441H204.017C204.632 182.441 205.126 182.338 205.5 182.133C205.874 181.928 206.154 181.653 206.341 181.306C206.532 180.96 206.66 180.57 206.724 180.137C206.792 179.7 206.826 179.251 206.826 178.791V177.266C206.826 176.815 206.783 176.414 206.696 176.063C206.614 175.712 206.503 175.418 206.361 175.181C206.225 174.944 206.067 174.764 205.89 174.641C205.716 174.518 205.539 174.457 205.356 174.457C205.124 174.457 204.919 174.516 204.741 174.634C204.563 174.748 204.413 174.91 204.29 175.12C204.172 175.329 204.08 175.575 204.017 175.858C203.953 176.14 203.921 176.448 203.921 176.781C203.921 177.077 203.948 177.364 204.003 177.642C204.058 177.92 204.142 178.171 204.256 178.394C204.374 178.617 204.52 178.795 204.693 178.927C204.871 179.055 205.081 179.119 205.322 179.119C205.523 179.119 205.716 179.064 205.903 178.955C206.095 178.841 206.268 178.688 206.423 178.497C206.578 178.301 206.705 178.08 206.806 177.833C206.906 177.587 206.965 177.33 206.983 177.061H207.551C207.551 177.439 207.489 177.813 207.366 178.182C207.248 178.547 207.077 178.879 206.854 179.18C206.635 179.481 206.377 179.722 206.081 179.905C205.789 180.083 205.468 180.171 205.117 180.171C204.693 180.171 204.331 180.076 204.03 179.884C203.729 179.693 203.483 179.438 203.292 179.119C203.105 178.8 202.966 178.444 202.875 178.052C202.784 177.656 202.738 177.255 202.738 176.849C202.738 176.375 202.793 175.931 202.902 175.516C203.012 175.101 203.174 174.737 203.388 174.422C203.606 174.103 203.88 173.855 204.208 173.677C204.536 173.5 204.919 173.411 205.356 173.411C205.844 173.411 206.259 173.525 206.601 173.752C206.942 173.98 207.218 174.286 207.428 174.668C207.637 175.051 207.79 175.482 207.886 175.96C207.981 176.439 208.029 176.931 208.029 177.437V177.895C208.029 178.41 208.004 178.934 207.954 179.467C207.909 179.996 207.811 180.502 207.66 180.985C207.514 181.468 207.296 181.901 207.004 182.284C206.712 182.662 206.323 182.963 205.835 183.186C205.352 183.405 204.746 183.514 204.017 183.514H203.928L203.921 182.441Z" fill="black"/>
<rect width="131.333" height="33.3333" transform="translate(262.668 0.666992)" fill="#C2C6C7"/>
<path d="M285.883 15.9958V17.7253C285.883 18.4272 285.805 19.0447 285.65 19.5779C285.5 20.1065 285.279 20.5486 284.987 20.9041C284.696 21.2595 284.345 21.5261 283.935 21.7039C283.524 21.8816 283.062 21.9705 282.547 21.9705C282.05 21.9705 281.597 21.8816 281.187 21.7039C280.776 21.5261 280.423 21.2595 280.127 20.9041C279.831 20.5486 279.601 20.1065 279.437 19.5779C279.277 19.0447 279.197 18.4272 279.197 17.7253V15.9958C279.197 15.294 279.277 14.6788 279.437 14.1501C279.596 13.6169 279.824 13.1726 280.12 12.8171C280.416 12.4617 280.77 12.1951 281.18 12.0173C281.59 11.835 282.043 11.7439 282.54 11.7439C283.055 11.7439 283.518 11.835 283.928 12.0173C284.342 12.1951 284.693 12.4617 284.98 12.8171C285.272 13.1726 285.495 13.6169 285.65 14.1501C285.805 14.6788 285.883 15.294 285.883 15.9958ZM284.639 17.7253V15.9822C284.639 15.4353 284.593 14.9659 284.502 14.574C284.411 14.1775 284.276 13.8539 284.099 13.6033C283.921 13.3526 283.702 13.1681 283.442 13.0496C283.183 12.9265 282.882 12.865 282.54 12.865C282.216 12.865 281.925 12.9265 281.665 13.0496C281.41 13.1681 281.191 13.3526 281.009 13.6033C280.826 13.8539 280.685 14.1775 280.585 14.574C280.489 14.9659 280.441 15.4353 280.441 15.9822V17.7253C280.441 18.2768 280.489 18.7507 280.585 19.1472C280.685 19.5391 280.826 19.8627 281.009 20.1179C281.196 20.3686 281.419 20.5554 281.679 20.6785C281.938 20.797 282.228 20.8562 282.547 20.8562C282.889 20.8562 283.189 20.797 283.449 20.6785C283.714 20.5554 283.932 20.3686 284.105 20.1179C284.283 19.8627 284.415 19.5391 284.502 19.1472C284.593 18.7507 284.639 18.2768 284.639 17.7253ZM292.965 11.8806V12.9607H289.055V21.8337H287.797V11.8806H292.965ZM288.788 15.9343H291.051C291.666 15.9343 292.186 16.0574 292.609 16.3035C293.038 16.545 293.361 16.8845 293.58 17.322C293.803 17.7595 293.915 18.2722 293.915 18.8601C293.915 19.2976 293.851 19.6986 293.724 20.0632C293.601 20.4233 293.416 20.7377 293.17 21.0066C292.928 21.2709 292.63 21.476 292.274 21.6218C291.919 21.7631 291.511 21.8337 291.051 21.8337H287.797V11.8806H289.055V20.7605H291.051C291.434 20.7605 291.741 20.6716 291.974 20.4939C292.211 20.3116 292.384 20.0746 292.493 19.783C292.603 19.4913 292.657 19.1791 292.657 18.8464C292.657 18.5138 292.603 18.2084 292.493 17.9304C292.384 17.6524 292.211 17.4314 291.974 17.2673C291.741 17.0987 291.434 17.0144 291.051 17.0144H288.788V15.9343ZM296.349 11.8806L298.235 15.6951L300.108 11.8806H301.571L298.98 16.8093L301.626 21.8337H300.149L298.235 17.9441L296.314 21.8337H294.831L297.483 16.8093L294.886 11.8806H296.349ZM306.172 17.1785H304.148L304.135 16.1189H306.015C306.297 16.1189 306.548 16.0551 306.767 15.9275C306.985 15.7999 307.156 15.6176 307.279 15.3806C307.407 15.1391 307.471 14.852 307.471 14.5193C307.471 14.1547 307.416 13.8585 307.307 13.6306C307.202 13.3982 307.04 13.2296 306.821 13.1248C306.607 13.0154 306.334 12.9607 306.001 12.9607H304.415V21.8337H303.157V11.8806H306.001C306.429 11.8806 306.812 11.933 307.149 12.0378C307.487 12.1381 307.771 12.2976 308.004 12.5164C308.241 12.7306 308.421 13.004 308.544 13.3367C308.667 13.6694 308.729 14.0681 308.729 14.533C308.729 14.9431 308.635 15.3145 308.448 15.6472C308.266 15.9753 308.011 16.2442 307.683 16.4539C307.354 16.6635 306.976 16.7979 306.548 16.8572L306.172 17.1785ZM306.124 21.8337H303.629L304.36 20.7605H306.124C306.452 20.7605 306.73 20.6876 306.958 20.5417C307.186 20.3959 307.359 20.1908 307.478 19.9265C307.601 19.6576 307.662 19.3409 307.662 18.9763C307.662 18.6072 307.612 18.2882 307.512 18.0193C307.411 17.7504 307.252 17.5431 307.033 17.3972C306.814 17.2514 306.527 17.1785 306.172 17.1785H304.552L304.565 16.1189H306.753L307.033 16.5017C307.443 16.5427 307.787 16.6794 308.065 16.9119C308.348 17.1397 308.56 17.4314 308.701 17.7869C308.847 18.1423 308.92 18.5343 308.92 18.9626C308.92 19.5824 308.804 20.1065 308.571 20.5349C308.343 20.9587 308.02 21.2823 307.601 21.5056C307.181 21.7244 306.689 21.8337 306.124 21.8337ZM314.026 12.7625L311.306 21.8337H310.021L313.227 11.8806H314.033L314.026 12.7625ZM316.228 21.8337L313.507 12.7625L313.493 11.8806H314.307L317.513 21.8337H316.228ZM316.228 18.1492V19.2292H311.429V18.1492H316.228ZM321.19 11.8806V21.8337H319.946V11.8806H321.19ZM323.809 11.8806V12.9607H317.335V11.8806H323.809ZM334.685 11.8806V21.8337H333.427V12.9607H329.537V21.8337H328.279V11.8806H334.685ZM340.14 12.7625L337.419 21.8337H336.134L339.34 11.8806H340.146L340.14 12.7625ZM342.341 21.8337L339.62 12.7625L339.606 11.8806H340.42L343.626 21.8337H342.341ZM342.341 18.1492V19.2292H337.542V18.1492H342.341ZM350.414 11.8806V12.9607H346.695V11.8806H350.414ZM351.521 11.8806V21.8337H350.264V11.8806H351.521ZM346.271 11.8806H347.522L347.345 16.7546C347.322 17.4565 347.279 18.0831 347.215 18.6345C347.151 19.1814 347.06 19.6576 346.941 20.0632C346.823 20.4643 346.668 20.797 346.477 21.0613C346.285 21.321 346.05 21.5147 345.772 21.6423C345.499 21.7699 345.173 21.8337 344.795 21.8337H344.467V20.7605L344.706 20.74C344.916 20.7218 345.096 20.6648 345.246 20.5691C345.401 20.4688 345.529 20.3184 345.629 20.1179C345.734 19.9174 345.818 19.6576 345.882 19.3386C345.95 19.0196 346.003 18.63 346.039 18.1697C346.076 17.7048 346.103 17.1625 346.121 16.5427L346.271 11.8806ZM354.7 15.9343H356.963C357.578 15.9343 358.098 16.0574 358.521 16.3035C358.95 16.545 359.273 16.8845 359.492 17.322C359.715 17.7595 359.827 18.2722 359.827 18.8601C359.827 19.2976 359.763 19.6986 359.636 20.0632C359.513 20.4233 359.328 20.7377 359.082 21.0066C358.84 21.2709 358.542 21.476 358.187 21.6218C357.831 21.7631 357.423 21.8337 356.963 21.8337H353.709V11.8806H354.967V20.7605H356.963C357.346 20.7605 357.653 20.6716 357.886 20.4939C358.123 20.3116 358.296 20.0746 358.405 19.783C358.515 19.4913 358.569 19.1791 358.569 18.8464C358.569 18.5138 358.515 18.2084 358.405 17.9304C358.296 17.6524 358.123 17.4314 357.886 17.2673C357.653 17.0987 357.346 17.0144 356.963 17.0144H354.7V15.9343ZM368.837 20.7263L368.714 24.2332H367.593V21.8337H366.766V20.7263H368.837ZM361.529 21.8337V11.8806H362.787V20.7605H366.677V11.8806H367.935V21.8337H361.529ZM373.772 12.7625L371.052 21.8337H369.767L372.973 11.8806H373.779L373.772 12.7625ZM375.974 21.8337L373.253 12.7625L373.239 11.8806H374.053L377.259 21.8337H375.974ZM375.974 18.1492V19.2292H371.175V18.1492H375.974Z" fill="#111810"/>
<mask id="path-34-inside-11_1190_23686" fill="white">
<path d="M262.668 33.0002H394.001V66.3336H262.668V33.0002Z"/>
</mask>
<path d="M394.001 65.3336H262.668V67.3336H394.001V65.3336Z" fill="#C2C6C7" mask="url(#path-34-inside-11_1190_23686)"/>
<path d="M322.33 50.8174V51.8564H316.246V51.1113L319.944 44.2139H320.915L319.944 46.21L317.593 50.8174H322.33ZM321.223 44.2139V54.167H320.013V44.2139H321.223ZM324.647 53.1074H324.743C325.358 53.1074 325.853 53.0049 326.227 52.7998C326.6 52.5947 326.881 52.319 327.067 51.9727C327.259 51.6263 327.386 51.2367 327.45 50.8037C327.519 50.3662 327.553 49.9173 327.553 49.457V47.9326C327.553 47.4814 327.509 47.0804 327.423 46.7295C327.341 46.3786 327.229 46.0846 327.088 45.8477C326.951 45.6107 326.794 45.4307 326.616 45.3076C326.443 45.1846 326.265 45.123 326.083 45.123C325.851 45.123 325.646 45.1823 325.468 45.3008C325.29 45.4147 325.14 45.5765 325.017 45.7861C324.898 45.9958 324.807 46.2419 324.743 46.5244C324.679 46.807 324.647 47.1146 324.647 47.4473C324.647 47.7435 324.675 48.0306 324.729 48.3086C324.784 48.5866 324.868 48.8372 324.982 49.0605C325.101 49.2839 325.247 49.4616 325.42 49.5938C325.598 49.7214 325.807 49.7852 326.049 49.7852C326.249 49.7852 326.443 49.7305 326.63 49.6211C326.821 49.5072 326.994 49.3545 327.149 49.1631C327.304 48.9671 327.432 48.7461 327.532 48.5C327.632 48.2539 327.692 47.9964 327.71 47.7275H328.277C328.277 48.1058 328.216 48.4795 328.093 48.8486C327.974 49.2132 327.803 49.5459 327.58 49.8467C327.361 50.1475 327.104 50.389 326.808 50.5713C326.516 50.749 326.195 50.8379 325.844 50.8379C325.42 50.8379 325.058 50.7422 324.757 50.5508C324.456 50.3594 324.21 50.1042 324.019 49.7852C323.832 49.4661 323.693 49.1107 323.602 48.7188C323.51 48.3223 323.465 47.9212 323.465 47.5156C323.465 47.0417 323.52 46.5973 323.629 46.1826C323.738 45.7679 323.9 45.4033 324.114 45.0889C324.333 44.7699 324.606 44.5215 324.935 44.3438C325.263 44.166 325.646 44.0771 326.083 44.0771C326.571 44.0771 326.985 44.1911 327.327 44.4189C327.669 44.6468 327.945 44.9521 328.154 45.335C328.364 45.7178 328.517 46.1484 328.612 46.627C328.708 47.1055 328.756 47.5977 328.756 48.1035V48.5615C328.756 49.0765 328.731 49.6006 328.681 50.1338C328.635 50.6624 328.537 51.1683 328.387 51.6514C328.241 52.1344 328.022 52.5674 327.73 52.9502C327.439 53.3285 327.049 53.6292 326.562 53.8525C326.078 54.0713 325.472 54.1807 324.743 54.1807H324.654L324.647 53.1074ZM330.656 53.4971C330.656 53.2829 330.722 53.1029 330.854 52.957C330.991 52.8066 331.187 52.7314 331.442 52.7314C331.698 52.7314 331.891 52.8066 332.023 52.957C332.16 53.1029 332.229 53.2829 332.229 53.4971C332.229 53.7067 332.16 53.8844 332.023 54.0303C331.891 54.1761 331.698 54.249 331.442 54.249C331.187 54.249 330.991 54.1761 330.854 54.0303C330.722 53.8844 330.656 53.7067 330.656 53.4971ZM335.715 48.5684H336.494C336.84 48.5684 337.128 48.4954 337.355 48.3496C337.583 48.1992 337.752 47.9964 337.861 47.7412C337.975 47.4814 338.032 47.1898 338.032 46.8662C338.032 46.4834 337.982 46.1621 337.882 45.9023C337.782 45.6426 337.631 45.4466 337.431 45.3145C337.235 45.1823 336.986 45.1162 336.686 45.1162C336.403 45.1162 336.157 45.1868 335.947 45.3281C335.738 45.4648 335.576 45.6608 335.462 45.916C335.348 46.1712 335.291 46.472 335.291 46.8184H334.088C334.088 46.3125 334.193 45.8522 334.402 45.4375C334.617 45.0228 334.917 44.6924 335.305 44.4463C335.697 44.2002 336.157 44.0771 336.686 44.0771C337.191 44.0771 337.636 44.1842 338.019 44.3984C338.401 44.6081 338.7 44.9225 338.914 45.3418C339.133 45.7565 339.242 46.2738 339.242 46.8936C339.242 47.1442 339.194 47.4131 339.099 47.7002C339.007 47.9827 338.859 48.2471 338.654 48.4932C338.454 48.7393 338.189 48.9421 337.861 49.1016C337.538 49.2565 337.141 49.334 336.672 49.334H335.715V48.5684ZM335.715 49.6074V48.8486H336.672C337.228 48.8486 337.681 48.9238 338.032 49.0742C338.383 49.2246 338.654 49.4251 338.846 49.6758C339.037 49.9264 339.169 50.2021 339.242 50.5029C339.32 50.7992 339.358 51.0954 339.358 51.3916C339.358 51.8564 339.29 52.2689 339.153 52.6289C339.021 52.9889 338.832 53.2943 338.586 53.5449C338.344 53.7956 338.062 53.9847 337.738 54.1123C337.415 54.2399 337.062 54.3037 336.679 54.3037C336.305 54.3037 335.959 54.2422 335.64 54.1191C335.321 53.9961 335.04 53.8184 334.799 53.5859C334.557 53.349 334.368 53.0596 334.231 52.7178C334.099 52.3714 334.033 51.9772 334.033 51.5352H335.243C335.243 51.8815 335.3 52.1846 335.414 52.4443C335.528 52.7041 335.692 52.9069 335.906 53.0527C336.12 53.194 336.378 53.2646 336.679 53.2646C336.979 53.2646 337.239 53.1986 337.458 53.0664C337.677 52.9297 337.845 52.7246 337.964 52.4512C338.087 52.1777 338.148 51.8337 338.148 51.4189C338.148 51.0042 338.08 50.6647 337.943 50.4004C337.811 50.1315 337.622 49.9333 337.376 49.8057C337.13 49.6735 336.836 49.6074 336.494 49.6074H335.715Z" fill="black"/>
<mask id="path-37-inside-12_1190_23686" fill="white">
<path d="M262.668 65.3337H394.001V98.6671H262.668V65.3337Z"/>
</mask>
<path d="M394.001 97.6671H262.668V99.6671H394.001V97.6671Z" fill="#C2C6C7" mask="url(#path-37-inside-12_1190_23686)"/>
<path d="M318.099 81.7632L317.135 81.5034L317.559 76.5474H321.893V77.7163H318.577L318.345 80.4233C318.5 80.3185 318.687 80.2205 318.905 80.1294C319.124 80.0382 319.379 79.9927 319.671 79.9927C320.063 79.9927 320.411 80.0724 320.717 80.2319C321.027 80.3869 321.289 80.6102 321.503 80.9019C321.717 81.1935 321.881 81.5444 321.995 81.9546C322.109 82.3647 322.166 82.8228 322.166 83.3286C322.166 83.8071 322.109 84.2469 321.995 84.6479C321.886 85.049 321.717 85.3999 321.489 85.7007C321.266 85.9969 320.983 86.2271 320.642 86.3911C320.304 86.5552 319.91 86.6372 319.459 86.6372C319.122 86.6372 318.803 86.5825 318.502 86.4731C318.201 86.3592 317.93 86.1883 317.688 85.9604C317.451 85.728 317.258 85.4409 317.107 85.0991C316.957 84.7528 316.864 84.3472 316.827 83.8823H317.969C318.014 84.256 318.101 84.5705 318.229 84.8257C318.361 85.0809 318.529 85.2746 318.734 85.4067C318.944 85.5343 319.186 85.5981 319.459 85.5981C319.691 85.5981 319.901 85.5457 320.088 85.4409C320.275 85.3361 320.432 85.1857 320.56 84.9897C320.687 84.7938 320.785 84.5568 320.854 84.2788C320.922 84.0008 320.956 83.6886 320.956 83.3423C320.956 83.0278 320.922 82.7362 320.854 82.4673C320.785 82.1984 320.683 81.9637 320.546 81.7632C320.409 81.5627 320.243 81.4077 320.047 81.2983C319.855 81.1844 319.632 81.1274 319.377 81.1274C319.035 81.1274 318.782 81.1844 318.618 81.2983C318.459 81.4123 318.285 81.5672 318.099 81.7632ZM327.156 76.4927V86.5005H325.946V78.0718L323.854 79.0015V77.8599L326.972 76.4927H327.156ZM330.656 85.8306C330.656 85.6164 330.722 85.4364 330.854 85.2905C330.991 85.1401 331.187 85.0649 331.442 85.0649C331.698 85.0649 331.891 85.1401 332.023 85.2905C332.16 85.4364 332.229 85.6164 332.229 85.8306C332.229 86.0402 332.16 86.2179 332.023 86.3638C331.891 86.5096 331.698 86.5825 331.442 86.5825C331.187 86.5825 330.991 86.5096 330.854 86.3638C330.722 86.2179 330.656 86.0402 330.656 85.8306ZM335.257 85.4409H335.353C335.968 85.4409 336.462 85.3384 336.836 85.1333C337.21 84.9282 337.49 84.6525 337.677 84.3062C337.868 83.9598 337.996 83.5701 338.06 83.1372C338.128 82.6997 338.162 82.2508 338.162 81.7905V80.2661C338.162 79.8149 338.119 79.4139 338.032 79.063C337.95 78.7121 337.839 78.4181 337.697 78.1812C337.561 77.9442 337.403 77.7642 337.226 77.6411C337.052 77.5181 336.875 77.4565 336.692 77.4565C336.46 77.4565 336.255 77.5158 336.077 77.6343C335.899 77.7482 335.749 77.91 335.626 78.1196C335.507 78.3293 335.416 78.5754 335.353 78.8579C335.289 79.1405 335.257 79.4481 335.257 79.7808C335.257 80.077 335.284 80.3641 335.339 80.6421C335.394 80.9201 335.478 81.1707 335.592 81.394C335.71 81.6174 335.856 81.7951 336.029 81.9272C336.207 82.0549 336.417 82.1187 336.658 82.1187C336.859 82.1187 337.052 82.064 337.239 81.9546C337.431 81.8407 337.604 81.688 337.759 81.4966C337.914 81.3006 338.041 81.0796 338.142 80.8335C338.242 80.5874 338.301 80.3299 338.319 80.061H338.887C338.887 80.4393 338.825 80.813 338.702 81.1821C338.584 81.5467 338.413 81.8794 338.189 82.1802C337.971 82.481 337.713 82.7225 337.417 82.9048C337.125 83.0825 336.804 83.1714 336.453 83.1714C336.029 83.1714 335.667 83.0757 335.366 82.8843C335.065 82.6929 334.819 82.4377 334.628 82.1187C334.441 81.7996 334.302 81.4442 334.211 81.0522C334.12 80.6558 334.074 80.2547 334.074 79.8491C334.074 79.3752 334.129 78.9308 334.238 78.5161C334.348 78.1014 334.509 77.7368 334.724 77.4224C334.942 77.1034 335.216 76.855 335.544 76.6772C335.872 76.4995 336.255 76.4106 336.692 76.4106C337.18 76.4106 337.595 76.5246 337.937 76.7524C338.278 76.9803 338.554 77.2856 338.764 77.6685C338.973 78.0513 339.126 78.4819 339.222 78.9604C339.317 79.439 339.365 79.9312 339.365 80.437V80.895C339.365 81.41 339.34 81.9341 339.29 82.4673C339.244 82.9959 339.146 83.5018 338.996 83.9849C338.85 84.4679 338.632 84.9009 338.34 85.2837C338.048 85.6619 337.659 85.9627 337.171 86.186C336.688 86.4048 336.082 86.5142 335.353 86.5142H335.264L335.257 85.4409Z" fill="black"/>
<mask id="path-40-inside-13_1190_23686" fill="white">
<path d="M262.668 97.667H394.001V131H262.668V97.667Z"/>
</mask>
<path d="M394.001 130H262.668V132H394.001V130Z" fill="#C2C6C7" mask="url(#path-40-inside-13_1190_23686)"/>
<path d="M318.099 114.096L317.135 113.837L317.559 108.881H321.893V110.05H318.577L318.345 112.757C318.5 112.652 318.687 112.554 318.905 112.463C319.124 112.372 319.379 112.326 319.671 112.326C320.063 112.326 320.411 112.406 320.717 112.565C321.027 112.72 321.289 112.943 321.503 113.235C321.717 113.527 321.881 113.878 321.995 114.288C322.109 114.698 322.166 115.156 322.166 115.662C322.166 116.14 322.109 116.58 321.995 116.981C321.886 117.382 321.717 117.733 321.489 118.034C321.266 118.33 320.983 118.56 320.642 118.724C320.304 118.888 319.91 118.97 319.459 118.97C319.122 118.97 318.803 118.916 318.502 118.806C318.201 118.692 317.93 118.522 317.688 118.294C317.451 118.061 317.258 117.774 317.107 117.432C316.957 117.086 316.864 116.68 316.827 116.216H317.969C318.014 116.589 318.101 116.904 318.229 117.159C318.361 117.414 318.529 117.608 318.734 117.74C318.944 117.868 319.186 117.931 319.459 117.931C319.691 117.931 319.901 117.879 320.088 117.774C320.275 117.669 320.432 117.519 320.56 117.323C320.687 117.127 320.785 116.89 320.854 116.612C320.922 116.334 320.956 116.022 320.956 115.676C320.956 115.361 320.922 115.069 320.854 114.801C320.785 114.532 320.683 114.297 320.546 114.096C320.409 113.896 320.243 113.741 320.047 113.632C319.855 113.518 319.632 113.461 319.377 113.461C319.035 113.461 318.782 113.518 318.618 113.632C318.459 113.746 318.285 113.9 318.099 114.096ZM329.248 115.484V116.523H323.164V115.778L326.862 108.881H327.833L326.862 110.877L324.511 115.484H329.248ZM328.141 108.881V118.834H326.931V108.881H328.141ZM330.656 118.164C330.656 117.95 330.722 117.77 330.854 117.624C330.991 117.473 331.187 117.398 331.442 117.398C331.698 117.398 331.891 117.473 332.023 117.624C332.16 117.77 332.229 117.95 332.229 118.164C332.229 118.373 332.16 118.551 332.023 118.697C331.891 118.843 331.698 118.916 331.442 118.916C331.187 118.916 330.991 118.843 330.854 118.697C330.722 118.551 330.656 118.373 330.656 118.164ZM339.857 115.484V116.523H333.773V115.778L337.472 108.881H338.442L337.472 110.877L335.12 115.484H339.857ZM338.75 108.881V118.834H337.54V108.881H338.75Z" fill="black"/>
<mask id="path-43-inside-14_1190_23686" fill="white">
<path d="M262.668 130H394.001V163.334H262.668V130Z"/>
</mask>
<path d="M394.001 162.334H262.668V164.334H394.001V162.334Z" fill="#C2C6C7" mask="url(#path-43-inside-14_1190_23686)"/>
<path d="M323.599 146.43L322.635 146.17L323.059 141.214H327.393V142.383H324.077L323.845 145.09C324 144.985 324.187 144.887 324.405 144.796C324.624 144.705 324.879 144.659 325.171 144.659C325.563 144.659 325.911 144.739 326.217 144.898C326.527 145.053 326.789 145.277 327.003 145.568C327.217 145.86 327.381 146.211 327.495 146.621C327.609 147.031 327.666 147.489 327.666 147.995C327.666 148.474 327.609 148.913 327.495 149.314C327.386 149.715 327.217 150.066 326.989 150.367C326.766 150.663 326.483 150.894 326.142 151.058C325.804 151.222 325.41 151.304 324.959 151.304C324.622 151.304 324.303 151.249 324.002 151.14C323.701 151.026 323.43 150.855 323.188 150.627C322.951 150.395 322.758 150.107 322.607 149.766C322.457 149.419 322.364 149.014 322.327 148.549H323.469C323.514 148.923 323.601 149.237 323.729 149.492C323.861 149.747 324.029 149.941 324.234 150.073C324.444 150.201 324.686 150.265 324.959 150.265C325.191 150.265 325.401 150.212 325.588 150.107C325.775 150.003 325.932 149.852 326.06 149.656C326.187 149.46 326.285 149.223 326.354 148.945C326.422 148.667 326.456 148.355 326.456 148.009C326.456 147.694 326.422 147.403 326.354 147.134C326.285 146.865 326.183 146.63 326.046 146.43C325.909 146.229 325.743 146.074 325.547 145.965C325.355 145.851 325.132 145.794 324.877 145.794C324.535 145.794 324.282 145.851 324.118 145.965C323.959 146.079 323.785 146.234 323.599 146.43ZM334.55 141.214V141.925L331.125 151.167H329.854L333.278 142.253H328.842V141.214H334.55Z" fill="black"/>
<mask id="path-46-inside-15_1190_23686" fill="white">
<path d="M262.668 162.334H394.001V195.667H262.668V162.334Z"/>
</mask>
<path d="M394.001 194.667H262.668V196.667H394.001V194.667Z" fill="#C2C6C7" mask="url(#path-46-inside-15_1190_23686)"/>
<path d="M318.099 178.763L317.135 178.503L317.559 173.547H321.893V174.716H318.577L318.345 177.423C318.5 177.319 318.687 177.221 318.905 177.129C319.124 177.038 319.379 176.993 319.671 176.993C320.063 176.993 320.411 177.072 320.717 177.232C321.027 177.387 321.289 177.61 321.503 177.902C321.717 178.194 321.881 178.544 321.995 178.955C322.109 179.365 322.166 179.823 322.166 180.329C322.166 180.807 322.109 181.247 321.995 181.648C321.886 182.049 321.717 182.4 321.489 182.701C321.266 182.997 320.983 183.227 320.642 183.391C320.304 183.555 319.91 183.637 319.459 183.637C319.122 183.637 318.803 183.583 318.502 183.473C318.201 183.359 317.93 183.188 317.688 182.96C317.451 182.728 317.258 182.441 317.107 182.099C316.957 181.753 316.864 181.347 316.827 180.882H317.969C318.014 181.256 318.101 181.57 318.229 181.826C318.361 182.081 318.529 182.275 318.734 182.407C318.944 182.534 319.186 182.598 319.459 182.598C319.691 182.598 319.901 182.546 320.088 182.441C320.275 182.336 320.432 182.186 320.56 181.99C320.687 181.794 320.785 181.557 320.854 181.279C320.922 181.001 320.956 180.689 320.956 180.342C320.956 180.028 320.922 179.736 320.854 179.467C320.785 179.198 320.683 178.964 320.546 178.763C320.409 178.563 320.243 178.408 320.047 178.298C319.855 178.184 319.632 178.127 319.377 178.127C319.035 178.127 318.782 178.184 318.618 178.298C318.459 178.412 318.285 178.567 318.099 178.763ZM324.647 182.441H324.743C325.358 182.441 325.853 182.338 326.227 182.133C326.6 181.928 326.881 181.653 327.067 181.306C327.259 180.96 327.386 180.57 327.45 180.137C327.519 179.7 327.553 179.251 327.553 178.791V177.266C327.553 176.815 327.509 176.414 327.423 176.063C327.341 175.712 327.229 175.418 327.088 175.181C326.951 174.944 326.794 174.764 326.616 174.641C326.443 174.518 326.265 174.457 326.083 174.457C325.851 174.457 325.646 174.516 325.468 174.634C325.29 174.748 325.14 174.91 325.017 175.12C324.898 175.329 324.807 175.575 324.743 175.858C324.679 176.14 324.647 176.448 324.647 176.781C324.647 177.077 324.675 177.364 324.729 177.642C324.784 177.92 324.868 178.171 324.982 178.394C325.101 178.617 325.247 178.795 325.42 178.927C325.598 179.055 325.807 179.119 326.049 179.119C326.249 179.119 326.443 179.064 326.63 178.955C326.821 178.841 326.994 178.688 327.149 178.497C327.304 178.301 327.432 178.08 327.532 177.833C327.632 177.587 327.692 177.33 327.71 177.061H328.277C328.277 177.439 328.216 177.813 328.093 178.182C327.974 178.547 327.803 178.879 327.58 179.18C327.361 179.481 327.104 179.722 326.808 179.905C326.516 180.083 326.195 180.171 325.844 180.171C325.42 180.171 325.058 180.076 324.757 179.884C324.456 179.693 324.21 179.438 324.019 179.119C323.832 178.8 323.693 178.444 323.602 178.052C323.51 177.656 323.465 177.255 323.465 176.849C323.465 176.375 323.52 175.931 323.629 175.516C323.738 175.101 323.9 174.737 324.114 174.422C324.333 174.103 324.606 173.855 324.935 173.677C325.263 173.5 325.646 173.411 326.083 173.411C326.571 173.411 326.985 173.525 327.327 173.752C327.669 173.98 327.945 174.286 328.154 174.668C328.364 175.051 328.517 175.482 328.612 175.96C328.708 176.439 328.756 176.931 328.756 177.437V177.895C328.756 178.41 328.731 178.934 328.681 179.467C328.635 179.996 328.537 180.502 328.387 180.985C328.241 181.468 328.022 181.901 327.73 182.284C327.439 182.662 327.049 182.963 326.562 183.186C326.078 183.405 325.472 183.514 324.743 183.514H324.654L324.647 182.441ZM330.656 182.831C330.656 182.616 330.722 182.436 330.854 182.291C330.991 182.14 331.187 182.065 331.442 182.065C331.698 182.065 331.891 182.14 332.023 182.291C332.16 182.436 332.229 182.616 332.229 182.831C332.229 183.04 332.16 183.218 332.023 183.364C331.891 183.51 331.698 183.583 331.442 183.583C331.187 183.583 330.991 183.51 330.854 183.364C330.722 183.218 330.656 183.04 330.656 182.831ZM335.626 178.763L334.662 178.503L335.086 173.547H339.42V174.716H336.104L335.872 177.423C336.027 177.319 336.214 177.221 336.433 177.129C336.651 177.038 336.907 176.993 337.198 176.993C337.59 176.993 337.939 177.072 338.244 177.232C338.554 177.387 338.816 177.61 339.03 177.902C339.244 178.194 339.409 178.544 339.522 178.955C339.636 179.365 339.693 179.823 339.693 180.329C339.693 180.807 339.636 181.247 339.522 181.648C339.413 182.049 339.244 182.4 339.017 182.701C338.793 182.997 338.511 183.227 338.169 183.391C337.832 183.555 337.438 183.637 336.986 183.637C336.649 183.637 336.33 183.583 336.029 183.473C335.729 183.359 335.457 183.188 335.216 182.96C334.979 182.728 334.785 182.441 334.635 182.099C334.484 181.753 334.391 181.347 334.354 180.882H335.496C335.542 181.256 335.628 181.57 335.756 181.826C335.888 182.081 336.057 182.275 336.262 182.407C336.471 182.534 336.713 182.598 336.986 182.598C337.219 182.598 337.428 182.546 337.615 182.441C337.802 182.336 337.959 182.186 338.087 181.99C338.215 181.794 338.312 181.557 338.381 181.279C338.449 181.001 338.483 180.689 338.483 180.342C338.483 180.028 338.449 179.736 338.381 179.467C338.312 179.198 338.21 178.964 338.073 178.763C337.937 178.563 337.77 178.408 337.574 178.298C337.383 178.184 337.16 178.127 336.904 178.127C336.562 178.127 336.31 178.184 336.146 178.298C335.986 178.412 335.813 178.567 335.626 178.763Z" fill="black"/>
</svg>
